<svg xmlns="http://www.w3.org/2000/svg" xmlns:xlink="http://www.w3.org/1999/xlink" width="401.47" height="575.291" viewBox="0 0 401.47 575.291">
  <defs>
    <clipPath id="clip-path">
      <rect id="長方形_170" data-name="長方形 170" width="338.62" height="575.291" transform="translate(1205.91 400.695)" fill="none"/>
    </clipPath>
    <clipPath id="clip-path-2">
      <rect id="長方形_177" data-name="長方形 177" width="124.51" height="73.371" transform="translate(1174.09 731.041)" fill="none"/>
    </clipPath>
    <clipPath id="clip-path-3">
      <path id="パス_1291" data-name="パス 1291" d="M1269.437,748.236c11.25,9.822,29.16,19,29.16,19s-10.818-15.887-22.086-25.709-16.724-11.709-18.679-9.842c-1.949,1.85.345,6.733,11.6,16.553" fill="none"/>
    </clipPath>
    <radialGradient id="radial-gradient" cx="0.516" cy="0.516" r="0.52" gradientTransform="matrix(0.876, 0, 0, -1, -3.646, 13.158)" gradientUnits="objectBoundingBox">
      <stop offset="0" stop-color="#eec3a4"/>
      <stop offset="0.579" stop-color="#df8b58"/>
      <stop offset="1" stop-color="#8b5532"/>
    </radialGradient>
    <clipPath id="clip-path-4">
      <path id="パス_1294" data-name="パス 1294" d="M1250.963,754.861c6.486,15.514,20.351,33.371,20.351,33.371S1268.619,766.5,1262.14,751s-11.22-20-14.314-18.934-3.354,7.289,3.137,22.8" fill="none"/>
    </clipPath>
    <radialGradient id="radial-gradient-2" cx="0.523" cy="0.508" r="0.382" gradientTransform="matrix(2.132, 0, 0, -1, 52.495, 8.561)" xlink:href="#radial-gradient"/>
    <clipPath id="clip-path-5">
      <path id="パス_1297" data-name="パス 1297" d="M1203.248,748.236c-11.252,9.822-29.162,19-29.162,19s10.828-15.887,22.086-25.709,16.724-11.709,18.679-9.842c1.961,1.85-.345,6.733-11.6,16.553" fill="none"/>
    </clipPath>
    <radialGradient id="radial-gradient-3" cx="0.484" cy="0.516" r="0.52" gradientTransform="matrix(0.876, 0, 0, -1, -3.414, 13.158)" xlink:href="#radial-gradient"/>
    <clipPath id="clip-path-6">
      <path id="パス_1300" data-name="パス 1300" d="M1221.722,754.861c-6.494,15.514-20.353,33.371-20.353,33.371s2.682-21.732,9.182-37.236c6.472-15.516,11.216-20,14.3-18.934s3.358,7.289-3.131,22.8" fill="none"/>
    </clipPath>
    <radialGradient id="radial-gradient-4" cx="0.477" cy="0.508" r="0.382" gradientTransform="matrix(2.132, 0, 0, -1, 50.676, 8.561)" xlink:href="#radial-gradient"/>
    <clipPath id="clip-path-7">
      <path id="パス_1303" data-name="パス 1303" d="M1228.459,759.021c0,19.938,7.189,45.391,7.189,45.391s7.186-25.453,7.186-45.391-3.215-26.818-7.186-26.818c-3.955,0-7.189,6.883-7.189,26.818" fill="none"/>
    </clipPath>
    <radialGradient id="radial-gradient-5" cx="0.5" cy="0.5" r="0.36" gradientTransform="matrix(5.023, 0, 0, -1, 343.818, 6.752)" xlink:href="#radial-gradient"/>
    <clipPath id="clip-path-8">
      <rect id="長方形_183" data-name="長方形 183" width="84.4" height="49.713" transform="translate(1229.52 768.265)" fill="none"/>
    </clipPath>
    <clipPath id="clip-path-9">
      <path id="パス_1306" data-name="パス 1306" d="M1294.146,779.914c7.623,6.658,19.77,12.873,19.77,12.873s-7.34-10.764-14.965-17.416-11.336-7.934-12.662-6.672.236,4.559,7.857,11.215" fill="none"/>
    </clipPath>
    <radialGradient id="radial-gradient-6" cx="0.516" cy="0.516" r="0.52" gradientTransform="matrix(0.876, 0, 0, -1, -5.521, 16.454)" gradientUnits="objectBoundingBox">
      <stop offset="0" stop-color="#c8dca0"/>
      <stop offset="0.579" stop-color="#99c965"/>
      <stop offset="1" stop-color="#5e8742"/>
    </radialGradient>
    <clipPath id="clip-path-10">
      <path id="パス_1309" data-name="パス 1309" d="M1281.629,784.4c4.4,10.5,13.791,22.613,13.791,22.613s-1.817-14.724-6.225-25.234c-4.391-10.506-7.6-13.543-9.689-12.824s-2.274,4.939,2.123,15.445" fill="none"/>
    </clipPath>
    <radialGradient id="radial-gradient-7" cx="0.523" cy="0.508" r="0.382" gradientTransform="matrix(2.132, 0, 0, -1, 79.496, 10.715)" xlink:href="#radial-gradient-6"/>
    <clipPath id="clip-path-11">
      <path id="パス_1312" data-name="パス 1312" d="M1249.3,779.914c-7.627,6.658-19.776,12.873-19.776,12.873s7.348-10.764,14.975-17.416,11.34-7.934,12.66-6.672-.232,4.559-7.859,11.215" fill="none"/>
    </clipPath>
    <radialGradient id="radial-gradient-8" cx="0.484" cy="0.516" r="0.52" gradientTransform="matrix(0.875, 0, 0, -1, -5.298, 16.454)" xlink:href="#radial-gradient-6"/>
    <clipPath id="clip-path-12">
      <path id="パス_1315" data-name="パス 1315" d="M1261.812,784.4c-4.394,10.5-13.791,22.613-13.791,22.613s1.813-14.724,6.217-25.234,7.611-13.543,9.7-12.824,2.266,4.939-2.131,15.445" fill="none"/>
    </clipPath>
    <radialGradient id="radial-gradient-9" cx="0.477" cy="0.508" r="0.382" gradientTransform="matrix(2.132, 0, 0, -1, 77.678, 10.715)" xlink:href="#radial-gradient-6"/>
    <clipPath id="clip-path-13">
      <path id="パス_1318" data-name="パス 1318" d="M1266.386,787.23c0,13.5,4.868,30.748,4.868,30.748s4.871-17.244,4.871-30.748-2.18-18.172-4.871-18.172-4.868,4.659-4.868,18.172" fill="none"/>
    </clipPath>
    <radialGradient id="radial-gradient-10" cx="0.5" cy="0.5" r="0.36" gradientTransform="matrix(5.023, 0, 0, -1, 523.117, 8.46)" xlink:href="#radial-gradient-6"/>
    <clipPath id="clip-path-14">
      <rect id="長方形_197" data-name="長方形 197" width="74.23" height="76.767" transform="translate(1280.83 525.431)" fill="none"/>
    </clipPath>
    <clipPath id="clip-path-15">
      <path id="パス_1350" data-name="パス 1350" d="M1280.945,565.677a19.333,19.333,0,0,1,.471-1.981,16.763,16.763,0,0,1,.526-1.949,17.12,17.12,0,0,1,.953-1.771,14.565,14.565,0,0,1,.8-1.835,16.354,16.354,0,0,1,1.176-1.6,13.3,13.3,0,0,1,1.2-1.612c.5-.437.829-1.18,1.386-1.545a14.726,14.726,0,0,1,1.989-.637,12.01,12.01,0,0,1,1.611-.823c-.237-.559-.152-.958-.35-1.538s-.312-1.169-.447-1.77a16.869,16.869,0,0,1-.117-1.811c-.074-.606-.533-1.181-.538-1.784a16.7,16.7,0,0,1,.118-1.839,17.883,17.883,0,0,1,.508-1.969,20.024,20.024,0,0,1,.261-2.029,17.321,17.321,0,0,1,.873-1.841,17.9,17.9,0,0,1,.88-1.838c.359-.576.745-1.168,1.148-1.695s.851-1.08,1.308-1.576,1.141-.776,1.63-1.226,1.173-.678,1.716-1.1c.532-.4,1.1-.724,1.657-1.092.576-.376,1.011-.914,1.608-1.23s1.2-.62,1.808-.888,1.21-.605,1.831-.808a12.684,12.684,0,0,1,2.053-.308,12.337,12.337,0,0,1,2.023-.1,14.646,14.646,0,0,1,2.031-.027,17.756,17.756,0,0,1,2.044.094,14.763,14.763,0,0,1,2.052.308,20.094,20.094,0,0,1,1.885.857c.613.307,1.168.7,1.762,1.067a8.193,8.193,0,0,1,3.38,2.285c.474.486.86,1.058,1.276,1.571.413.532.787,1.089,1.141,1.649a19.265,19.265,0,0,1,.613,1.938A14.58,14.58,0,0,1,1326.1,537c.2.638.161,1.306.3,1.968.13.643.616,1.158.684,1.831.5-.373,1.2-.356,1.8-.7a14.358,14.358,0,0,1,1.669-1.1,15.7,15.7,0,0,1,1.87-.723,19.7,19.7,0,0,1,1.958-.4,17.394,17.394,0,0,1,1.972-.259,15.863,15.863,0,0,1,1.855.1c.586.058,1.295-.244,1.928-.083.577.152.973.952,1.577,1.2a14.4,14.4,0,0,1,1.774.578,14.945,14.945,0,0,1,1.5,1.1,15.853,15.853,0,0,1,1.376,1.222c.448.4.958.749,1.4,1.221.406.442.843.844,1.252,1.362.381.474.75.975,1.116,1.507s.868.968,1.193,1.509c.35.545.354,1.27.645,1.819.316.586,1.024.933,1.274,1.511.268.612.293,1.287.5,1.867.215.627.785,1.129.931,1.736a19.572,19.572,0,0,1,0,1.969,18.31,18.31,0,0,1-.113,1.921c.013.632.548,1.3.484,1.923a14.35,14.35,0,0,1-.537,1.962,13.7,13.7,0,0,1-.335,2.026c-.24.612-.9,1.064-1.222,1.648a17.563,17.563,0,0,1-.79,1.9c-.4.519-1.06.864-1.532,1.352a18.448,18.448,0,0,1-1.525,1.3,15.775,15.775,0,0,1-1.591,1.216,16.866,16.866,0,0,1-1.811.863c-.6.287-1.481.382-2.116.61.3.57.718,1.266.967,1.845s.8,1.061,1,1.647c.213.6-.134,1.365.008,1.971.146.623.528,1.166.611,1.795a15.838,15.838,0,0,1,.484,1.874c.009.624-.474,1.263-.533,1.869a15.644,15.644,0,0,1-.091,1.922,13.6,13.6,0,0,1-.745,1.766,14.353,14.353,0,0,1-.75,1.737c-.3.578-.186,1.382-.54,1.913s-1.232.665-1.643,1.155-.374,1.416-.831,1.856-1.273.48-1.776.871a15.469,15.469,0,0,1-1.655.921,16.251,16.251,0,0,1-1.652.939c-.584.257-1.027.906-1.625,1.1a12.509,12.509,0,0,1-1.961.038c-.647.115-1.253.64-1.884.7-.643.011-1.3-.438-1.926-.5a15.521,15.521,0,0,1-1.977.083c-.63-.188-1.112-.8-1.7-1.054a12.645,12.645,0,0,1-1.574-1.072c-.525-.348-1.373-.331-1.84-.786-.462-.424-.711-1.291-1.115-1.795a20.547,20.547,0,0,1-.694,2c-.369.551-1.129.783-1.537,1.253a12.611,12.611,0,0,1-1.42,1.239c-.484.424-.694,1.222-1.224,1.559a13.432,13.432,0,0,1-1.667,1.041c-.587.263-1.273.335-1.877.539a15.217,15.217,0,0,1-1.882.432,13.029,13.029,0,0,1-1.911.361c-.653.031-1.276-.61-1.9-.665-.642-.057-1.309.186-1.933.075a17.394,17.394,0,0,1-1.808-.561,16.878,16.878,0,0,1-1.86-.549c-.555-.288-.909-.964-1.437-1.318s-1.347-.333-1.838-.765A13.013,13.013,0,0,1,1296.5,597a13.17,13.17,0,0,1-1.056-1.625,13.529,13.529,0,0,1-.821-1.75,15.664,15.664,0,0,1-.435-1.887c-.159-.58-.7-1.126-.8-1.784-.09-.619.518-1.284.506-1.939,0-.622-.643-1.278-.58-1.938l.045.005c.065-.681.576-1.494.725-2.19a13.464,13.464,0,0,1-2.285.039,10.63,10.63,0,0,1-2.055-.635,11.705,11.705,0,0,1-2.051-.75,12.242,12.242,0,0,1-1.566-1.531c-.5-.458-1.276-.728-1.711-1.288a87.9,87.9,0,0,0-1.708-3.858c-.269-.629-.753-1.213-.966-1.868-.188-.667-.159-1.408-.3-2.083-.125-.68-.545-1.345-.606-2.03s.535-1.414.528-2.113-.487-1.414-.418-2.1" fill="none"/>
    </clipPath>
    <radialGradient id="radial-gradient-11" cx="0.491" cy="0.5" r="0.46" gradientTransform="matrix(-0.973, 0, 0, 1, -30.081, 0)" gradientUnits="objectBoundingBox">
      <stop offset="0" stop-color="#fbdb86"/>
      <stop offset="0.756" stop-color="#e41714"/>
      <stop offset="0.995" stop-color="#870000"/>
      <stop offset="1" stop-color="#870000"/>
    </radialGradient>
    <clipPath id="clip-path-16">
      <rect id="長方形_203" data-name="長方形 203" width="43.17" height="44.648" transform="translate(1238.6 667.774)" fill="none"/>
    </clipPath>
    <clipPath id="clip-path-17">
      <path id="パス_1437" data-name="パス 1437" d="M1238.678,691.184c.035-.384.2-.759.271-1.154.076-.372.194-.757.305-1.128a10.451,10.451,0,0,1,.551-1.04,9.7,9.7,0,0,1,.48-1.054,7.264,7.264,0,0,1,.672-.936,8.512,8.512,0,0,1,.7-.935c.291-.261.485-.7.819-.905a8.094,8.094,0,0,1,1.15-.363,6.368,6.368,0,0,1,.934-.484c-.139-.334-.086-.559-.2-.894s-.18-.689-.256-1.024-.028-.711-.075-1.062-.306-.687-.306-1.033a9.949,9.949,0,0,1,.07-1.075,8.9,8.9,0,0,1,.3-1.143,8.4,8.4,0,0,1,.148-1.173,9.945,9.945,0,0,1,.5-1.079c.168-.351.313-.735.51-1.07.213-.334.43-.674.668-.979s.5-.626.76-.917.666-.452.957-.713a11.474,11.474,0,0,1,.99-.636c.309-.237.645-.432.967-.646s.594-.521.935-.7.694-.361,1.051-.518.707-.347,1.065-.474a8.907,8.907,0,0,1,1.191-.185,10.271,10.271,0,0,1,1.182-.052,8.747,8.747,0,0,1,1.179-.022,10.315,10.315,0,0,1,1.188.067,8.354,8.354,0,0,1,1.2.18,9.307,9.307,0,0,1,1.09.495,11.664,11.664,0,0,1,1.027.616,10.47,10.47,0,0,1,1.086.557,8.053,8.053,0,0,1,.875.781,13.079,13.079,0,0,1,1.4,1.863,9.145,9.145,0,0,1,.365,1.132,8.981,8.981,0,0,1,.516,1.029,9.8,9.8,0,0,1,.175,1.146c.071.386.362.677.391,1.062.3-.213.707-.2,1.061-.409a9.462,9.462,0,0,1,.97-.63,9.678,9.678,0,0,1,1.078-.416,7.817,7.817,0,0,1,1.145-.234,7.215,7.215,0,0,1,1.148-.15,8.83,8.83,0,0,1,1.073.059c.339.038.755-.15,1.125-.043.336.083.568.551.925.7a7.37,7.37,0,0,1,1.026.324,11.218,11.218,0,0,1,1.672,1.364c.257.225.558.426.816.7.236.252.488.515.729.787.216.283.433.568.654.879s.5.57.687.885c.2.318.2.737.379,1.064s.594.537.741.877a10.233,10.233,0,0,1,.291,1.083c.123.353.457.654.541,1.009a9.9,9.9,0,0,1-.012,1.145,9.31,9.31,0,0,1-.059,1.105c.006.38.313.768.278,1.127a8.507,8.507,0,0,1-.309,1.148,8,8,0,0,1-.189,1.171c-.145.362-.524.623-.713.962a9.056,9.056,0,0,1-.467,1.092,8.762,8.762,0,0,1-.881.793c-.279.268-.59.52-.891.757a9.755,9.755,0,0,1-.923.72,10.613,10.613,0,0,1-1.063.492,10.435,10.435,0,0,1-1.225.353c.174.333.418.75.561,1.076.149.343.473.622.586.957.125.353-.078.8,0,1.154a9.9,9.9,0,0,1,.357,1.038,10.933,10.933,0,0,1,.293,1.1c0,.37-.285.729-.322,1.1a9.014,9.014,0,0,1-.053,1.11,7.429,7.429,0,0,1-.433,1.027,7.016,7.016,0,0,1-.438,1.011c-.166.324-.107.8-.312,1.1s-.713.4-.948.672c-.24.293-.222.823-.488,1.076s-.738.293-1.033.509a9.075,9.075,0,0,1-.965.543,7.633,7.633,0,0,1-.957.532c-.34.162-.594.545-.947.652s-.785-.044-1.137.022c-.381.066-.728.378-1.1.391s-.753-.244-1.117-.281-.806.142-1.158.05-.646-.455-.98-.6a6.651,6.651,0,0,1-.914-.632c-.305-.2-.807-.178-1.079-.447a9.053,9.053,0,0,1-.642-1.052c-.182.334-.207.865-.4,1.166-.211.316-.653.453-.9.732a7.117,7.117,0,0,1-.818.719c-.287.257-.406.713-.709.909a10.159,10.159,0,0,1-.975.6,10.91,10.91,0,0,1-1.1.318,8.925,8.925,0,0,1-1.09.252,9.681,9.681,0,0,1-1.119.205c-.368.009-.731-.355-1.1-.383s-.762.113-1.119.041a9.806,9.806,0,0,1-1.067-.329,7.08,7.08,0,0,1-1.072-.326c-.33-.157-.525-.547-.838-.757s-.789-.193-1.06-.45a7.212,7.212,0,0,1-.8-.814,8.838,8.838,0,0,1-.619-.944,9.172,9.172,0,0,1-.475-1.024,9.285,9.285,0,0,1-.25-1.084c-.088-.349-.41-.663-.469-1.049-.051-.349.311-.748.3-1.124,0-.357-.365-.751-.33-1.127,0,0,.027,0,.031-.006a12.422,12.422,0,0,1,.42-1.273,7.747,7.747,0,0,1-1.342.03,5.74,5.74,0,0,1-1.191-.378A6.009,6.009,0,0,1,1242.6,701a7.047,7.047,0,0,1-.905-.884c-.3-.276-.742-.431-1-.76a9.368,9.368,0,0,1-.492-1.143,10.623,10.623,0,0,1-.508-1.1,10.264,10.264,0,0,1-.549-1.1,11.754,11.754,0,0,1-.185-1.206c-.08-.394-.315-.78-.358-1.184s.313-.813.315-1.221-.285-.825-.244-1.224" fill="none"/>
    </clipPath>
    <radialGradient id="radial-gradient-12" cx="0.491" cy="0.5" r="0.46" gradientTransform="matrix(-0.974, 0, 0, 1, -50.101, 0)" gradientUnits="objectBoundingBox">
      <stop offset="0" stop-color="#96b8e0"/>
      <stop offset="0.756" stop-color="#4b65ac"/>
      <stop offset="1" stop-color="#100054"/>
    </radialGradient>
    <clipPath id="clip-path-18">
      <rect id="長方形_205" data-name="長方形 205" width="66.49" height="68.776" transform="translate(1143.06 834.463)" fill="none"/>
    </clipPath>
    <clipPath id="clip-path-19">
      <path id="パス_1466" data-name="パス 1466" d="M1143.169,870.524c.054-.592.3-1.169.418-1.778.117-.574.3-1.166.469-1.738a16.506,16.506,0,0,1,.849-1.6,14.825,14.825,0,0,1,.74-1.623,11.168,11.168,0,0,1,1.035-1.441,12.808,12.808,0,0,1,1.074-1.441c.448-.4.746-1.076,1.26-1.4a12.4,12.4,0,0,1,1.772-.558,9.842,9.842,0,0,1,1.438-.746c-.213-.515-.132-.861-.315-1.377-.169-.531-.277-1.062-.394-1.578-.121-.532-.043-1.1-.115-1.635s-.472-1.059-.472-1.591a15.364,15.364,0,0,1,.108-1.657,13.711,13.711,0,0,1,.464-1.761,12.682,12.682,0,0,1,.228-1.807,15.3,15.3,0,0,1,.77-1.662c.259-.54.482-1.131.786-1.647.328-.515.661-1.038,1.029-1.509s.764-.964,1.17-1.413,1.026-.7,1.474-1.1a18.047,18.047,0,0,1,1.525-.979c.476-.366.993-.667,1.49-1s.914-.8,1.441-1.085,1.068-.555,1.618-.8,1.089-.534,1.64-.729a13.578,13.578,0,0,1,1.835-.286,16.143,16.143,0,0,1,1.821-.08,13.588,13.588,0,0,1,1.817-.035,16.112,16.112,0,0,1,1.829.1,12.941,12.941,0,0,1,1.841.277,14.318,14.318,0,0,1,1.679.763,17.868,17.868,0,0,1,1.583.949,16.261,16.261,0,0,1,1.672.857,12.486,12.486,0,0,1,1.348,1.2,16.12,16.12,0,0,1,1.15,1.393,15.712,15.712,0,0,1,1.011,1.477,14.19,14.19,0,0,1,.562,1.743,13.815,13.815,0,0,1,.794,1.586,14.955,14.955,0,0,1,.271,1.765c.108.594.557,1.042.6,1.636.463-.328,1.089-.308,1.634-.63a14.613,14.613,0,0,1,1.495-.97,14.79,14.79,0,0,1,1.661-.641,12.037,12.037,0,0,1,1.763-.361,11.161,11.161,0,0,1,1.769-.23,13.376,13.376,0,0,1,1.652.09c.523.058,1.164-.232,1.733-.066.517.128.875.848,1.426,1.077a11.235,11.235,0,0,1,1.579.5,17.18,17.18,0,0,1,2.575,2.1c.4.348.861.656,1.258,1.074.364.388.752.793,1.122,1.213.334.436.668.875,1.008,1.354.325.484.767.878,1.059,1.363.313.49.316,1.135.584,1.639s.915.828,1.14,1.351a15.188,15.188,0,0,1,.448,1.668c.19.543.7,1.007.834,1.554a14.963,14.963,0,0,1-.018,1.763,14.662,14.662,0,0,1-.09,1.7c.008.585.481,1.183.427,1.736a12.99,12.99,0,0,1-.476,1.769,12.224,12.224,0,0,1-.291,1.8c-.223.557-.807.96-1.1,1.482a13.756,13.756,0,0,1-.719,1.682,13.291,13.291,0,0,1-1.357,1.221c-.43.412-.908.8-1.372,1.166a14.824,14.824,0,0,1-1.423,1.109,12.306,12.306,0,0,1-3.523,1.3c.268.513.644,1.156.864,1.658.229.528.728.957.9,1.474.192.543-.121,1.226,0,1.777a15.367,15.367,0,0,1,.551,1.6c.078.566.433,1.119.451,1.686,0,.57-.439,1.124-.5,1.69a13.946,13.946,0,0,1-.081,1.709,11.6,11.6,0,0,1-.668,1.582,10.9,10.9,0,0,1-.674,1.557c-.256.5-.166,1.235-.482,1.7s-1.1.615-1.459,1.035c-.37.451-.343,1.268-.752,1.658s-1.137.451-1.591.783a14.088,14.088,0,0,1-1.487.837,11.89,11.89,0,0,1-1.474.82c-.524.249-.915.839-1.459,1s-1.21-.068-1.751.035c-.587.1-1.122.582-1.688.6-.59.033-1.161-.376-1.721-.431-.578-.058-1.242.218-1.784.076-.563-.146-1-.7-1.51-.931a10.277,10.277,0,0,1-1.408-.973c-.47-.3-1.243-.274-1.661-.689a14.017,14.017,0,0,1-.99-1.62c-.28.514-.319,1.333-.623,1.8-.325.487-1.005.7-1.387,1.128a10.942,10.942,0,0,1-1.26,1.107c-.443.4-.626,1.1-1.093,1.4a15.331,15.331,0,0,1-1.5.922,16.557,16.557,0,0,1-1.691.49,14.019,14.019,0,0,1-1.678.389,15.326,15.326,0,0,1-1.724.315c-.566.014-1.126-.547-1.688-.589-.581-.058-1.174.173-1.724.061a14.7,14.7,0,0,1-1.643-.505,10.977,10.977,0,0,1-1.652-.5c-.508-.242-.809-.842-1.29-1.165-.464-.312-1.216-.3-1.634-.694a11.253,11.253,0,0,1-1.227-1.254,13.665,13.665,0,0,1-.954-1.454,14.264,14.264,0,0,1-.731-1.578,14.062,14.062,0,0,1-.385-1.669c-.136-.537-.632-1.022-.722-1.616-.079-.539.478-1.152.457-1.731,0-.551-.563-1.157-.509-1.737,0,0,.042.005.048-.008a19.547,19.547,0,0,1,.647-1.962,12.042,12.042,0,0,1-2.067.046,8.884,8.884,0,0,1-1.835-.582,9.37,9.37,0,0,1-1.838-.656,10.831,10.831,0,0,1-1.393-1.362c-.457-.425-1.143-.664-1.534-1.171a14.311,14.311,0,0,1-.759-1.76,16.475,16.475,0,0,1-.782-1.692,15.465,15.465,0,0,1-.845-1.687,17.812,17.812,0,0,1-.286-1.857c-.124-.607-.485-1.2-.551-1.824s.482-1.253.485-1.881-.44-1.27-.376-1.885" fill="none"/>
    </clipPath>
    <radialGradient id="radial-gradient-13" cx="0.491" cy="0.5" r="0.46" gradientTransform="matrix(-0.974, 0, 0, 1, -29.971, 0)" xlink:href="#radial-gradient-12"/>
  </defs>
  <g id="グループ_568" data-name="グループ 568" transform="translate(-1281.294 -1648.695)">
    <g id="グループ_45" data-name="グループ 45" transform="translate(138.234 1248)" opacity="0.78" style="mix-blend-mode: screen;isolation: isolate">
      <g id="グループ_44" data-name="グループ 44">
        <g id="グループ_43" data-name="グループ 43" clip-path="url(#clip-path)">
          <path id="パス_1280" data-name="パス 1280" d="M1348.232,940.084c-42.015,0-38.3-9.662-27.432-9.948s16.568-14.795-5.72-15.079-16.3-11.374-1.431-10.806,22.862-10.807-25.157-11.943c-14.889-.348-36.307.564-35.447,7.965s17.187,3.429,26.049,4,11.147,9.955-2.284,10.239-36.914-1.154-54.067-1.154-25.447,13.935-4.005,15.355,50.307-2.27,70.039,1.144,17.73,9.946.574,9.664-26.583,14.223-4.863,15.359,61.185.92,69.041-.476c9.958-1.778,14.735-14.317-5.3-14.317" fill="#cdd9df"/>
          <path id="パス_1281" data-name="パス 1281" d="M1476.871,864.168c16.332-.35,39.684.222,57.187-.9s10.733-12.141-3.27-12.141-33.172,1.136-44.145.907-8.7-5.127-1.471-5.576,30.685,1.772,31.383-4.075-27.3-8.444-39.444-7.911c-50.219,2.2-32.679,9.9-20.541,9.455s17.036,8.323-1.167,8.545-13.734,11.291-4.869,11.511,15.892.409,26.337.187" fill="#cdd9df"/>
          <path id="パス_1282" data-name="パス 1282" d="M1354.68,559.031c0,48.413,79.525,46.31,107.183,42.909,2.34-.191,4.579-.461,6.714-.794,33.5-3.444,47.4-18.9,46.468-36.558-1.017-19.03-18.786-26.654-47.619-27.645-5.633-.758-12.35-.117-20.321,2.717-29.429,10.483-20.16,42.328,0,45.553s25.4-12.5,25.807-16.525-3.857-7.868-9.277-3.227c-2.822,2.416.4,8.057,2.824,7.252-4.167,5.753-8.955,8.189-13.579,8.525-17.409-3.535-15.141-28.307-5.183-36.682,12.238-4.967,28.415-.737,34.485,5.587,9.677,10.076,12.494,41.923-14.917,45.545a189.607,189.607,0,0,1-37.249,2.968c-63.152-8.992-39.553-66.251-8.924-73.991,6.487-.527,13.347-.8,20.523-.8,47.862,0,94.753-3.9,94.753-37.116,0-19.1-18.435-26.887-39.3-30.056,16.977-3.666,23.676-14.07,23.09-28.193-.726-17.75-18.709-26.733-40.333-27.7l.033.022a39.642,39.642,0,0,0-19.719,3.624c-21.384,9.717-17.015,32.808-1.7,37.666s27.219-6.8,23.574-19.441-20.409-11.182-20.409-.245c-.246,6.8,5.347,8.017,6.314,3.885s-3.159-5.1-3.159-5.1c1.7-5.1,12.393-6.56,14.579,3.4s-8.988,18.465-18.709,14.332-16.768-17.98-4.621-28.194c6.824-5.724,17.778-8.081,27.924-5.908,11.551,6.237,28.356,42.486-10.755,49.862-7.324-.225-14.188-.191-19.837-.191-26.971,1.964-35.725,21.364-26,38.622s35.721,9.725,41.308,1.947-4.13-10.207-6.8-7.534-1.457,6.806,1.7,6.316a18.271,18.271,0,0,1-9.087,5.945c-17.608-3.635-26.979-32.621,4.049-41.392,4.752-.012,10.916-.083,17.639.155,23.369,4.042,47.6,48.114-3.6,58.142-9.959.466-19.042.316-25.067.316-21.487,0-92.795,1.457-92.795,42m90.116-98.418c-13.939,8.638-17.294,34.723,3.861,39.947-9.281-.2-18.379-6.716-19.62-16.173-1.742-13.263,5.8-20.485,15.759-23.774m42.537-1.34q3.394.324,6.764.82c20.27,7.36,37.954,41.124,2.045,53.516,22.775-13.55,13.142-48.629-8.809-54.336m3.727-52.039a28.782,28.782,0,0,1,12.82,11.539c8.251,14.008-.662,29.793-19.127,34.993,20.567-7.414,23.27-34.719,6.307-46.532m7.233,45.248c10.745-6.65,16.057-20.034,10.936-31.52a33.609,33.609,0,0,0-10.835-13.227c10.3,3.874,17.492,10.226,18.371,21.246.887,11.234-7.012,19.315-18.472,23.5m18.617,54.763c10.353-13.05,5.637-33.577-6.868-43.309,11.222,4.133,19.49,11.306,19.49,23.79,0,8.966-5,15.19-12.622,19.519M1483.4,544.526c8.567,3.282,15.86,9.43,16.107,21.077.231,11.068-4.209,18.2-11.075,23.041,6.919-10.2,5.893-23.585,3.826-30.038a34.353,34.353,0,0,0-8.858-14.08M1443.143,547c-9.807,9.109-9.329,28.832,3.987,33.638-8.13-2.326-14.547-10.243-14.129-15.98,1.191-8.542,5.05-14.183,10.142-17.658m55.018,39.716a29.587,29.587,0,0,0,6.694-21.359c-.563-8.65-4.937-15.164-11.183-19.747,9.193,3.654,16.548,9.549,16.786,19.239.229,9.391-4.621,16.552-12.3,21.867m-103.872,4.739c-35.814-16.8-17.772-53.547,6.714-64.028,1.677-.342,3.4-.651,5.157-.943-22.861,10.488-34.31,48.6-11.871,64.971m-33.747-31.442c-.484-13.217,9.314-22.713,25.987-28.646-16.5,9.812-23.8,34.108-12.68,50.3-8.684-6.947-13.063-14.9-13.307-21.65" fill="#cdd9df"/>
          <path id="パス_1283" data-name="パス 1283" d="M1388.224,908.986c3.469,0,8.7-.086,14.437.18,29.49,5.777,15.532,31.16,2.073,33.487-3.873.137-7.423.1-10.16.088-17.87-5.05-12.473-21.743-2.331-23.838a10.541,10.541,0,0,1,5.235,3.423c-1.822-.282-2.521,2.1-.982,3.639s7.143.141,3.921-4.339-18.195-8.817-23.792,1.122-.558,21.111,14.975,22.243c3.254,0,7.207.02,11.426-.11,22.526,4.248,12.847,25.126,6.194,28.718-5.845,1.251-12.153-.1-16.084-3.405-6.995-5.88-2.938-13.857,2.661-16.237s12.038,2.516,10.776,8.255-7.416,4.9-8.4,1.959a2.388,2.388,0,0,0,1.82-2.934c-.557-2.38-3.778-1.684-3.637,2.236,0,6.3,9.657,7.137,11.755-.141s-4.759-14-13.577-11.2-11.335,16.1.979,21.7a22.882,22.882,0,0,0,11.359,2.086l-.021.011c12.458-.559,22.813-5.734,23.231-15.955.337-8.136-3.519-14.126-13.3-16.239,12.016-1.823,22.633-6.307,22.633-17.309,0-19.13-27.005-21.375-54.573-21.375-4.131,0-8.083-.161-11.821-.463-17.638-4.457-31.23-37.436,5.143-42.615a109.437,109.437,0,0,1,21.452,1.71c15.788,2.087,14.164,20.426,8.59,26.231-3.494,3.641-12.811,6.078-19.861,3.219-5.733-4.823-7.04-19.093,2.986-21.127,2.664.192,5.42,1.594,7.82,4.909-1.4-.462-3.251,2.785-1.626,4.176,3.122,2.673,5.573.467,5.341-1.86s-3.25-11.372-14.861-9.514-16.95,20.2,0,26.233a24.868,24.868,0,0,0,11.7,1.565c16.607-.567,26.84-4.961,27.427-15.92.538-10.174-7.469-19.072-26.764-21.055q-1.845-.288-3.867-.458c-15.928-1.959-61.73-3.17-61.73,24.712,0,23.354,41.068,24.193,53.444,24.193m-10.62,18.8c.717-5.446,5.954-9.2,11.3-9.314-12.185,3.009-10.253,18.033-2.225,23.006-5.738-1.893-10.081-6.051-9.077-13.692m38.651-16.829c20.682,7.136,10.495,26.583-1.18,30.821-1.293.193-2.592.348-3.893.473,12.64-3.287,18.188-23.491,5.073-31.294m-6.562,34.466c10.636,2.994,15.769,12.085,11.017,20.156a16.576,16.576,0,0,1-7.383,6.645c9.77-6.806,8.211-22.532-3.634-26.8M1428.13,959.7c-.505,6.344-4.649,10-10.579,12.235a19.369,19.369,0,0,0,6.24-7.617c2.949-6.617-.11-14.326-6.3-18.154,6.6,2.41,11.148,7.066,10.637,13.536m7.354-33.833c0,7.188-4.762,11.322-11.227,13.7,7.205-5.6,9.92-17.428,3.958-24.943,4.388,2.494,7.269,6.08,7.269,11.244m-21.468-40.823c1.191-3.716,1.781-11.428-2.2-17.3,3.954,2.787,6.51,6.895,6.378,13.27-.143,6.707-4.342,10.249-9.276,12.14a19.8,19.8,0,0,0,5.1-8.109m-34.127-3.483c-.243-3.3,3.454-7.863,8.137-9.206-7.671,2.769-7.948,14.13-2.3,19.376-2.933-2.005-5.154-5.252-5.84-10.17m44.61-.112c-.136,5.582-4.374,8.977-9.667,11.081a14.969,14.969,0,0,0,6.439-11.372,17.031,17.031,0,0,0-3.854-12.3c4.421,3.062,7.213,7.187,7.082,12.594m-60.07,22.1c-1.009-.167-2-.348-2.97-.544-14.1-6.036-24.492-27.2-3.867-36.877-12.924,9.431-6.33,31.38,6.837,37.421m-18.608-31.781c-6.406,9.325-2.2,23.319,7.3,28.965-9.6-3.412-15.245-8.884-14.965-16.494.139-3.888,2.661-8.469,7.664-12.471" fill="#cdd9df"/>
          <path id="パス_1284" data-name="パス 1284" d="M1322.823,868.616c49.168-16.583,24.035-48.652-41.139-42.735-34.072,3.071-51.852,36.615,1.4,35.169,24.416-.936,18.949-20.4,4.173-20.852-7.4.5-7.62,10.072-.132,5.885,4.442-.3,11.706,5.076,4.235,8.525s-34.829,3.853-35.332-6.4,18.917-18.925,41.8-17.547c.237.007.462.033.693.045,24.405,3.017,34.119,27.2-3.371,39.467a158.462,158.462,0,0,1-28.3,1.742c-56.446-9.867-36.183-46.786.074-56.537a213.036,213.036,0,0,1,51.3-3.005c40.6,2.362,92.081,13.525,131.525,2.018s52.711-41.8,38.6-70.951c-10.917-22.56-43.394-31.325-64.7-34.663,8.59-2.378,15.188-7.6,17.482-14.852,3.631-11.508-10.569-21.787-28.221-24.735.188-.014.361-.012.552-.025,23.8-2.326,47.049-11.007,48.248-22.777s-24.125-17.178-41.99-18.205c-18.188-1.047-20.524-10.279-11.643-15.237-14.44,6.255-7.11,16.205,10.9,17.346,2.467.161,4.968.389,7.43.7,32.6,11.521,18.566,26.319.849,33.544a92.9,92.9,0,0,1-18.133,2.858c-19.391.863-23.719-11.438-21.957-17.284,1.183-3.954,6.436-8.032,12.661-10.152,17.507.63,17.546,16.783,3.244,18.082a11.527,11.527,0,0,1-6.984-4.872s2.3.07,1.909-2.883-5.721-1.667-5.126,2.187,7.186,8.446,17.34,7.984,22.363-10.013,12.653-18.971c-4.87-4.5-12.67-5.67-20.038-4.459-18.515,1.757-28.467,8.088-28.875,16.051-.4,7.987,10.906,15.566,30.795,16.148.344.036.689.056,1.04.07.094.025.188.048.293.066l-.171.015c20.98,8.044,23.449,32.783-11.564,32.969-.692-.171-1.379-.342-2.056-.524-16.289-4.315-37.389-1.51-49.7,5.164-19.967,8.4-42.806-1.562-34.1-24.417,4.769-7.976,12.776-12.319,21.2-14.182,9.108-.53,20.989,2.594,20.155,12.115-.835,9.5-12.313,14.948-20.852,11.762-5.395-3.755-4.888-10.979-2.015-14.972,1.567.94,4.7,2.82,6.082.367s-.937-5.454-5.742-3.289c-8.553,3.48-10.524,20.172,7.424,22.1,28.755,3.034,44.95-22.26,20.53-29.786a47.785,47.785,0,0,0-20.81-1.729,55.8,55.8,0,0,1-9.092-1.913c-11.057-5.861-4.556-20.778,5.914-24.088a18.259,18.259,0,0,1,12.2,1.426c6.515,3.367,5.9,12.314.484,15.012s-10.729,1.394-12.66-1.795-.817-7.914,4.152-5.933c-1.051,2.069-.42,3.68,1.91,4.192s3.083-3.535,1.466-5.75c-2.59-3.81-13.345-1.412-10.88,7.722s21.258,6.518,23.157-3.242-8.015-15.071-16.387-14.831-22.871,5.88-23.116,16.535c-.242,10.233,10.325,13.817,17.994,13.617-12.737,3.215-22.365,11.431-25.467,19.518-12.462,35.9,21.686,38.465,34.278,27.789s42.205-10.242,61.131-4.878a48.565,48.565,0,0,0,12.456,1.843c6.291,1.1,12.814,2.51,19.255,4.3,25.005,12.76,33.832,36.818,27.063,56.119-6.96,19.85-25.546,41.089-75.369,42.2-9.327-.66-18.248-1.545-26.24-2.327-1.433-.136-2.921-.273-4.449-.411-5.41-.888-10.826-1.907-16.1-3.065-40.741-14.313-28.168-43.245,2.613-51.738,6.357-.7,12.685-1.136,18.511-1.378,27.377-1.138,47.137,7.055,51.261,20.728s-12.976,17.787-35.176,18.575-42.046-3.736-41.1-12.614,21.87-18.4,33.591-14.055,9.286,14.055,1.158,13.883c-.677-2.892-1.294-8-5.8-4.748s-1.649,7.458,4.226,9.263c9.546,2.281,21.653-9.564,8.568-18.955s-47.2-4.852-47.659,15.013,49.024,21.621,74.334,14.011,22.374-40.456-26.3-45.209-89.592,6.131-91.544,26.83c-1.4,14.782,10.116,25.3,34.8,31.552-44.129-.856-96.045,4.663-102.827,33.328-9.01,38.086,58.856,43.719,108.032,27.139M1319.49,660.51c-9.3-5.683-3.847-14.193,1-17.138.327-.194.644-.375.975-.564-6.142,5.682-5.533,13.429-1.971,17.7m32.094,31.818c10.361-5.983,9.717-16.6,3.487-22.52,4.041,1.562,6.817,3.715,7.38,6.109,1.321,5.694.054,12.631-10.867,16.411m-10.064-25.02c1.006.03,2.005.086,2.977.169,20.444,5.847,12.161,22.708-1.259,26.785-.182.027-.34.065-.523.089a32.785,32.785,0,0,1-4.372.3c8.045-1.486,13.58-6.27,14.388-14.017.727-6.891-4.75-11.392-11.211-13.327m-9.4,45.877c-6.889,3.082-12.889,2.767-19.472.047-5.693-2.35-7.841-8.235-7.909-14.9,3.461,9.483,14.112,17.028,27.381,14.855m104-80.558a76.5,76.5,0,0,1,8.372,2.29c9.907,5.19,10.247,15.338,3.129,22.117a72.538,72.538,0,0,1-7.728,3.5c14.842-9.3,9.679-22.742-3.773-27.906m16.657,21.209a13.358,13.358,0,0,0-1.462-15.951c4.271,2.4,6.864,5.337,6.707,8.761-.115,2.385-2.071,4.847-5.245,7.19M1303.03,763.519c-10.969,7.815-10.719,18.764-8.215,26.082-3.475-3.555-5.333-7.586-4.92-12.156.533-5.97,5.608-10.5,13.135-13.926m8.39,36.155c-1.572-.63-3.091-1.286-4.535-1.975-16.63-13.278-6.4-30.347,3.274-36.883,2.717-.874,5.6-1.649,8.63-2.338-18.518,8.533-20.161,29.177-7.369,41.2m80.505,13.659,8.727.278c-.42.02-.852.033-1.268.033q-3.758-.115-7.459-.311m51.148-95.1q2.436.88,4.8,1.841c22.459,12.9,29.784,34.713,23.3,53.167-6.054,17.291-19.1,34.365-55.1,39.155,28.466-6.421,44.745-24.774,48.686-40.965,4.02-16.556-.925-41.145-21.684-53.2m-23.508-43.858c19.112,11.372,8.263,29.637-12.539,30.457-.658-.08-1.316-.168-1.984-.267,25.454-4.753,23.064-21.406,14.523-30.19m-13.655-35.773a18.118,18.118,0,0,1,10.748,1.93c9.995,5.663,6.207,15.374-6.616,17.5,11.559-5.931,6.15-17.038-4.132-19.429m-15.724,25.751c-12.529-3.708-14.031-7.359-13.942-10.973.087-3.788,2.948-9.554,18.592-14.006a21.2,21.2,0,0,0-9.451,7.424c-3.652,5.688-1.8,12.836,4.8,17.555m34.123,39.576c10.141-6.261,10.359-17.986,4.712-25.583,6.093,4.081,9.49,9.207,6.823,15.237a18.19,18.19,0,0,1-11.535,10.346m16.1,107.364c22.009-7.713,33.741-22.947,37.21-37.2,3.451-14.187.081-33.478-14.034-46.182,17.569,10.866,28.631,26.756,22.494,49.469-5.5,20.347-23.507,29.918-45.67,33.916m-130.008,20.6c2.537.364,5.018.784,7.392,1.273,12.891,4.523,22.9,21.359-2.59,31.818,11.655-8.486,15.48-28.1-4.8-33.091m20.053,28.73c6.627-5.9,9.785-15.319,2.441-22.584,6.021,3.06,9.568,7.126,8.829,12.383-.517,3.663-4.785,7.145-11.27,10.2m-109.019-18.87c3.141-8.464,11.405-14.956,22.562-19.684-19.5,10.731-21.3,32.518-6.193,44.009-13.064-5.435-20.144-14.153-16.369-24.325" fill="#cdd9df"/>
        </g>
      </g>
    </g>
    <g id="グループ_61" data-name="グループ 61" transform="translate(138.234 1248)" style="mix-blend-mode: screen;isolation: isolate">
      <g id="グループ_60" data-name="グループ 60">
        <g id="グループ_59" data-name="グループ 59" clip-path="url(#clip-path-2)">
          <path id="パス_1290" data-name="パス 1290" d="M1260.187,733.9c.527,1.338,2.646,4.857,11.092,12.225a129.326,129.326,0,0,0,16.97,12.023,120.133,120.133,0,0,0-13.58-14.51c-9.023-7.867-13-9.455-14.482-9.738" fill="#fff"/>
          <g id="グループ_50" data-name="グループ 50">
            <g id="グループ_49" data-name="グループ 49" clip-path="url(#clip-path-3)">
              <rect id="長方形_172" data-name="長方形 172" width="42.714" height="37.418" transform="translate(1255.883 729.816)" fill="url(#radial-gradient)"/>
            </g>
          </g>
          <path id="パス_1292" data-name="パス 1292" d="M1268.748,742.682c8.059,7.021,19.148,15.219,19.148,15.219s-9.46-9.735-17.525-16.754c-8.057-7.037-11.193-9.106-11.646-8.69-.438.43,1.974,3.194,10.023,10.225" fill="#fff"/>
          <path id="パス_1293" data-name="パス 1293" d="M1248.789,734.726c-.275.541-1.471,4.164,4.76,19.053,3.316,7.927,8.679,16.584,13.015,23-1.453-7.369-3.748-16.905-7.007-24.707-6.639-15.871-10.237-17.233-10.768-17.348" fill="#fff"/>
          <g id="グループ_52" data-name="グループ 52">
            <g id="グループ_51" data-name="グループ 51" clip-path="url(#clip-path-4)">
              <rect id="長方形_173" data-name="長方形 173" width="26.842" height="57.234" transform="translate(1244.472 730.998)" fill="url(#radial-gradient-2)"/>
            </g>
          </g>
          <path id="パス_1295" data-name="パス 1295" d="M1253.3,748.67c4.646,11.09,11.854,24.814,11.854,24.814s-4.641-14.607-9.282-25.705-6.826-14.722-7.533-14.48.322,4.271,4.961,15.371" fill="#fff"/>
          <path id="パス_1296" data-name="パス 1296" d="M1212.5,733.9c-1.475.281-5.455,1.861-14.49,9.74a120.54,120.54,0,0,0-13.572,14.508,129.352,129.352,0,0,0,16.964-12.021c8.457-7.375,10.573-10.893,11.1-12.227" fill="#fff"/>
          <g id="グループ_54" data-name="グループ 54">
            <g id="グループ_53" data-name="グループ 53" clip-path="url(#clip-path-5)">
              <rect id="長方形_174" data-name="長方形 174" width="42.726" height="37.418" transform="translate(1174.086 729.816)" fill="url(#radial-gradient-3)"/>
            </g>
          </g>
          <path id="パス_1298" data-name="パス 1298" d="M1203.947,742.682c-8.063,7.021-19.16,15.219-19.16,15.219s9.457-9.735,17.515-16.754c8.063-7.037,11.206-9.106,11.657-8.69s-1.973,3.194-10.012,10.225" fill="#fff"/>
          <path id="パス_1299" data-name="パス 1299" d="M1223.9,734.73c-.529.139-4.223,1.678-10.762,17.344-3.271,7.812-5.57,17.349-7.019,24.715,4.336-6.42,9.7-15.077,13.021-23.01,6.231-14.891,5.035-18.508,4.76-19.049" fill="#fff"/>
          <g id="グループ_56" data-name="グループ 56">
            <g id="グループ_55" data-name="グループ 55" clip-path="url(#clip-path-6)">
              <rect id="長方形_175" data-name="長方形 175" width="26.842" height="57.234" transform="translate(1201.369 730.998)" fill="url(#radial-gradient-4)"/>
            </g>
          </g>
          <path id="パス_1301" data-name="パス 1301" d="M1219.381,748.67c-4.637,11.09-11.84,24.814-11.84,24.814s4.629-14.607,9.277-25.705,6.817-14.722,7.522-14.48-.311,4.271-4.959,15.371" fill="#fff"/>
          <path id="パス_1302" data-name="パス 1302" d="M1235.648,735.006c-.043,0-4.387,1.031-4.387,24.016,0,11.257,2.383,24.474,4.387,33.588,2-9.116,4.383-22.331,4.383-33.588,0-22.985-4.34-24.016-4.383-24.016" fill="#fff"/>
          <g id="グループ_58" data-name="グループ 58">
            <g id="グループ_57" data-name="グループ 57" clip-path="url(#clip-path-7)">
              <rect id="長方形_176" data-name="長方形 176" width="14.375" height="72.209" transform="translate(1228.459 732.203)" fill="url(#radial-gradient-5)"/>
            </g>
          </g>
          <path id="パス_1304" data-name="パス 1304" d="M1234,752.982c0,14.271,1.645,32.477,1.645,32.477s1.658-18.206,1.658-32.477-.744-19.2-1.658-19.2-1.645,4.922-1.645,19.2" fill="#fff"/>
        </g>
      </g>
    </g>
    <g id="グループ_74" data-name="グループ 74" transform="translate(138.234 1248)" style="mix-blend-mode: screen;isolation: isolate">
      <g id="グループ_73" data-name="グループ 73">
        <g id="グループ_72" data-name="グループ 72" clip-path="url(#clip-path-8)">
          <path id="パス_1305" data-name="パス 1305" d="M1290.453,772.381a54.206,54.206,0,0,0,5.537,5.422,67.424,67.424,0,0,0,6.223,4.74,63.329,63.329,0,0,0-5.1-5.06,52.216,52.216,0,0,0-6.656-5.1" fill="#fff"/>
          <g id="グループ_63" data-name="グループ 63">
            <g id="グループ_62" data-name="グループ 62" clip-path="url(#clip-path-9)">
              <rect id="長方形_178" data-name="長方形 178" width="28.951" height="25.35" transform="translate(1284.965 767.437)" fill="url(#radial-gradient-6)"/>
            </g>
          </g>
          <path id="パス_1307" data-name="パス 1307" d="M1293.676,776.142c5.462,4.764,12.976,10.316,12.976,10.316s-6.405-6.6-11.871-11.355-7.592-6.164-7.89-5.883c-.3.3,1.329,2.164,6.785,6.922" fill="#fff"/>
          <path id="パス_1308" data-name="パス 1308" d="M1280.89,772.43c.1,1.531.734,4.709,3.324,10.891a82.165,82.165,0,0,0,6.069,11.33,77.785,77.785,0,0,0-3.672-11.783c-2.739-6.549-4.66-9.3-5.721-10.438" fill="#fff"/>
          <g id="グループ_65" data-name="グループ 65">
            <g id="グループ_64" data-name="グループ 64" clip-path="url(#clip-path-10)">
              <rect id="長方形_179" data-name="長方形 179" width="18.188" height="38.777" transform="translate(1277.232 768.24)" fill="url(#radial-gradient-7)"/>
            </g>
          </g>
          <path id="パス_1310" data-name="パス 1310" d="M1283.211,780.2c3.15,7.523,8.025,16.818,8.025,16.818s-3.142-9.9-6.283-17.42-4.621-9.968-5.1-9.814c-.479.17.212,2.893,3.357,10.416" fill="#fff"/>
          <path id="パス_1311" data-name="パス 1311" d="M1253,772.377a52.382,52.382,0,0,0-6.66,5.1,63.879,63.879,0,0,0-5.1,5.055,67.9,67.9,0,0,0,6.217-4.734,54.17,54.17,0,0,0,5.543-5.426" fill="#fff"/>
          <g id="グループ_67" data-name="グループ 67">
            <g id="グループ_66" data-name="グループ 66" clip-path="url(#clip-path-11)">
              <rect id="長方形_180" data-name="長方形 180" width="28.965" height="25.35" transform="translate(1229.523 767.437)" fill="url(#radial-gradient-8)"/>
            </g>
          </g>
          <path id="パス_1313" data-name="パス 1313" d="M1249.771,776.142c-5.471,4.764-12.992,10.316-12.992,10.316s6.416-6.6,11.877-11.355,7.592-6.164,7.9-5.883c.3.3-1.344,2.164-6.783,6.922" fill="#fff"/>
          <path id="パス_1314" data-name="パス 1314" d="M1262.552,772.428c-1.062,1.139-2.988,3.885-5.73,10.438a77.813,77.813,0,0,0-3.67,11.8,82.08,82.08,0,0,0,6.074-11.343c2.588-6.184,3.221-9.362,3.326-10.9" fill="#fff"/>
          <g id="グループ_69" data-name="グループ 69">
            <g id="グループ_68" data-name="グループ 68" clip-path="url(#clip-path-12)">
              <rect id="長方形_181" data-name="長方形 181" width="18.188" height="38.777" transform="translate(1248.021 768.24)" fill="url(#radial-gradient-9)"/>
            </g>
          </g>
          <path id="パス_1316" data-name="パス 1316" d="M1260.228,780.2c-3.135,7.523-8.025,16.818-8.025,16.818s3.14-9.9,6.293-17.42c3.134-7.509,4.619-9.968,5.089-9.814.485.17-.207,2.893-3.357,10.416" fill="#fff"/>
          <path id="パス_1317" data-name="パス 1317" d="M1271.254,772.123c-.617.947-2.064,4.324-2.064,15.107a102.09,102.09,0,0,0,2.064,18.286,102,102,0,0,0,2.068-18.286c0-10.785-1.449-14.16-2.068-15.107" fill="#fff"/>
          <g id="グループ_71" data-name="グループ 71">
            <g id="グループ_70" data-name="グループ 70" clip-path="url(#clip-path-13)">
              <rect id="長方形_182" data-name="長方形 182" width="9.739" height="48.92" transform="translate(1266.386 769.058)" fill="url(#radial-gradient-10)"/>
            </g>
          </g>
          <path id="パス_1319" data-name="パス 1319" d="M1270.138,783.133c0,9.67,1.115,22.008,1.115,22.008s1.123-12.338,1.123-22.008-.5-13-1.123-13-1.115,3.33-1.115,13" fill="#fff"/>
        </g>
      </g>
    </g>
    <g id="グループ_105" data-name="グループ 105" transform="translate(138.234 1248)" style="mix-blend-mode: screen;isolation: isolate">
      <g id="グループ_104" data-name="グループ 104">
        <g id="グループ_103" data-name="グループ 103" clip-path="url(#clip-path-14)">
          <g id="グループ_102" data-name="グループ 102">
            <g id="グループ_101" data-name="グループ 101" clip-path="url(#clip-path-15)">
              <rect id="長方形_196" data-name="長方形 196" width="83.717" height="81.498" transform="translate(1273.299 601.495) rotate(-84.393)" fill="url(#radial-gradient-11)"/>
            </g>
          </g>
          <path id="パス_1351" data-name="パス 1351" d="M1323.284,566.835a13.729,13.729,0,0,0,.506-2.018,9.294,9.294,0,0,0,.01-2.1,8.051,8.051,0,0,0-.4-2.047,9.753,9.753,0,0,0-.977-1.832,8.491,8.491,0,0,0-1.317-1.6,7.113,7.113,0,0,0-1.731-1.145,4.763,4.763,0,0,0-1.992-.523c-.594-.008-1.246-.148-1.935-.14a12.4,12.4,0,0,0-1.958.193,6.248,6.248,0,0,0-1.786.77,5.716,5.716,0,0,0-1.516,1.2,7.556,7.556,0,0,0-1.178,1.527,11.153,11.153,0,0,0-.787,1.78,15.224,15.224,0,0,0-.6,1.868,15.8,15.8,0,0,0-.386,2.088,10.156,10.156,0,0,0-.025,2.145,5.451,5.451,0,0,0,.538,2.079,4.363,4.363,0,0,0,1.516,1.5,7.414,7.414,0,0,0,1.913.918c.706.219,1.4.383,2.053.565a8.308,8.308,0,0,0,2.077.389,9.857,9.857,0,0,0,2.1-.192,8.312,8.312,0,0,0,2.026-.65,7.3,7.3,0,0,0,1.726-1.21,7.484,7.484,0,0,0,1.263-1.671,8.856,8.856,0,0,0,.863-1.9" fill="#839bcf"/>
          <path id="パス_1352" data-name="パス 1352" d="M1344.578,550.6a2.045,2.045,0,0,0-1.794-.83,1.692,1.692,0,0,0-1.493,1.226,2.3,2.3,0,0,0,.425,1.937,2.033,2.033,0,0,0,1.841,1.017,1.776,1.776,0,0,0,1.6-1.3,2.282,2.282,0,0,0-.579-2.047" fill="#fff"/>
          <path id="パス_1353" data-name="パス 1353" d="M1347.147,558.77a2.1,2.1,0,0,0-1.779-.873,1.776,1.776,0,0,0-1.5,1.251,2.276,2.276,0,0,0,.435,1.956,2.03,2.03,0,0,0,1.838,1.024,1.821,1.821,0,0,0,1.586-1.338,2.254,2.254,0,0,0-.579-2.02" fill="#fff"/>
          <path id="パス_1354" data-name="パス 1354" d="M1337.99,545.056a2.125,2.125,0,0,0-1.8-.852,1.738,1.738,0,0,0-1.5,1.264,2.3,2.3,0,0,0,.421,1.96,2.045,2.045,0,0,0,1.85.995,1.81,1.81,0,0,0,1.6-1.31,2.334,2.334,0,0,0-.559-2.057" fill="#fff"/>
          <path id="パス_1355" data-name="パス 1355" d="M1317.692,533.289a2.1,2.1,0,0,0-1.8-.857,1.759,1.759,0,0,0-1.5,1.255,2.258,2.258,0,0,0,.435,1.969,2.019,2.019,0,0,0,1.847,1.02,1.794,1.794,0,0,0,1.618-1.327,2.3,2.3,0,0,0-.6-2.06" fill="#fff"/>
          <path id="パス_1356" data-name="パス 1356" d="M1306.733,533.73a2.04,2.04,0,0,0-1.786-.837,1.7,1.7,0,0,0-1.506,1.226,2.343,2.343,0,0,0,.435,1.963,2.049,2.049,0,0,0,1.853,1.018,1.807,1.807,0,0,0,1.608-1.322,2.34,2.34,0,0,0-.6-2.048" fill="#fff"/>
          <path id="パス_1357" data-name="パス 1357" d="M1300.65,542.152a2.112,2.112,0,0,0-1.791-.835,1.713,1.713,0,0,0-1.489,1.237,2.4,2.4,0,0,0,.4,1.961,2.1,2.1,0,0,0,1.864,1,1.77,1.77,0,0,0,1.584-1.311,2.28,2.28,0,0,0-.567-2.053" fill="#fff"/>
          <path id="パス_1358" data-name="パス 1358" d="M1294.985,557.768a2.017,2.017,0,0,0-1.8-.819,1.7,1.7,0,0,0-1.491,1.221,2.331,2.331,0,0,0,.428,1.95,2.025,2.025,0,0,0,1.845,1,1.784,1.784,0,0,0,1.6-1.309,2.329,2.329,0,0,0-.584-2.047" fill="#fff"/>
          <path id="パス_1359" data-name="パス 1359" d="M1290.313,567.081a2.06,2.06,0,0,0-1.793-.844,1.743,1.743,0,0,0-1.5,1.25,2.348,2.348,0,0,0,.405,1.966,2.054,2.054,0,0,0,1.865,1,1.772,1.772,0,0,0,1.584-1.316,2.294,2.294,0,0,0-.559-2.058" fill="#fff"/>
          <path id="パス_1360" data-name="パス 1360" d="M1296,574.058a2.022,2.022,0,0,0-1.767-.847,1.693,1.693,0,0,0-1.5,1.233,2.3,2.3,0,0,0,.4,1.953,2.066,2.066,0,0,0,1.865,1.019,1.8,1.8,0,0,0,1.61-1.322,2.309,2.309,0,0,0-.613-2.036" fill="#fff"/>
          <path id="パス_1361" data-name="パス 1361" d="M1302.007,585.9a2.026,2.026,0,0,0-1.8-.819,1.712,1.712,0,0,0-1.511,1.219,2.355,2.355,0,0,0,.448,1.962,2.023,2.023,0,0,0,1.83,1,1.8,1.8,0,0,0,1.6-1.309,2.261,2.261,0,0,0-.569-2.05" fill="#fff"/>
          <path id="パス_1362" data-name="パス 1362" d="M1307.8,592.112a2.132,2.132,0,0,0-1.813-.852,1.737,1.737,0,0,0-1.469,1.261,2.288,2.288,0,0,0,.4,1.959,2.029,2.029,0,0,0,1.85,1.013,1.8,1.8,0,0,0,1.586-1.338,2.3,2.3,0,0,0-.555-2.043" fill="#fff"/>
          <path id="パス_1363" data-name="パス 1363" d="M1316.033,588.433a2.091,2.091,0,0,0-1.789-.882,1.77,1.77,0,0,0-1.476,1.266,2.282,2.282,0,0,0,.391,1.957,2.1,2.1,0,0,0,1.872,1.04,1.839,1.839,0,0,0,1.6-1.346,2.233,2.233,0,0,0-.594-2.035" fill="#fff"/>
          <path id="パス_1364" data-name="パス 1364" d="M1328.238,586.974a2.071,2.071,0,0,0-1.818-.835,1.736,1.736,0,0,0-1.5,1.233,2.373,2.373,0,0,0,.423,1.974,2.035,2.035,0,0,0,1.852.995,1.793,1.793,0,0,0,1.613-1.31,2.312,2.312,0,0,0-.569-2.057" fill="#fff"/>
          <path id="パス_1365" data-name="パス 1365" d="M1338.488,585.732a1.989,1.989,0,0,0-1.784-.818,1.7,1.7,0,0,0-1.5,1.226,2.368,2.368,0,0,0,.43,1.942,2.1,2.1,0,0,0,1.851,1.045,1.8,1.8,0,0,0,1.6-1.348,2.293,2.293,0,0,0-.594-2.047" fill="#fff"/>
          <path id="パス_1366" data-name="パス 1366" d="M1339.436,576.043a2.123,2.123,0,0,0-1.8-.849,1.743,1.743,0,0,0-1.471,1.266,2.3,2.3,0,0,0,.418,1.94,2.07,2.07,0,0,0,1.85,1.013,1.763,1.763,0,0,0,1.571-1.326,2.259,2.259,0,0,0-.569-2.044" fill="#fff"/>
          <path id="パス_1367" data-name="パス 1367" d="M1318.167,570.595a3.743,3.743,0,0,0,1.629-.949,6.081,6.081,0,0,0,1.185-1.489,9.634,9.634,0,0,0,.787-1.742,11.565,11.565,0,0,0,.379-1.863,10.116,10.116,0,0,0,.117-1.9,6.294,6.294,0,0,0-.5-1.846,3.717,3.717,0,0,0-1.1-1.509,6.026,6.026,0,0,0-1.911-1.1c-1.19-.4-1.98-.163-1.853.385.091.367.631.874,1.76,1.331a3.194,3.194,0,0,1,1.532,1.252,3.55,3.55,0,0,1,.462,1.932,5.727,5.727,0,0,1-.5,1.941,5.322,5.322,0,0,1-1.083,1.683,3.8,3.8,0,0,1-1.742.961,4.325,4.325,0,0,0-1.6.748,1.522,1.522,0,0,0-.718,1.485c.107.434.518.779,1.39.835a6.115,6.115,0,0,0,1.771-.152" fill="#fff"/>
          <path id="パス_1368" data-name="パス 1368" d="M1314.989,559.814a5.382,5.382,0,0,0-1.462,1.243,6.766,6.766,0,0,0-.98,1.659,4.83,4.83,0,0,0-.461,1.869,2.628,2.628,0,0,0,.547,1.8c.8.973.872,1.633.472,1.858-.367.2-1.1,0-1.985-.624a3.277,3.277,0,0,1-1.041-1.617,7.639,7.639,0,0,1-.428-1.916,8.551,8.551,0,0,1,.061-1.965,5.332,5.332,0,0,1,.553-1.874,2.676,2.676,0,0,1,1.43-1.3,8.589,8.589,0,0,1,1.8-.464,4.1,4.1,0,0,1,1.848.054c.621.217.635.7-.352,1.275" fill="#fff"/>
          <path id="パス_1369" data-name="パス 1369" d="M1326.263,554.147a18.831,18.831,0,0,0,1.408-1.4,16.764,16.764,0,0,0,1.224-1.586,11.418,11.418,0,0,0,1.08-1.676c.455-1.013.374-1.655-.339-1.5a5.415,5.415,0,0,0-1.736.987,11.555,11.555,0,0,0-1.336,1.242,16.7,16.7,0,0,0-1.213,1.374,14.962,14.962,0,0,0-1.006,1.538,6.291,6.291,0,0,0-.641,1.719c-.137.73.218,1.059,1.141.483a9.34,9.34,0,0,0,1.418-1.177" fill="#fff"/>
          <path id="パス_1370" data-name="パス 1370" d="M1321.651,552.323c.323-.612.638-1.222.885-1.795.266-.673.464-1.322.633-1.909a12.012,12.012,0,0,0,.388-1.962c.1-1.106-.151-1.642-.779-1.242a4.951,4.951,0,0,0-1.3,1.471,11.189,11.189,0,0,0-.877,1.606,13.9,13.9,0,0,0-.65,1.706,12.347,12.347,0,0,0-.428,1.784,5.911,5.911,0,0,0-.019,1.81c.142.744.528.959,1.212.094a9.681,9.681,0,0,0,.936-1.563" fill="#fff"/>
          <path id="パス_1371" data-name="パス 1371" d="M1307.985,554.582c-.45-.518-.941-.975-1.4-1.42a18.715,18.715,0,0,0-1.5-1.318,10.959,10.959,0,0,0-1.65-1.139c-.985-.5-1.613-.442-1.493.268a5.209,5.209,0,0,0,.9,1.77,13.417,13.417,0,0,0,1.139,1.427,11.444,11.444,0,0,0,1.366,1.217,11.724,11.724,0,0,0,1.493,1.09,5.754,5.754,0,0,0,1.679.714c.733.165,1.068-.167.531-1.112a9.919,9.919,0,0,0-1.071-1.5" fill="#fff"/>
          <path id="パス_1372" data-name="パス 1372" d="M1305.9,559.154c-.6-.34-1.18-.655-1.772-.921a18.494,18.494,0,0,0-1.857-.713,9.9,9.9,0,0,0-1.928-.552c-1.093-.145-1.657.112-1.3.765a4.752,4.752,0,0,0,1.4,1.384,9.4,9.4,0,0,0,1.6.9,13.339,13.339,0,0,0,1.667.762,11.815,11.815,0,0,0,1.784.434,5.725,5.725,0,0,0,1.816.165c.738-.1.96-.5.144-1.227a13.394,13.394,0,0,0-1.552-1" fill="#fff"/>
          <path id="パス_1373" data-name="パス 1373" d="M1303.121,570.609c-.572.38-1.095.781-1.6,1.187-.567.438-1.122.845-1.552,1.255a11.691,11.691,0,0,0-1.307,1.528c-.628.908-.69,1.518.034,1.5a5.133,5.133,0,0,0,1.867-.649,10.361,10.361,0,0,0,1.584-.914,17,17,0,0,0,1.4-1.2,13.712,13.712,0,0,0,1.257-1.34,5.268,5.268,0,0,0,.95-1.556c.262-.691.022-1.055-1-.664a9.2,9.2,0,0,0-1.628.853" fill="#fff"/>
          <path id="パス_1374" data-name="パス 1374" d="M1307.31,573.28c-.418.546-.74,1.143-1.083,1.663-.386.616-.765,1.178-1.038,1.729a10.7,10.7,0,0,0-.765,1.834c-.294,1.072-.118,1.706.564,1.434a4.845,4.845,0,0,0,1.569-1.225,11.621,11.621,0,0,0,1.107-1.466,15.893,15.893,0,0,0,1.005-1.518,16.134,16.134,0,0,0,.689-1.7,6.8,6.8,0,0,0,.452-1.782c0-.767-.41-1.009-1.232-.29a10.686,10.686,0,0,0-1.268,1.323" fill="#fff"/>
          <path id="パス_1375" data-name="パス 1375" d="M1315.258,577.291c-.105.687-.1,1.366-.139,1.989-.047.71-.135,1.389-.122,2.007a11.791,11.791,0,0,0,.239,1.982c.252,1.089.738,1.545,1.207.987a5.219,5.219,0,0,0,.8-1.836,10.943,10.943,0,0,0,.286-1.817,12.25,12.25,0,0,0,.107-1.829,13.441,13.441,0,0,0-.257-1.824,5.786,5.786,0,0,0-.476-1.747c-.342-.668-.8-.713-1.183.308a10.669,10.669,0,0,0-.457,1.78" fill="#fff"/>
          <path id="パス_1376" data-name="パス 1376" d="M1320.056,575.936a18.263,18.263,0,0,0,.481,1.933,17.956,17.956,0,0,0,.627,1.9,11.767,11.767,0,0,0,.873,1.8c.6.933,1.2,1.239,1.458.552a5.362,5.362,0,0,0,.078-2.012,10.225,10.225,0,0,0-.326-1.776,12.877,12.877,0,0,0-.469-1.785,15.427,15.427,0,0,0-.84-1.63,6.5,6.5,0,0,0-1.025-1.51c-.554-.516-1.046-.385-1.063.694a10.371,10.371,0,0,0,.206,1.835" fill="#fff"/>
          <path id="パス_1377" data-name="パス 1377" d="M1326.855,571.68c.587.384,1.163.711,1.728,1.018a19.305,19.305,0,0,0,1.845.792,12.209,12.209,0,0,0,1.909.577c1.09.2,1.679.008,1.366-.652a5.279,5.279,0,0,0-1.369-1.444,10.519,10.519,0,0,0-1.517-1.03,16.08,16.08,0,0,0-1.65-.817,12.374,12.374,0,0,0-1.74-.554,5.9,5.9,0,0,0-1.809-.234c-.747.039-.972.445-.2,1.214a8.853,8.853,0,0,0,1.437,1.13" fill="#fff"/>
          <path id="パス_1378" data-name="パス 1378" d="M1327.559,566.757c.672.165,1.349.232,1.97.326.713.094,1.372.191,1.994.219a10.554,10.554,0,0,0,1.985-.093c1.1-.188,1.569-.546,1.058-1.056a5.047,5.047,0,0,0-1.75-.933,12.018,12.018,0,0,0-1.782-.421c-.608-.11-1.224-.257-1.806-.3a13.557,13.557,0,0,0-1.843.045,5.411,5.411,0,0,0-1.775.437c-.695.3-.757.681.231,1.149a10.252,10.252,0,0,0,1.718.628" fill="#fff"/>
        </g>
      </g>
    </g>
    <g id="グループ_120" data-name="グループ 120" transform="translate(138.234 1248)" style="mix-blend-mode: screen;isolation: isolate">
      <g id="グループ_119" data-name="グループ 119">
        <g id="グループ_118" data-name="グループ 118" clip-path="url(#clip-path-16)">
          <g id="グループ_117" data-name="グループ 117">
            <g id="グループ_116" data-name="グループ 116" clip-path="url(#clip-path-17)">
              <rect id="長方形_202" data-name="長方形 202" width="48.682" height="47.394" transform="translate(1234.223 712.005) rotate(-84.393)" fill="url(#radial-gradient-12)"/>
            </g>
          </g>
          <path id="パス_1438" data-name="パス 1438" d="M1263.293,691.855a7.257,7.257,0,0,0,.3-1.177,5.022,5.022,0,0,0,.008-1.211,4.775,4.775,0,0,0-.248-1.185,4.125,4.125,0,0,0-.559-1.073,4.508,4.508,0,0,0-.762-.931,4.085,4.085,0,0,0-1-.66,2.73,2.73,0,0,0-1.154-.31c-.35-.013-.742-.084-1.141-.083a8.545,8.545,0,0,0-1.13.119,3.825,3.825,0,0,0-1.045.445,3.477,3.477,0,0,0-.875.689,4.708,4.708,0,0,0-.686.9,6.1,6.1,0,0,0-.459,1.037,8.124,8.124,0,0,0-.349,1.085,9.254,9.254,0,0,0-.229,1.227,6.058,6.058,0,0,0-.014,1.242,2.987,2.987,0,0,0,.323,1.2,2.411,2.411,0,0,0,.877.872,4.541,4.541,0,0,0,1.109.522c.412.132.822.233,1.191.346a5.213,5.213,0,0,0,1.211.218,5.491,5.491,0,0,0,1.225-.117,4.867,4.867,0,0,0,1.174-.358,4.72,4.72,0,0,0,1.012-.718,4.462,4.462,0,0,0,.726-.974,5.023,5.023,0,0,0,.5-1.1" fill="#f5ae2f"/>
          <path id="パス_1439" data-name="パス 1439" d="M1275.678,682.417a1.149,1.149,0,0,0-1.041-.473.985.985,0,0,0-.869.7,1.369,1.369,0,0,0,.254,1.142,1.177,1.177,0,0,0,1.07.578,1.031,1.031,0,0,0,.928-.758,1.331,1.331,0,0,0-.342-1.191" fill="#fff"/>
          <path id="パス_1440" data-name="パス 1440" d="M1277.176,687.168a1.206,1.206,0,0,0-1.039-.493,1,1,0,0,0-.871.71,1.4,1.4,0,0,0,.248,1.144,1.185,1.185,0,0,0,1.076.584,1.017,1.017,0,0,0,.92-.766,1.3,1.3,0,0,0-.334-1.179" fill="#fff"/>
          <path id="パス_1441" data-name="パス 1441" d="M1271.852,679.189a1.242,1.242,0,0,0-1.06-.491,1.02,1.02,0,0,0-.863.732,1.32,1.32,0,0,0,.241,1.141,1.169,1.169,0,0,0,1.076.575,1.032,1.032,0,0,0,.931-.75,1.386,1.386,0,0,0-.325-1.207" fill="#fff"/>
          <path id="パス_1442" data-name="パス 1442" d="M1260.049,672.354a1.257,1.257,0,0,0-1.049-.5,1.035,1.035,0,0,0-.877.735,1.321,1.321,0,0,0,.254,1.141,1.205,1.205,0,0,0,1.08.6,1.056,1.056,0,0,0,.936-.779,1.341,1.341,0,0,0-.344-1.19" fill="#fff"/>
          <path id="パス_1443" data-name="パス 1443" d="M1253.67,672.611a1.188,1.188,0,0,0-1.033-.489,1.02,1.02,0,0,0-.883.708,1.38,1.38,0,0,0,.26,1.145,1.184,1.184,0,0,0,1.072.6,1.042,1.042,0,0,0,.938-.774,1.363,1.363,0,0,0-.354-1.186" fill="#fff"/>
          <path id="パス_1444" data-name="パス 1444" d="M1250.131,677.512a1.2,1.2,0,0,0-1.037-.5.973.973,0,0,0-.859.73,1.306,1.306,0,0,0,.234,1.131,1.162,1.162,0,0,0,1.074.581,1.056,1.056,0,0,0,.928-.763,1.324,1.324,0,0,0-.34-1.182" fill="#fff"/>
          <path id="パス_1445" data-name="パス 1445" d="M1246.84,686.589a1.211,1.211,0,0,0-1.041-.485,1,1,0,0,0-.875.723,1.352,1.352,0,0,0,.252,1.12,1.2,1.2,0,0,0,1.068.595,1.028,1.028,0,0,0,.93-.766,1.329,1.329,0,0,0-.334-1.187" fill="#fff"/>
          <path id="パス_1446" data-name="パス 1446" d="M1244.129,692a1.248,1.248,0,0,0-1.055-.495,1.03,1.03,0,0,0-.865.735,1.337,1.337,0,0,0,.24,1.131,1.179,1.179,0,0,0,1.08.594,1.032,1.032,0,0,0,.92-.772,1.341,1.341,0,0,0-.32-1.193" fill="#fff"/>
          <path id="パス_1447" data-name="パス 1447" d="M1247.428,696.056a1.162,1.162,0,0,0-1.031-.483.989.989,0,0,0-.869.713,1.345,1.345,0,0,0,.24,1.13,1.2,1.2,0,0,0,1.078.6,1.061,1.061,0,0,0,.943-.769,1.356,1.356,0,0,0-.361-1.19" fill="#fff"/>
          <path id="パス_1448" data-name="パス 1448" d="M1250.918,702.947a1.164,1.164,0,0,0-1.043-.468.988.988,0,0,0-.877.705,1.36,1.36,0,0,0,.268,1.139,1.2,1.2,0,0,0,1.066.583,1.021,1.021,0,0,0,.918-.755,1.337,1.337,0,0,0-.332-1.2" fill="#fff"/>
          <path id="パス_1449" data-name="パス 1449" d="M1254.291,706.556a1.2,1.2,0,0,0-1.057-.483.983.983,0,0,0-.853.724,1.342,1.342,0,0,0,.226,1.134,1.2,1.2,0,0,0,1.082.6,1.032,1.032,0,0,0,.918-.779,1.313,1.313,0,0,0-.316-1.2" fill="#fff"/>
          <path id="パス_1450" data-name="パス 1450" d="M1259.086,704.419a1.2,1.2,0,0,0-1.039-.5,1,1,0,0,0-.861.728,1.324,1.324,0,0,0,.222,1.147,1.223,1.223,0,0,0,1.09.585,1.052,1.052,0,0,0,.93-.772,1.332,1.332,0,0,0-.342-1.186" fill="#fff"/>
          <path id="パス_1451" data-name="パス 1451" d="M1266.174,703.571a1.22,1.22,0,0,0-1.051-.491.992.992,0,0,0-.869.723,1.362,1.362,0,0,0,.24,1.147,1.191,1.191,0,0,0,1.08.576,1.047,1.047,0,0,0,.936-.757,1.343,1.343,0,0,0-.336-1.2" fill="#fff"/>
          <path id="パス_1452" data-name="パス 1452" d="M1272.139,702.848a1.166,1.166,0,0,0-1.033-.479.975.975,0,0,0-.873.713,1.365,1.365,0,0,0,.25,1.132,1.179,1.179,0,0,0,1.068.6,1.053,1.053,0,0,0,.934-.776,1.333,1.333,0,0,0-.346-1.191" fill="#fff"/>
          <path id="パス_1453" data-name="パス 1453" d="M1272.692,697.229a1.2,1.2,0,0,0-1.036-.506,1.014,1.014,0,0,0-.867.727,1.341,1.341,0,0,0,.247,1.134,1.161,1.161,0,0,0,1.065.59,1.023,1.023,0,0,0,.925-.763,1.3,1.3,0,0,0-.334-1.182" fill="#fff"/>
          <path id="パス_1454" data-name="パス 1454" d="M1260.324,694.04a1.964,1.964,0,0,0,.943-.548,3.762,3.762,0,0,0,.7-.868,5.59,5.59,0,0,0,.445-1.01,5.142,5.142,0,0,0,.227-1.085,5.284,5.284,0,0,0,.072-1.108,3.545,3.545,0,0,0-.3-1.07,2.108,2.108,0,0,0-.631-.875,3.781,3.781,0,0,0-1.121-.642c-.687-.238-1.146-.1-1.07.223.054.219.371.512,1.019.766a1.907,1.907,0,0,1,.9.73,2.079,2.079,0,0,1,.263,1.134,2.942,2.942,0,0,1-.293,1.12,3.1,3.1,0,0,1-.622.978,2.154,2.154,0,0,1-1.018.554,2.533,2.533,0,0,0-.932.45.883.883,0,0,0-.42.871c.071.248.305.442.815.467a3.4,3.4,0,0,0,1.029-.087" fill="#fff"/>
          <path id="パス_1455" data-name="パス 1455" d="M1258.465,687.78a3.078,3.078,0,0,0-.846.722,3.979,3.979,0,0,0-.568.964,2.967,2.967,0,0,0-.266,1.077,1.52,1.52,0,0,0,.323,1.056c.461.562.5.952.265,1.079-.207.106-.642,0-1.14-.362a1.911,1.911,0,0,1-.62-.938,4.452,4.452,0,0,1-.242-1.121,4.93,4.93,0,0,1,.037-1.145,3.006,3.006,0,0,1,.325-1.087,1.571,1.571,0,0,1,.82-.756A5.376,5.376,0,0,1,1257.6,687a2.341,2.341,0,0,1,1.072.039c.361.126.377.411-.211.744" fill="#fff"/>
          <path id="パス_1456" data-name="パス 1456" d="M1265.025,684.486c.3-.274.58-.551.824-.818a10.667,10.667,0,0,0,.717-.921,7.01,7.01,0,0,0,.625-.975c.258-.591.215-.975-.2-.873a2.913,2.913,0,0,0-1,.566,5.8,5.8,0,0,0-.787.728,9.449,9.449,0,0,0-.7.8,8.365,8.365,0,0,0-.584.888,3.268,3.268,0,0,0-.372,1.012c-.076.422.122.613.663.274a5.973,5.973,0,0,0,.816-.678" fill="#fff"/>
          <path id="パス_1457" data-name="パス 1457" d="M1262.344,683.414c.187-.355.377-.7.52-1.048.158-.384.263-.764.371-1.1a5.857,5.857,0,0,0,.218-1.14c.063-.652-.093-.962-.447-.734a3,3,0,0,0-.754.854,6.443,6.443,0,0,0-.513.944,8.39,8.39,0,0,0-.377,1,7.757,7.757,0,0,0-.254,1.032,3.15,3.15,0,0,0,0,1.06c.068.428.3.542.695.056a5.583,5.583,0,0,0,.541-.921" fill="#fff"/>
          <path id="パス_1458" data-name="パス 1458" d="M1254.4,684.735c-.266-.3-.553-.567-.822-.823a8.8,8.8,0,0,0-.86-.767,5.392,5.392,0,0,0-.957-.659c-.58-.3-.945-.264-.869.147a2.84,2.84,0,0,0,.526,1.027,5.8,5.8,0,0,0,.662.835,6.961,6.961,0,0,0,.793.71,8.146,8.146,0,0,0,.863.629,3.015,3.015,0,0,0,.982.418c.428.087.618-.1.307-.644a6.807,6.807,0,0,0-.625-.873" fill="#fff"/>
          <path id="パス_1459" data-name="パス 1459" d="M1253.192,687.4c-.351-.2-.694-.386-1.028-.535a9.156,9.156,0,0,0-1.086-.425,5.282,5.282,0,0,0-1.12-.315c-.638-.084-.968.067-.765.432a2.831,2.831,0,0,0,.823.822,5.944,5.944,0,0,0,.927.512,8.417,8.417,0,0,0,.969.452,7.96,7.96,0,0,0,1.037.252,3.944,3.944,0,0,0,1.054.1c.432-.062.557-.3.08-.717a5.4,5.4,0,0,0-.891-.574" fill="#fff"/>
          <path id="パス_1460" data-name="パス 1460" d="M1251.578,694.058c-.342.215-.645.461-.943.684-.328.248-.641.5-.9.734a6.338,6.338,0,0,0-.754.88c-.371.532-.406.887.018.879a3.03,3.03,0,0,0,1.088-.385,5.822,5.822,0,0,0,.918-.534,7.608,7.608,0,0,0,.812-.687,10.27,10.27,0,0,0,.735-.773,3.682,3.682,0,0,0,.546-.911c.153-.409.008-.619-.584-.39a5.259,5.259,0,0,0-.939.5" fill="#fff"/>
          <path id="パス_1461" data-name="パス 1461" d="M1254.01,695.608a9.841,9.841,0,0,0-.633.97c-.23.347-.445.689-.609.994a7.128,7.128,0,0,0-.436,1.072c-.176.625-.068.992.327.844a2.978,2.978,0,0,0,.91-.723,6.37,6.37,0,0,0,.644-.848,7.179,7.179,0,0,0,.584-.888,8.038,8.038,0,0,0,.391-.986,3.809,3.809,0,0,0,.275-1.042c0-.437-.236-.585-.717-.174a5.769,5.769,0,0,0-.736.781" fill="#fff"/>
          <path id="パス_1462" data-name="パス 1462" d="M1258.633,697.943a11.011,11.011,0,0,0-.08,1.154,9.267,9.267,0,0,0-.072,1.166,6.592,6.592,0,0,0,.131,1.154c.152.631.437.9.71.574a3.181,3.181,0,0,0,.462-1.062,6.24,6.24,0,0,0,.165-1.054,8.545,8.545,0,0,0,.061-1.077,7.354,7.354,0,0,0-.15-1.054,3.4,3.4,0,0,0-.27-1.019c-.209-.386-.467-.412-.689.183a4.707,4.707,0,0,0-.268,1.035" fill="#fff"/>
          <path id="パス_1463" data-name="パス 1463" d="M1261.42,697.155c.074.395.182.767.279,1.13a11.384,11.384,0,0,0,.364,1.094,5.778,5.778,0,0,0,.511,1.044c.352.543.7.718.842.325a2.915,2.915,0,0,0,.047-1.165,6.37,6.37,0,0,0-.184-1.046,7.5,7.5,0,0,0-.279-1.027,6.487,6.487,0,0,0-.492-.948,3.537,3.537,0,0,0-.588-.887c-.32-.293-.6-.22-.615.411a5.393,5.393,0,0,0,.115,1.069" fill="#fff"/>
          <path id="パス_1464" data-name="パス 1464" d="M1265.377,694.674c.342.221.676.421,1,.594a8.491,8.491,0,0,0,1.074.46,6.047,6.047,0,0,0,1.11.337c.636.112.98.007.791-.375a2.976,2.976,0,0,0-.789-.849,6.344,6.344,0,0,0-.883-.59,6.713,6.713,0,0,0-.957-.476,7.254,7.254,0,0,0-1.02-.327,3.56,3.56,0,0,0-1.055-.14c-.431.037-.562.27-.109.709a5.189,5.189,0,0,0,.838.657" fill="#fff"/>
          <path id="パス_1465" data-name="パス 1465" d="M1265.783,691.81c.391.1.787.134,1.146.19.411.056.8.113,1.162.13a5.679,5.679,0,0,0,1.151-.057c.645-.094.912-.306.609-.6a2.8,2.8,0,0,0-1.011-.565,7.905,7.905,0,0,0-1.038-.236,8.573,8.573,0,0,0-1.052-.169,7.856,7.856,0,0,0-1.069.011,3.33,3.33,0,0,0-1.029.266c-.4.177-.443.393.133.659a4.611,4.611,0,0,0,1,.369" fill="#fff"/>
        </g>
      </g>
    </g>
    <g id="グループ_125" data-name="グループ 125" transform="translate(138.234 1248)" style="mix-blend-mode: screen;isolation: isolate">
      <g id="グループ_124" data-name="グループ 124">
        <g id="グループ_123" data-name="グループ 123" clip-path="url(#clip-path-18)">
          <g id="グループ_122" data-name="グループ 122">
            <g id="グループ_121" data-name="グループ 121" clip-path="url(#clip-path-19)">
              <rect id="長方形_204" data-name="長方形 204" width="74.99" height="73.006" transform="matrix(0.098, -0.995, 0.995, 0.098, 1136.306, 902.596)" fill="url(#radial-gradient-13)"/>
            </g>
          </g>
          <path id="パス_1467" data-name="パス 1467" d="M1181.086,871.557a11.124,11.124,0,0,0,.46-1.813,7.672,7.672,0,0,0,.012-1.865,7.267,7.267,0,0,0-.382-1.826,6.32,6.32,0,0,0-.86-1.652,6.918,6.918,0,0,0-1.174-1.435,6.328,6.328,0,0,0-1.546-1.017,4.226,4.226,0,0,0-1.778-.477c-.539-.019-1.143-.129-1.757-.128a13.019,13.019,0,0,0-1.742.184,5.835,5.835,0,0,0-1.61.686,5.35,5.35,0,0,0-1.348,1.06,7.32,7.32,0,0,0-1.056,1.381,9.532,9.532,0,0,0-.707,1.6,12.76,12.76,0,0,0-.538,1.671,14.3,14.3,0,0,0-.352,1.891,9.347,9.347,0,0,0-.021,1.913,4.6,4.6,0,0,0,.5,1.852,3.735,3.735,0,0,0,1.351,1.344,7.066,7.066,0,0,0,1.709.8c.635.2,1.267.359,1.835.532a7.988,7.988,0,0,0,1.866.337,8.512,8.512,0,0,0,1.886-.18,7.557,7.557,0,0,0,1.808-.552,7.223,7.223,0,0,0,1.559-1.106,6.885,6.885,0,0,0,1.119-1.5,7.729,7.729,0,0,0,.77-1.7" fill="#f5ae2f"/>
          <path id="パス_1468" data-name="パス 1468" d="M1200.164,857.018a1.771,1.771,0,0,0-1.6-.728,1.518,1.518,0,0,0-1.339,1.082,2.106,2.106,0,0,0,.392,1.758,1.814,1.814,0,0,0,1.648.891,1.589,1.589,0,0,0,1.429-1.168,2.051,2.051,0,0,0-.526-1.835" fill="#fff"/>
          <path id="パス_1469" data-name="パス 1469" d="M1202.471,864.338a1.859,1.859,0,0,0-1.6-.76,1.534,1.534,0,0,0-1.342,1.094,2.146,2.146,0,0,0,.382,1.763,1.829,1.829,0,0,0,1.657.9,1.569,1.569,0,0,0,1.418-1.181,2,2,0,0,0-.515-1.816" fill="#fff"/>
          <path id="パス_1470" data-name="パス 1470" d="M1194.27,852.046a1.909,1.909,0,0,0-1.631-.757,1.57,1.57,0,0,0-1.329,1.129,2.019,2.019,0,0,0,.37,1.757,1.8,1.8,0,0,0,1.657.886,1.594,1.594,0,0,0,1.436-1.156,2.137,2.137,0,0,0-.5-1.859" fill="#fff"/>
          <path id="パス_1471" data-name="パス 1471" d="M1176.089,841.518a1.934,1.934,0,0,0-1.615-.776,1.589,1.589,0,0,0-1.351,1.132,2.025,2.025,0,0,0,.391,1.757,1.853,1.853,0,0,0,1.663.92,1.627,1.627,0,0,0,1.442-1.2,2.068,2.068,0,0,0-.53-1.834" fill="#fff"/>
          <path id="パス_1472" data-name="パス 1472" d="M1166.263,841.913a1.836,1.836,0,0,0-1.592-.754,1.573,1.573,0,0,0-1.359,1.091,2.124,2.124,0,0,0,.4,1.765,1.82,1.82,0,0,0,1.651.917,1.605,1.605,0,0,0,1.445-1.191,2.1,2.1,0,0,0-.545-1.828" fill="#fff"/>
          <path id="パス_1473" data-name="パス 1473" d="M1160.811,849.463a1.847,1.847,0,0,0-1.6-.766,1.5,1.5,0,0,0-1.323,1.126,2.007,2.007,0,0,0,.361,1.741,1.793,1.793,0,0,0,1.654.9,1.629,1.629,0,0,0,1.43-1.177,2.044,2.044,0,0,0-.524-1.82" fill="#fff"/>
          <path id="パス_1474" data-name="パス 1474" d="M1155.742,863.446a1.871,1.871,0,0,0-1.6-.748,1.547,1.547,0,0,0-1.347,1.115,2.073,2.073,0,0,0,.387,1.724,1.848,1.848,0,0,0,1.645.918,1.584,1.584,0,0,0,1.433-1.181,2.047,2.047,0,0,0-.514-1.828" fill="#fff"/>
          <path id="パス_1475" data-name="パス 1475" d="M1151.566,871.778a1.923,1.923,0,0,0-1.625-.763,1.588,1.588,0,0,0-1.333,1.133,2.059,2.059,0,0,0,.371,1.742,1.815,1.815,0,0,0,1.663.915,1.592,1.592,0,0,0,1.417-1.189,2.059,2.059,0,0,0-.493-1.838" fill="#fff"/>
          <path id="パス_1476" data-name="パス 1476" d="M1156.647,878.029a1.794,1.794,0,0,0-1.589-.745,1.527,1.527,0,0,0-1.338,1.1,2.068,2.068,0,0,0,.37,1.741,1.844,1.844,0,0,0,1.661.922,1.637,1.637,0,0,0,1.453-1.186,2.091,2.091,0,0,0-.557-1.832" fill="#fff"/>
          <path id="パス_1477" data-name="パス 1477" d="M1162.024,888.643a1.794,1.794,0,0,0-1.607-.721,1.521,1.521,0,0,0-1.35,1.087,2.082,2.082,0,0,0,.412,1.753,1.853,1.853,0,0,0,1.642.9,1.578,1.578,0,0,0,1.415-1.163,2.07,2.07,0,0,0-.512-1.855" fill="#fff"/>
          <path id="パス_1478" data-name="パス 1478" d="M1167.219,894.2a1.847,1.847,0,0,0-1.628-.745,1.518,1.518,0,0,0-1.315,1.117,2.065,2.065,0,0,0,.35,1.746,1.847,1.847,0,0,0,1.666.924,1.589,1.589,0,0,0,1.414-1.2,2.022,2.022,0,0,0-.487-1.843" fill="#fff"/>
          <path id="パス_1479" data-name="パス 1479" d="M1174.606,890.912a1.847,1.847,0,0,0-1.6-.773,1.534,1.534,0,0,0-1.326,1.121,2.038,2.038,0,0,0,.343,1.767,1.882,1.882,0,0,0,1.678.9,1.619,1.619,0,0,0,1.432-1.19,2.051,2.051,0,0,0-.526-1.826" fill="#fff"/>
          <path id="パス_1480" data-name="パス 1480" d="M1185.524,889.6a1.882,1.882,0,0,0-1.619-.757,1.527,1.527,0,0,0-1.338,1.115,2.092,2.092,0,0,0,.37,1.766,1.833,1.833,0,0,0,1.663.888,1.614,1.614,0,0,0,1.441-1.166,2.069,2.069,0,0,0-.517-1.846" fill="#fff"/>
          <path id="パス_1481" data-name="パス 1481" d="M1194.712,888.491a1.8,1.8,0,0,0-1.592-.739,1.5,1.5,0,0,0-1.344,1.1,2.108,2.108,0,0,0,.385,1.744,1.815,1.815,0,0,0,1.645.925,1.622,1.622,0,0,0,1.439-1.2,2.051,2.051,0,0,0-.533-1.835" fill="#fff"/>
          <path id="パス_1482" data-name="パス 1482" d="M1195.564,879.835a1.846,1.846,0,0,0-1.595-.779,1.562,1.562,0,0,0-1.335,1.119,2.068,2.068,0,0,0,.379,1.748,1.8,1.8,0,0,0,1.642.909,1.574,1.574,0,0,0,1.423-1.177,1.989,1.989,0,0,0-.514-1.82" fill="#fff"/>
          <path id="パス_1483" data-name="パス 1483" d="M1176.513,874.924a3.037,3.037,0,0,0,1.453-.844,5.814,5.814,0,0,0,1.074-1.337,8.514,8.514,0,0,0,.686-1.556,7.764,7.764,0,0,0,.349-1.671,7.986,7.986,0,0,0,.111-1.707,5.478,5.478,0,0,0-.466-1.649,3.276,3.276,0,0,0-.972-1.348,5.842,5.842,0,0,0-1.727-.988c-1.059-.367-1.766-.149-1.648.343.084.338.571.789,1.57,1.181a2.931,2.931,0,0,1,1.384,1.123,3.208,3.208,0,0,1,.406,1.747,4.564,4.564,0,0,1-.451,1.725,4.775,4.775,0,0,1-.96,1.508,3.306,3.306,0,0,1-1.567.852,3.89,3.89,0,0,0-1.435.694,1.357,1.357,0,0,0-.647,1.342c.108.382.469.681,1.254.719a5.235,5.235,0,0,0,1.586-.134" fill="#fff"/>
          <path id="パス_1484" data-name="パス 1484" d="M1173.649,865.28a4.745,4.745,0,0,0-1.3,1.112,6.085,6.085,0,0,0-.875,1.486,4.541,4.541,0,0,0-.409,1.658,2.336,2.336,0,0,0,.5,1.627c.71.865.776,1.467.409,1.663-.319.162-.99,0-1.757-.559a2.934,2.934,0,0,1-.954-1.445,6.871,6.871,0,0,1-.373-1.727,7.467,7.467,0,0,1,.058-1.763,4.625,4.625,0,0,1,.5-1.674,2.421,2.421,0,0,1,1.264-1.165,8.19,8.19,0,0,1,1.618-.419,3.614,3.614,0,0,1,1.652.06c.557.194.581.633-.325,1.146" fill="#fff"/>
          <path id="パス_1485" data-name="パス 1485" d="M1183.755,860.206c.457-.423.894-.848,1.27-1.261a16.093,16.093,0,0,0,1.1-1.418,10.882,10.882,0,0,0,.963-1.5c.4-.91.331-1.5-.307-1.344a4.469,4.469,0,0,0-1.547.872,9.026,9.026,0,0,0-1.212,1.121,14.521,14.521,0,0,0-1.077,1.227,13.247,13.247,0,0,0-.9,1.368,4.981,4.981,0,0,0-.571,1.56c-.118.65.186.943,1.019.421a9.05,9.05,0,0,0,1.258-1.044" fill="#fff"/>
          <path id="パス_1486" data-name="パス 1486" d="M1179.624,858.555c.289-.547.581-1.077.8-1.614.244-.591.406-1.178.572-1.694a9.018,9.018,0,0,0,.337-1.755c.1-1.005-.145-1.482-.689-1.132a4.607,4.607,0,0,0-1.161,1.317,9.943,9.943,0,0,0-.792,1.454,13.137,13.137,0,0,0-.58,1.535,11.914,11.914,0,0,0-.391,1.588,4.862,4.862,0,0,0,0,1.634c.1.659.46.835,1.071.086a8.673,8.673,0,0,0,.833-1.419" fill="#fff"/>
          <path id="パス_1487" data-name="パス 1487" d="M1167.388,860.589c-.409-.465-.851-.874-1.267-1.268a13.608,13.608,0,0,0-1.323-1.181,8.346,8.346,0,0,0-1.475-1.015c-.893-.461-1.456-.407-1.338.227a4.38,4.38,0,0,0,.809,1.581,8.969,8.969,0,0,0,1.02,1.286,10.866,10.866,0,0,0,1.221,1.094,12.619,12.619,0,0,0,1.33.968,4.6,4.6,0,0,0,1.513.644c.659.134.951-.156.473-.991a10.4,10.4,0,0,0-.963-1.345" fill="#fff"/>
          <path id="パス_1488" data-name="パス 1488" d="M1165.526,864.69a17.715,17.715,0,0,0-1.583-.824,14.129,14.129,0,0,0-1.672-.655,8.134,8.134,0,0,0-1.724-.485c-.984-.13-1.493.1-1.18.666a4.4,4.4,0,0,0,1.267,1.266,9.457,9.457,0,0,0,1.429.789,13.117,13.117,0,0,0,1.492.7,12.08,12.08,0,0,0,1.6.388,6.039,6.039,0,0,0,1.625.148c.665-.1.857-.456.12-1.1a8.251,8.251,0,0,0-1.372-.885" fill="#fff"/>
          <path id="パス_1489" data-name="パス 1489" d="M1163.041,874.951c-.526.331-.994.71-1.453,1.053-.507.382-.988.766-1.382,1.131a9.733,9.733,0,0,0-1.161,1.356c-.571.82-.626,1.366.028,1.353a4.633,4.633,0,0,0,1.674-.592,9.012,9.012,0,0,0,1.414-.823,11.724,11.724,0,0,0,1.252-1.058,15.91,15.91,0,0,0,1.131-1.191,5.707,5.707,0,0,0,.843-1.4c.234-.63.012-.953-.9-.6a8.041,8.041,0,0,0-1.446.775" fill="#fff"/>
          <path id="パス_1490" data-name="パス 1490" d="M1166.786,877.338a15.307,15.307,0,0,0-.975,1.494c-.355.535-.686,1.062-.939,1.531a10.975,10.975,0,0,0-.67,1.652c-.271.963-.106,1.528.5,1.3a4.558,4.558,0,0,0,1.4-1.114,9.78,9.78,0,0,0,.993-1.307,10.929,10.929,0,0,0,.9-1.367,12.21,12.21,0,0,0,.6-1.518,5.833,5.833,0,0,0,.424-1.607c.006-.672-.364-.9-1.1-.268a8.807,8.807,0,0,0-1.134,1.2" fill="#fff"/>
          <path id="パス_1491" data-name="パス 1491" d="M1173.908,880.935a17.017,17.017,0,0,0-.123,1.778,14.223,14.223,0,0,0-.112,1.8,10.355,10.355,0,0,0,.2,1.777c.234.973.674,1.381,1.095.884a4.894,4.894,0,0,0,.71-1.635,9.575,9.575,0,0,0,.256-1.624,13.539,13.539,0,0,0,.093-1.658,11.037,11.037,0,0,0-.232-1.625,5.184,5.184,0,0,0-.415-1.569c-.322-.6-.719-.635-1.062.282a7.338,7.338,0,0,0-.412,1.594" fill="#fff"/>
          <path id="パス_1492" data-name="パス 1492" d="M1178.2,879.721c.114.608.28,1.182.43,1.74a17.033,17.033,0,0,0,.56,1.685,8.916,8.916,0,0,0,.788,1.61c.542.836,1.077,1.106,1.3.5a4.5,4.5,0,0,0,.072-1.794,9.815,9.815,0,0,0-.283-1.611,11.414,11.414,0,0,0-.43-1.582,9.869,9.869,0,0,0-.758-1.46,5.418,5.418,0,0,0-.906-1.366c-.493-.453-.929-.34-.948.632a8.385,8.385,0,0,0,.178,1.647" fill="#fff"/>
          <path id="パス_1493" data-name="パス 1493" d="M1184.3,875.9c.526.34,1.041.648,1.54.915a13.065,13.065,0,0,0,1.655.708,9.258,9.258,0,0,0,1.709.519c.981.173,1.51.012,1.219-.578a4.6,4.6,0,0,0-1.216-1.307,9.609,9.609,0,0,0-1.36-.908,10.32,10.32,0,0,0-1.474-.734,11.112,11.112,0,0,0-1.571-.5,5.5,5.5,0,0,0-1.624-.217c-.665.058-.867.417-.169,1.093a8.019,8.019,0,0,0,1.291,1.012" fill="#fff"/>
          <path id="パス_1494" data-name="パス 1494" d="M1184.922,871.488c.6.146,1.213.206,1.766.292.632.087,1.234.174,1.79.2a8.761,8.761,0,0,0,1.772-.088c.993-.145,1.405-.471.939-.921a4.336,4.336,0,0,0-1.559-.871,12.086,12.086,0,0,0-1.6-.362,13.01,13.01,0,0,0-1.622-.261,11.9,11.9,0,0,0-1.645.017,5.149,5.149,0,0,0-1.586.409c-.611.274-.683.606.2,1.015a7.12,7.12,0,0,0,1.537.569" fill="#fff"/>
        </g>
      </g>
    </g>
  </g>
</svg>
