<svg id="グループ_569" data-name="グループ 569" xmlns="http://www.w3.org/2000/svg" xmlns:xlink="http://www.w3.org/1999/xlink" width="338.623" height="575.291" viewBox="0 0 338.623 575.291">
  <defs>
    <clipPath id="clip-path">
      <rect id="長方形_310" data-name="長方形 310" width="338.623" height="575.291" fill="none"/>
    </clipPath>
    <clipPath id="clip-path-4">
      <rect id="長方形_298" data-name="長方形 298" width="124.512" height="73.371" fill="none"/>
    </clipPath>
    <clipPath id="clip-path-5">
      <path id="パス_1699" data-name="パス 1699" d="M253.184,196.86c11.25-9.823,29.16-19,29.16-19s-10.818,15.886-22.086,25.709-16.725,11.709-18.68,9.841c-1.949-1.849.346-6.732,11.606-16.552" transform="translate(-240.955 -177.862)" fill="none"/>
    </clipPath>
    <radialGradient id="radial-gradient" cx="0.516" cy="0.484" r="0.52" gradientTransform="translate(-0.696 -20.275) scale(0.876 1)" gradientUnits="objectBoundingBox">
      <stop offset="0" stop-color="#eec3a4"/>
      <stop offset="0.579" stop-color="#df8b58"/>
      <stop offset="1" stop-color="#8b5532"/>
    </radialGradient>
    <clipPath id="clip-path-6">
      <path id="パス_1702" data-name="パス 1702" d="M234.709,212.1c6.486-15.514,20.352-33.371,20.352-33.371s-2.7,21.732-9.174,37.236-11.221,20-14.315,18.934-3.353-7.29,3.137-22.8" transform="translate(-229.467 -178.733)" fill="none"/>
    </clipPath>
    <radialGradient id="radial-gradient-2" cx="0.523" cy="0.492" r="0.382" gradientTransform="translate(9.627 -12.873) scale(2.132 1)" xlink:href="#radial-gradient"/>
    <clipPath id="clip-path-7">
      <path id="パス_1705" data-name="パス 1705" d="M186.994,196.86c-11.252-9.823-29.162-19-29.162-19s10.828,15.886,22.086,25.709,16.725,11.709,18.68,9.841c1.961-1.849-.346-6.732-11.6-16.552" transform="translate(-157.832 -177.862)" fill="none"/>
    </clipPath>
    <radialGradient id="radial-gradient-3" cx="0.484" cy="0.484" r="0.52" gradientTransform="translate(-0.459 -20.275) scale(0.876 1)" xlink:href="#radial-gradient"/>
    <clipPath id="clip-path-8">
      <path id="パス_1708" data-name="パス 1708" d="M205.469,212.1c-6.494-15.514-20.354-33.371-20.354-33.371s2.682,21.732,9.182,37.236c6.473,15.516,11.217,20,14.3,18.934s3.357-7.29-3.131-22.8" transform="translate(-185.115 -178.733)" fill="none"/>
    </clipPath>
    <radialGradient id="radial-gradient-4" cx="0.477" cy="0.492" r="0.382" gradientTransform="translate(7.809 -12.873) scale(2.132 1)" xlink:href="#radial-gradient"/>
    <clipPath id="clip-path-9">
      <path id="パス_1711" data-name="パス 1711" d="M212.205,224.414c0-19.938,7.19-45.391,7.19-45.391s7.185,25.453,7.185,45.391-3.215,26.818-7.185,26.818-7.19-6.883-7.19-26.818" transform="translate(-212.205 -179.023)" fill="none"/>
    </clipPath>
    <radialGradient id="radial-gradient-5" cx="0.5" cy="0.5" r="0.36" gradientTransform="translate(59.391 -9.976) scale(5.023 1)" xlink:href="#radial-gradient"/>
    <clipPath id="clip-path-10">
      <rect id="長方形_304" data-name="長方形 304" width="84.392" height="49.712" fill="none"/>
    </clipPath>
    <clipPath id="clip-path-11">
      <path id="パス_1714" data-name="パス 1714" d="M277.893,227.958c7.623-6.658,19.769-12.873,19.769-12.873s-7.34,10.764-14.965,17.416-11.336,7.934-12.662,6.672.237-4.559,7.858-11.215" transform="translate(-269.612 -215.085)" fill="none"/>
    </clipPath>
    <radialGradient id="radial-gradient-6" cx="0.516" cy="0.484" r="0.52" gradientTransform="translate(-1.154 -27.451) scale(0.876 1)" gradientUnits="objectBoundingBox">
      <stop offset="0" stop-color="#c8dca0"/>
      <stop offset="0.579" stop-color="#99c965"/>
      <stop offset="1" stop-color="#5e8742"/>
    </radialGradient>
    <clipPath id="clip-path-12">
      <path id="パス_1717" data-name="パス 1717" d="M265.375,238.293c4.4-10.5,13.791-22.614,13.791-22.614s-1.816,14.725-6.224,25.235c-4.391,10.506-7.6,13.543-9.69,12.824s-2.273-4.939,2.123-15.445" transform="translate(-261.825 -215.679)" fill="none"/>
    </clipPath>
    <radialGradient id="radial-gradient-7" cx="0.523" cy="0.492" r="0.382" gradientTransform="translate(16.247 -17.563) scale(2.132 1)" xlink:href="#radial-gradient-6"/>
    <clipPath id="clip-path-13">
      <path id="パス_1720" data-name="パス 1720" d="M233.045,227.958c-7.627-6.658-19.775-12.873-19.775-12.873s7.347,10.764,14.974,17.416,11.34,7.934,12.66,6.672-.232-4.559-7.859-11.215" transform="translate(-213.27 -215.085)" fill="none"/>
    </clipPath>
    <radialGradient id="radial-gradient-8" cx="0.484" cy="0.484" r="0.52" gradientTransform="translate(-0.919 -27.451) scale(0.875 1)" xlink:href="#radial-gradient-6"/>
    <clipPath id="clip-path-14">
      <path id="パス_1723" data-name="パス 1723" d="M245.559,238.293c-4.4-10.5-13.791-22.614-13.791-22.614s1.812,14.725,6.217,25.235,7.611,13.543,9.705,12.824,2.265-4.939-2.131-15.445" transform="translate(-231.768 -215.679)" fill="none"/>
    </clipPath>
    <radialGradient id="radial-gradient-9" cx="0.477" cy="0.492" r="0.382" gradientTransform="translate(14.428 -17.563) scale(2.132 1)" xlink:href="#radial-gradient-6"/>
    <clipPath id="clip-path-15">
      <path id="パス_1726" data-name="パス 1726" d="M250.133,246.627c0-13.5,4.867-30.748,4.867-30.748s4.871,17.244,4.871,30.748S257.692,264.8,255,264.8s-4.867-4.658-4.867-18.171" transform="translate(-250.133 -215.879)" fill="none"/>
    </clipPath>
    <radialGradient id="radial-gradient-10" cx="0.5" cy="0.5" r="0.36" gradientTransform="translate(103.35 -13.694) scale(5.024 1)" xlink:href="#radial-gradient-6"/>
    <clipPath id="clip-path-16">
      <rect id="長方形_306" data-name="長方形 306" width="74.229" height="76.767" fill="none"/>
    </clipPath>
    <clipPath id="clip-path-17">
      <path id="パス_1728" data-name="パス 1728" d="M126.441,71.11a19.366,19.366,0,0,0,.471,1.98,16.756,16.756,0,0,0,.526,1.949,17.114,17.114,0,0,0,.953,1.771,14.555,14.555,0,0,0,.8,1.835,16.343,16.343,0,0,0,1.176,1.6,13.385,13.385,0,0,0,1.2,1.613c.5.436.829,1.179,1.386,1.544a14.727,14.727,0,0,0,1.989.637,12.126,12.126,0,0,0,1.611.824c-.237.558-.152.958-.35,1.537s-.312,1.169-.447,1.771a16.822,16.822,0,0,0-.117,1.81c-.074.607-.533,1.181-.538,1.785a16.981,16.981,0,0,0,.117,1.839,18.174,18.174,0,0,0,.509,1.968,19.962,19.962,0,0,0,.261,2.029,17.341,17.341,0,0,0,.873,1.841,17.869,17.869,0,0,0,.88,1.838c.359.576.745,1.168,1.148,1.7s.851,1.08,1.308,1.576,1.141.776,1.63,1.226,1.173.678,1.716,1.1c.532.4,1.1.724,1.657,1.092.576.376,1.011.914,1.608,1.23s1.205.62,1.808.888,1.21.605,1.831.808a12.57,12.57,0,0,0,2.053.308,12.332,12.332,0,0,0,2.023.1,14.644,14.644,0,0,0,2.031.027,17.75,17.75,0,0,0,2.044-.094,14.6,14.6,0,0,0,2.052-.308,20.069,20.069,0,0,0,1.885-.857c.613-.306,1.168-.7,1.762-1.066a17.68,17.68,0,0,0,1.857-.945,17.483,17.483,0,0,0,1.523-1.341c.474-.486.86-1.058,1.276-1.571.413-.532.787-1.089,1.141-1.649a19.251,19.251,0,0,0,.613-1.938,14.771,14.771,0,0,0,.885-1.771c.2-.638.161-1.307.3-1.969.13-.643.616-1.157.684-1.831.5.373,1.2.356,1.8.7a14.36,14.36,0,0,0,1.669,1.1,15.886,15.886,0,0,0,1.87.724c.618.172,1.276.277,1.958.394a17.393,17.393,0,0,0,1.972.259,15.869,15.869,0,0,0,1.855-.1c.586-.057,1.3.244,1.928.083.577-.152.973-.952,1.577-1.2a14.237,14.237,0,0,0,1.774-.578,14.791,14.791,0,0,0,1.5-1.1,15.879,15.879,0,0,0,1.376-1.222c.448-.4.958-.749,1.4-1.22.406-.443.843-.845,1.252-1.363.381-.474.75-.975,1.116-1.507s.868-.967,1.193-1.509c.35-.545.354-1.269.645-1.819.316-.586,1.024-.933,1.274-1.511.268-.612.293-1.286.5-1.867.215-.627.785-1.129.931-1.736a19.58,19.58,0,0,0,0-1.969,18.319,18.319,0,0,0-.113-1.921c.013-.632.548-1.295.484-1.923a14.349,14.349,0,0,0-.537-1.962,13.7,13.7,0,0,0-.335-2.026c-.24-.612-.9-1.064-1.222-1.648a17.557,17.557,0,0,0-.79-1.9c-.4-.52-1.06-.864-1.532-1.353a18.456,18.456,0,0,0-1.525-1.3,15.917,15.917,0,0,0-1.591-1.216,16.862,16.862,0,0,0-1.811-.863c-.6-.287-1.481-.382-2.116-.609.3-.571.718-1.266.967-1.846s.8-1.06,1-1.647c.213-.605-.134-1.365.008-1.971.146-.623.528-1.166.611-1.795a15.813,15.813,0,0,0,.484-1.873c.009-.625-.475-1.264-.533-1.87a15.629,15.629,0,0,0-.091-1.922,13.587,13.587,0,0,0-.745-1.766,14.406,14.406,0,0,0-.75-1.736c-.3-.578-.186-1.382-.54-1.914s-1.232-.665-1.643-1.155-.374-1.416-.831-1.856-1.273-.48-1.776-.871a15.281,15.281,0,0,0-1.655-.92,16.27,16.27,0,0,0-1.652-.94c-.584-.257-1.027-.906-1.625-1.1a12.505,12.505,0,0,0-1.961-.038c-.647-.115-1.253-.64-1.884-.7-.643-.011-1.3.438-1.926.5a15.513,15.513,0,0,0-1.977-.083c-.63.188-1.112.8-1.7,1.054a12.748,12.748,0,0,0-1.574,1.072c-.525.348-1.373.331-1.84.786-.462.424-.711,1.291-1.115,1.795a20.643,20.643,0,0,0-.694-2c-.369-.551-1.129-.783-1.537-1.252a12.412,12.412,0,0,0-1.42-1.239c-.484-.425-.694-1.222-1.224-1.56a13.423,13.423,0,0,0-1.667-1.041c-.587-.263-1.273-.335-1.877-.539a15.224,15.224,0,0,0-1.882-.432,13.026,13.026,0,0,0-1.911-.361c-.653-.03-1.276.61-1.9.665-.642.057-1.309-.186-1.933-.075a17.383,17.383,0,0,0-1.808.561,16.867,16.867,0,0,0-1.86.549c-.555.288-.909.964-1.437,1.318s-1.347.333-1.838.766A13.007,13.007,0,0,0,142,39.785a13.262,13.262,0,0,0-1.056,1.625,13.516,13.516,0,0,0-.821,1.75,15.732,15.732,0,0,0-.435,1.887c-.159.58-.7,1.127-.8,1.784-.091.62.518,1.284.506,1.939,0,.622-.643,1.279-.579,1.938l.044,0c.065.68.576,1.493.725,2.189a13.465,13.465,0,0,0-2.285-.039,10.633,10.633,0,0,0-2.055.636,11.708,11.708,0,0,0-2.051.749,12.184,12.184,0,0,0-1.566,1.531c-.5.458-1.276.728-1.711,1.288a15.384,15.384,0,0,0-.848,1.978,15.405,15.405,0,0,0-.86,1.88c-.269.629-.753,1.213-.966,1.868-.188.667-.159,1.408-.305,2.084-.125.679-.545,1.344-.606,2.029s.535,1.414.528,2.113-.487,1.414-.418,2.1" transform="translate(-126.326 -34.588)" fill="none"/>
    </clipPath>
    <radialGradient id="radial-gradient-11" cx="0.491" cy="0.5" r="0.46" gradientTransform="translate(-2.866 1) rotate(180) scale(0.973 1)" gradientUnits="objectBoundingBox">
      <stop offset="0" stop-color="#fbdb86"/>
      <stop offset="0.756" stop-color="#e41714"/>
      <stop offset="0.995" stop-color="#870000"/>
      <stop offset="1" stop-color="#870000"/>
    </radialGradient>
    <clipPath id="clip-path-18">
      <rect id="長方形_308" data-name="長方形 308" width="46.389" height="47.981" fill="none"/>
    </clipPath>
    <clipPath id="clip-path-19">
      <path id="パス_1757" data-name="パス 1757" d="M255.807,334.9c.038.412.212.815.292,1.24.082.4.208.814.327,1.212a11.512,11.512,0,0,0,.592,1.118,10.508,10.508,0,0,0,.517,1.132,7.764,7.764,0,0,0,.722,1.006,9.048,9.048,0,0,0,.749,1.005c.313.28.521.751.879.973a8.561,8.561,0,0,0,1.237.389,6.822,6.822,0,0,0,1,.521c-.149.359-.092.6-.22.96s-.193.741-.275,1.1-.03.764-.08,1.141-.33.739-.33,1.11a10.7,10.7,0,0,0,.076,1.156,9.8,9.8,0,0,0,.323,1.229,8.894,8.894,0,0,0,.16,1.26,10.578,10.578,0,0,0,.537,1.16c.181.376.336.789.548,1.149.229.359.462.724.718,1.052s.533.673.816.986.716.486,1.029.766a12.257,12.257,0,0,0,1.064.683c.332.255.693.465,1.039.7s.638.559,1.005.757.745.387,1.129.556.76.372,1.144.509a9.459,9.459,0,0,0,1.281.2,11.1,11.1,0,0,0,1.27.056,9.558,9.558,0,0,0,1.267.024,11.454,11.454,0,0,0,1.277-.072,9.087,9.087,0,0,0,1.284-.194,9.81,9.81,0,0,0,1.171-.532,12.167,12.167,0,0,0,1.1-.662,11.243,11.243,0,0,0,1.167-.6,8.652,8.652,0,0,0,.941-.84,11.392,11.392,0,0,0,.8-.971,10.911,10.911,0,0,0,.706-1.031,9.823,9.823,0,0,0,.392-1.216,9.675,9.675,0,0,0,.554-1.106,10.393,10.393,0,0,0,.189-1.231c.076-.415.389-.728.42-1.142.323.229.76.215,1.14.439a6,6,0,0,0,2.2,1.124,8.315,8.315,0,0,0,1.23.252,7.794,7.794,0,0,0,1.234.161,9.364,9.364,0,0,0,1.152-.063c.365-.041.812.161,1.209.046.361-.089.611-.592.995-.751a8.025,8.025,0,0,0,1.1-.349,9.96,9.96,0,0,0,.938-.692,10.238,10.238,0,0,0,.859-.773c.277-.242.6-.457.877-.749.254-.271.525-.553.783-.846.233-.3.466-.611.7-.945s.535-.612.739-.95.22-.793.407-1.144.638-.577.8-.943a10.674,10.674,0,0,0,.312-1.164c.132-.378.491-.7.582-1.084a10.486,10.486,0,0,0-.013-1.23,10.1,10.1,0,0,0-.063-1.188c.006-.408.336-.824.3-1.211a9.129,9.129,0,0,0-.332-1.234,8.487,8.487,0,0,0-.2-1.258c-.155-.389-.563-.67-.766-1.034a9.553,9.553,0,0,0-.5-1.173,9.272,9.272,0,0,0-.947-.852c-.3-.288-.633-.56-.957-.814a10.434,10.434,0,0,0-.992-.773,8.616,8.616,0,0,0-2.458-.909c.187-.358.449-.806.6-1.157.16-.368.508-.667.63-1.028.134-.379-.084-.855,0-1.239a11.223,11.223,0,0,0,.384-1.116c.054-.4.3-.781.315-1.177s-.307-.783-.347-1.178a9.745,9.745,0,0,0-.056-1.192,8.02,8.02,0,0,0-.466-1.1,7.684,7.684,0,0,0-.47-1.087c-.179-.348-.116-.861-.336-1.185s-.766-.43-1.018-.723c-.258-.314-.24-.884-.525-1.156s-.793-.315-1.11-.547a9.894,9.894,0,0,0-1.037-.583,8.278,8.278,0,0,0-1.029-.572c-.365-.174-.638-.586-1.018-.7s-.843.047-1.221-.024c-.41-.071-.783-.407-1.178-.42-.411-.023-.81.262-1.2.3s-.867-.152-1.245-.054c-.393.1-.7.49-1.054.65a7.228,7.228,0,0,0-.982.679c-.327.21-.867.191-1.159.481a9.653,9.653,0,0,0-.69,1.13c-.2-.359-.223-.93-.435-1.253-.226-.34-.7-.487-.967-.787a7.54,7.54,0,0,0-.88-.772c-.308-.277-.436-.767-.762-.978a11,11,0,0,0-1.047-.643,11.634,11.634,0,0,0-1.18-.342,9.794,9.794,0,0,0-1.171-.271,10.656,10.656,0,0,0-1.2-.22c-.394-.01-.785.382-1.177.411s-.819-.12-1.2-.043a10.37,10.37,0,0,0-1.146.353,7.62,7.62,0,0,0-1.152.35c-.355.169-.565.588-.9.814s-.848.207-1.139.484a7.7,7.7,0,0,0-.857.875,9.534,9.534,0,0,0-.665,1.014,10.188,10.188,0,0,0-.51,1.1,9.958,9.958,0,0,0-.269,1.165c-.094.375-.441.713-.5,1.127-.055.376.333.8.319,1.208,0,.384-.393.807-.355,1.212,0,0,.029,0,.033.006a13.33,13.33,0,0,0,.452,1.368,8.4,8.4,0,0,0-1.442-.032,6.207,6.207,0,0,0-1.281.406,6.56,6.56,0,0,0-1.282.457,7.644,7.644,0,0,0-.972.951c-.319.3-.8.463-1.07.817a9.8,9.8,0,0,0-.529,1.228,11.273,11.273,0,0,0-.546,1.18,10.957,10.957,0,0,0-.59,1.177,12.569,12.569,0,0,0-.2,1.3c-.086.423-.338.838-.384,1.272s.336.874.338,1.313-.307.885-.263,1.315" transform="translate(-255.728 -312.072)" fill="none"/>
    </clipPath>
    <radialGradient id="radial-gradient-12" cx="0.491" cy="0.5" r="0.46" gradientTransform="matrix(-0.974, 0, 0, -1, -9.535, 1)" gradientUnits="objectBoundingBox">
      <stop offset="0" stop-color="#96b8e0"/>
      <stop offset="0.756" stop-color="#4b65ac"/>
      <stop offset="1" stop-color="#100054"/>
    </radialGradient>
  </defs>
  <g id="グループ_315" data-name="グループ 315" clip-path="url(#clip-path)">
    <g id="グループ_314" data-name="グループ 314">
      <g id="グループ_313" data-name="グループ 313" clip-path="url(#clip-path)">
        <g id="グループ_276" data-name="グループ 276" opacity="0.78" style="mix-blend-mode: screen;isolation: isolate">
          <g id="グループ_275" data-name="グループ 275">
            <g id="グループ_274" data-name="グループ 274" clip-path="url(#clip-path)">
              <path id="パス_1693" data-name="パス 1693" d="M196.3,507.074c42.015,0,38.3,9.662,27.432,9.948s-16.568,14.795,5.72,15.079,16.3,11.374,1.431,10.806-22.862,10.807,25.157,11.943c14.889.348,36.307-.564,35.447-7.965s-17.187-3.429-26.049-4-11.147-9.955,2.284-10.239,36.914,1.154,54.066,1.154,25.448-13.935,4.006-15.355-50.307,2.27-70.039-1.144-17.73-9.946-.574-9.664,26.583-14.223,4.863-15.359-61.185-.92-69.041.476c-9.958,1.778-14.735,14.317,5.3,14.317" transform="translate(0 -471.172)" fill="#cdd9df"/>
              <path id="パス_1694" data-name="パス 1694" d="M67.66,433.808c-16.332.35-39.684-.222-57.186.9S-.26,446.851,13.743,446.851s33.172-1.136,44.145-.907,8.7,5.127,1.471,5.576-30.685-1.772-31.383,4.075,27.3,8.444,39.444,7.911c50.219-2.2,32.679-9.9,20.541-9.455s-17.036-8.323,1.167-8.545S102.862,434.215,94,433.995s-15.892-.409-26.337-.187" transform="translate(0 -321.99)" fill="#cdd9df"/>
              <path id="パス_1695" data-name="パス 1695" d="M189.852,44.454c0-48.413-79.525-46.31-107.183-42.909-2.34.191-4.579.461-6.714.794-33.5,3.444-47.4,18.9-46.468,36.558C30.5,57.927,48.273,65.551,77.106,66.542c5.633.758,12.35.117,20.321-2.717,29.429-10.483,20.16-42.328,0-45.553S72.025,30.772,71.62,34.8s3.857,7.868,9.277,3.227c2.822-2.416-.4-8.057-2.825-7.252,4.168-5.753,8.956-8.189,13.581-8.525,17.408,3.535,15.14,28.307,5.182,36.682C84.6,63.9,68.42,59.666,62.351,53.342,52.673,43.266,49.856,11.419,77.267,7.8a189.6,189.6,0,0,1,37.249-2.968c63.152,8.992,39.553,66.251,8.924,73.991-6.487.527-13.347.8-20.523.8-47.862,0-94.753,3.9-94.753,37.116,0,19.1,18.435,26.887,39.3,30.056-16.977,3.666-23.676,14.07-23.09,28.193.726,17.75,18.709,26.733,40.333,27.7l-.033-.022a39.642,39.642,0,0,0,19.719-3.624c21.384-9.717,17.015-32.808,1.7-37.666s-27.219,6.8-23.574,19.441,20.409,11.182,20.409.245c.246-6.8-5.347-8.017-6.314-3.885s3.159,5.1,3.159,5.1c-1.7,5.1-12.393,6.56-14.579-3.4s8.988-18.465,18.709-14.332,16.768,17.98,4.621,28.194c-6.825,5.724-17.778,8.081-27.924,5.908-11.551-6.237-28.356-42.486,10.755-49.862,7.324.225,14.188.191,19.837.191,26.971-1.964,35.725-21.364,26-38.622s-35.721-9.725-41.308-1.947,4.13,10.207,6.8,7.534,1.457-6.806-1.7-6.316a18.266,18.266,0,0,1,9.087-5.945c17.608,3.635,26.979,32.621-4.049,41.392-4.752.012-10.916.083-17.639-.155-23.369-4.042-47.6-48.114,3.6-58.142,9.959-.466,19.042-.316,25.067-.316,21.487,0,92.8-1.457,92.8-42M99.736,142.872c13.939-8.638,17.294-34.723-3.861-39.947,9.281.2,18.379,6.716,19.62,16.173,1.742,13.263-5.8,20.485-15.759,23.774M57.2,144.212q-3.395-.324-6.764-.82c-20.27-7.36-37.954-41.124-2.045-53.516-22.776,13.55-13.142,48.629,8.809,54.336m-3.727,52.039a28.782,28.782,0,0,1-12.82-11.539c-8.251-14.008.662-29.793,19.127-34.993-20.567,7.414-23.27,34.719-6.307,46.532M46.239,151c-10.745,6.65-16.057,20.034-10.936,31.52A33.609,33.609,0,0,0,46.138,195.75c-10.3-3.874-17.492-10.226-18.371-21.246-.887-11.234,7.012-19.315,18.472-23.5M27.622,96.24c-10.353,13.05-5.638,33.577,6.868,43.309C23.268,135.416,15,128.243,15,115.759c0-8.966,5-15.19,12.622-19.519M61.133,58.959c-8.567-3.282-15.86-9.43-16.107-21.077C44.8,26.814,49.235,19.682,56.1,14.841c-6.919,10.2-5.893,23.585-3.826,30.038a34.343,34.343,0,0,0,8.858,14.08m40.256-2.47c9.807-9.109,9.329-28.832-3.987-33.638,8.13,2.326,14.547,10.243,14.129,15.98-1.191,8.542-5.05,14.183-10.142,17.658M46.371,16.773a29.583,29.583,0,0,0-6.694,21.359c.563,8.65,4.937,15.164,11.183,19.747C41.667,54.225,34.312,48.33,34.074,38.64c-.229-9.391,4.621-16.552,12.3-21.867m103.872-4.739c35.814,16.8,17.772,53.547-6.714,64.028-1.677.342-3.405.651-5.157.943,22.861-10.488,34.31-48.6,11.871-64.971M183.99,43.476c.484,13.217-9.314,22.713-25.987,28.646,16.5-9.812,23.8-34.108,12.68-50.3,8.684,6.947,13.063,14.9,13.307,21.65" transform="translate(0 372.501)" fill="#cdd9df"/>
              <path id="パス_1696" data-name="パス 1696" d="M156.307,525.5c-3.469,0-8.7.086-14.437-.18-29.49-5.777-15.533-31.16-2.072-33.487,3.872-.137,7.422-.1,10.159-.088,17.87,5.05,12.473,21.743,2.332,23.838a10.536,10.536,0,0,1-5.235-3.423c1.821.282,2.521-2.1.981-3.639s-7.142-.141-3.921,4.339,18.2,8.817,23.793-1.122.558-21.111-14.976-22.243c-3.253,0-7.206-.02-11.425.11-22.526-4.248-12.847-25.126-6.195-28.718,5.845-1.251,12.154.1,16.084,3.4,6.995,5.88,2.939,13.857-2.661,16.237s-12.038-2.516-10.776-8.255,7.416-4.9,8.4-1.959a2.388,2.388,0,0,0-1.82,2.934c.557,2.38,3.779,1.684,3.638-2.236,0-6.3-9.658-7.137-11.756.141s4.759,14,13.577,11.2,11.336-16.1-.979-21.7a22.88,22.88,0,0,0-11.359-2.086l.021-.011c-12.457.559-22.813,5.734-23.231,15.955-.337,8.136,3.52,14.126,13.3,16.239-12.016,1.823-22.632,6.307-22.632,17.309,0,19.13,27.005,21.375,54.572,21.375,4.132,0,8.084.161,11.821.463,17.639,4.457,31.23,37.436-5.142,42.615a109.454,109.454,0,0,1-21.453-1.71c-15.787-2.087-14.163-20.426-8.589-26.231,3.494-3.641,12.811-6.078,19.86-3.219,5.733,4.823,7.041,19.093-2.985,21.127-2.665-.192-5.421-1.594-7.821-4.909,1.4.462,3.252-2.785,1.626-4.176-3.122-2.673-5.572-.467-5.341,1.86s3.25,11.372,14.861,9.514,16.95-20.2,0-26.233a24.866,24.866,0,0,0-11.7-1.565c-16.606.567-26.84,4.961-27.427,15.92-.538,10.174,7.469,19.072,26.764,21.055q1.845.288,3.868.458c15.928,1.959,61.73,3.17,61.73-24.712,0-23.354-41.068-24.193-53.445-24.193m10.621-18.8c-.718,5.446-5.955,9.2-11.3,9.314,12.184-3.009,10.252-18.033,2.225-23.006,5.738,1.893,10.08,6.051,9.077,13.692m-38.651,16.829c-20.682-7.136-10.5-26.583,1.179-30.821,1.293-.193,2.593-.348,3.894-.473-12.64,3.287-18.189,23.491-5.073,31.294m6.561-34.466c-10.636-2.994-15.768-12.085-11.017-20.156a16.578,16.578,0,0,1,7.384-6.645c-9.77,6.806-8.212,22.532,3.633,26.8M116.4,474.786c.506-6.344,4.649-10,10.58-12.235a19.369,19.369,0,0,0-6.24,7.617c-2.95,6.617.11,14.326,6.3,18.154-6.6-2.41-11.148-7.066-10.638-13.536m-7.353,33.833c0-7.188,4.762-11.322,11.226-13.7-7.2,5.6-9.919,17.428-3.958,24.943-4.387-2.494-7.268-6.08-7.268-11.244m21.468,40.823c-1.191,3.716-1.782,11.428,2.2,17.3-3.955-2.787-6.511-6.895-6.378-13.27.142-6.707,4.342-10.249,9.276-12.14a19.792,19.792,0,0,0-5.1,8.109m34.127,3.483c.242,3.3-3.454,7.863-8.137,9.206,7.67-2.769,7.947-14.13,2.3-19.376,2.933,2.005,5.153,5.252,5.84,10.17m-44.61.112c.136-5.582,4.373-8.977,9.667-11.081a14.966,14.966,0,0,0-6.439,11.372,17.032,17.032,0,0,0,3.854,12.3c-4.421-3.062-7.214-7.187-7.082-12.594m60.069-22.1c1.01.167,2,.348,2.97.544,14.1,6.036,24.493,27.2,3.868,36.877,12.923-9.431,6.329-31.38-6.838-37.421m18.609,31.781c6.406-9.325,2.2-23.319-7.3-28.965,9.6,3.412,15.244,8.884,14.965,16.494-.138,3.888-2.66,8.469-7.663,12.471" transform="translate(0 -458.496)" fill="#cdd9df"/>
              <path id="パス_1697" data-name="パス 1697" d="M221.708,221.062c-49.168,16.583-24.035,48.652,41.139,42.735,34.072-3.071,51.852-36.615-1.4-35.169-24.416.936-18.949,20.4-4.173,20.852,7.4-.5,7.62-10.072.132-5.885-4.442.3-11.705-5.076-4.235-8.525s34.829-3.853,35.332,6.4-18.917,18.925-41.8,17.547c-.237-.007-.462-.033-.693-.045-24.405-3.017-34.118-27.2,3.371-39.467a158.456,158.456,0,0,1,28.3-1.742c56.446,9.867,36.183,46.786-.074,56.537a213.036,213.036,0,0,1-51.3,3.005c-40.6-2.362-92.081-13.525-131.525-2.018s-52.711,41.8-38.6,70.951C67.1,368.8,99.579,377.56,120.889,380.9c-8.59,2.378-15.188,7.6-17.481,14.852-3.631,11.508,10.569,21.787,28.22,24.735-.187.014-.36.012-.552.025-23.8,2.326-47.049,11.007-48.248,22.777s24.125,17.178,41.99,18.2c18.189,1.047,20.523,10.279,11.644,15.237,14.44-6.255,7.11-16.2-10.9-17.346-2.467-.161-4.967-.389-7.43-.7-32.6-11.521-18.565-26.319-.848-33.544a92.878,92.878,0,0,1,18.132-2.858c19.392-.863,23.72,11.438,21.957,17.284-1.183,3.954-6.436,8.032-12.66,10.152-17.508-.63-17.547-16.783-3.245-18.082a11.521,11.521,0,0,1,6.984,4.872s-2.3-.07-1.909,2.883,5.722,1.667,5.127-2.187-7.187-8.446-17.34-7.984-22.364,10.013-12.653,18.971c4.87,4.5,12.67,5.67,20.037,4.459,18.515-1.757,28.467-8.088,28.875-16.051.4-7.987-10.906-15.566-30.794-16.148-.345-.036-.689-.056-1.041-.07-.094-.025-.187-.048-.293-.066l.171-.015c-20.979-8.044-23.449-32.783,11.564-32.969.692.171,1.379.342,2.056.524,16.289,4.315,37.39,1.51,49.7-5.164,19.967-8.4,42.806,1.562,34.1,24.417-4.769,7.976-12.776,12.319-21.2,14.182-9.109.53-20.989-2.594-20.155-12.115.834-9.5,12.312-14.948,20.851-11.762,5.4,3.755,4.888,10.979,2.015,14.972-1.567-.94-4.7-2.82-6.082-.367s.938,5.454,5.742,3.289c8.553-3.48,10.524-20.172-7.424-22.1-28.755-3.034-44.949,22.26-20.53,29.786a47.784,47.784,0,0,0,20.81,1.729,55.791,55.791,0,0,1,9.092,1.913c11.057,5.861,4.556,20.778-5.914,24.088a18.26,18.26,0,0,1-12.2-1.426c-6.515-3.367-5.9-12.314-.484-15.012s10.729-1.394,12.66,1.795.817,7.914-4.151,5.933c1.05-2.069.419-3.68-1.911-4.192s-3.083,3.535-1.466,5.75c2.59,3.81,13.345,1.412,10.88-7.722s-21.258-6.518-23.156,3.242,8.015,15.071,16.386,14.831,22.871-5.88,23.116-16.535c.242-10.233-10.325-13.817-17.994-13.617,12.737-3.215,22.365-11.431,25.467-19.518,12.461-35.9-21.686-38.465-34.278-27.789s-42.205,10.242-61.13,4.878a48.576,48.576,0,0,0-12.457-1.843c-6.291-1.1-12.814-2.51-19.254-4.3-25.006-12.76-33.832-36.818-27.063-56.119,6.959-19.85,25.546-41.089,75.369-42.2,9.326.66,18.248,1.545,26.239,2.327,1.433.136,2.921.273,4.449.411,5.41.888,10.826,1.907,16.1,3.065,40.741,14.313,28.168,43.245-2.613,51.738-6.357.7-12.685,1.136-18.51,1.378-27.378,1.138-47.138-7.055-51.261-20.728s12.976-17.787,35.175-18.575,42.046,3.736,41.1,12.614-21.87,18.4-33.59,14.055-9.286-14.055-1.159-13.883c.677,2.892,1.295,7.995,5.8,4.748s1.649-7.458-4.226-9.263c-9.546-2.281-21.653,9.564-8.567,18.955s47.2,4.852,47.659-15.013-49.025-21.621-74.334-14.011-22.375,40.456,26.3,45.209,89.592-6.131,91.544-26.83c1.395-14.782-10.116-25.3-34.8-31.552,44.129.856,96.045-4.663,102.827-33.328,9.01-38.086-58.856-43.719-108.032-27.139m3.333,208.106c9.3,5.683,3.847,14.193-.995,17.138-.328.194-.645.375-.976.564,6.142-5.682,5.534-13.429,1.971-17.7M192.947,397.35c-10.36,5.983-9.717,16.6-3.487,22.52-4.041-1.562-6.817-3.715-7.379-6.109-1.321-5.694-.054-12.631,10.866-16.411m10.064,25.02c-1.006-.03-2-.086-2.976-.169-20.445-5.847-12.161-22.708,1.258-26.785.182-.027.34-.065.523-.089a32.791,32.791,0,0,1,4.372-.3c-8.045,1.486-13.581,6.27-14.388,14.017-.726,6.891,4.75,11.392,11.211,13.327m9.4-45.877c6.889-3.082,12.889-2.767,19.472-.047,5.693,2.35,7.842,8.235,7.909,14.9-3.461-9.483-14.113-17.028-27.381-14.855m-104,80.558a76.476,76.476,0,0,1-8.371-2.29c-9.907-5.19-10.248-15.338-3.129-22.117a72.459,72.459,0,0,1,7.728-3.5c-14.844,9.3-9.68,22.742,3.772,27.906M91.76,435.842a13.358,13.358,0,0,0,1.463,15.951c-4.272-2.4-6.866-5.337-6.707-8.761.114-2.385,2.071-4.847,5.244-7.19M241.5,326.159c10.969-7.815,10.719-18.764,8.215-26.082,3.475,3.555,5.333,7.586,4.92,12.156-.532,5.97-5.608,10.5-13.135,13.926M233.111,290c1.573.63,3.091,1.286,4.535,1.975,16.63,13.278,6.4,30.347-3.274,36.883-2.716.874-5.6,1.649-8.63,2.338,18.518-8.533,20.161-29.177,7.369-41.2m-80.5-13.659-8.727-.278c.419-.02.852-.033,1.267-.033q3.757.115,7.46.311m-51.149,95.1q-2.435-.881-4.8-1.841c-22.459-12.9-29.783-34.713-23.3-53.167,6.054-17.291,19.1-34.365,55.1-39.155-28.466,6.421-44.745,24.774-48.685,40.965-4.02,16.556.924,41.145,21.683,53.2M124.966,415.3c-19.112-11.372-8.263-29.637,12.539-30.457.658.08,1.317.168,1.985.267-25.455,4.753-23.065,21.406-14.524,30.19m13.656,35.773a18.115,18.115,0,0,1-10.748-1.93c-10-5.663-6.207-15.374,6.616-17.5-11.56,5.931-6.151,17.038,4.132,19.429m15.724-25.751c12.528,3.708,14.03,7.359,13.942,10.973-.087,3.788-2.949,9.554-18.593,14.006a21.191,21.191,0,0,0,9.451-7.424c3.652-5.688,1.8-12.836-4.8-17.555m-34.123-39.576c-10.142,6.261-10.36,17.986-4.713,25.583-6.093-4.081-9.49-9.207-6.822-15.237a18.188,18.188,0,0,1,11.535-10.346M104.118,278.381c-22.009,7.713-33.74,22.947-37.209,37.2-3.452,14.187-.082,33.478,14.034,46.182C63.374,350.9,52.311,335.01,58.448,312.3c5.5-20.347,23.508-29.918,45.67-33.916m130.008-20.6c-2.537-.364-5.018-.784-7.392-1.273-12.891-4.523-22.9-21.359,2.59-31.818-11.655,8.486-15.48,28.105,4.8,33.091m-20.052-28.73c-6.628,5.9-9.786,15.319-2.442,22.584-6.021-3.06-9.568-7.126-8.829-12.383.517-3.663,4.786-7.145,11.271-10.2m109.018,18.87c-3.141,8.464-11.405,14.956-22.562,19.684,19.5-10.731,21.3-32.518,6.193-44.009,13.064,5.435,20.144,14.153,16.369,24.325" transform="translate(0 -113.692)" fill="#cdd9df"/>
            </g>
          </g>
        </g>
        <g id="グループ_289" data-name="グループ 289" transform="translate(324.83 432.865) rotate(180)" style="mix-blend-mode: screen;isolation: isolate">
          <g id="グループ_288" data-name="グループ 288">
            <g id="グループ_287" data-name="グループ 287" clip-path="url(#clip-path-4)">
              <path id="パス_1698" data-name="パス 1698" d="M243.934,204.968c.527-1.338,2.646-4.857,11.092-12.225A129.335,129.335,0,0,1,272,180.72a120.132,120.132,0,0,1-13.58,14.51c-9.023,7.867-13,9.455-14.482,9.738" transform="translate(-157.832 -134.456)" fill="#fff"/>
              <g id="グループ_278" data-name="グループ 278" transform="translate(83.123 37.178)">
                <g id="グループ_277" data-name="グループ 277" clip-path="url(#clip-path-5)">
                  <rect id="長方形_293" data-name="長方形 293" width="42.715" height="37.418" transform="translate(-1.326 0)" fill="url(#radial-gradient)"/>
                </g>
              </g>
              <path id="パス_1700" data-name="パス 1700" d="M252.494,194.445c8.059-7.021,19.148-15.219,19.148-15.219s-9.461,9.735-17.525,16.754c-8.057,7.037-11.193,9.106-11.646,8.69-.438-.43,1.974-3.194,10.023-10.225" transform="translate(-157.832 -132.715)" fill="#fff"/>
              <path id="パス_1701" data-name="パス 1701" d="M232.535,223.6c-.275-.541-1.471-4.164,4.76-19.053,3.316-7.927,8.679-16.584,13.015-23-1.453,7.369-3.748,16.9-7.007,24.707-6.639,15.871-10.237,17.233-10.768,17.348" transform="translate(-157.832 -153.917)" fill="#fff"/>
              <g id="グループ_280" data-name="グループ 280" transform="translate(71.635 16.18)">
                <g id="グループ_279" data-name="グループ 279" clip-path="url(#clip-path-6)">
                  <rect id="長方形_294" data-name="長方形 294" width="26.842" height="57.234" transform="translate(-1.248)" fill="url(#radial-gradient-2)"/>
                </g>
              </g>
              <path id="パス_1703" data-name="パス 1703" d="M237.041,204.923c4.646-11.09,11.854-24.815,11.854-24.815s-4.641,14.608-9.282,25.706-6.826,14.722-7.533,14.48.322-4.271,4.961-15.371" transform="translate(-157.832 -149.181)" fill="#fff"/>
              <path id="パス_1704" data-name="パス 1704" d="M196.248,204.966c-1.475-.281-5.455-1.861-14.49-9.74a120.532,120.532,0,0,1-13.572-14.508,129.359,129.359,0,0,1,16.964,12.021c8.457,7.375,10.573,10.893,11.1,12.227" transform="translate(-157.832 -134.452)" fill="#fff"/>
              <g id="グループ_282" data-name="グループ 282" transform="translate(0 37.178)">
                <g id="グループ_281" data-name="グループ 281" clip-path="url(#clip-path-7)">
                  <rect id="長方形_295" data-name="長方形 295" width="42.727" height="37.418" transform="translate(0 0)" fill="url(#radial-gradient-3)"/>
                </g>
              </g>
              <path id="パス_1706" data-name="パス 1706" d="M187.693,194.445c-8.063-7.021-19.16-15.219-19.16-15.219s9.457,9.735,17.515,16.754c8.063,7.037,11.206,9.106,11.657,8.69s-1.973-3.194-10.012-10.225" transform="translate(-157.832 -132.715)" fill="#fff"/>
              <path id="パス_1707" data-name="パス 1707" d="M207.643,223.61c-.529-.139-4.223-1.678-10.762-17.344-3.271-7.812-5.57-17.349-7.019-24.715,4.336,6.42,9.7,15.077,13.021,23.01,6.231,14.891,5.035,18.508,4.76,19.049" transform="translate(-157.832 -153.929)" fill="#fff"/>
              <g id="グループ_284" data-name="グループ 284" transform="translate(27.283 16.18)">
                <g id="グループ_283" data-name="グループ 283" clip-path="url(#clip-path-8)">
                  <rect id="長方形_296" data-name="長方形 296" width="26.842" height="57.234" transform="translate(0)" fill="url(#radial-gradient-4)"/>
                </g>
              </g>
              <path id="パス_1709" data-name="パス 1709" d="M203.127,204.923c-4.637-11.09-11.84-24.815-11.84-24.815s4.629,14.608,9.277,25.706,6.817,14.722,7.522,14.48-.311-4.271-4.959-15.371" transform="translate(-157.832 -149.181)" fill="#fff"/>
              <path id="パス_1710" data-name="パス 1710" d="M219.4,239.43c-.043,0-4.387-1.031-4.387-24.016,0-11.257,2.383-24.474,4.387-33.588,2,9.116,4.383,22.331,4.383,33.588,0,22.985-4.34,24.016-4.383,24.016" transform="translate(-157.832 -170.024)" fill="#fff"/>
              <g id="グループ_286" data-name="グループ 286" transform="translate(54.373 0)">
                <g id="グループ_285" data-name="グループ 285" clip-path="url(#clip-path-9)">
                  <rect id="長方形_297" data-name="長方形 297" width="14.375" height="72.209" transform="translate(0 0)" fill="url(#radial-gradient-5)"/>
                </g>
              </g>
              <path id="パス_1712" data-name="パス 1712" d="M217.75,213.082c0-14.272,1.645-32.477,1.645-32.477s1.658,18.205,1.658,32.477-.744,19.2-1.658,19.2-1.645-4.922-1.645-19.2" transform="translate(-157.832 -161.652)" fill="#fff"/>
            </g>
          </g>
        </g>
        <g id="グループ_302" data-name="グループ 302" transform="translate(269.392 446.43) rotate(180)" style="mix-blend-mode: screen;isolation: isolate">
          <g id="グループ_301" data-name="グループ 301">
            <g id="グループ_300" data-name="グループ 300" clip-path="url(#clip-path-10)">
              <path id="パス_1713" data-name="パス 1713" d="M274.2,229.363a54.218,54.218,0,0,1,5.537-5.422,67.416,67.416,0,0,1,6.223-4.74,63.339,63.339,0,0,1-5.1,5.06,52.217,52.217,0,0,1-6.656,5.1" transform="translate(-213.27 -183.766)" fill="#fff"/>
              <g id="グループ_291" data-name="グループ 291" transform="translate(56.342 25.191)">
                <g id="グループ_290" data-name="グループ 290" clip-path="url(#clip-path-11)">
                  <rect id="長方形_299" data-name="長方形 299" width="28.951" height="25.35" transform="translate(-0.901 0)" fill="url(#radial-gradient-6)"/>
                </g>
              </g>
              <path id="パス_1715" data-name="パス 1715" d="M277.422,226.323c5.463-4.764,12.977-10.316,12.977-10.316s-6.4,6.6-11.872,11.355c-5.451,4.76-7.591,6.164-7.89,5.883-.3-.3,1.33-2.164,6.785-6.922" transform="translate(-213.27 -184.488)" fill="#fff"/>
              <path id="パス_1716" data-name="パス 1716" d="M264.637,241.471c.1-1.531.734-4.709,3.324-10.891a82.156,82.156,0,0,1,6.069-11.33,77.806,77.806,0,0,1-3.672,11.783c-2.739,6.549-4.661,9.3-5.721,10.438" transform="translate(-213.27 -195.923)" fill="#fff"/>
              <g id="グループ_293" data-name="グループ 293" transform="translate(48.555 10.96)">
                <g id="グループ_292" data-name="グループ 292" clip-path="url(#clip-path-12)">
                  <rect id="長方形_300" data-name="長方形 300" width="18.187" height="38.778" transform="translate(-0.846 0)" fill="url(#radial-gradient-7)"/>
                </g>
              </g>
              <path id="パス_1718" data-name="パス 1718" d="M266.957,233.418c3.15-7.523,8.025-16.818,8.025-16.818s-3.142,9.9-6.283,17.42-4.621,9.968-5.1,9.814c-.479-.17.212-2.893,3.357-10.416" transform="translate(-213.27 -195.643)" fill="#fff"/>
              <path id="パス_1719" data-name="パス 1719" d="M236.746,229.357a52.376,52.376,0,0,1-6.66-5.1,63.882,63.882,0,0,1-5.1-5.055,67.906,67.906,0,0,1,6.217,4.734,54.156,54.156,0,0,1,5.543,5.426" transform="translate(-213.27 -183.756)" fill="#fff"/>
              <g id="グループ_295" data-name="グループ 295" transform="translate(0 25.191)">
                <g id="グループ_294" data-name="グループ 294" clip-path="url(#clip-path-13)">
                  <rect id="長方形_301" data-name="長方形 301" width="28.965" height="25.35" transform="translate(0 0)" fill="url(#radial-gradient-8)"/>
                </g>
              </g>
              <path id="パス_1721" data-name="パス 1721" d="M233.518,226.323c-5.471-4.764-12.992-10.316-12.992-10.316s6.416,6.6,11.877,11.355,7.592,6.164,7.9,5.883c.3-.3-1.344-2.164-6.783-6.922" transform="translate(-213.27 -184.488)" fill="#fff"/>
              <path id="パス_1722" data-name="パス 1722" d="M246.3,241.486c-1.062-1.139-2.988-3.885-5.73-10.438a77.816,77.816,0,0,1-3.67-11.8,82.083,82.083,0,0,1,6.074,11.343c2.588,6.184,3.221,9.362,3.326,10.9" transform="translate(-213.27 -195.936)" fill="#fff"/>
              <g id="グループ_297" data-name="グループ 297" transform="translate(18.498 10.96)">
                <g id="グループ_296" data-name="グループ 296" clip-path="url(#clip-path-14)">
                  <rect id="長方形_302" data-name="長方形 302" width="18.187" height="38.778" transform="translate(0 0)" fill="url(#radial-gradient-9)"/>
                </g>
              </g>
              <path id="パス_1724" data-name="パス 1724" d="M243.975,233.418C240.84,225.9,235.95,216.6,235.95,216.6s3.14,9.9,6.293,17.42c3.134,7.509,4.619,9.968,5.089,9.814.485-.17-.207-2.893-3.357-10.416" transform="translate(-213.27 -195.643)" fill="#fff"/>
              <path id="パス_1725" data-name="パス 1725" d="M255,252.335c-.617-.947-2.064-4.324-2.064-15.107A102.073,102.073,0,0,1,255,218.943a101.973,101.973,0,0,1,2.068,18.285c0,10.785-1.449,14.16-2.068,15.107" transform="translate(-213.27 -206.48)" fill="#fff"/>
              <g id="グループ_299" data-name="グループ 299" transform="translate(36.863)">
                <g id="グループ_298" data-name="グループ 298" clip-path="url(#clip-path-15)">
                  <rect id="長方形_303" data-name="長方形 303" width="9.738" height="48.919" fill="url(#radial-gradient-10)"/>
                </g>
              </g>
              <path id="パス_1727" data-name="パス 1727" d="M253.885,238.957c0-9.67,1.115-22.008,1.115-22.008s1.123,12.338,1.123,22.008-.5,13-1.123,13-1.115-3.33-1.115-13" transform="translate(-213.27 -204.112)" fill="#fff"/>
            </g>
          </g>
        </g>
        <g id="グループ_307" data-name="グループ 307" transform="translate(126.326 463.936)" style="mix-blend-mode: screen;isolation: isolate">
          <g id="グループ_306" data-name="グループ 306">
            <g id="グループ_305" data-name="グループ 305" clip-path="url(#clip-path-16)">
              <g id="グループ_304" data-name="グループ 304" transform="translate(0 0)">
                <g id="グループ_303" data-name="グループ 303" clip-path="url(#clip-path-17)">
                  <rect id="長方形_305" data-name="長方形 305" width="83.716" height="81.498" transform="translate(73.577 -7.258) rotate(84.393)" fill="url(#radial-gradient-11)"/>
                </g>
              </g>
              <path id="パス_1729" data-name="パス 1729" d="M168.78,70.211a13.74,13.74,0,0,1,.506,2.017,9.3,9.3,0,0,1,.01,2.1,8.1,8.1,0,0,1-.4,2.047,9.752,9.752,0,0,1-.977,1.832,8.492,8.492,0,0,1-1.317,1.6,7.114,7.114,0,0,1-1.731,1.145,4.763,4.763,0,0,1-1.992.523c-.594.008-1.246.148-1.935.14a12.39,12.39,0,0,1-1.958-.193,6.247,6.247,0,0,1-1.786-.77,5.714,5.714,0,0,1-1.516-1.2A7.55,7.55,0,0,1,154.5,77.92a11.065,11.065,0,0,1-.787-1.78,15.23,15.23,0,0,1-.6-1.868,15.81,15.81,0,0,1-.386-2.088,10.088,10.088,0,0,1-.024-2.145,5.434,5.434,0,0,1,.537-2.079,4.363,4.363,0,0,1,1.516-1.5,7.451,7.451,0,0,1,1.913-.919c.706-.218,1.4-.382,2.053-.564a8.307,8.307,0,0,1,2.077-.389,9.855,9.855,0,0,1,2.1.192,8.312,8.312,0,0,1,2.026.65,7.306,7.306,0,0,1,1.726,1.21,7.463,7.463,0,0,1,1.263,1.671,8.851,8.851,0,0,1,.863,1.9" transform="translate(-126.326 -34.848)" fill="#839bcf"/>
              <path id="パス_1730" data-name="パス 1730" d="M190.074,62.277a2.045,2.045,0,0,1-1.794.83,1.692,1.692,0,0,1-1.493-1.226,2.293,2.293,0,0,1,.425-1.937,2.032,2.032,0,0,1,1.84-1.017,1.776,1.776,0,0,1,1.6,1.3,2.282,2.282,0,0,1-.579,2.047" transform="translate(-126.326 -10.684)" fill="#fff"/>
              <path id="パス_1731" data-name="パス 1731" d="M192.643,70.413a2.1,2.1,0,0,1-1.779.873,1.775,1.775,0,0,1-1.5-1.251,2.275,2.275,0,0,1,.435-1.956,2.03,2.03,0,0,1,1.838-1.024,1.821,1.821,0,0,1,1.586,1.338,2.254,2.254,0,0,1-.579,2.02" transform="translate(-126.326 -26.985)" fill="#fff"/>
              <path id="パス_1732" data-name="パス 1732" d="M183.486,56.725a2.123,2.123,0,0,1-1.8.852,1.738,1.738,0,0,1-1.5-1.264,2.3,2.3,0,0,1,.422-1.96,2.044,2.044,0,0,1,1.849-1,1.81,1.81,0,0,1,1.6,1.31,2.338,2.338,0,0,1-.56,2.057" transform="translate(-126.326 0.417)" fill="#fff"/>
              <path id="パス_1733" data-name="パス 1733" d="M163.188,44.974a2.1,2.1,0,0,1-1.8.857,1.759,1.759,0,0,1-1.5-1.255,2.258,2.258,0,0,1,.435-1.969,2.02,2.02,0,0,1,1.847-1.02,1.794,1.794,0,0,1,1.618,1.327,2.3,2.3,0,0,1-.6,2.06" transform="translate(-126.326 23.935)" fill="#fff"/>
              <path id="パス_1734" data-name="パス 1734" d="M152.229,45.419a2.04,2.04,0,0,1-1.786.837,1.7,1.7,0,0,1-1.506-1.225,2.344,2.344,0,0,1,.435-1.964,2.049,2.049,0,0,1,1.853-1.018,1.807,1.807,0,0,1,1.608,1.322,2.34,2.34,0,0,1-.6,2.048" transform="translate(-126.326 23.049)" fill="#fff"/>
              <path id="パス_1735" data-name="パス 1735" d="M146.146,53.836a2.112,2.112,0,0,1-1.791.835,1.713,1.713,0,0,1-1.489-1.237,2.4,2.4,0,0,1,.4-1.961,2.1,2.1,0,0,1,1.864-1,1.77,1.77,0,0,1,1.584,1.311,2.28,2.28,0,0,1-.567,2.053" transform="translate(-126.326 6.21)" fill="#fff"/>
              <path id="パス_1736" data-name="パス 1736" d="M140.481,69.457a2.017,2.017,0,0,1-1.8.819,1.7,1.7,0,0,1-1.491-1.221,2.331,2.331,0,0,1,.428-1.95,2.025,2.025,0,0,1,1.845-1,1.784,1.784,0,0,1,1.6,1.309,2.329,2.329,0,0,1-.584,2.047" transform="translate(-126.326 -25.027)" fill="#fff"/>
              <path id="パス_1737" data-name="パス 1737" d="M135.809,78.765a2.06,2.06,0,0,1-1.793.844,1.742,1.742,0,0,1-1.5-1.25,2.348,2.348,0,0,1,.4-1.966,2.055,2.055,0,0,1,1.866-1,1.771,1.771,0,0,1,1.583,1.316,2.292,2.292,0,0,1-.559,2.058" transform="translate(-126.326 -43.647)" fill="#fff"/>
              <path id="パス_1738" data-name="パス 1738" d="M141.493,85.725a2.023,2.023,0,0,1-1.767.847,1.693,1.693,0,0,1-1.5-1.233,2.3,2.3,0,0,1,.4-1.953,2.066,2.066,0,0,1,1.865-1.019,1.8,1.8,0,0,1,1.61,1.322,2.309,2.309,0,0,1-.613,2.036" transform="translate(-126.326 -57.585)" fill="#fff"/>
              <path id="パス_1739" data-name="パス 1739" d="M147.5,97.6a2.026,2.026,0,0,1-1.8.819A1.712,1.712,0,0,1,144.2,97.2a2.356,2.356,0,0,1,.448-1.962,2.023,2.023,0,0,1,1.83-1,1.8,1.8,0,0,1,1.6,1.309,2.261,2.261,0,0,1-.569,2.05" transform="translate(-126.326 -81.302)" fill="#fff"/>
              <path id="パス_1740" data-name="パス 1740" d="M153.295,103.8a2.132,2.132,0,0,1-1.813.852,1.737,1.737,0,0,1-1.469-1.261,2.287,2.287,0,0,1,.4-1.959,2.029,2.029,0,0,1,1.85-1.013,1.8,1.8,0,0,1,1.586,1.338,2.3,2.3,0,0,1-.555,2.043" transform="translate(-126.326 -93.713)" fill="#fff"/>
              <path id="パス_1741" data-name="パス 1741" d="M161.529,100.086a2.091,2.091,0,0,1-1.789.882,1.77,1.77,0,0,1-1.476-1.266,2.286,2.286,0,0,1,.391-1.957,2.1,2.1,0,0,1,1.872-1.04,1.84,1.84,0,0,1,1.6,1.346,2.233,2.233,0,0,1-.594,2.035" transform="translate(-126.326 -86.32)" fill="#fff"/>
              <path id="パス_1742" data-name="パス 1742" d="M173.734,98.657a2.07,2.07,0,0,1-1.818.835,1.735,1.735,0,0,1-1.5-1.233,2.373,2.373,0,0,1,.423-1.974,2.035,2.035,0,0,1,1.852-1A1.793,1.793,0,0,1,174.3,96.6a2.312,2.312,0,0,1-.569,2.057" transform="translate(-126.326 -83.432)" fill="#fff"/>
              <path id="パス_1743" data-name="パス 1743" d="M183.984,97.458a1.989,1.989,0,0,1-1.784.818,1.7,1.7,0,0,1-1.5-1.226,2.368,2.368,0,0,1,.43-1.942,2.1,2.1,0,0,1,1.851-1.045,1.8,1.8,0,0,1,1.6,1.348,2.293,2.293,0,0,1-.594,2.047" transform="translate(-126.326 -80.992)" fill="#fff"/>
              <path id="パス_1744" data-name="パス 1744" d="M184.932,87.718a2.122,2.122,0,0,1-1.8.849,1.743,1.743,0,0,1-1.471-1.266,2.3,2.3,0,0,1,.418-1.94,2.069,2.069,0,0,1,1.85-1.013,1.763,1.763,0,0,1,1.571,1.326,2.259,2.259,0,0,1-.569,2.044" transform="translate(-126.326 -61.563)" fill="#fff"/>
              <path id="パス_1745" data-name="パス 1745" d="M163.663,67.314a3.743,3.743,0,0,1,1.629.949,6.058,6.058,0,0,1,1.185,1.489,9.574,9.574,0,0,1,.787,1.742,11.356,11.356,0,0,1,.379,1.863,9.955,9.955,0,0,1,.117,1.9,6.293,6.293,0,0,1-.5,1.846,3.724,3.724,0,0,1-1.1,1.509,6.046,6.046,0,0,1-1.911,1.1c-1.19.4-1.981.163-1.852-.385.089-.367.63-.874,1.759-1.331a3.2,3.2,0,0,0,1.532-1.252,3.559,3.559,0,0,0,.461-1.932,5.725,5.725,0,0,0-.5-1.941,5.308,5.308,0,0,0-1.084-1.683,3.8,3.8,0,0,0-1.742-.961,4.321,4.321,0,0,1-1.6-.748A1.518,1.518,0,0,1,160.5,68c.106-.434.517-.779,1.39-.835a6.112,6.112,0,0,1,1.77.152" transform="translate(-126.326 -35.711)" fill="#fff"/>
              <path id="パス_1746" data-name="パス 1746" d="M160.485,76.074a5.383,5.383,0,0,1-1.462-1.243,6.767,6.767,0,0,1-.98-1.659,4.832,4.832,0,0,1-.461-1.869,2.631,2.631,0,0,1,.547-1.8c.8-.973.872-1.633.472-1.858-.367-.2-1.1,0-1.985.624a3.275,3.275,0,0,0-1.041,1.618,7.618,7.618,0,0,0-.428,1.916,8.546,8.546,0,0,0,.061,1.964,5.334,5.334,0,0,0,.553,1.874,2.676,2.676,0,0,0,1.43,1.3,8.656,8.656,0,0,0,1.8.465,4.109,4.109,0,0,0,1.848-.055c.621-.217.635-.7-.352-1.275" transform="translate(-126.326 -33.69)" fill="#fff"/>
              <path id="パス_1747" data-name="パス 1747" d="M171.759,58.586a19.049,19.049,0,0,1,1.408,1.4,16.765,16.765,0,0,1,1.224,1.586,11.42,11.42,0,0,1,1.08,1.676c.455,1.013.374,1.655-.339,1.5a5.416,5.416,0,0,1-1.736-.987,11.56,11.56,0,0,1-1.336-1.242,16.691,16.691,0,0,1-1.213-1.374,15.286,15.286,0,0,1-1.007-1.538,6.316,6.316,0,0,1-.64-1.719c-.137-.73.218-1.059,1.141-.483a9.349,9.349,0,0,1,1.418,1.177" transform="translate(-126.326 -10.535)" fill="#fff"/>
              <path id="パス_1748" data-name="パス 1748" d="M167.148,56.565c.323.612.637,1.222.885,1.795.265.673.464,1.322.632,1.909a11.914,11.914,0,0,1,.388,1.962c.1,1.106-.151,1.641-.778,1.242a4.949,4.949,0,0,1-1.3-1.471A11.2,11.2,0,0,1,166.1,60.4a13.9,13.9,0,0,1-.649-1.706,12.223,12.223,0,0,1-.429-1.784A5.945,5.945,0,0,1,165,55.1c.142-.744.528-.959,1.213-.094a9.825,9.825,0,0,1,.936,1.563" transform="translate(-126.326 -6.69)" fill="#fff"/>
              <path id="パス_1749" data-name="パス 1749" d="M153.481,62.184c-.45.518-.941.975-1.4,1.42a19.112,19.112,0,0,1-1.5,1.319,11.021,11.021,0,0,1-1.65,1.138c-.985.5-1.613.442-1.493-.268a5.191,5.191,0,0,1,.9-1.77,13.311,13.311,0,0,1,1.139-1.427,11.366,11.366,0,0,1,1.366-1.217,11.723,11.723,0,0,1,1.493-1.09,5.754,5.754,0,0,1,1.679-.714c.733-.165,1.068.167.53,1.112a9.821,9.821,0,0,1-1.07,1.5" transform="translate(-126.326 -14.568)" fill="#fff"/>
              <path id="パス_1750" data-name="パス 1750" d="M151.4,68.33c-.6.34-1.18.655-1.772.921a18.473,18.473,0,0,1-1.857.713,9.888,9.888,0,0,1-1.929.552c-1.092.145-1.657-.112-1.3-.765a4.751,4.751,0,0,1,1.4-1.384,9.4,9.4,0,0,1,1.6-.9,13.342,13.342,0,0,1,1.667-.762,11.809,11.809,0,0,1,1.784-.434,5.725,5.725,0,0,1,1.816-.165c.738.1.96.5.144,1.227a13.39,13.39,0,0,1-1.552,1" transform="translate(-126.326 -25.286)" fill="#fff"/>
              <path id="パス_1751" data-name="パス 1751" d="M148.617,84.218c-.572-.38-1.1-.781-1.6-1.187-.567-.438-1.122-.845-1.552-1.255a11.628,11.628,0,0,1-1.307-1.528c-.628-.908-.69-1.518.034-1.5a5.127,5.127,0,0,1,1.867.649,10.361,10.361,0,0,1,1.584.914,16.827,16.827,0,0,1,1.4,1.2,13.72,13.72,0,0,1,1.257,1.34,5.267,5.267,0,0,1,.95,1.556c.262.691.022,1.055-1,.664a9.193,9.193,0,0,1-1.628-.853" transform="translate(-126.326 -52.628)" fill="#fff"/>
              <path id="パス_1752" data-name="パス 1752" d="M152.806,87.407c-.418-.546-.741-1.143-1.083-1.663-.386-.616-.765-1.178-1.038-1.729a10.691,10.691,0,0,1-.765-1.834c-.294-1.072-.118-1.706.564-1.434a4.844,4.844,0,0,1,1.569,1.225,11.63,11.63,0,0,1,1.107,1.466,15.915,15.915,0,0,1,1,1.518,16.141,16.141,0,0,1,.689,1.7,6.8,6.8,0,0,1,.452,1.782c0,.767-.41,1.009-1.232.29a10.69,10.69,0,0,1-1.268-1.323" transform="translate(-126.326 -58.489)" fill="#fff"/>
              <path id="パス_1753" data-name="パス 1753" d="M160.754,91.08c-.1-.687-.1-1.366-.139-1.989-.047-.71-.135-1.389-.122-2.007a11.78,11.78,0,0,1,.239-1.982c.252-1.089.738-1.545,1.207-.987a5.218,5.218,0,0,1,.795,1.836,10.84,10.84,0,0,1,.286,1.817,12.254,12.254,0,0,1,.107,1.829,13.443,13.443,0,0,1-.257,1.824,5.787,5.787,0,0,1-.476,1.747c-.342.668-.8.713-1.183-.308a10.671,10.671,0,0,1-.457-1.78" transform="translate(-126.326 -66.172)" fill="#fff"/>
              <path id="パス_1754" data-name="パス 1754" d="M165.551,88.83a18.013,18.013,0,0,1,.482-1.933,17.494,17.494,0,0,1,.628-1.9,11.584,11.584,0,0,1,.872-1.8c.6-.933,1.195-1.239,1.457-.553a5.348,5.348,0,0,1,.078,2.013,10.324,10.324,0,0,1-.325,1.776,13.182,13.182,0,0,1-.469,1.785,15.243,15.243,0,0,1-.841,1.63,6.5,6.5,0,0,1-1.024,1.51c-.555.516-1.046.385-1.063-.694a10.257,10.257,0,0,1,.205-1.835" transform="translate(-126.326 -62.568)" fill="#fff"/>
              <path id="パス_1755" data-name="パス 1755" d="M172.351,80.942c.587-.384,1.163-.711,1.728-1.018a19.317,19.317,0,0,1,1.845-.792,12.089,12.089,0,0,1,1.909-.576c1.09-.2,1.679-.009,1.366.651a5.279,5.279,0,0,1-1.369,1.444,10.52,10.52,0,0,1-1.517,1.03,16.081,16.081,0,0,1-1.65.817,12.381,12.381,0,0,1-1.74.554,5.892,5.892,0,0,1-1.809.234c-.747-.039-.972-.445-.2-1.214a8.847,8.847,0,0,1,1.437-1.13" transform="translate(-126.326 -50.424)" fill="#fff"/>
              <path id="パス_1756" data-name="パス 1756" d="M173.055,74.2c.672-.165,1.349-.232,1.97-.326.713-.094,1.373-.191,1.994-.219a10.551,10.551,0,0,1,1.985.093c1.1.188,1.569.546,1.058,1.056a5.036,5.036,0,0,1-1.75.933,12.011,12.011,0,0,1-1.782.421c-.608.11-1.224.257-1.806.3a13.568,13.568,0,0,1-1.843-.045,5.41,5.41,0,0,1-1.774-.437c-.7-.3-.757-.681.23-1.149a10.246,10.246,0,0,1,1.718-.628" transform="translate(-126.326 -38.759)" fill="#fff"/>
            </g>
          </g>
        </g>
        <g id="グループ_312" data-name="グループ 312" transform="translate(255.728 215.238)" style="mix-blend-mode: screen;isolation: isolate">
          <g id="グループ_311" data-name="グループ 311">
            <g id="グループ_310" data-name="グループ 310" clip-path="url(#clip-path-18)">
              <g id="グループ_309" data-name="グループ 309" transform="translate(0 0)">
                <g id="グループ_308" data-name="グループ 308" clip-path="url(#clip-path-19)">
                  <rect id="長方形_307" data-name="長方形 307" width="52.316" height="50.932" transform="translate(45.98 -4.528) rotate(84.393)" fill="url(#radial-gradient-12)"/>
                </g>
              </g>
              <path id="パス_1758" data-name="パス 1758" d="M282.26,334.342a7.675,7.675,0,0,1,.321,1.265,5.4,5.4,0,0,1,.009,1.3,5.084,5.084,0,0,1-.267,1.274,4.419,4.419,0,0,1-.6,1.152,4.822,4.822,0,0,1-.819,1,4.415,4.415,0,0,1-1.079.709,2.942,2.942,0,0,1-1.24.333c-.376.013-.8.09-1.226.089a8.984,8.984,0,0,1-1.215-.128,4.087,4.087,0,0,1-1.123-.479,3.728,3.728,0,0,1-.941-.74,5.106,5.106,0,0,1-.736-.963,6.494,6.494,0,0,1-.493-1.115,8.605,8.605,0,0,1-.376-1.166,9.976,9.976,0,0,1-.246-1.319,6.53,6.53,0,0,1-.014-1.335,3.207,3.207,0,0,1,.346-1.291,2.6,2.6,0,0,1,.942-.938,4.923,4.923,0,0,1,1.192-.56c.443-.142.884-.251,1.281-.372a5.6,5.6,0,0,1,1.3-.235,5.966,5.966,0,0,1,1.316.126,5.315,5.315,0,0,1,1.262.385,5.039,5.039,0,0,1,1.087.772,4.81,4.81,0,0,1,.781,1.046,5.447,5.447,0,0,1,.537,1.187" transform="translate(-255.728 -312.239)" fill="#f5ae2f"/>
              <path id="パス_1759" data-name="パス 1759" d="M295.57,329.39a1.237,1.237,0,0,1-1.119.508,1.059,1.059,0,0,1-.934-.755,1.472,1.472,0,0,1,.273-1.226,1.267,1.267,0,0,1,1.15-.622,1.107,1.107,0,0,1,1,.815,1.43,1.43,0,0,1-.367,1.28" transform="translate(-255.728 -297.144)" fill="#fff"/>
              <path id="パス_1760" data-name="パス 1760" d="M297.18,334.473a1.3,1.3,0,0,1-1.117.53,1.072,1.072,0,0,1-.937-.763,1.508,1.508,0,0,1,.267-1.23,1.276,1.276,0,0,1,1.156-.628,1.094,1.094,0,0,1,.989.824,1.4,1.4,0,0,1-.358,1.267" transform="translate(-255.728 -307.334)" fill="#fff"/>
              <path id="パス_1761" data-name="パス 1761" d="M291.458,325.913a1.332,1.332,0,0,1-1.138.528,1.1,1.1,0,0,1-.927-.787,1.408,1.408,0,0,1,.258-1.226,1.255,1.255,0,0,1,1.156-.618,1.111,1.111,0,0,1,1,.806,1.494,1.494,0,0,1-.351,1.3" transform="translate(-255.728 -290.199)" fill="#fff"/>
              <path id="パス_1762" data-name="パス 1762" d="M278.774,318.567a1.353,1.353,0,0,1-1.127.542,1.112,1.112,0,0,1-.943-.791,1.418,1.418,0,0,1,.273-1.225,1.3,1.3,0,0,1,1.161-.642,1.134,1.134,0,0,1,1.005.837,1.44,1.44,0,0,1-.369,1.279" transform="translate(-255.728 -275.507)" fill="#fff"/>
              <path id="パス_1763" data-name="パス 1763" d="M271.919,318.848a1.283,1.283,0,0,1-1.11.526,1.1,1.1,0,0,1-.949-.761,1.481,1.481,0,0,1,.279-1.231,1.269,1.269,0,0,1,1.152-.64,1.119,1.119,0,0,1,1.008.831,1.462,1.462,0,0,1-.38,1.275" transform="translate(-255.728 -276.064)" fill="#fff"/>
              <path id="パス_1764" data-name="パス 1764" d="M268.115,324.093a1.286,1.286,0,0,1-1.115.534,1.045,1.045,0,0,1-.923-.785,1.4,1.4,0,0,1,.252-1.215,1.252,1.252,0,0,1,1.154-.625,1.136,1.136,0,0,1,1,.821,1.424,1.424,0,0,1-.365,1.27" transform="translate(-255.728 -286.577)" fill="#fff"/>
              <path id="パス_1765" data-name="パス 1765" d="M264.579,333.867a1.308,1.308,0,0,1-1.119.522,1.08,1.08,0,0,1-.94-.778,1.45,1.45,0,0,1,.271-1.2,1.287,1.287,0,0,1,1.148-.64,1.106,1.106,0,0,1,1,.824,1.427,1.427,0,0,1-.359,1.275" transform="translate(-255.728 -306.106)" fill="#fff"/>
              <path id="パス_1766" data-name="パス 1766" d="M261.665,339.684a1.34,1.34,0,0,1-1.133.532,1.106,1.106,0,0,1-.93-.79,1.432,1.432,0,0,1,.258-1.215,1.267,1.267,0,0,1,1.161-.639,1.11,1.11,0,0,1,.988.829,1.437,1.437,0,0,1-.344,1.283" transform="translate(-255.728 -317.736)" fill="#fff"/>
              <path id="パス_1767" data-name="パス 1767" d="M265.211,344.047a1.252,1.252,0,0,1-1.108.519,1.064,1.064,0,0,1-.935-.767,1.444,1.444,0,0,1,.258-1.214,1.285,1.285,0,0,1,1.16-.643,1.138,1.138,0,0,1,1.012.827,1.458,1.458,0,0,1-.387,1.278" transform="translate(-255.728 -326.459)" fill="#fff"/>
              <path id="パス_1768" data-name="パス 1768" d="M268.961,351.465a1.252,1.252,0,0,1-1.121.5,1.063,1.063,0,0,1-.942-.758,1.46,1.46,0,0,1,.287-1.224,1.293,1.293,0,0,1,1.146-.626,1.1,1.1,0,0,1,.987.811,1.441,1.441,0,0,1-.357,1.294" transform="translate(-255.728 -341.282)" fill="#fff"/>
              <path id="パス_1769" data-name="パス 1769" d="M272.586,355.348a1.289,1.289,0,0,1-1.136.519,1.056,1.056,0,0,1-.917-.778,1.443,1.443,0,0,1,.244-1.219,1.288,1.288,0,0,1,1.162-.644,1.108,1.108,0,0,1,.987.836,1.412,1.412,0,0,1-.34,1.286" transform="translate(-255.728 -349.044)" fill="#fff"/>
              <path id="パス_1770" data-name="パス 1770" d="M277.739,353.016a1.287,1.287,0,0,1-1.117.539,1.07,1.07,0,0,1-.925-.781,1.425,1.425,0,0,1,.239-1.234,1.313,1.313,0,0,1,1.171-.628,1.128,1.128,0,0,1,1,.83,1.429,1.429,0,0,1-.367,1.274" transform="translate(-255.728 -344.416)" fill="#fff"/>
              <path id="パス_1771" data-name="パス 1771" d="M285.356,352.114a1.312,1.312,0,0,1-1.129.528,1.064,1.064,0,0,1-.934-.778,1.46,1.46,0,0,1,.258-1.232,1.279,1.279,0,0,1,1.161-.619,1.126,1.126,0,0,1,1.005.813,1.443,1.443,0,0,1-.361,1.288" transform="translate(-255.728 -342.602)" fill="#fff"/>
              <path id="パス_1772" data-name="パス 1772" d="M291.766,351.361a1.256,1.256,0,0,1-1.11.515,1.046,1.046,0,0,1-.938-.767,1.468,1.468,0,0,1,.268-1.216,1.268,1.268,0,0,1,1.148-.646,1.133,1.133,0,0,1,1,.834,1.433,1.433,0,0,1-.372,1.28" transform="translate(-255.728 -341.072)" fill="#fff"/>
              <path id="パス_1773" data-name="パス 1773" d="M292.36,345.273a1.289,1.289,0,0,1-1.112.544,1.091,1.091,0,0,1-.932-.781,1.444,1.444,0,0,1,.264-1.22,1.254,1.254,0,0,1,1.146-.634,1.1,1.1,0,0,1,.993.821,1.389,1.389,0,0,1-.359,1.27" transform="translate(-255.728 -328.947)" fill="#fff"/>
              <path id="パス_1774" data-name="パス 1774" d="M279.07,332.529a2.125,2.125,0,0,1,1.014.589,4.023,4.023,0,0,1,.749.933,5.949,5.949,0,0,1,.479,1.085,5.444,5.444,0,0,1,.243,1.166,5.608,5.608,0,0,1,.078,1.191,3.809,3.809,0,0,1-.326,1.15,2.28,2.28,0,0,1-.678.941,4.088,4.088,0,0,1-1.2.689c-.739.256-1.232.1-1.151-.239.059-.236.4-.551,1.1-.824a2.054,2.054,0,0,0,.966-.784,2.234,2.234,0,0,0,.283-1.218,3.178,3.178,0,0,0-.315-1.2,3.342,3.342,0,0,0-.669-1.052,2.308,2.308,0,0,0-1.094-.6,2.7,2.7,0,0,1-1-.484.945.945,0,0,1-.451-.936c.075-.266.327-.475.875-.5a3.644,3.644,0,0,1,1.106.093" transform="translate(-255.728 -312.775)" fill="#fff"/>
              <path id="パス_1775" data-name="パス 1775" d="M277.072,337.993a3.314,3.314,0,0,1-.909-.775,4.311,4.311,0,0,1-.611-1.037,3.185,3.185,0,0,1-.285-1.157,1.634,1.634,0,0,1,.346-1.135c.5-.6.542-1.024.286-1.16-.223-.113-.691,0-1.226.389a2.049,2.049,0,0,0-.666,1.009,4.8,4.8,0,0,0-.26,1.205,5.216,5.216,0,0,0,.04,1.23,3.231,3.231,0,0,0,.349,1.168,1.686,1.686,0,0,0,.881.812,5.771,5.771,0,0,0,1.129.293,2.542,2.542,0,0,0,1.153-.042c.388-.136.4-.442-.227-.8" transform="translate(-255.728 -311.511)" fill="#fff"/>
              <path id="パス_1776" data-name="パス 1776" d="M284.122,327.074c.319.3.623.592.886.879a11.556,11.556,0,0,1,.77.99,7.584,7.584,0,0,1,.672,1.048c.277.634.231,1.047-.214.938a3.138,3.138,0,0,1-1.079-.609,6.3,6.3,0,0,1-.846-.782,9.834,9.834,0,0,1-.751-.856,9.15,9.15,0,0,1-.628-.954,3.481,3.481,0,0,1-.4-1.088c-.082-.454.13-.658.712-.294a6.236,6.236,0,0,1,.877.728" transform="translate(-255.728 -297.052)" fill="#fff"/>
              <path id="パス_1777" data-name="パス 1777" d="M281.24,325.81c.2.382.4.751.558,1.126.17.412.284.822.4,1.182a6.329,6.329,0,0,1,.235,1.225c.067.7-.1,1.033-.48.789a3.213,3.213,0,0,1-.811-.919,6.956,6.956,0,0,1-.552-1.014,9.372,9.372,0,0,1-.4-1.071,8.563,8.563,0,0,1-.273-1.108,3.443,3.443,0,0,1,0-1.14c.074-.46.321-.582.748-.06a6.005,6.005,0,0,1,.581.99" transform="translate(-255.728 -294.637)" fill="#fff"/>
              <path id="パス_1778" data-name="パス 1778" d="M272.7,329.322c-.285.324-.594.61-.884.885a9.411,9.411,0,0,1-.923.823,5.791,5.791,0,0,1-1.029.709c-.623.321-1.015.283-.934-.159a3.085,3.085,0,0,1,.565-1.1,6.334,6.334,0,0,1,.711-.9,7.634,7.634,0,0,1,.853-.763,8.864,8.864,0,0,1,.927-.676,3.231,3.231,0,0,1,1.056-.449c.46-.093.663.109.33.692a7.275,7.275,0,0,1-.672.938" transform="translate(-255.728 -299.568)" fill="#fff"/>
              <path id="パス_1779" data-name="パス 1779" d="M271.4,333.16c-.376.216-.746.414-1.1.575a9.916,9.916,0,0,1-1.168.457,5.732,5.732,0,0,1-1.2.339c-.685.09-1.041-.073-.823-.465a3.068,3.068,0,0,1,.884-.884,6.6,6.6,0,0,1,1-.55,9.252,9.252,0,0,1,1.042-.486,8.755,8.755,0,0,1,1.115-.271,4.188,4.188,0,0,1,1.132-.1c.464.067.6.318.084.77a5.78,5.78,0,0,1-.956.617" transform="translate(-255.728 -306.266)" fill="#fff"/>
              <path id="パス_1780" data-name="パス 1780" d="M269.671,343.09c-.367-.231-.693-.495-1.014-.735-.352-.266-.688-.534-.963-.789a6.811,6.811,0,0,1-.81-.945c-.4-.572-.437-.953.018-.945a3.246,3.246,0,0,1,1.17.414,6.163,6.163,0,0,1,.986.574,8.217,8.217,0,0,1,.873.737,11.129,11.129,0,0,1,.789.832,3.949,3.949,0,0,1,.588.979c.164.439.009.665-.627.418a5.568,5.568,0,0,1-1.01-.54" transform="translate(-255.728 -323.355)" fill="#fff"/>
              <path id="パス_1781" data-name="パス 1781" d="M272.284,345.088a10.689,10.689,0,0,1-.68-1.042c-.248-.374-.479-.741-.655-1.069a7.583,7.583,0,0,1-.468-1.152c-.189-.671-.073-1.066.351-.907a3.189,3.189,0,0,1,.978.777,6.806,6.806,0,0,1,.692.912,7.721,7.721,0,0,1,.628.954,8.615,8.615,0,0,1,.42,1.059,4.122,4.122,0,0,1,.3,1.121c0,.469-.254.628-.771.187a6.182,6.182,0,0,1-.791-.84" transform="translate(-255.728 -327.018)" fill="#fff"/>
              <path id="パス_1782" data-name="パス 1782" d="M277.252,347.382a11.889,11.889,0,0,1-.086-1.24,9.964,9.964,0,0,1-.078-1.254,7.163,7.163,0,0,1,.141-1.239c.164-.679.47-.963.764-.617a3.425,3.425,0,0,1,.495,1.141,6.65,6.65,0,0,1,.179,1.133,9.645,9.645,0,0,1,.065,1.157,7.8,7.8,0,0,1-.162,1.133,3.605,3.605,0,0,1-.29,1.1c-.224.415-.5.442-.741-.2a5.183,5.183,0,0,1-.287-1.112" transform="translate(-255.728 -331.822)" fill="#fff"/>
              <path id="パス_1783" data-name="パス 1783" d="M280.247,345.968c.08-.424.195-.825.3-1.214a11.91,11.91,0,0,1,.391-1.176,6.261,6.261,0,0,1,.549-1.123c.378-.583.752-.771.9-.348a3.116,3.116,0,0,1,.05,1.252,6.9,6.9,0,0,1-.2,1.124,7.914,7.914,0,0,1-.3,1.1,6.9,6.9,0,0,1-.529,1.019,3.792,3.792,0,0,1-.632.953c-.344.316-.648.237-.661-.441a5.875,5.875,0,0,1,.124-1.149" transform="translate(-255.728 -329.561)" fill="#fff"/>
              <path id="パス_1784" data-name="パス 1784" d="M284.5,341.048c.367-.237.726-.452,1.075-.638a9.061,9.061,0,0,1,1.154-.494,6.427,6.427,0,0,1,1.192-.362c.685-.121,1.054-.009.85.4a3.2,3.2,0,0,1-.848.912,6.684,6.684,0,0,1-.948.633,7.2,7.2,0,0,1-1.029.513,7.911,7.911,0,0,1-1.1.35,3.817,3.817,0,0,1-1.134.151c-.464-.04-.6-.29-.117-.762a5.576,5.576,0,0,1,.9-.706" transform="translate(-255.728 -321.975)" fill="#fff"/>
              <path id="パス_1785" data-name="パス 1785" d="M284.936,336.838c.42-.1.846-.144,1.232-.2.441-.06.861-.121,1.249-.14a6.114,6.114,0,0,1,1.236.062c.693.1.98.328.655.642a3.023,3.023,0,0,1-1.087.608,8.524,8.524,0,0,1-1.115.252,8.921,8.921,0,0,1-1.131.182,8.364,8.364,0,0,1-1.148-.011,3.63,3.63,0,0,1-1.106-.286c-.426-.191-.477-.423.142-.708a5.028,5.028,0,0,1,1.073-.4" transform="translate(-255.728 -314.687)" fill="#fff"/>
            </g>
          </g>
        </g>
      </g>
    </g>
  </g>
</svg>
