<svg xmlns="http://www.w3.org/2000/svg" width="39.82" height="39.82" viewBox="0 0 39.82 39.82">
  <path id="Icon_awesome-phone-alt" data-name="Icon awesome-phone-alt" d="M38.684,28.139l-8.711-3.733a1.867,1.867,0,0,0-2.178.537l-3.858,4.713A28.828,28.828,0,0,1,10.157,15.874l4.713-3.858a1.862,1.862,0,0,0,.537-2.178L11.674,1.128A1.879,1.879,0,0,0,9.535.047L1.447,1.914A1.867,1.867,0,0,0,0,3.733,36.083,36.083,0,0,0,36.087,39.82a1.867,1.867,0,0,0,1.82-1.447l1.867-8.088A1.889,1.889,0,0,0,38.684,28.139Z" transform="translate(0 0)"/>
</svg>
