<svg xmlns="http://www.w3.org/2000/svg" width="200.807" height="40.664" viewBox="0 0 200.807 40.664">
  <g id="_レイヤー_1-2" transform="translate(-281.9 -0.04)">
    <g id="グループ_535" data-name="グループ 535" transform="translate(281.9 0.04)">
      <g id="グループ_531" data-name="グループ 531">
        <path id="パス_2007" data-name="パス 2007" d="M403.38,21.159l-.063.121c-.121.563-.258,1.147-.395,1.758a2.583,2.583,0,0,1-.758,1.384.858.858,0,0,1,.058.242,5.169,5.169,0,0,1-.121.937,5.764,5.764,0,0,0-.121.937V26.6a.751.751,0,0,1,.179.426,3.216,3.216,0,0,1-.242,1.026l-.242.242a.286.286,0,0,1,.242.3.249.249,0,0,1-.121.211.264.264,0,0,0-.116.211,1.209,1.209,0,0,0,.058.332,1.362,1.362,0,0,1,.063.389.7.7,0,0,1-.358.605,3.035,3.035,0,0,1,.184.484.4.4,0,0,1-.305.305l-.063.121a.59.59,0,0,1,.126.3.8.8,0,0,1-.242.516.779.779,0,0,0-.242.395,2.834,2.834,0,0,1,.121.305l-.121.179a.239.239,0,0,1-.179.063H400.6a.208.208,0,0,0-.121-.063,1.782,1.782,0,0,0-.274.489,1.964,1.964,0,0,1-.389.605,2.6,2.6,0,0,1-1.331,2.173.564.564,0,0,1,.058.242,1.441,1.441,0,0,1-.363.842,4.925,4.925,0,0,0-.542.847l-.063.121a14.074,14.074,0,0,0-1.331,1.21.191.191,0,0,1-.179.121.252.252,0,0,1-.184-.063l-.179.063-.242-.121-.058-.058-.121.058a2.031,2.031,0,0,1-.484.121,3.829,3.829,0,0,1-2.237-.842A4.386,4.386,0,0,1,391,36.815a1.006,1.006,0,0,1-.789-1.021l.063-.184-.063-.179a.879.879,0,0,1,.968-.605l.184.063.179.063q.363-.245.363-.489l.063-.179.242-.126a5.287,5.287,0,0,0,.784.063,7.877,7.877,0,0,0,1.568-.179q.063-.189,1.389-2.173a6.8,6.8,0,0,0,1.147-2.358.983.983,0,0,1-.063-.305,3.571,3.571,0,0,1,.121-.816,3.5,3.5,0,0,0,.121-.81,7.43,7.43,0,0,0-.179-.726q.245-3.2.242-3.626a7.466,7.466,0,0,0-.484-2.9,9.591,9.591,0,0,1-1.51.305c-.121.037-.642.179-1.568.421h-.663a4.515,4.515,0,0,0-2.784,1.274.172.172,0,0,1-.121.063q-1.026.3-2.958,1.089a2.959,2.959,0,0,1,.063.363,2.009,2.009,0,0,1-.395,1.026,2.016,2.016,0,0,0-.395.847c0-.242.063-.084.184.484a19.852,19.852,0,0,1-1.331,3.984l.058.063.063.179a.249.249,0,0,1-.121.242v.905a5.865,5.865,0,0,1-.363,2.358,6.933,6.933,0,0,1,.663,3.021c0,.042-.121.458-.358,1.268,0,.116-.126.179-.368.179-1.084,0-2.231-.747-3.442-2.231a.715.715,0,0,1-.179-.363v-.242a2.923,2.923,0,0,0-.121-.6,1.793,1.793,0,0,1-.058-.789,1.075,1.075,0,0,1-.216-.842c.021-.405-.005-.642-.089-.726l-.058-.179a45.846,45.846,0,0,1,.963-7.731q-1.745-1.026-6.762-4.831a.443.443,0,0,1-.058-.179l.058-.126a16.781,16.781,0,0,1-1.689-1.447,1.771,1.771,0,0,1-.063-1.089.711.711,0,0,1-.116-.484.357.357,0,0,1,.116-.242.4.4,0,0,1,.305-.121h.242l.121-.116L373.783,16l-.058-.179.058-.116c0-.084.31-.189.937-.337a7.347,7.347,0,0,1,1.179-.211,1.418,1.418,0,0,1,.421.063.4.4,0,0,1,.179-.395.822.822,0,0,1,.363-.089.255.255,0,0,1,.242.116,2.394,2.394,0,0,1,.663-.3.519.519,0,0,1,.242.063,5.279,5.279,0,0,1,2.416-.905,14.908,14.908,0,0,1,1.752-.542,20.162,20.162,0,0,0,2.358-.547v-.542a17.843,17.843,0,0,0-.179-2.026,17.03,17.03,0,0,1-.184-2.026l.058-.121-.058-.184.058-.184.063-.121V7.05a6.877,6.877,0,0,1,.6-2.9,5.431,5.431,0,0,0,.605-1.931,1.54,1.54,0,0,0-.421-1.21l-.063-.179c0-.205.142-.305.421-.305,0-.158.163-.237.484-.237l.184.058A3.236,3.236,0,0,1,387.187.04,9.841,9.841,0,0,1,389.3.945C393.165,3,395.223,4.866,395.46,6.56L395.4,6.8a.816.816,0,0,1,.363.721,3.1,3.1,0,0,1-.179.816,3.085,3.085,0,0,0-.184.937c0,.247-.253.495-.758.758s-.789.479-.847.663-.158.279-.3.3a7.444,7.444,0,0,0-1.421.816,30.038,30.038,0,0,1,5.8,1.389c2.137,1.174,3.242,1.795,3.321,1.874a3.859,3.859,0,0,1,1.995,3.079,5.149,5.149,0,0,1-.089.758,5.153,5.153,0,0,0-.089.758,2.631,2.631,0,0,0,.147.816c.105.3.168.532.216.695ZM373.3,16.691v0Zm41.317,5.92a.737.737,0,0,1,.184.426.984.984,0,0,1-.216.537.962.962,0,0,0-.21.426,1.6,1.6,0,0,1,.058.3l-.058.184-.121.058.121.121.058.179c0,.405-.342.71-1.026.905-.116.042-.163.084-.116.126q0,.237-.363.237a.735.735,0,0,1-.426-.121,3.155,3.155,0,0,1-.842.605c-.121,0-.205-.163-.242-.484a.725.725,0,0,0-.3-.058,1.777,1.777,0,0,0-.363.058h-.421l-.063.121a.4.4,0,0,1-.3.121c-.205,0-.405-.2-.605-.605a5.078,5.078,0,0,1-3.142-2.352c-.563-1.284-1.426-3.263-2.594-5.92a57.555,57.555,0,0,1-2.779-6.4c0-.321.663-.484,1.989-.484a7.9,7.9,0,0,1,4.231,1.153.356.356,0,0,1,.242-.121,8.544,8.544,0,0,1,1.389.963,21.575,21.575,0,0,1,2.837,2.658c1.331.847,2.331,2.816,3.021,5.92l.242,1.026a.586.586,0,0,1-.184.426Z" transform="translate(-325.114 -0.04)" fill="#fff"/>
        <path id="パス_2008" data-name="パス 2008" d="M496.157,15.279l-.179.179c-.842,1.174-1.653,1.731-2.416,1.695a.85.85,0,0,1-.632.51,2.611,2.611,0,0,0-.574.211c-.037.042-.105.042-.179,0-.358-.037-1.005.3-1.931,1.026l-.842.721a.848.848,0,0,1-.363.126,7.712,7.712,0,0,0-4.236,2.473l.184.484v.058c0,.2-.1.284-.305.242l-.058.058q0,.126.237,1.816a33.816,33.816,0,0,1,.3,3.442,6.448,6.448,0,0,1-.784,3.321V31.7a7.158,7.158,0,0,1-.605,2.416l-.363,1.089c-.237.321-.568.747-.963,1.268a2.424,2.424,0,0,1-1.689,1.452,3.416,3.416,0,0,1-1.81,1.326l-.784.242a.526.526,0,0,1-.242.058q-1.753-.837-1.752-2.173a8.143,8.143,0,0,1,1.026-2.416,12.591,12.591,0,0,1,1.453-2.358,7.266,7.266,0,0,0,1.752-5.257A12.43,12.43,0,0,0,479.611,23a4.351,4.351,0,0,0-1.205.058,2.922,2.922,0,0,1-1.689,0,.824.824,0,0,1-1.021-.3c-.126-.079-.305-.195-.547-.363q-.118-.118-3.384-2.237a15.465,15.465,0,0,1-3.142-2.537c-.205.121-.405.242-.605.363a.939.939,0,0,0,.063.242c0,.079-.063.142-.184.179l.242.184a.337.337,0,0,1,.116.237v.121l-.174.3a1.9,1.9,0,0,0-.242.668v.121c.321.2.484.4.484.605a1.222,1.222,0,0,1-.237.6,1.805,1.805,0,0,0-.242.421v.063l.3.179a.348.348,0,0,1,.116.242v.605a6.69,6.69,0,0,0,.216,1.395,7.065,7.065,0,0,1,.216,1.147,5.544,5.544,0,0,0,.363,1.626c.321.884.521,1.431.605,1.631l.305.542a3.469,3.469,0,0,1,.726,1.747,3.064,3.064,0,0,1-.242,1.095.312.312,0,0,1-.363.116q-4.4-1.626-6.22-7.431l-.179-.605q-3.134-9.844-3.021-15.462a.232.232,0,0,1,.179-.237.277.277,0,0,1,.305.058c.079.121.284.063.605-.184l.484-.242a.08.08,0,0,1,.121,0l1.568.305c1.495.358,2.558.642,3.2.842a10.6,10.6,0,0,1,3.021,1.452.186.186,0,0,1,.116.179.384.384,0,0,1-.089.242.405.405,0,0,0-.089.242,1.977,1.977,0,0,0,.395.842,2,2,0,0,1,.389.91c0,.321-.279.563-.842.721a2.126,2.126,0,0,1-.663.995c-.358.342-.547.595-.547.758a.857.857,0,0,0,.058.242,1.093,1.093,0,0,1,.063.3,3.111,3.111,0,0,1-.063.421,2.262,2.262,0,0,0-.058.426v.063c0,.042.121.063.358.063a14.67,14.67,0,0,0,2.847-1.268,21.36,21.36,0,0,1,2.837-1.452,11.272,11.272,0,0,0,4.289-1.626,8.546,8.546,0,0,0-.484-2.479.239.239,0,0,1-.063-.179.244.244,0,0,1,.063-.184l.058-.063a13.811,13.811,0,0,0-.484-1.326q-.781-1.452-1.631-3.079a3.287,3.287,0,0,0-.605-1.147l-.363-.547V3.485a.273.273,0,0,1,.305-.305l1.331.242a20.186,20.186,0,0,1,2.958.663,2.4,2.4,0,0,0,1.179.395,1.736,1.736,0,0,1,1.3.753,6.428,6.428,0,0,1,2.594,1.452l.363.3c.121.084.179.263.179.542a2.114,2.114,0,0,1-.453,1.084,2.176,2.176,0,0,0-.453.905.71.71,0,0,0,.121.363.565.565,0,0,1,.121.242,3.227,3.227,0,0,1-.095.484,3.671,3.671,0,0,0-.089.726,1.681,1.681,0,0,0,.121.721h.179c.242,0,.384-.026.426-.089a.191.191,0,0,1,.179-.089.337.337,0,0,1,.237.116.754.754,0,0,1,.784-.058c.205.084.326.084.368,0a.2.2,0,0,1,.242-.058c1.405.116,2.815.221,4.226.3a4.474,4.474,0,0,1,3.442,1.995.279.279,0,0,1,0,.242.24.24,0,0,1-.242.121H494.9l.247.184c-.047-.163,0-.263.116-.305.242-.079.484.021.726.305l.121.116c.116.163.142.305.058.426Z" transform="translate(-366.585 -1.528)" fill="#fff"/>
        <path id="パス_2009" data-name="パス 2009" d="M549.852,12.345a1.178,1.178,0,0,0-.605,1.3,1.77,1.77,0,0,1-.3,1.358c-.163-.042-.347.063-.547.3a2.334,2.334,0,0,1,.121.726,5.754,5.754,0,0,1-.637,2.116,7.242,7.242,0,0,0-.695,2.116.7.7,0,0,1,.184,1.021,6.914,6.914,0,0,0-.484.91c0,.242.205.463.605.663a4.378,4.378,0,0,0-.237,2.179c0,.926-.3,1.468-.91,1.631a13.779,13.779,0,0,0,.968,5.736,20.194,20.194,0,0,1,1.268,5.373,8.318,8.318,0,0,1-.179,1.752,3.335,3.335,0,0,1-1.395.295,7.015,7.015,0,0,1-3.621-1.447,47.172,47.172,0,0,1-6.1-19.024,5.405,5.405,0,0,0,.147-3.052,5.373,5.373,0,0,1,.158-3.047,1.875,1.875,0,0,1-.121-.726,11.729,11.729,0,0,1,.095-1.242c.058-.579.089-1.016.089-1.295,0-1.331-.416-2.095-1.268-2.295A2.191,2.191,0,0,1,538.448,6c.958-.042,1.931-.063,2.9-.063a10.23,10.23,0,0,0,2.773.3H546.9c-.158.042-.242.321-.242.847q3.379,2.171,3.205,5.252Zm23.377,21.929a3.562,3.562,0,0,1-2.721-.847q-2.36-1.689-2.537-1.81a2.222,2.222,0,0,0-1.216.3,14.955,14.955,0,0,1,.184,2.173A6.921,6.921,0,0,1,565,39.227a8.817,8.817,0,0,1-1.51.126q-4.468,0-9.846-4.773a2.909,2.909,0,0,0,.847-2.658,3.69,3.69,0,0,1,2.652-2.352c1.253-.326,2.489-.668,3.721-1.026s1.842-1.005,1.842-1.931a6.8,6.8,0,0,0-1.205-3.147,2.211,2.211,0,0,0-.484-.058,1.038,1.038,0,0,0-.784.421c-.442.526-.705.784-.784.784a1.115,1.115,0,0,1,.121.484c0,.684-.526.926-1.574.721a26.752,26.752,0,0,1-8.757-3.2,5.454,5.454,0,0,0,2.958-1.931,15.145,15.145,0,0,1,2.594-2.479,13.254,13.254,0,0,1,3.11-1.663,15.316,15.316,0,0,0,3.052-1.537,13.87,13.87,0,0,1-.605-3.684,14.089,14.089,0,0,0-.605-3.684,4.212,4.212,0,0,0-2.294-2.594,12.738,12.738,0,0,0-1.205-.847,6.739,6.739,0,0,1,3.621-.968,11.773,11.773,0,0,1,3.689.668c.563.768,1.347,1.831,2.352,3.2a3.8,3.8,0,0,0-.363,1.568,6.575,6.575,0,0,0,.726,2.658,15.949,15.949,0,0,1,1.089,2.479,12.071,12.071,0,0,1,2.531-.3,4.175,4.175,0,0,1,2.416.6,1.288,1.288,0,0,0-.305.847,3.045,3.045,0,0,0,.089.632,2.812,2.812,0,0,1,.095.579c0,.442-.347.747-1.026.905a31.268,31.268,0,0,0-3.8,1.447,4.3,4.3,0,0,0-.305,1.689,4.8,4.8,0,0,0,.305,1.81,2.209,2.209,0,0,1,.058.484,13.61,13.61,0,0,1-.237,1.568,4.531,4.531,0,0,0-.121,1.752,1.683,1.683,0,0,0-.237.847,2.786,2.786,0,0,0,.358,1.147,7.59,7.59,0,0,1,.484,1.21q1.445.663,2.9,1.326a4.827,4.827,0,0,1,2.352,1.874.934.934,0,0,1,.668.968,1.849,1.849,0,0,1-.358,1.089Zm-10.515.905a7.767,7.767,0,0,0-.116-2.3c-.163-.721-.326-1.431-.489-2.11l-2.352.3c-1.858.805-2.716,1.874-2.605,3.2a14.123,14.123,0,0,1,2.058.779,5.419,5.419,0,0,0,2.058.605A2.412,2.412,0,0,0,562.714,35.18Z" transform="translate(-402.461 -1.551)" fill="#fff"/>
        <path id="パス_2010" data-name="パス 2010" d="M641.787,30.081a3.558,3.558,0,0,1-1.147,2.594,4.932,4.932,0,0,0-1.273,1.637.688.688,0,0,1,.305.542,1.13,1.13,0,0,1-.158.484c-.095.2-.168.342-.211.421q-.426,1.871-3.258,3.442a9.321,9.321,0,0,1-4.71,1.574,6.687,6.687,0,0,1-4.415-1.631,6.1,6.1,0,0,1-1.868-4.047q-.063-.245-.237-4.594c-.084-2.489-.405-6.2-.968-11.109q-2-3.323-4.647-8.22v-.116l.058-.121a1.942,1.942,0,0,1,.547-.663l-.121-.184a2.266,2.266,0,0,1-.426.121.243.243,0,0,1-.179-.058l-.058-.184a2.855,2.855,0,0,1,.089-.484,2.712,2.712,0,0,0,.095-.542,8.128,8.128,0,0,0-.179-1.389,7.2,7.2,0,0,1-.184-1.326.29.29,0,0,1,.184-.274.758.758,0,0,0,.237-.153,3.3,3.3,0,0,0-.542-.547,1.149,1.149,0,0,1-.484-.842,2.5,2.5,0,0,1-.358-.968,1.092,1.092,0,0,1,.058-.3.346.346,0,0,1-.237-.305c0-.279.158-.426.484-.426.405.084.542.142.421.184a7.683,7.683,0,0,1,1.874-.184c.726,0,1.084.105,1.084.305v.063l.242.179a1.975,1.975,0,0,1,.484-.363c-.121,0,.058.221.542.668a.769.769,0,0,1,.432-.121.329.329,0,0,1,.363.242c.237.121.558.3.963.542h.242a2.541,2.541,0,0,0,.632-.095,3.011,3.011,0,0,1,.574-.089.937.937,0,0,1,.963.547c.037.121.237.3.605.542a.235.235,0,0,1,.237-.184c.042,0,.537.226,1.484.668A13.292,13.292,0,0,1,631.4,6.462a2.914,2.914,0,0,1,1.389,1.816V9.362a4.1,4.1,0,0,0,.363.663,8.177,8.177,0,0,1,.726,3.868,14.757,14.757,0,0,1-.116,1.81.6.6,0,0,1,.179.426l-.063.179-.058.184c-.284.321-.463.479-.547.479l-.179-.121h-.058q-1.271.726-1.332,2.958a14.431,14.431,0,0,1-.363,3.51l.116.058v.547a2.07,2.07,0,0,1-.116.721l.058.063.058.237-.058.184-.121.058.063.184A2.1,2.1,0,0,1,630.8,26.7h.242c.158,0,.237.1.237.305l-.058.179c-.042,0-.158.121-.363.358l.058.184-.058.179-.058.063a3.1,3.1,0,0,1,.242,1.447c0,.158.021.4.058.726v.789a1.97,1.97,0,0,1-.184.905,3.942,3.942,0,0,1,.368.842.617.617,0,0,1-.121.305l.121.121v.063a1.019,1.019,0,0,1-.179.484h.058l.121.179v.063l-.058.184a.568.568,0,0,0-.121.421,2.827,2.827,0,0,0,.484,1.452,2.068,2.068,0,0,0,1.147.363q.963,0,3.079-1.637c0-.2.079-.3.242-.3a.24.24,0,0,1,.237.121c.726-.521,1.426-1.063,2.116-1.631a7.082,7.082,0,0,0,1.81-1.874.269.269,0,0,1-.305-.3l.121-.184a1.764,1.764,0,0,0,.179-1.026c0-.563.205-.842.605-.842.642,0,.963.484.963,1.447Zm-10.878,1.81v-.058a.172.172,0,0,1-.058.121Z" transform="translate(-440.98 -1.163)" fill="#fff"/>
        <g id="グループ_530" data-name="グループ 530" transform="translate(0 0.205)">
          <path id="パス_2011" data-name="パス 2011" d="M287.115,8.087c.626.795,2.316,3.294,2.71,3.9l-1.105,1.484c-.31-.71-1-1.921-1.605-2.984V19.96h-1.837V10.866a20.294,20.294,0,0,1-2.421,5.257,9.269,9.269,0,0,0-.958-1.774,22.977,22.977,0,0,0,3.21-7.636H282.4V4.877h2.879V.43l2.316.126c-.021.168-.168.289-.479.332V4.872h2.463V6.708h-2.463Zm14.372,2.942H297.5a21.023,21.023,0,0,0,4.526,5.589,8.286,8.286,0,0,0-1.5,1.584,24.275,24.275,0,0,1-3.921-5.526v7.278h-1.963V12.881a18.964,18.964,0,0,1-4.589,5.673,7.74,7.74,0,0,0-1.379-1.521,17.376,17.376,0,0,0,5.131-6.01h-4.3V9.187h5.131V5.893H292.22a15.007,15.007,0,0,1-1.126,2.752,10.007,10.007,0,0,0-1.605-.816,20.432,20.432,0,0,0,1.942-6.694l2.252.479a.466.466,0,0,1-.479.253c-.126.647-.274,1.4-.479,2.189h1.921V.43l2.442.126c-.021.189-.168.289-.479.353V4.061h4.3V5.9h-4.3V9.192h4.884v1.837Z" transform="translate(-281.9 -0.43)" fill="#fff"/>
          <path id="パス_2012" data-name="パス 2012" d="M341.507,6.183h-5.968c.458,6.278,1.9,11.725,3.752,11.746.542,0,.816-1.189.937-3.921a5.014,5.014,0,0,0,1.731,1.168c-.332,3.858-1.063,4.863-2.837,4.863-3.526-.021-5.152-6.447-5.694-13.851H322.64V4.246h10.683c-.063-1.21-.105-2.442-.105-3.673l2.71.147c-.021.189-.189.31-.542.374-.021,1.042,0,2.105.042,3.152H341.5V6.188Zm-12.578,4.694v5.447c1.4-.274,2.858-.563,4.279-.858l.147,1.731c-3.484.816-7.2,1.647-9.557,2.147a.4.4,0,0,1-.332.332l-.753-2.21c1.147-.189,2.61-.458,4.236-.774v-5.82h-3.526V9.014h9.157v1.858h-3.652ZM337.875.51a17.182,17.182,0,0,1,2.942,2.463l-1.4,1.21A16.936,16.936,0,0,0,336.539,1.6L337.875.515Z" transform="translate(-301.2 -0.468)" fill="#fff"/>
          <path id="パス_2013" data-name="パス 2013" d="M286.993,48.339V46.818A25.338,25.338,0,0,1,283.3,49.05a8.533,8.533,0,0,0-1.168-1.626,21.638,21.638,0,0,0,8.762-7.383l2.731.147a.564.564,0,0,1-.479.353,21.615,21.615,0,0,0,8.847,6.552,10.976,10.976,0,0,0-1.274,1.795,27.41,27.41,0,0,1-3.758-2.21v1.668h-9.973Zm-3.652,4.068V50.55H300.8v1.858h-9.931l.458.147c-.084.168-.274.253-.563.253a40.686,40.686,0,0,1-2.047,4.047c2.421-.063,5.131-.147,7.8-.232a28.356,28.356,0,0,0-2.589-2.668l1.71-.916a27.532,27.532,0,0,1,4.926,5.489l-1.816,1.126c-.253-.416-.563-.916-.937-1.421-4.884.268-10.015.5-13.267.647a.415.415,0,0,1-.353.31l-.71-2.231c.879-.021,1.921-.021,3.068-.063a36.116,36.116,0,0,0,2.042-4.484H283.34Zm13.393-5.9a21.831,21.831,0,0,1-4.8-4.5,20.009,20.009,0,0,1-4.5,4.5Z" transform="translate(-282.009 -19.195)" fill="#fff"/>
          <path id="パス_2014" data-name="パス 2014" d="M330.537,44.664a.547.547,0,0,1-.289.274,21.054,21.054,0,0,1-2.773,4.8c1.021.689,2.879,2.063,3.4,2.463l-1.168,1.626c-.542-.563-1.584-1.521-2.505-2.316v8.115h-1.963V52.284A19.216,19.216,0,0,1,322.38,54.6a8.275,8.275,0,0,0-1-1.837,17.833,17.833,0,0,0,6.468-6.947h-5.884V44h3.273V40.08l2.442.147c-.021.168-.147.289-.479.353V44h1.731l.31-.084,1.295.753Zm6.136,12.394h4.757V59.02H329.5V57.057h5.152V48.732h-4.3V46.79h4.3V40.238l2.526.168c-.021.168-.168.289-.5.332V46.79h4.279v1.942h-4.279Z" transform="translate(-300.603 -19.214)" fill="#fff"/>
        </g>
      </g>
    </g>
  </g>
</svg>
