<svg xmlns="http://www.w3.org/2000/svg" xmlns:xlink="http://www.w3.org/1999/xlink" width="26.944" height="25.53" viewBox="0 0 26.944 25.53">
  <defs>
    <clipPath id="clip-path">
      <rect id="長方形_236" data-name="長方形 236" width="26.944" height="25.53" transform="translate(0 0)" fill="#fff"/>
    </clipPath>
  </defs>
  <g id="グループ_960" data-name="グループ 960" transform="translate(0 0)">
    <g id="グループ_164" data-name="グループ 164" clip-path="url(#clip-path)">
      <path id="パス_1532" data-name="パス 1532" d="M22.7,15.744a1.28,1.28,0,0,0,1.223-.9l2.964-9.4a1.282,1.282,0,0,0-1.223-1.668H7.823c-.01,0-.019,0-.028,0l-.4-2.685A1.282,1.282,0,0,0,6.127,0H1.282a1.282,1.282,0,0,0,0,2.564H5.021L6.807,14.552l-1.891,5.4a1.282,1.282,0,0,0,1.211,1.705h.162a2.206,2.206,0,1,0,2.862,0H20.309a2.206,2.206,0,1,0,2.863,0h.338a1.283,1.283,0,0,0,0-2.565H7.934l1.173-3.349Z" fill="#fff"/>
    </g>
  </g>
</svg>
