<svg xmlns="http://www.w3.org/2000/svg" xmlns:xlink="http://www.w3.org/1999/xlink" width="33" height="33" viewBox="0 0 33 33">
  <defs>
    <clipPath id="clip-path">
      <rect id="長方形_1457" data-name="長方形 1457" width="23.583" height="23.426" fill="#ce3d08"/>
    </clipPath>
  </defs>
  <g id="グループ_929" data-name="グループ 929" transform="translate(-467 15167)">
    <g id="グループ_902" data-name="グループ 902" transform="translate(-596 -16767)">
      <circle id="楕円形_10" data-name="楕円形 10" cx="16.5" cy="16.5" r="16.5" transform="translate(1063 1600)" fill="#fff"/>
      <g id="グループ_893" data-name="グループ 893" transform="translate(1067.708 1604.787)">
        <g id="グループ_892" data-name="グループ 892" clip-path="url(#clip-path)">
          <path id="パス_5220" data-name="パス 5220" d="M1.521,13.342c-.081.05-.159.148-.25.174a.359.359,0,0,1-.276-.042c-.177-.106-.32-.164-.446-.234-.137-.048-.27-.094-.5-.193l-.042.024a.653.653,0,0,0,.31.65.753.753,0,0,0,.669.03.668.668,0,0,1,.3-.072c.1,0,.211.066.318.073a.578.578,0,0,0,.47-.289,11.561,11.561,0,0,0,.785,1.67,3.738,3.738,0,0,0-.436.281.672.672,0,0,1-.269.2.427.427,0,0,1-.33-.067,5.107,5.107,0,0,0-.6-.331,1.98,1.98,0,0,0-.718-.139l-.026.043a1.262,1.262,0,0,0,.536.587,1.192,1.192,0,0,0,.766.113,1.7,1.7,0,0,1,.382-.043,1.546,1.546,0,0,0,.419.015.637.637,0,0,0,.4-.427q.136.231.28.456a14.179,14.179,0,0,0,.874,1.187,1.993,1.993,0,0,1-.416.177,6.446,6.446,0,0,1-.644.2.585.585,0,0,1-.371-.012,1.826,1.826,0,0,1-.32-.233A1.185,1.185,0,0,0,1.639,17l-.022.045a.966.966,0,0,0,.649.491c.135.018.283-.022.413-.005a1.293,1.293,0,0,1,.381.128,1.032,1.032,0,0,0,.86.024.852.852,0,0,0,.412-.452,15.812,15.812,0,0,0,1.211,1.29.2.2,0,0,0-.133.1c-.053.1-.1.287-.195.343A.268.268,0,0,1,4.9,18.9a1.111,1.111,0,0,0-.283-.2.669.669,0,0,0-.262-.107,1.432,1.432,0,0,0-.735.239l-.041.091a.913.913,0,0,0,.548.72.767.767,0,0,0,.412.007.738.738,0,0,0,.4-.2.541.541,0,0,1,.355-.176c.123,0,.295.109.448.108a.449.449,0,0,0,.345-.238c.015-.028.03-.059.043-.091l.048.044c.439.377.9.724,1.368,1.057a.164.164,0,0,0-.015.027c-.031.1-.045.29-.13.355s-.2.045-.3-.034a1.1,1.1,0,0,0-.269-.185.573.573,0,0,0-.241-.094,1.432,1.432,0,0,0-.7.268l-.039.092a.863.863,0,0,0,.539.7.735.735,0,0,0,.4-.01.705.705,0,0,0,.381-.222.549.549,0,0,1,.33-.207c.119-.015.3.072.452.047a.413.413,0,0,0,.283-.258c.507.33,1.026.642,1.557.929a.2.2,0,0,1-.04.052.264.264,0,0,1-.236.022,1.385,1.385,0,0,0-.455-.083,1.121,1.121,0,0,0-.491.183l-.01.049a.685.685,0,0,0,.491.306.735.735,0,0,0,.527-.187.545.545,0,0,1,.234-.139c.085-.021.2.008.3-.021.006,0,.011-.009.017-.011a27.318,27.318,0,0,0,2.961,1.314.7.7,0,0,0,.825.344h0A17.157,17.157,0,0,0,16.47,22.35a.423.423,0,0,1,.083.1.43.43,0,0,0,.347.213.421.421,0,0,0,.344-.26l-.007-.05a.7.7,0,0,0-.3-.227c-.016,0-.032,0-.048,0,.285-.156.564-.323.838-.5.005,0,.008.009.013.013a1.875,1.875,0,0,0,.27.059.565.565,0,0,1,.2.151.519.519,0,0,0,.884-.211l-.018-.046a1.043,1.043,0,0,0-.439-.119,1.277,1.277,0,0,0-.355.11.176.176,0,0,1-.193-.027.252.252,0,0,1-.053-.13,12.94,12.94,0,0,0,1.147-.875.366.366,0,0,0,.124.091,2.433,2.433,0,0,0,.279.014.506.506,0,0,1,.221.125.554.554,0,0,0,.9-.26l-.019-.046a1.061,1.061,0,0,0-.46-.1,1.31,1.31,0,0,0-.377.135.2.2,0,0,1-.208-.005c-.06-.042-.082-.147-.114-.209a.362.362,0,0,0-.027-.028,11.913,11.913,0,0,0,.875-.879.568.568,0,0,0,.167.229.591.591,0,0,0,.627.031.576.576,0,0,1,.262-.089c.088,0,.193.055.289.056a.511.511,0,0,0,.425-.372l-.02-.045a.548.548,0,0,0-.52.015c-.066.054-.124.154-.2.186a.272.272,0,0,1-.241-.026c-.157-.1-.262-.151-.346-.208-.051-.022-.11-.044-.182-.082a11.183,11.183,0,0,0,.744-.99c.009-.015.017-.029.026-.043a.391.391,0,0,0,.183.212.853.853,0,0,0,.317.009.767.767,0,0,1,.265.07.676.676,0,0,0,.547-.02.725.725,0,0,0,.34-.458l-.025-.043a.962.962,0,0,0-.51,0,1.407,1.407,0,0,0-.374.241.2.2,0,0,1-.211.045c-.069-.032-.1-.135-.119-.191a.557.557,0,0,0-.224-.183,10.083,10.083,0,0,0,.606-1.157.31.31,0,0,0,.263.232c.078,0,.166-.063.234-.063a.35.35,0,0,1,.2.083.43.43,0,0,0,.666-.485l-.041-.027c-.2.028-.292.037-.369.054a1.653,1.653,0,0,0-.247.182.164.164,0,0,1-.178.033c-.057-.029-.092-.125-.134-.173a.307.307,0,0,0-.317-.024c.065-.158.13-.317.184-.479a.177.177,0,0,0,.048,0,.2.2,0,0,0,.073-.345l-.018-.006c.029-.1.064-.2.088-.3-.031.087-.073.168-.108.253a.056.056,0,0,0-.015-.012.16.16,0,0,0-.108-.008.2.2,0,0,0,.115.041l-.007.017c-.091.008-.154.028-.162-.011,0-.009.012-.03.049-.046h.006s-.014-.005-.017-.009c-.03-.039-.012-.093.019-.148a.413.413,0,0,0,.075-.3.468.468,0,0,0-.264-.254l-.048.006a.448.448,0,0,0-.192.328.4.4,0,0,0,.173.278c.051.041.092.081.088.136s-.057.13-.045.218a.2.2,0,0,0,.115.144.3.3,0,0,0,.049.015,7.931,7.931,0,0,1-.443.8.561.561,0,0,0-.014-.123.614.614,0,0,0-.226-.26.182.182,0,0,1-.089-.156c0-.061.071-.13.095-.188.024-.115-.024-.212-.186-.34l-.048,0a.321.321,0,0,0-.16.389c.035.063.121.114.147.173a.266.266,0,0,1-.01.2.536.536,0,0,0,.02.421.447.447,0,0,0,.266.193c-.186.272-.38.535-.587.786-.041-.074-.123-.139-.151-.211a.394.394,0,0,1,0-.247.735.735,0,0,0-.048-.524.493.493,0,0,0-.487-.259l-.027.041a2.309,2.309,0,0,0,.06.459,1.1,1.1,0,0,0,.25.351.288.288,0,0,1,.1.208c0,.078-.066.165-.086.243a.41.41,0,0,0,.078.289,10.8,10.8,0,0,1-1.2,1.125.2.2,0,0,1-.1-.063.15.15,0,0,1,.022-.16.5.5,0,0,0,.1-.306.575.575,0,0,0-.216-.323l-.048-.005a.4.4,0,0,0-.1.677.228.228,0,0,1,.086.16c0,.059-.054.144-.053.22,0,.009.007.018.009.027-.146.11-.292.219-.442.321-.117.08-.238.152-.358.227a.45.45,0,0,1-.082-.127.289.289,0,0,1,.032-.21.645.645,0,0,0,.053-.432.572.572,0,0,0-.319-.336l-.045.014a.712.712,0,0,0-.132.437.694.694,0,0,0,.185.354.231.231,0,0,1,.073.187c-.009.066-.083.135-.11.2a.277.277,0,0,0,0,.128,12.553,12.553,0,0,1-1.283.649.177.177,0,0,1-.062-.072.2.2,0,0,1,.046-.2,1.123,1.123,0,0,0,.208-.323,1.088,1.088,0,0,0,0-.471l-.026-.02q.306-.472.579-.963a.614.614,0,0,1,.137-.052.329.329,0,0,1,.2.054.459.459,0,0,0,.442-.007.494.494,0,0,0,.2-.433l-.031-.039a.784.784,0,0,0-.4-.011.747.747,0,0,0-.247.215.145.145,0,0,1-.159.058c-.009,0-.015-.016-.023-.023a15.823,15.823,0,0,0,.716-1.508.351.351,0,0,1,.1-.113.183.183,0,0,1,.179.019.544.544,0,0,0,.349.077.619.619,0,0,0,.323-.265V16.8a.493.493,0,0,0-.377-.22.5.5,0,0,0-.343.187.286.286,0,0,1-.121.082c.082-.215.168-.428.24-.646.034-.1.059-.2.091-.306a.413.413,0,0,0,.2.026c.091-.024.178-.1.26-.125a.486.486,0,0,1,.261.025.669.669,0,0,0,.555-.072.648.648,0,0,0,.272-.537l-.036-.034a1.535,1.535,0,0,0-.483.1,1.7,1.7,0,0,0-.357.271.27.27,0,0,1-.221.084c-.079-.012-.155-.095-.225-.131a.41.41,0,0,0-.1-.022c.086-.3.161-.605.228-.911a.114.114,0,0,0,.042-.031c.024-.045.035-.137.071-.166s.084-.018.137.011a.332.332,0,0,0,.274.057.464.464,0,0,0,.2-.3l-.009-.049a.391.391,0,0,0-.311-.178.346.346,0,0,0-.232.2.174.174,0,0,1-.09.089q.1-.521.171-1.046a.292.292,0,0,0,.119.032c.084-.007.169-.074.238-.084a.368.368,0,0,1,.214.054.5.5,0,0,0,.465-.007.529.529,0,0,0,.234-.442l-.03-.039a.856.856,0,0,0-.42,0,.875.875,0,0,0-.276.22.166.166,0,0,1-.173.058c-.06-.021-.1-.113-.143-.158a.241.241,0,0,0-.184-.044c.025-.242.052-.483.066-.725.007-.128.006-.258.01-.386a.33.33,0,0,0,.3.029c.069-.04.13-.13.2-.158a.3.3,0,0,1,.222.016.613.613,0,0,0,.471,0,.5.5,0,0,0,.279-.481l-.04-.028a2.021,2.021,0,0,0-.417,0,.881.881,0,0,0-.345.234.254.254,0,0,1-.194.093c-.071,0-.15-.075-.221-.1a.324.324,0,0,0-.244.065c0-.158.006-.316,0-.473a.738.738,0,0,1,.1,0,1.3,1.3,0,0,1,.2.069.356.356,0,0,0,.386-.129.409.409,0,0,0-.012-.407l-.041-.026a.581.581,0,0,0-.331.08.329.329,0,0,0-.064.212c-.009.049-.052.08-.076.048s0-.115,0-.154c-.007-.057-.061-.084-.184-.107q-.022-.559-.085-1.112c.124.083.221.08.283.008.03-.051.036-.147.07-.185s.087-.039.151-.03a.339.339,0,0,0,.326-.1.343.343,0,0,0-.018-.44l-.047,0c-.163.056-.225.012-.289.056a.455.455,0,0,0-.113.255c-.014.061-.038.114-.086.121s-.123-.04-.175-.047-.1.043-.129.115c-.042-.31-.1-.617-.162-.921.107.154.22.17.29.1.032-.048.037-.143.064-.177s.076-.037.14-.037a.276.276,0,0,0,.068-.547l-.047.012a1.193,1.193,0,0,1-.224.153c-.007.024.011.056.031.174.006.052-.007.1-.046.1s-.1-.052-.14-.069c-.071-.011-.1.053-.146.238v0c-.019-.09-.031-.182-.053-.271.039.254.06.509.082.763-.1-.086-.133-.117-.148-.073s0,.119-.016.139-.044,0-.066-.046c-.043-.1-.056-.128-.079-.135a1.717,1.717,0,0,0-.179.188l-.022.045c-.026.167.027.256.094.293a.184.184,0,0,0,.21-.116c.028-.046.047-.082.078-.069s.08.077.123.094a.068.068,0,0,0,.037-.007c.017.284.022.568.022.851a1.667,1.667,0,0,0-.14-.114c-.034.005-.061.032-.145.11-.04.032-.085.046-.1.012s-.005-.12-.01-.158-.035-.048-.076-.048A.438.438,0,0,0,18.8,9.6l-.035.033c-.072.173-.034.282.058.307.057,0,.13-.039.173-.034s.064.049.094.106a.228.228,0,0,0,.363.124,16.56,16.56,0,0,1-.137,1.706h0c-.041.006-.126.034-.167.007s-.048-.083-.037-.146a.466.466,0,0,0-.016-.307.51.51,0,0,0-.316-.187l-.045.016a.461.461,0,0,0-.1.392.4.4,0,0,0,.262.239c.064.023.117.047.139.1s.009.152.045.221a.206.206,0,0,0,.174.087c-.063.383-.141.762-.231,1.137-.042.015-.114.062-.158.048s-.063-.069-.061-.13a.479.479,0,0,0-.041-.281.587.587,0,0,0-.316-.16l-.045.016a.426.426,0,0,0-.085.4.383.383,0,0,0,.3.215c.069.012.126.022.158.07s.044.146.091.2a.189.189,0,0,0,.055.031c-.081.3-.172.595-.27.888a.123.123,0,0,1-.034,0c-.045-.013-.06-.064-.072-.127a.337.337,0,0,0-.153-.26.362.362,0,0,0-.335.08l-.022.045a.472.472,0,0,0,.1.337.3.3,0,0,0,.263.024c.056-.012.107-.012.126.03s0,.127,0,.174a.1.1,0,0,0,.016.029c-.088.243-.184.481-.284.718a.651.651,0,0,1-.153-.008.322.322,0,0,1-.162-.139.511.511,0,0,0-.386-.217.486.486,0,0,0-.393.249l.005.05a.755.755,0,0,0,.347.236.675.675,0,0,0,.339-.059.161.161,0,0,1,.176.022c.045.043.048.144.068.2,0,0,.006.007.009.011a14.615,14.615,0,0,1-.744,1.437.62.62,0,0,0-.1-.022.16.16,0,0,1-.139-.092c-.02-.055.013-.147.008-.209-.026-.112-.119-.175-.316-.188l-.041.026c-.088.186-.066.319.028.4.057.033.152.035.2.073a.231.231,0,0,1,.066.175.445.445,0,0,0,.066.218c-.232.367-.48.721-.741,1.065a.165.165,0,0,1-.062-.017.235.235,0,0,1-.089-.187.848.848,0,0,0-.109-.4.758.758,0,0,0-.375-.251l-.044.019a.62.62,0,0,0-.019.5.609.609,0,0,0,.346.3.308.308,0,0,1,.18.126.325.325,0,0,1,.029.092c-.165.211-.336.415-.511.617a1.536,1.536,0,0,0-.321-.3.381.381,0,0,1-.161-.221,1.412,1.412,0,0,1,.018-.3.67.67,0,0,0-.312-.478l-.047.011a.606.606,0,0,0-.016.607c.06.083.164.144.215.225a.59.59,0,0,1,.073.287.949.949,0,0,0,.206.556,16.632,16.632,0,0,1-1.2,1.166,16.87,16.87,0,0,0,.652-4.772c0-.046-.008-.093-.01-.14a.5.5,0,0,0,.332-.228c.077-.146.085-.364.166-.483a.6.6,0,0,1,.37-.234.9.9,0,0,0,.421-.234,1.029,1.029,0,0,0,.292-.377,1.1,1.1,0,0,0-.126-1.031l-.094-.021a2.044,2.044,0,0,0-.676.539,1.222,1.222,0,0,0-.13.334,1.536,1.536,0,0,0-.077.42.439.439,0,0,1-.189.364.91.91,0,0,1-.378.05,10.017,10.017,0,0,0-.542-2.1c-.037-.1-.075-.192-.113-.289a1.61,1.61,0,0,0,.343.048,1.056,1.056,0,0,0,.62-.163c.184-.135.325-.366.5-.481a1.358,1.358,0,0,1,.612-.2,1.536,1.536,0,0,0,.652-.213,1.818,1.818,0,0,0,.552-.438,1.632,1.632,0,0,0,.3-1.445l-.09-.032c-.213.147-.382.27-.532.39a4.545,4.545,0,0,0-.422.348,4.245,4.245,0,0,0-.356.417,3.585,3.585,0,0,0-.366.492.847.847,0,0,1-.476.378,2.461,2.461,0,0,1-.633-.017,1.171,1.171,0,0,0-.548.2,2.269,2.269,0,0,0-.338.267,19.17,19.17,0,0,1-.761-2.067c-.04-.139-.07-.281-.1-.422.026.009.052.019.078.027a.6.6,0,0,0,.468-.045c.143-.095.259-.288.4-.357a.659.659,0,0,1,.467-.03,1.048,1.048,0,0,0,.5.009,1.164,1.164,0,0,0,.457-.163,1.3,1.3,0,0,0,.529-.939l-.059-.08a1.747,1.747,0,0,0-.947.068,1.331,1.331,0,0,0-.336.239,1.487,1.487,0,0,0-.316.344.508.508,0,0,1-.376.238c-.146.009-.318-.117-.463-.154a.561.561,0,0,0-.4.091c-.043.027-.086.057-.129.089a11.012,11.012,0,0,1-.138-1.816c0-.363.022-.725.054-1.087a.719.719,0,0,0,.229.13.258.258,0,0,0,.282-.054c.075-.091.122-.274.2-.332s.184-.04.3.02a.644.644,0,0,0,.33.1.524.524,0,0,0,.29-.041.9.9,0,0,0,.369-.668L14.8,5.691a.879.879,0,0,0-.675-.253.526.526,0,0,0-.237.152.738.738,0,0,0-.2.281c-.06.12-.133.2-.232.2s-.228-.129-.332-.165a.206.206,0,0,0-.212.063,10.3,10.3,0,0,1,.244-1.183,9.286,9.286,0,0,1,.367-1.061c.094.194.221.264.354.241.068-.023.14-.1.2-.107a.244.244,0,0,1,.189.07.56.56,0,0,0,.391.138.543.543,0,0,0,.374-.273l-.006-.05a.656.656,0,0,0-.38-.215.625.625,0,0,0-.365.124.207.207,0,0,1-.189.042c-.061-.021-.115-.109-.172-.147-.112-.052-.23-.022-.373.108a8.89,8.89,0,0,1,.9-1.659.16.16,0,0,0,.018.018.255.255,0,0,0,.069.051c.044.02.084.028.115-.009s.051-.126.083-.15.073,0,.118.029a.255.255,0,0,0,.241.074.391.391,0,0,0,.156-.291l-.012-.049c-.107-.139-.189-.177-.264-.182a.272.272,0,0,0-.18.18c-.025.051-.054.09-.092.08a.124.124,0,0,1-.044-.031,7.42,7.42,0,0,1,1.778-1.7A7.107,7.107,0,0,0,15.1,1,.184.184,0,0,0,15.07.8c-.045-.027-.133-.039-.163-.079s-.02-.1.01-.151a.506.506,0,0,0,.089-.258,1.386,1.386,0,0,0-.168-.285L14.8,0a.346.346,0,0,0-.3.3.389.389,0,0,0,.168.34c.053.042.1.08.1.137s-.048.135-.051.2c.009.1.087.171.229.184a8.512,8.512,0,0,0-1.208,1.491.235.235,0,0,0-.131-.156c-.058-.012-.152.008-.2-.024a.175.175,0,0,1-.065-.167,1,1,0,0,0-.012-.309c-.036-.069-.1-.119-.2-.291l-.044-.019a.392.392,0,0,0-.248.436.457.457,0,0,0,.3.349.267.267,0,0,1,.162.114c.031.057.024.161.054.229a.251.251,0,0,0,.224.117,9.619,9.619,0,0,0-.8,1.716c-.028.081-.049.164-.075.246-.042-.169-.072-.249-.159-.285-.053-.011-.146,0-.19-.043a.166.166,0,0,1-.028-.175.8.8,0,0,0,.056-.336.862.862,0,0,0-.21-.36l-.047-.008a.492.492,0,0,0-.251.4.522.522,0,0,0,.21.408.344.344,0,0,1,.141.161c.023.065.007.173.04.251A.284.284,0,0,0,12.66,5a11.9,11.9,0,0,0-.49,2.593.183.183,0,0,0-.155-.043c-.108.023-.256.13-.354.113s-.162-.107-.2-.237a1.011,1.011,0,0,0-.115-.313c-.044-.079-.072-.156-.121-.186a.258.258,0,0,0-.178-.019.305.305,0,0,1-.308-.137l-.088-.039a.454.454,0,0,0-.3.464.8.8,0,0,0,.15.484.627.627,0,0,0,.326.209.6.6,0,0,0,.378.016.327.327,0,0,1,.32.049c.076.073.105.266.177.368a.292.292,0,0,0,.3.095.79.79,0,0,0,.14-.043,11.076,11.076,0,0,0,.256,2.462c.007.033.017.064.025.1l-.086,0a.8.8,0,0,0-.392.092c-.109.079-.265.232-.426.206a.418.418,0,0,1-.319-.338,3.918,3.918,0,0,0-.126-.481,2.56,2.56,0,0,0-.151-.452,2.656,2.656,0,0,0-.731-.866l-.093.022a1.682,1.682,0,0,0-.115,1.261,1.594,1.594,0,0,0,.326.54,1.169,1.169,0,0,0,.536.382,3.416,3.416,0,0,1,.573.24,1.92,1.92,0,0,0,.613.323.765.765,0,0,0,.587-.195c.218.725.485,1.419.7,2.095l0,.015a1.726,1.726,0,0,0-.181-.029.937.937,0,0,0-.372.021.328.328,0,0,1-.338-.086c-.079-.09-.079-.291-.125-.41s-.151-.155-.263-.192a.967.967,0,0,0-.463.011l-.067.071a.839.839,0,0,0,.041.509.427.427,0,0,0,.27.271c.137.028.324-.03.438.012a.466.466,0,0,1,.25.295.854.854,0,0,0,.24.359.818.818,0,0,0,.324.217.879.879,0,0,0,.5-.037,8.246,8.246,0,0,1,.16,1.565,1.02,1.02,0,0,1-.365.061.4.4,0,0,1-.259-.274,1.1,1.1,0,0,0-.191-.356.888.888,0,0,0-.222-.242,2.46,2.46,0,0,0-.725-.167l-.09.032a.752.752,0,0,0-.043.569.955.955,0,0,0,.229.414.853.853,0,0,0,.363.2.816.816,0,0,0,.424.035.435.435,0,0,1,.376.083c.095.085.139.287.226.4a.341.341,0,0,0,.246.126,16.354,16.354,0,0,1-.729,3.453c-.424-.417-.833-.849-1.222-1.3a1.27,1.27,0,0,0,.14-.067,1.007,1.007,0,0,0,.291-.35,1,1,0,0,0,.15-.46.61.61,0,0,1,.165-.406c.1-.1.3-.124.428-.217a.548.548,0,0,0,.179-.395.917.917,0,0,0-.12-.528l-.088-.04a1.044,1.044,0,0,0-.452.208.478.478,0,0,0-.2.317,1.733,1.733,0,0,1,0,.464.4.4,0,0,1-.312.236,1.192,1.192,0,0,0-.379.134,1,1,0,0,0-.291.186,1.256,1.256,0,0,0-.12.171c-.136-.175-.278-.344-.408-.524-.062-.085-.117-.176-.177-.263.009-.007.019-.011.027-.018.077-.082.124-.208.2-.28a.637.637,0,0,1,.277-.147,1.082,1.082,0,0,0,.538-.357,1.02,1.02,0,0,0,.2-.66l-.039-.029a1.433,1.433,0,0,0-.534.327,1.973,1.973,0,0,0-.325.5.457.457,0,0,1-.2.227,1.284,1.284,0,0,1-.306.049.741.741,0,0,0-.07.032q-.417-.626-.785-1.287a.722.722,0,0,0,.152-.147.579.579,0,0,0,.124-.333c.016-.132.045-.23.131-.26s.248.021.354,0,.139-.113.162-.214a.764.764,0,0,0-.07-.426l-.071-.067a.8.8,0,0,0-.4-.047c-.088.025-.168.051-.178.153s.038.276,0,.354-.132.093-.244.065a.76.76,0,0,0-.276-.043c-.071,0-.135-.01-.165.02h0a16.977,16.977,0,0,1-.685-1.645h0c.088-.006.164-.009.2-.1s.051-.278.127-.339.177-.038.278.036a.816.816,0,0,0,.27.159.45.45,0,0,0,.24.052A1.138,1.138,0,0,0,10.044,13l.016-.1a.782.782,0,0,0-.572-.544.6.6,0,0,0-.331.076.648.648,0,0,0-.294.249c-.085.117-.165.2-.272.2s-.263-.1-.4-.1a.227.227,0,0,0-.106.028c-.083-.28-.161-.562-.23-.847a.22.22,0,0,0,.157-.091c.032-.058.045-.161.092-.205a.2.2,0,0,1,.188-.038.6.6,0,0,0,.384-.033.654.654,0,0,0,.267-.366l-.016-.047a.543.543,0,0,0-.439-.087.6.6,0,0,0-.308.284c-.041.069-.084.128-.149.142s-.158-.017-.233,0a.2.2,0,0,0-.038.02q-.136-.634-.224-1.281a.336.336,0,0,0,.2-.035c.075-.054.124-.159.186-.207a.414.414,0,0,1,.23-.072A.621.621,0,0,0,8.6,9.7a.646.646,0,0,0,.08-.539l-.042-.026a.948.948,0,0,0-.422.212,1.155,1.155,0,0,0-.2.367.229.229,0,0,1-.149.153c-.069.017-.158-.037-.223-.051a.289.289,0,0,0-.152.035Q7.393,9,7.382,8.152A.329.329,0,0,0,7.7,8.1c.068-.069.093-.183.144-.243a.387.387,0,0,1,.209-.115.677.677,0,0,0,.394-.288.7.7,0,0,0,.05-.528L8.456,6.9a.8.8,0,0,0-.42.238.978.978,0,0,0-.166.407.244.244,0,0,1-.118.182c-.064.032-.161,0-.223,0a.244.244,0,0,0-.149.067,18.458,18.458,0,0,1,.2-2.568.408.408,0,0,0,.215.169.414.414,0,0,0,.4-.143c.053-.056.1-.1.159-.107s.145.042.215.041c.129-.024.216-.145.206-.354l-.029-.041c-.187-.069-.286-.061-.356.021-.029.05-.044.147-.089.18a.135.135,0,0,1-.16-.009.654.654,0,0,0-.265-.119.905.905,0,0,0-.248.084q.11-.657.273-1.3a.137.137,0,0,0,.128.113c.054-.01.118-.074.16-.078s.074.031.111.08a.269.269,0,0,0,.267.132.321.321,0,0,0,.194-.3l-.016-.047A.6.6,0,0,0,8.5,3.352c-.054.01-.1.036-.175.129-.036.039-.078.062-.106.035s-.036-.113-.05-.152c-.037-.055-.089-.035-.212.037.093-.34.194-.678.313-1.01-.05.116-.095.235-.141.353v0C8.069,2.547,8,2.47,7.9,2.467c-.054.009-.132.058-.184.044s-.079-.069-.086-.133a2.338,2.338,0,0,0-.013-.237,1.338,1.338,0,0,1-.187-.258L7.39,1.862a.353.353,0,0,0-.264.406.39.39,0,0,0,.338.321.254.254,0,0,1,.177.063c.041.044.059.145.1.2.092.084.226.08.366-.05-.169.431-.318.872-.447,1.319a.333.333,0,0,0-.232-.238c-.069,0-.163.033-.226.011a.231.231,0,0,1-.133-.155.863.863,0,0,0-.2-.334c-.089-.078-.177-.054-.33-.165l-.047-.005a.33.33,0,0,0-.086.3.556.556,0,0,0,.1.25.551.551,0,0,0,.415.183.27.27,0,0,1,.2.066c.05.05.07.155.115.217A.319.319,0,0,0,7.61,4.3q-.2.727-.334,1.473A.356.356,0,0,0,7,5.921c-.02.055-.03.155-.082.188a.108.108,0,0,1-.15-.047,1.317,1.317,0,0,0-.158-.275.93.93,0,0,0-.388-.2l-.043.022a.576.576,0,0,0,.04.522.488.488,0,0,0,.494.2,1.692,1.692,0,0,1,.249-.066c.065-.007.152.008.231,0-.039.256-.073.513-.1.771a.743.743,0,0,0-.455-.154,1.982,1.982,0,0,1-.331.063.531.531,0,0,1-.294-.128A2.086,2.086,0,0,0,5.471,6.5c-.191-.066-.362-.065-.591-.135l-.041.025a.566.566,0,0,0,.154.383A.981.981,0,0,0,5.282,7a1.181,1.181,0,0,0,.67.084.629.629,0,0,1,.326.02c.1.039.192.139.294.19a.688.688,0,0,0,.5,0c-.019.193-.037.386-.05.579-.022.333-.03.668-.033,1a.713.713,0,0,0-.378.046c-.08.046-.165.136-.26.153A.355.355,0,0,1,6.076,9,3,3,0,0,0,5.611,8.7a1.768,1.768,0,0,0-.585-.119L5,8.624a.823.823,0,0,0,1.042.644.76.76,0,0,1,.313-.033c.1.014.212.086.324.1a.536.536,0,0,0,.31-.095q.009.771.085,1.54a.488.488,0,0,1-.161.022.272.272,0,0,1-.169-.126.621.621,0,0,0-.346-.254.571.571,0,0,0-.443.128l-.011.049a.673.673,0,0,0,.314.34.644.644,0,0,0,.4,0,.218.218,0,0,1,.2.018c.054.039.083.141.126.2a.258.258,0,0,0,.143.068q.083.677.219,1.347a1.046,1.046,0,0,0-.356,0,1.617,1.617,0,0,1-.358.107.578.578,0,0,1-.34-.115c-.206-.152-.4-.255-.585-.369a5.68,5.68,0,0,0-.666-.27L5,11.947a1.046,1.046,0,0,0,.453.707,1.191,1.191,0,0,0,.778.169,1.039,1.039,0,0,1,.38.009c.122.029.243.117.371.149a.805.805,0,0,0,.434-.053c.047.206.1.412.15.617q.09.346.2.689a.325.325,0,0,1-.138.058c-.1.009-.17-.067-.238-.182a.651.651,0,0,0-.231-.26.511.511,0,0,0-.269-.116.775.775,0,0,0-.61.411l-.007.1a.971.971,0,0,0,.449.551.446.446,0,0,0,.256-.012.671.671,0,0,0,.29-.138c.1-.07.2-.1.279-.041s.117.235.18.324.154.076.25.057l.035-.013c.186.524.4,1.037.629,1.541-.049.085-.106.213-.179.241s-.169-.024-.23-.13a1,1,0,0,0-.164-.247c-.053-.059-.1-.121-.161-.139a1.3,1.3,0,0,0-.649.115l-.063.076a.761.761,0,0,0,.25.769.369.369,0,0,0,.12.051.9.9,0,0,0-.244.284,1.034,1.034,0,0,0-.071.568.5.5,0,0,1-.023.28c-.037.084-.132.155-.179.242a.533.533,0,0,0-.035.143c-.135-.091-.273-.177-.4-.273-.3-.215-.592-.443-.878-.68a.347.347,0,0,0,.066-.095c.031-.091.006-.2.028-.282a.421.421,0,0,1,.141-.2A.707.707,0,0,0,6.2,16.8a.672.672,0,0,0-.18-.494l-.047,0a.866.866,0,0,0-.274.405,1.018,1.018,0,0,0,.02.435.248.248,0,0,1-.032.217c-.045.057-.145.072-.2.1a.262.262,0,0,0-.073.073A14.041,14.041,0,0,1,3.748,15.82a.809.809,0,0,0,.189-.432,1.875,1.875,0,0,1-.012-.341.507.507,0,0,1,.17-.267,2.71,2.71,0,0,0,.4-.441,5.322,5.322,0,0,0,.285-.556l-.02-.045A.725.725,0,0,0,4.106,14a1.144,1.144,0,0,0-.246.66.753.753,0,0,1-.079.327c-.052.1-.16.173-.221.271a.751.751,0,0,0-.069.247A13,13,0,0,1,2.6,14.167a.662.662,0,0,0,.4-.212.835.835,0,0,0,.175-.527.488.488,0,0,1,.057-.263c.043-.075.147-.129.2-.209a.5.5,0,0,0-.067-.554L3.323,12.4a.577.577,0,0,0-.265.437A1.069,1.069,0,0,1,3.1,13.1a.31.31,0,0,1-.146.2,1.237,1.237,0,0,0-.344.324,1.169,1.169,0,0,0-.119.333,9.437,9.437,0,0,1-.616-1.375.192.192,0,0,0,.076-.013.24.24,0,0,0,.153-.125c.043-.1.012-.2.031-.272a.3.3,0,0,1,.136-.166.624.624,0,0,0,.258-.346.639.639,0,0,0-.1-.466l-.045-.015a.649.649,0,0,0-.335.306.732.732,0,0,0-.016.41.224.224,0,0,1-.032.2.221.221,0,0,1-.137.055c.03.008.059.026.055.043-.012.037-.085,0-.182-.038-.039-.132-.077-.264-.109-.4.02.136.048.271.076.4l-.015,0a.257.257,0,0,0-.017.319.221.221,0,0,0,.127.086c.066.254.14.505.227.752a.681.681,0,0,0-.5.021M16.6,20.532a.518.518,0,0,0,.034.1.513.513,0,0,1,.061.241.772.772,0,0,1-.034.151q-.306.126-.618.238.288-.359.557-.732M7.371,18.425a.386.386,0,0,1,.122-.237,1.229,1.229,0,0,0,.29-.441,1.11,1.11,0,0,0,.027-.466.574.574,0,0,0,.338-.11c.119-.076.215-.125.314-.091s.217.179.342.221a.236.236,0,0,0,.2-.028c.263.512.546,1.012.852,1.5a21.672,21.672,0,0,0,1.632,2.247c-.428-.156-.853-.32-1.274-.5-.2-.087-.4-.181-.6-.274a3.18,3.18,0,0,0,.04-.345,1.2,1.2,0,0,1,.124-.306.884.884,0,0,0,.039-.693.786.786,0,0,0-.48-.461l-.039.029a2.1,2.1,0,0,0,.038.606c.054.163.1.3.183.49a.324.324,0,0,1-.009.277c-.046.084-.155.125-.224.175-.018.017-.032.036-.048.054A19.084,19.084,0,0,1,7.355,19a.544.544,0,0,0,.077-.295,1.4,1.4,0,0,1-.061-.283" transform="translate(0)" fill="#ce3d08"/>
          <path id="パス_5221" data-name="パス 5221" d="M37.618,240.815l.047-.007a.078.078,0,0,0-.048,0c-.03.006-.018.009,0,.009" transform="translate(-35.806 -228.66)" fill="#ce3d08"/>
        </g>
      </g>
    </g>
  </g>
</svg>
