<svg xmlns="http://www.w3.org/2000/svg" width="33" height="33" viewBox="0 0 33 33">
  <g id="グループ_905" data-name="グループ 905" transform="translate(-495 -1600)">
    <circle id="楕円形_15" data-name="楕円形 15" cx="16.5" cy="16.5" r="16.5" transform="translate(495 1600)" fill="#fff"/>
    <g id="グループ_889" data-name="グループ 889" transform="translate(498.976 1605.312)">
      <path id="パス_5217" data-name="パス 5217" d="M183.664,157.91a2.76,2.76,0,0,0-1.228,3.4,2.485,2.485,0,0,0,1.116,1.351,2,2,0,0,0,1.843.059c.775-.366,3.17-.173,6.064,1.411s4.532,3.6,4.772,4.521a2.236,2.236,0,0,0,2.817,1.752,2.683,2.683,0,0,0,1.521-3.237,10.808,10.808,0,0,0-3.156-4.831c-.505.951-.936,1.531-1.109,1.436-.191-.1-.042-.956.341-2.125a19.377,19.377,0,0,0-2.8-1.963c-.545,1.064-1.013,1.715-1.2,1.611s-.045-.932.333-2.088a18.047,18.047,0,0,0-3.093-1.265c-.55,1.078-1.033,1.746-1.224,1.642-.173-.095-.052-.844.274-1.893a8.21,8.21,0,0,0-5.263.221" transform="translate(-175.615 -149.133)" fill="#ce3d08"/>
      <path id="パス_5218" data-name="パス 5218" d="M1.639,13.163A2,2,0,0,0,3.254,13a2.537,2.537,0,0,0,1.186-1.62c.232-.924,1.852-2.957,4.732-4.573s5.272-1.836,6.049-1.478a2.179,2.179,0,0,0,2.946-1.442A2.745,2.745,0,0,0,16.9.506,8.227,8.227,0,0,0,11.648.34c.335,1.045.462,1.793.29,1.89-.19.107-.678-.557-1.237-1.628A18.068,18.068,0,0,0,7.62,1.9c.387,1.151.54,1.977.35,2.084s-.664-.54-1.217-1.6A19.43,19.43,0,0,0,3.968,4.38c.393,1.165.549,2.015.359,2.121-.172.1-.608-.478-1.121-1.423A10.806,10.806,0,0,0,.086,9.947a2.683,2.683,0,0,0,1.553,3.217" transform="translate(-1 -0.999)" fill="#ce3d08"/>
    </g>
  </g>
</svg>
