<svg xmlns="http://www.w3.org/2000/svg" xmlns:xlink="http://www.w3.org/1999/xlink" width="33" height="33" viewBox="0 0 33 33">
  <defs>
    <clipPath id="clip-path">
      <rect id="長方形_1458" data-name="長方形 1458" width="17.561" height="23.01" fill="#ce3d08"/>
    </clipPath>
  </defs>
  <g id="グループ_930" data-name="グループ 930" transform="translate(-678 15167)">
    <g id="グループ_907" data-name="グループ 907" transform="translate(490 -16967)">
      <circle id="楕円形_11" data-name="楕円形 11" cx="16.5" cy="16.5" r="16.5" transform="translate(188 1800)" fill="#fff"/>
      <g id="グループ_894" data-name="グループ 894" transform="translate(196.26 1804.995)" clip-path="url(#clip-path)">
        <path id="パス_5222" data-name="パス 5222" d="M13.325,0a.488.488,0,0,0-.4.2l-2.383,3.51H.55a.612.612,0,0,0-.4.141A.414.414,0,0,0,0,4.183l1.1,18.4a.516.516,0,0,0,.55.431h9.078a.516.516,0,0,0,.55-.431l1.1-18.4a.414.414,0,0,0-.151-.336.612.612,0,0,0-.4-.141H11.6l2-2.94h3.964V0ZM10.2,22.1H2.174L1.128,4.614H9.92L7.39,8.34H3.847v3.253h-.79V8.34H2.105L2.84,20.634a.228.228,0,0,0,.243.191H9.3a.228.228,0,0,0,.243-.191L10.273,8.34H8.455l2.53-3.726h.266ZM7.816,16.577a.313.313,0,1,1,.372-.307.344.344,0,0,1-.372.307M8.1,18.365a.379.379,0,1,1-.372-.307.344.344,0,0,1,.372.307m-.925-3.89a.379.379,0,1,1,.372.307.344.344,0,0,1-.372-.307m.916-1.08a.5.5,0,1,1,0-.982.5.5,0,1,1,0,.982m-.635-2.212a.629.629,0,0,1-.68-.561.629.629,0,0,1,.68-.561.629.629,0,0,1,.68.561.629.629,0,0,1-.68.561M4.192,15.759a.375.375,0,1,1,0,.736.375.375,0,1,1,0-.736m-.265-2.107a.412.412,0,0,1,.446-.368.375.375,0,1,1,0,.736.412.412,0,0,1-.446-.368m1.08,4.556a.313.313,0,1,1,0,.614.313.313,0,1,1,0-.614m.272-2.91a.375.375,0,1,1,0-.737.375.375,0,1,1,0,.737m-.323-3.142a.55.55,0,0,1,.595-.491.5.5,0,1,1,0,.982.55.55,0,0,1-.595-.491M6,16.651a.375.375,0,1,1,0,.736.375.375,0,1,1,0-.736" transform="translate(0)" fill="#ce3d08"/>
      </g>
    </g>
  </g>
</svg>
