<svg xmlns="http://www.w3.org/2000/svg" xmlns:xlink="http://www.w3.org/1999/xlink" width="33" height="33" viewBox="0 0 33 33">
  <defs>
    <clipPath id="clip-path">
      <rect id="長方形_1462" data-name="長方形 1462" width="25.607" height="19.039" fill="#ce3d08"/>
    </clipPath>
  </defs>
  <g id="グループ_928" data-name="グループ 928" transform="translate(-272 15167)">
    <g id="グループ_903" data-name="グループ 903" transform="translate(-505 -16767)">
      <circle id="楕円形_16" data-name="楕円形 16" cx="16.5" cy="16.5" r="16.5" transform="translate(777 1600)" fill="#fff"/>
      <g id="グループ_919" data-name="グループ 919" transform="translate(780.697 1607.98)">
        <g id="グループ_918" data-name="グループ 918" clip-path="url(#clip-path)">
          <path id="パス_5239" data-name="パス 5239" d="M25.13,4.029a6.216,6.216,0,0,0-.053-.843,6.117,6.117,0,0,0-.187-.858l0-.017-.016-.052a2.98,2.98,0,0,0-.8-1.331,3.579,3.579,0,0,0-2.06-.875,10.2,10.2,0,0,0-2.64.086c-2.753.391-6.229,1.5-9.832,2.354-3.261.78-5.669,1.442-7.309,2.46A4.7,4.7,0,0,0,.395,6.88,4.681,4.681,0,0,0,.064,9.607l.47,3.334a6.522,6.522,0,0,0,3.29,4.891c1.9,1.082,4.529,1.487,7.921,1.01a20.735,20.735,0,0,0,9.577-4.212,13.2,13.2,0,0,0,3.28-3.7,6.944,6.944,0,0,0,.945-4.406,6.11,6.11,0,0,0-.187-.859ZM1.559,7.489a2.994,2.994,0,0,1,.884-1.057,9.549,9.549,0,0,1,2.8-1.371C6.484,4.636,8.018,4.237,9.837,3.8c3.654-.871,7.139-1.971,9.718-2.333a7.183,7.183,0,0,1,2.87.03,1.878,1.878,0,0,1,.776.418,1.619,1.619,0,0,1,.421.7l.211,1.5A5.907,5.907,0,0,1,23.011,6.9a13.9,13.9,0,0,1-5,4.735,19.193,19.193,0,0,1-6.924,2.534c-3.212.454-5.56.039-7.117-.853A5.133,5.133,0,0,1,1.348,9.425a3.3,3.3,0,0,1,.211-1.937m21.923,2.749a13.9,13.9,0,0,1-5,4.735,19.2,19.2,0,0,1-6.925,2.535c-3.212.454-5.56.039-7.117-.854a5.074,5.074,0,0,1-2.483-3.214,6.644,6.644,0,0,0,1.4,1.058c1.9,1.082,4.529,1.487,7.921,1.01a20.726,20.726,0,0,0,9.576-4.212,13.156,13.156,0,0,0,3.28-3.7c.061-.108.116-.219.173-.33a5.83,5.83,0,0,1-.823,2.976M17.1,8.224c-.963.065-3.143.907-4.245,1.062,0,0-1.779.64.959,1.487,1.879.582,5.39-2.692,3.286-2.549m1.665-.972c.132.548.068.1-.179,1.442-.129.7,4.045-2.1,3.168-3.053-.322-.351-3.121,1.063-2.988,1.611m2.243-3.3c-.112-1.489-8.975.623-11.359,1.695-.61.274.279,1.208,1.951,2.688.536.476,9.517-2.893,9.408-4.383m-8.52,7.5c-2.138-1.015-3.213-4.921-5.123-5.2C5.735,6.011.718,7.425,4.114,10.991s10.513,1.479,8.374.464" transform="translate(0 0)" fill="#ce3d08"/>
        </g>
      </g>
    </g>
  </g>
</svg>
