<svg xmlns="http://www.w3.org/2000/svg" xmlns:xlink="http://www.w3.org/1999/xlink" width="33" height="33" viewBox="0 0 33 33">
  <defs>
    <clipPath id="clip-path">
      <rect id="長方形_1460" data-name="長方形 1460" width="23.66" height="22.753" fill="#ce3d08"/>
    </clipPath>
  </defs>
  <g id="グループ_904" data-name="グループ 904" transform="translate(-782 -1800)">
    <circle id="楕円形_13" data-name="楕円形 13" cx="16.5" cy="16.5" r="16.5" transform="translate(782 1800)" fill="#fff"/>
    <g id="グループ_898" data-name="グループ 898" transform="translate(786.67 1806.179)">
      <g id="グループ_897" data-name="グループ 897" clip-path="url(#clip-path)">
        <path id="パス_5237" data-name="パス 5237" d="M23.648,3.153l-.2-.721a.31.31,0,0,0-.376-.218L11.314,5.242v-.6L22.835,1.33a.31.31,0,0,0,.213-.379l-.2-.722a.309.309,0,0,0-.394-.213L5.057,5.643a.31.31,0,0,0-.2.376l.041.149a.308.308,0,0,0,.147.188.312.312,0,0,0,.237.028L6.34,6.079v.444l-.956.246a.309.309,0,0,0-.221.382L5.2,7.3a.309.309,0,0,0,.366.22l.771-.172v4.568H.619A.619.619,0,0,0,0,12.536c0,2.583.39,4.943,2.129,6.646a9.4,9.4,0,0,0,3.349,2.095l.206.761a.619.619,0,0,0,.611.716h5.78a.62.62,0,0,0,.611-.716l.206-.76a9.414,9.414,0,0,0,3.35-2.1c1.738-1.7,2.13-4.063,2.129-6.646a.619.619,0,0,0-.619-.619H11.314V6.238l12.1-2.7a.308.308,0,0,0,.231-.383M7.75,11.917H7.083V7.183l.668-.149Zm0-5.756-.668.172V5.865l.668-.192Zm1.411,5.756H8.493V6.868l.668-.149Zm0-6.12-.668.172v-.51l.668-.192Zm1.41,6.12H9.9V6.553l.668-.149Zm0-6.483L9.9,5.606V5.053l.668-.192Z" transform="translate(0 0)" fill="#ce3d08"/>
      </g>
    </g>
  </g>
</svg>
