<svg xmlns="http://www.w3.org/2000/svg" xmlns:xlink="http://www.w3.org/1999/xlink" width="33" height="33" viewBox="0 0 33 33">
  <defs>
    <clipPath id="clip-path">
      <rect id="長方形_1459" data-name="長方形 1459" width="22.981" height="19.019" fill="#ce3d08"/>
    </clipPath>
  </defs>
  <g id="グループ_931" data-name="グループ 931" transform="translate(-825 15167)">
    <g id="グループ_908" data-name="グループ 908" transform="translate(321 -16967)">
      <circle id="楕円形_12" data-name="楕円形 12" cx="16.5" cy="16.5" r="16.5" transform="translate(504 1800)" fill="#fff"/>
      <g id="グループ_896" data-name="グループ 896" transform="translate(509 1807.253)">
        <g id="グループ_895" data-name="グループ 895" clip-path="url(#clip-path)">
          <path id="パス_5223" data-name="パス 5223" d="M264.308,30.428a1.161,1.161,0,0,0,.4-.871V28.09a1.221,1.221,0,0,0-1.248-1.191h-6.448a1.221,1.221,0,0,0-1.248,1.191v1.467a1.161,1.161,0,0,0,.4.871L254.4,41.994a2.35,2.35,0,0,0,.593,1.938,2.6,2.6,0,0,0,1.924.84h6.64a2.6,2.6,0,0,0,1.924-.84,2.35,2.35,0,0,0,.593-1.938Zm.17,12.675a1.241,1.241,0,0,1-.92.4h-6.64a1.241,1.241,0,0,1-.92-.4,1.124,1.124,0,0,1-.283-.927l1.71-11.193h5.628l1.71,11.193a1.124,1.124,0,0,1-.283.927" transform="translate(-243.121 -25.763)" fill="#ce3d08"/>
          <path id="パス_5224" data-name="パス 5224" d="M331.308,319.866a.476.476,0,1,0-.5-.475.487.487,0,0,0,.5.475" transform="translate(-316.175 -305.449)" fill="#ce3d08"/>
          <path id="パス_5225" data-name="パス 5225" d="M376.169,319.866a.476.476,0,1,0-.5-.475.487.487,0,0,0,.5.475" transform="translate(-359.052 -305.449)" fill="#ce3d08"/>
          <path id="パス_5226" data-name="パス 5226" d="M421.031,319.866a.476.476,0,1,0-.5-.475.487.487,0,0,0,.5.475" transform="translate(-401.929 -305.449)" fill="#ce3d08"/>
          <path id="パス_5227" data-name="パス 5227" d="M331.308,380.582a.476.476,0,1,0,.5.475.487.487,0,0,0-.5-.475" transform="translate(-316.175 -364.512)" fill="#ce3d08"/>
          <path id="パス_5228" data-name="パス 5228" d="M376.169,380.582a.476.476,0,1,0,.5.475.487.487,0,0,0-.5-.475" transform="translate(-359.052 -364.512)" fill="#ce3d08"/>
          <path id="パス_5229" data-name="パス 5229" d="M421.031,380.582a.476.476,0,1,0,.5.475.487.487,0,0,0-.5-.475" transform="translate(-401.929 -364.512)" fill="#ce3d08"/>
          <path id="パス_5230" data-name="パス 5230" d="M308.877,349.749a.476.476,0,1,0,.5.475.487.487,0,0,0-.5-.475" transform="translate(-294.737 -334.981)" fill="#ce3d08"/>
          <path id="パス_5231" data-name="パス 5231" d="M353.739,349.749a.476.476,0,1,0,.5.475.487.487,0,0,0-.5-.475" transform="translate(-337.614 -334.981)" fill="#ce3d08"/>
          <path id="パス_5232" data-name="パス 5232" d="M398.6,349.749a.476.476,0,1,0,.5.475.487.487,0,0,0-.5-.475" transform="translate(-380.49 -334.981)" fill="#ce3d08"/>
          <path id="パス_5233" data-name="パス 5233" d="M443.462,349.749a.476.476,0,1,0,.5.475.487.487,0,0,0-.5-.475" transform="translate(-423.368 -334.981)" fill="#ce3d08"/>
          <path id="パス_5234" data-name="パス 5234" d="M29.612,0a.533.533,0,0,0-.544.587l.434,3.53h6.207l.434-3.53A.533.533,0,0,0,35.6,0ZM32.6,2.534a.476.476,0,1,1,.5-.473.484.484,0,0,1-.5.473" transform="translate(-27.778)" fill="#ce3d08"/>
          <path id="パス_5235" data-name="パス 5235" d="M7.788,105.5H1.864a.653.653,0,0,0-.661.572L.01,117.819a1.991,1.991,0,0,0,.546,1.572,2.194,2.194,0,0,0,1.586.67H7.51a2.194,2.194,0,0,0,1.586-.67,1.991,1.991,0,0,0,.546-1.572L8.449,106.069a.653.653,0,0,0-.661-.572m.325,13.042a.823.823,0,0,1-.6.255H2.142a.823.823,0,0,1-.6-.255.747.747,0,0,1-.208-.6l1.135-11.177h4.72l1.135,11.177a.747.747,0,0,1-.208.6" transform="translate(0 -101.042)" fill="#ce3d08"/>
          <path id="パス_5236" data-name="パス 5236" d="M44.211,195.5l-.885,8.7a.2.2,0,0,0,.058.165.236.236,0,0,0,.168.072h5.366a.236.236,0,0,0,.168-.072.22.22,0,0,0,.058-.165l-.885-8.7Z" transform="translate(-41.408 -187.245)" fill="#ce3d08"/>
        </g>
      </g>
    </g>
  </g>
</svg>
