<svg xmlns="http://www.w3.org/2000/svg" xmlns:xlink="http://www.w3.org/1999/xlink" width="33" height="33" viewBox="0 0 33 33">
  <defs>
    <clipPath id="clip-path">
      <rect id="長方形_1463" data-name="長方形 1463" width="24" height="24.502" fill="#ce3d08"/>
    </clipPath>
  </defs>
  <g id="グループ_927" data-name="グループ 927" transform="translate(-10 15167)">
    <g id="グループ_909" data-name="グループ 909" transform="translate(-172 -16767)">
      <circle id="楕円形_7" data-name="楕円形 7" cx="16.5" cy="16.5" r="16.5" transform="translate(182 1600)" fill="#fff"/>
      <g id="グループ_921" data-name="グループ 921" transform="translate(186.5 1604.249)">
        <g id="グループ_920" data-name="グループ 920" clip-path="url(#clip-path)">
          <path id="パス_5240" data-name="パス 5240" d="M26.841,335.778l-1.69,3.714a1.545,1.545,0,0,1-.649.7h0a2.246,2.246,0,0,1-.887.272,3.139,3.139,0,0,1-.355.016,4.035,4.035,0,0,1-1.61-.378,4.094,4.094,0,0,1-1.189-.808,3.19,3.19,0,0,1-.34-.4,3.007,3.007,0,0,1-.317.02c-.068,0-.136,0-.206-.008a4.26,4.26,0,0,1-2.578-1.174h0a3.212,3.212,0,0,1-.339-.4,3.057,3.057,0,0,1-.316.02c-.068,0-.137,0-.207-.008a4.253,4.253,0,0,1-2.578-1.173h0a3.174,3.174,0,0,1-.34-.4,3.032,3.032,0,0,1-.317.02c-.068,0-.136,0-.206-.008a4.254,4.254,0,0,1-2.578-1.174,3.2,3.2,0,0,1-.34-.4,3.07,3.07,0,0,1-.317.02c-.068,0-.136,0-.206-.008a4.253,4.253,0,0,1-2.58-1.177l.056.18c.046.15.082.264.1.348a2.041,2.041,0,0,0,.558.981h0a3.8,3.8,0,0,0,2.346,1.1c.06,0,.119.007.177.007a2.529,2.529,0,0,0,.391-.025l.149-.022.082.127a2.637,2.637,0,0,0,.36.44A3.787,3.787,0,0,0,13.2,337.2c.06,0,.12.007.178.007a2.544,2.544,0,0,0,.39-.025l.149-.022.082.126a2.63,2.63,0,0,0,.36.44,3.781,3.781,0,0,0,2.282,1.039c.06,0,.121.007.18.008a2.516,2.516,0,0,0,.387-.025l.15-.022.082.127a2.623,2.623,0,0,0,.359.44,3.786,3.786,0,0,0,2.282,1.039c.06,0,.12.007.178.007a2.555,2.555,0,0,0,.391-.025l.149-.022.082.126a2.663,2.663,0,0,0,.36.441,3.627,3.627,0,0,0,1.052.714,3.584,3.584,0,0,0,1.422.336,2.621,2.621,0,0,0,.3-.014,1.789,1.789,0,0,0,.7-.213h0a1.074,1.074,0,0,0,.454-.482h0l1.777-3.905a1,1,0,0,0,.09-.411,1.2,1.2,0,0,0-.024-.247c-.034-.172-.093-.507-.171-.856" transform="translate(-6.382 -317.404)" fill="#ce3d08"/>
          <path id="パス_5241" data-name="パス 5241" d="M6.957,192.9c-.06,0-.12-.007-.178-.007a2.5,2.5,0,0,0-.39.025l-.149.022-.082-.127a2.64,2.64,0,0,0-.36-.44,3.631,3.631,0,0,0-1.052-.713,3.567,3.567,0,0,0-1.421-.336,2.611,2.611,0,0,0-.3.014h0a1.788,1.788,0,0,0-.7.213h0a1.075,1.075,0,0,0-.453.482l0,.006-1.774,3.9v0a1.013,1.013,0,0,0-.089.411,1.211,1.211,0,0,0,.024.247,2.036,2.036,0,0,0,.559.983,3.636,3.636,0,0,0,1.116.773,3.635,3.635,0,0,0,1.229.325c.06,0,.119.007.177.007a2.547,2.547,0,0,0,.392-.025l.149-.022.082.127a2.646,2.646,0,0,0,.36.44,3.786,3.786,0,0,0,2.281,1.039c.06,0,.119.006.177.007a2.573,2.573,0,0,0,.392-.025l.149-.021.082.126a2.679,2.679,0,0,0,.36.441A3.787,3.787,0,0,0,9.81,201.8q.09.007.177.007a2.473,2.473,0,0,0,.391-.025l.149-.022.082.127a2.636,2.636,0,0,0,.359.44,3.795,3.795,0,0,0,2.282,1.039q.089.006.177.007a2.567,2.567,0,0,0,.392-.025l.149-.022.082.127a2.666,2.666,0,0,0,.36.44,3.637,3.637,0,0,0,1.052.714,3.578,3.578,0,0,0,1.421.336,2.667,2.667,0,0,0,.3-.014,1.782,1.782,0,0,0,.7-.213h0a1.079,1.079,0,0,0,.452-.482l1.778-3.9a1.015,1.015,0,0,0,.089-.412,1.168,1.168,0,0,0-.024-.247,2.037,2.037,0,0,0-.559-.982,3.8,3.8,0,0,0-2.345-1.1q-.089-.006-.177-.007a2.541,2.541,0,0,0-.392.025l-.149.022-.082-.127a2.662,2.662,0,0,0-.36-.44,3.788,3.788,0,0,0-2.282-1.04q-.089-.006-.176-.007a2.478,2.478,0,0,0-.392.025l-.149.022-.082-.127a2.677,2.677,0,0,0-.36-.441,3.79,3.79,0,0,0-2.281-1.038q-.09-.007-.178-.008a2.534,2.534,0,0,0-.391.025l-.15.022-.082-.127a2.678,2.678,0,0,0-.359-.44A3.789,3.789,0,0,0,6.957,192.9" transform="translate(0 -182.346)" fill="#ce3d08"/>
          <path id="パス_5242" data-name="パス 5242" d="M116.937,8.567a5.457,5.457,0,0,0-.17-.577l-.016-.039c0-.033,0-.066-.009-.1h0a2.447,2.447,0,0,0-.663-1.192h0a4,4,0,0,0-2.489-1.167h0c-.065,0-.129-.007-.193-.008s-.1.008-.154.01A3.123,3.123,0,0,0,113,5.225a3.838,3.838,0,0,0-1.116-.76h0a3.863,3.863,0,0,0-1.305-.343h0q-.1-.007-.2-.008c-.051,0-.1.008-.152.01a3.109,3.109,0,0,0-.238-.267l0,0a3.982,3.982,0,0,0-2.422-1.1h0c-.065,0-.13-.008-.2-.008s-.1.008-.152.01a3.171,3.171,0,0,0-.238-.268h0a3.856,3.856,0,0,0-1.116-.759h0a3.867,3.867,0,0,0-1.3-.343c-.067,0-.132-.008-.2-.008s-.1.008-.152.01a3.191,3.191,0,0,0-.239-.269h0a3.835,3.835,0,0,0-1.116-.759h0A3.792,3.792,0,0,0,101.339,0,3.015,3.015,0,0,0,101,.015h0a2.233,2.233,0,0,0-.877.271,1.612,1.612,0,0,0-.677.729L97.89,4.427v0a1.557,1.557,0,0,0-.139.633,1.669,1.669,0,0,0,.021.222,1,1,0,0,0-.011.128,2.1,2.1,0,0,0,.068.478c.057.244.139.512.21.741.036.114.068.218.093.3s.041.143.042.147h0a2.452,2.452,0,0,0,.663,1.193h0a4,4,0,0,0,2.489,1.167h0q.1.007.2.008c.051,0,.1-.008.152-.01a3.112,3.112,0,0,0,.239.269,3.839,3.839,0,0,0,1.116.76h0l0,0a3.853,3.853,0,0,0,1.305.343h0q.1.007.2.008c.051,0,.1-.008.151-.01a3.032,3.032,0,0,0,.239.269h0a3.853,3.853,0,0,0,1.116.759h0a3.85,3.85,0,0,0,1.306.343c.066,0,.133.008.2.008.05,0,.1-.008.149-.01a3.139,3.139,0,0,0,.239.269h0a3.848,3.848,0,0,0,1.116.76h0a3.864,3.864,0,0,0,1.3.343h0q.1.007.2.008c.051,0,.1-.008.152-.01a3.1,3.1,0,0,0,.238.269l0,0v0a3.849,3.849,0,0,0,1.116.76h0a3.806,3.806,0,0,0,1.515.354,2.986,2.986,0,0,0,.339-.015h0a2.237,2.237,0,0,0,.876-.271,1.61,1.61,0,0,0,.678-.73l1.554-3.414v0a1.551,1.551,0,0,0,.14-.635,1.7,1.7,0,0,0-.034-.356h0c-.033-.162-.1-.556-.195-.947m-.709,1.293a.618.618,0,0,1-.054.252l-1.555,3.417h0a.671.671,0,0,1-.287.3h0a1.292,1.292,0,0,1-.51.152,2.009,2.009,0,0,1-.232.011,2.866,2.866,0,0,1-1.138-.271,2.912,2.912,0,0,1-.844-.571,2.117,2.117,0,0,1-.28-.341l-.09-.14a4.076,4.076,0,0,0,.436.245h0a3.8,3.8,0,0,0,1.514.354,3.011,3.011,0,0,0,.341-.016,2.225,2.225,0,0,0,.879-.272,1.615,1.615,0,0,0,.676-.728l1.135-2.495a.776.776,0,0,1,.01.1M110.865,12.6a1.93,1.93,0,0,1-.3.019q-.069,0-.139-.005h0a3.047,3.047,0,0,1-1.83-.833,2.054,2.054,0,0,1-.278-.34l-.09-.14a4.156,4.156,0,0,0,.434.244,3.857,3.857,0,0,0,1.306.343q.1.008.2.008c.051,0,.1-.008.152-.01a3.111,3.111,0,0,0,.239.269,3.643,3.643,0,0,0,.507.417Zm-3.011-1.37a1.887,1.887,0,0,1-.3.02c-.046,0-.093,0-.141-.006a3.047,3.047,0,0,1-1.83-.833,2.052,2.052,0,0,1-.279-.341l-.08-.124a4.089,4.089,0,0,0,.426.229,3.854,3.854,0,0,0,1.306.343q.1.007.2.008c.051,0,.1-.008.152-.01a3.11,3.11,0,0,0,.238.268l0,0a3.606,3.606,0,0,0,.506.415Zm-3.009-1.37a1.944,1.944,0,0,1-.3.019q-.069,0-.141-.006h0a2.913,2.913,0,0,1-.986-.261h0a2.911,2.911,0,0,1-.844-.572A2.037,2.037,0,0,1,102.3,8.7l-.09-.14a4.076,4.076,0,0,0,.435.244h0a3.868,3.868,0,0,0,1.3.343h0c.066,0,.131.007.2.008s.1-.008.152-.01a3.142,3.142,0,0,0,.239.269h0a3.62,3.62,0,0,0,.507.417Zm-3.01-1.37a1.939,1.939,0,0,1-.3.019c-.046,0-.092,0-.139-.005h0a2.921,2.921,0,0,1-.986-.261l0,0,.005,0a2.929,2.929,0,0,1-.9-.62,1.864,1.864,0,0,1-.3-.412,4.131,4.131,0,0,0,.419.223,3.848,3.848,0,0,0,1.305.343h0c.065,0,.13.007.194.008s.1-.008.153-.01a3.148,3.148,0,0,0,.239.269h0a3.646,3.646,0,0,0,.507.417ZM100.3,1.4a.676.676,0,0,1,.287-.3h0a1.3,1.3,0,0,1,.51-.152,2,2,0,0,1,.234-.011,2.863,2.863,0,0,1,1.137.27l0,0,0,0a2.923,2.923,0,0,1,.843.57h0a2.06,2.06,0,0,1,.28.341l.163.254.3-.043a1.967,1.967,0,0,1,.3-.019c.046,0,.092,0,.139.006a3.054,3.054,0,0,1,1.829.833,2.08,2.08,0,0,1,.279.341l.163.253.3-.043a1.969,1.969,0,0,1,.3-.019c.046,0,.092,0,.139.006h0a3.051,3.051,0,0,1,1.829.832h0a2.07,2.07,0,0,1,.28.342l.163.254.3-.044a1.922,1.922,0,0,1,.3-.019q.068,0,.139.005h0a3.05,3.05,0,0,1,1.83.833,2.043,2.043,0,0,1,.279.34l.163.254.3-.043a1.954,1.954,0,0,1,.3-.019c.045,0,.091,0,.138.006h0a3.06,3.06,0,0,1,1.881.881,1.523,1.523,0,0,1,.421.729h0a.78.78,0,0,1,.016.161.621.621,0,0,1-.054.253l-1.555,3.416h0a.681.681,0,0,1-.288.3h0a1.3,1.3,0,0,1-.511.152,2.085,2.085,0,0,1-.233.01,2.874,2.874,0,0,1-1.136-.27h0a2.908,2.908,0,0,1-.844-.572,2.067,2.067,0,0,1-.279-.341l-.163-.253-.3.043a1.977,1.977,0,0,1-.3.019q-.069,0-.139-.006a3.053,3.053,0,0,1-1.83-.833,2.081,2.081,0,0,1-.278-.34l-.164-.255-.3.044a1.934,1.934,0,0,1-.3.019c-.046,0-.092,0-.139-.006a3.05,3.05,0,0,1-1.83-.833,2.1,2.1,0,0,1-.279-.341l-.163-.253-.3.043a1.969,1.969,0,0,1-.3.019q-.069,0-.14-.005h0a3.046,3.046,0,0,1-1.83-.833,2.069,2.069,0,0,1-.279-.34l-.163-.253-.3.043a2.021,2.021,0,0,1-.3.019c-.045,0-.092,0-.138-.006h0a3.063,3.063,0,0,1-1.881-.881,1.519,1.519,0,0,1-.421-.729v0a.787.787,0,0,1-.016-.16.621.621,0,0,1,.054-.253L100.3,1.4Z" transform="translate(-93.166 0)" fill="#ce3d08"/>
        </g>
      </g>
    </g>
  </g>
</svg>
