<svg xmlns="http://www.w3.org/2000/svg" xmlns:xlink="http://www.w3.org/1999/xlink" width="515.375" height="647.072" viewBox="0 0 515.375 647.072">
  <defs>
    <clipPath id="clip-path">
      <rect id="長方形_166" data-name="長方形 166" width="515.375" height="647.072" fill="#fff"/>
    </clipPath>
  </defs>
  <g id="グループ_313" data-name="グループ 313" clip-path="url(#clip-path)">
    <path id="パス_817" data-name="パス 817" d="M200.44,342.258c5.668,1.213,9.35,2.778,11.051,4.167s3.633,3.166,6.258,2.785,4.641-1.626,6.184-1.847a5,5,0,0,1,3.317.3c.932.465,2.32.933,2.79,2.09s2.084.38,2.629-.235.921-.922.459-1.164a15.434,15.434,0,0,1-3.01-2.315,8.183,8.183,0,0,1-2.014-4.63c-.235-1.783.392-4.025,1.166-3.871a4.369,4.369,0,0,0,2.778-.926c.462-.47,2.087-.544,2.087-.544a10.566,10.566,0,0,1-.772-3.095c-.082-1.455.305-3.476,1.235-4.323s1.086,0,1.393.3c.31.319,1.315-.382,2.626-2.7s2.169-2.231,3.786-1.3,4.406,4.24,4.95,4.7,4.093-2.851,7.262-4.094,4.789-1.846,6.112-2.394c1.3-.54-.236-1.389,1.7-2.854s4.707,0,5.792-.079,1-3.1,1.23-4.4.853-4.8.39-6.887-4.939-5.478-6.089-7.419c-1.169-1.926,1.455-3.315,2.308-3.777s1.848,1.619,2.469,1.855a1.365,1.365,0,0,0,1.852-1.319c.147-1.393,1.161-3.48,2.4-3.48s6.57-.156,11.829-.387c5.241-.241,6.479-1.237,8.416-2.546s.617-4.873,1.466-6.185,2.939-.392,4.869-.155,7.662.232,8.2-1.234c.524-1.468-1.786-6.721-7.42-12.677-5.652-5.945-6.732-8.5-5.961-8.576s2.933,1.087,3.249-.542c.3-1.619.853-2.707,2.929-2.778,2.1-.084,1.636,1.389,2.636,3.55s2.627,1,4.718.159,5.64-2.474,8.811-2.712a7.328,7.328,0,0,1,6.56,2.323c1.863,1.781,3.561.154,4.873,1.466s7.5,7.11,9.044,8.43,2.557.61,2.557-.316.456-2,1.611-1.621a3.587,3.587,0,0,0,4.1-2.393c.687-2.094,3.4-7.341,5.491-7.188s8.727-.538,13.519-.936c4.792-.382,5.953-.845,6.328-3.473.393-2.625.467-6.956,1.234-7.956.783-1.009,8.276-1.356,8.4-2.519s-1.808-2.028-2.734-5.1-1.676-4.463-2.377-5.1c-.687-.64-.974-2.374-1.734-3.425a4.026,4.026,0,0,0-2.6-1.268c-.695-.232-.408-1.739-1.463-2.382-1.033-.64-3.006-4.461-3.888-6.177a13.429,13.429,0,0,1-1.312-4.564c-.084-1.463,1.393-.856,3.319-1s2.55.611,2.789,1.311c.224.695,1.3.387,4.082.314a8.358,8.358,0,0,1,6.038,2.007c1.085,1.08,2.466,1.852,3.389.695a7.723,7.723,0,0,0,1.94-4.95c.154-2.546-1.39-4.013-3.249-6.644a12.615,12.615,0,0,1-2.322-9.038c.55-2.943,2.172-2.244,3.8-4.79s2.708-1.313,5.093-.7,6.659,2.623,8.353,2.937,4.557-.314,5.872,0,.4,1.781,1.154,2.014c.779.231,2.716-.08,6.89-.232s5.247-.392,6.957-1.086,6.018-.077,9.892-.232,15.371-1.157,17.231-1.7,2.466-1.316,7.334-4.256,3.407-4.322,3.8-6.951,3.014-1.857,3.7-4.1-.386-5.486.394-6.791c.757-1.323,1.775.376,4.24.457s3.4-2.239,4.715-3.557,2.557-3.785,3.488-4.1,5.332-3.705,6.257-5.172-.312-6.956.456-8.891,3.017-2.087,4.179-2.782a4.733,4.733,0,0,0,2.014-4.174c-.092-1.852.621-2.014,2.7-3.7s1.161-3.792,1.087-4.95,3.01-.463,3.326-4.172c.3-3.714,3.623-5.412,3.546-7.111s.151-2.942,1.238-3.015.691-1.316,1.771-1.544,5.034-3.638,5.424-4.719.607-4.1,1.069-4.634,3.331-.93,4.488-2.085,2.083-3.015,3.164-4.1a2.442,2.442,0,0,0-.305-3.635c-1.085-.694-.776-2.161.536-3.4s.081-2.4-.695-3.249.232-2.7,1.239-4.013,1.308-4.645-.147-5.722c-1.474-1.084-2.778-3.557-1.4-5.49,1.4-1.937,1.47-3.171,1.323-6.8s-1.554-4.873-2.326-9.9-2.007-8.886-2.7-10.045-1.087-4.25-1.554-6.022-3.08-4.795-4.094-5.567-.694-2.32-1.628-3.866-2.858-2.087-4.563-3.628c-1.61-1.469-.331-3.417-.68-6.492s-3.87-5.127-4.888-5.233-2.734,1.929-3.645,2.73-2.051-1.48-3.869-3.759c-1.835-2.275-5.359-4.9-7.068-6.49a11.3,11.3,0,0,0-5.009-2.848c-1.705-.453-3.866-2.73-4.894-4.207s-.33-3.19,0-4.444S468.411.34,468.411.34c-.172-.333-3.461-.7-6.416.375-2.936,1.069-4.274,3.65-5.788,3.83s-1.7,1.163-1.7,2.315-2.411,4.46-2.759,5.976-1.161,4.46.893,6.24,5.522,3.833,4.894,7.489S452.194,41.542,442.3,56.253s-20.325,23.614-20.769,24.771.437,3.927-.265,4.906-3.378-1.073-5.078.353-6.24,8.65-12.656,13.46-13.637,6.419-14.806,6.066c-1.15-.362-2.223-2.769-3.821-2.769s-1.253,1.253-2.142,1.874-2.138.179-2.407,1.963,1.421,1.954,2.5,3.829.97,4.81.8,6.865,1.07,6.323-6.324,12.481-14.887,7.487-16.221,8.112-1.609,1.955-4.1,2.05-2.576,1.334-4.274,2.315c-1.679.978-1.782-.45-2.843,1.336-1.081,1.78-.9,2.938-1.614,3.924s-1.79.982-2.135,1.96c-.36.982.176,2.67-.629,3.564s-2.31,3.033-2.227,4.819,3.832,6.5,6.152,6.681,3.561-.178,4.73.1c1.157.258.61,2.847,1.856,3.377,1.261.541,2.951,1.161,3.66,2.237a8.348,8.348,0,0,1,1.337,3.3c0,.618.445,1.6-1.411.269-1.882-1.342-4.557-3.481-5.178-5.262s-1.341-.985-1.7-.718-1.417.534-3.469.63-4.56,1.87-5.883,2.223c-1.353.355-2.408-.353-3.132.805-.708,1.16-3.373,4.729-5.6,5.615s-1.875,4.373-2.675,4.277-2.675,1.074-3.216,1.518-3.112,1.518-7.121,2.138c-4.024.625-5.534,1.154-6.155,2.053s-2.672,0-4.462,1.512-2.49,2.143-4.189,2.323-11.851-.45-13.721.08-1.786,1.97-2.948,2.143a7.723,7.723,0,0,0-3.384,1.517c-1.069.8-1.87,2.223-3.289,2.675s-.889-1.426-2.411-2.494a8.288,8.288,0,0,0-4.377-1.516c-1.606-.181-3.112.979-4.458.891-1.329-.093-.436-4.9-1.329-6.063a11.958,11.958,0,0,0-5.439-3.385c-3.316-.694-4.87-2.808-5.429-2.943s-2.395-2.121-.426-2.258,3.939-.564,3.667-3.1.273-2.812,1.551-4.226c1.264-1.4.419-4.219,1.823-7.313s3.943-6.331,6.478-6.895a4.589,4.589,0,0,0,3.374-4.647c-.144-1.408-3.8-5.068-6.758-4.925s-3.653-1.544-4.781-2.113-1.969-2.822-2.816-2.822-1.973,1.7-3.377,1.134,0-2.957-1.549-3.516-4.507-1.412-5.492-2.679-4.22-1.686-5.767-2.671a13.808,13.808,0,0,0-4.369-1.83c-.565,0-2.253-1.97-4.082-1.831a7.768,7.768,0,0,0-4.215,1.544c-.85.7-2.253-.283-6.344-.14s-5.626.989-7.456.842-1.97,1.414-4.363,1.554-4.787.7-7.463.559-4.072,1.551-6.324,1.411-3.1-1.124-5.215-1.124-5.909-1.269-8.167-2.112-5.772-3.731-7.319-3.8c-1.708-.075-2.305,2.45-2.305,3.531s-.245,2.283-.961,2.643,0,5.405-.847,6.374-2.524,2.757-2.524,4.2,2.4,4.685,4.451,5.409,5.531,1.437,6.243,2.764c.728,1.323,3.124,6.725,4.211,9.734s2.642,5.053,2.281,6.609-2.765,2.288-4.324,2.647a7.194,7.194,0,0,0-4.215,3.242c-.592,1.32-.709,8.653-.235,9.855s2.281,3.121,2.52,5.292.121,5.282.967,6.008,2.642,1.2,3.237,2.765,0,5.526.485,6.364a52.046,52.046,0,0,0,5.767,6.129c1.447,1.207,1.568.722,3.969,2.162s4.45,3.606,5.769,3.73,2.767,0,2.767-1.2a3.7,3.7,0,0,1,2.642-3.371c1.806-.6,1.561-2.046,4.442-1.918s1.929,1.08,3.125,1.676,1.8-.962,3.607.363,2.646,3.728,3.851,4.088,2.158.838,2.4,1.678,4.086.478,6.242.6,4.454-.125,5.9.6,2.639,3.6,3.957,3.965,4.209-.36,5.646,0,3.614.488,6.38,6.247,2.039,10.463,1.2,12.5-.595,3.969-.955,4.8-1.206,2.887-1.206,2.887-5.886,4.449-6.493,6.372-1.917.6-2.52,1.435-.12,3.615-.247,5.17c-.11,1.565-.467,4.208-2.04,2.653s-3.356-3.855-4.561-4.815-2.764.606-4.81,2.048-1.8,3.486-4.2,3.844-3.123-2.165-3.727-3.367-3-2.645-2.766-1.319.724,3.484-.236,4.2-2.043,1.565-2.172,2.525-2.513,1.683-3.244,3.729c-.714,2.04-1.676,2.4-2.76,2.4s-2.764,1.555-3.607,2.518.606,4.807-1.921,5.17-3.369-1.206-5.289-.721-2.762,2.518-4.322,3.723-1.685,1.932-4.218,1.683c-2.514-.242-3.96.481-4.194,1.682s-2.292,3.25-3.131,4.322c-.844,1.09-3.009,1.808-4.21,1.207s-1.432-2.519-2.878-4.2-2.525-3.607-3.368-3.249-4.082,1.086-4.449,1.56-2.161,2.287-3.837,2.287-2.048-1.8-2.764-1.448.591,7.1-1.206,7.332-4.685-3.959-6.614-3.959c-1.911,0-3.837,1.8-4.918,4.8s2.161,6.489.477,10.219-2.282,3.962-5.524,4.208a4,4,0,0,0-3.857,4.085,9.215,9.215,0,0,1-1.676,5.047c-1.327,1.794-2.638,3.484-4.322,3.6a11.14,11.14,0,0,0-4.333,1.075c-1.08.6-1.321,1.688-4.323,5.054s-5.417,3.133-5.773,5.174.967,5.394-.239,8.172c-1.2,2.751-3.964,3.957-8.168,4.079a11.952,11.952,0,0,1-9.255-4.444c-1.2-1.808.48-3.134-2.646-2.161-3.115.953-5.049,3.239-6.727,3.719s.477,1.32-2.167,3.489-4.676,1.565-5.285,2.406-4.684,2.4-5.284,3.231c-.6.848-3.245,3.373-4.333,3.373s-4.325-3.249-5.644-6.254-4.083-2.511-5.412-3.717-5.891-2.641-6.967-3.008-5.044-.713-5.888,1.2c-.841,1.933-.488,5.655.482,7.58s2.164,4.079,1.919,6.482-1.676,3.253-2.161,4.807,1.685,4.093,1.8,5.292-.6,2.768.845,3.613c1.44.83,2.153,2.274,3.719,5.4,1.561,3.112,2.531,3.955,4.81,8.525a73.349,73.349,0,0,1,3.6,8.533c.729,1.809,2.406,2.648,2.764,4.087a21.77,21.77,0,0,0,1.8,4.817A36.154,36.154,0,0,1,78.476,413c.476,1.082.476,4.088.723,5.537.243,1.433,2.407.11,2.641,6.96.243,6.864-.477,12.029.722,13.221s2.167,3.607,2.883,3.852,3.241.118,3.485,1.08-.477,1.793.363,3.128c.84,1.318,2.53,1.318,2.886,3.362s-.723,3.716-.243,4.2,1.083.375,1.083,1.088-1.2,1.918-1.329,3c-.114,1.083.962,5.889,0,6.982a40.334,40.334,0,0,0-3.6,4.795c-.957,1.57-1.563,3.719-3,4.929a27.929,27.929,0,0,1-8.053,4.207c-2.648.717-2.167,2.525-3.362,2.525s-2.285.125-2.285.72-.72,2.046-2.283,4.455-4.209,2.4-7.213,2.045c-3.009-.375-5.648-1.455-6.732-1.573a6.245,6.245,0,0,0-3.606,1.573c-.11.353.254,2.445-.72,2.638a14.107,14.107,0,0,0-7.722,4.848,19.509,19.509,0,0,0-3.911,8.7c-.443,2.685.9,4.582.338,4.8a8.414,8.414,0,0,1-4.241-.338c-1.679-.554-5.134-1.663-5.92-2.345s-2.227-1.553-2.451-.1-.338,7.578.441,8.82c.783,1.213,4.026,4.006,3.685,5.351s-1.892,2-4.234,4.02-2.634,5.689-2.8,6.466a10.564,10.564,0,0,0,2.237,8.6c-.558-.561-1.678.777-3.571-1.781s-1.667-4.917-5.581-4.583-4.914-.554-6.364.448a12.241,12.241,0,0,0-2.9,3.454c-.446.681-3.572,4.461-4.91,4.694s-3.13.1-2.91,2.345c.235,2.227,1.013,4.461,2.239,4.792,1.234.348,1.451.458,1.676,1.794s.334,3.234,1.675,3.571,2.231,2.9,2.455,3.457,2.23.786,2.459,1.79a7,7,0,0,1-.229,4.464,8.833,8.833,0,0,0,.894,7.695c1.676,2.58,8.929,7.269,10.492,8.6s1.561,2.459-1.117,5.358-3.79,2.739-4.789,5.637,1.668,6.561,4.457,9.8.784,10.132,1.114,11.918,2.344,2.006,2.007,2.786c-.331.8-1,1.007-2.337,1.676s-2.124,4.361-3.127,7.257-1.563,14.728-1.453,15.4,1.787,2.467,4.465,2.467,3.018,1.774,4.018,1.774,4.128-1.007,5.132,0,1.566,2.675,3.911,1.012,4.238-5.8,7.365-7.585,9.816-3.019,13.618-2.911,7.366,1.112,9.933-1.335,2.342-6.247,3.681-7.253,1.67,3.116,2.346,2.234,3.234-3.69,4.576-5.361a19.555,19.555,0,0,0,3.573-5.924c1.566-3.564,3.684-6.012,6.028-6.24s5.685-3.909,7.923-5.247,2.9-2.014,2.227-3.006A22.85,22.85,0,0,0,93,601.16s2.231.221,3.237-.554,5.8-6.034,6.589-5.8,5.459,1.555,9.032.772,6.818-5.8,8.708-7.58,7.14-6.365,9.714-5.693,6.591-3.024,7.03-5.133c.448-2.129,3.241-4.021,4.693-6.039,1.45-2,2.453-5.24.554-6.688a8.631,8.631,0,0,1-3.123-5.808c0-1.565-.118-5.358-1.676-7.033a6.392,6.392,0,0,0-7.342-.99c-2.9,1.85-6.272,1.668-6.614,3.006s-.662,2.337-2.676,2.565-3.349.456-5.02,4.363-1.782,7.131-3.575,6.125-6.7-2.678-6.8-4.016-.34-7.15,1-8.265-.562-2.568-1.225-3.014a3.03,3.03,0,0,1-1.343-3.677c.666-2.122,0-5.694-2.682-6.365s-5.24-2.109-4.011-4.792,6.581-3.364,8.361-5.247c1.792-1.909,1.679-4.028,2.906-5.812s5.132-7.256,6.028-8.6a10.665,10.665,0,0,0,1.677-6.806c-.113-3.574,1.777-7.253,3.462-8.364,1.666-1.116,4.575-9.841,6.581-12.288s5.92-8.263,8.037-9.821,2.9-5.017,3.684-7.247-.334-1.468-1.01-2.793c-.666-1.342-1.775-2.57-1-4.138s1.565-3.908,3.685-3.572,5.581,1.9,5.581,0a23.194,23.194,0,0,0-.334-3.679c-.109-1.009-.341-4.909,1.448-6.47s3.573-.909,5.138.436,5.81,3.241,6.251.9.111-4.917-3.683-5.807-7.145-1.228-5.022-5.35,5.583-3.241,6.026-4.692-1.343-1.676.222-2.121a18.485,18.485,0,0,0,3.8-1.12c1.785-.776,5.8-5.688,7.474-4.576s3.355,2.57,4.579,3.466a5.071,5.071,0,0,1,2.006,3.565c.113,1.23,1.9.561,2.79,1.911.895,1.323,1.116,3.112,2.348,3.447s3.684,1.455,4.13,3.792,2.679,2.683,4.019,4.589,1.335,3.121,2.566,4.128,2.009,3.347,4.015,3.905,3.349,2.683,4.8,4.234c1.446,1.577,4.688,1.46,7.254,2.011s3.568,2.8,4.236,4.243a3.984,3.984,0,0,0,3.131,2.124c1.117.221,3.12-.669,2.679-3.464s-2.572-6.012-3.017-9.371-2.226-4.576-2.226-6.818a33.706,33.706,0,0,1,.216-5.534c.207-1.531-3.208-4.265-4.674-3.663s-3-2.548-4.068-3.476-2.469.066-3.736-1-9.746-10.481-11.015-13.08c-1.269-2.617-6.537-3.405-7.543-11.945s-.661-9.677.6-11.352-.135-3.807-.467-5.344A6.93,6.93,0,0,0,176.53,392c-.731-.262-.8.936-2.068-.6s-7.942-7.276-12.276-10.813-5.746-4.939-7.881-5.069-3.8-3.344-4-5.22a6.747,6.747,0,0,0-2.673-4.73,8.513,8.513,0,0,1-3-6.47c.195-2.345,3.067-4.741,5.338-4.871s3.484.552,3.947-.377-.156-4.02.774-3.866,2.005,1.238,2.473.463a56.081,56.081,0,0,1,2.781-5.262,26.425,26.425,0,0,1,7.262-6.326c3.866-2.17,12.365-1.244,13.145-.936.764.309,2.311-2.019,3.55-2.019s2.473,2.489,3.557,3.1.922,1.857,5.563,2.474,5.252.3,7.419.774" transform="translate(0 0)" fill="#fff"/>
    <path id="パス_818" data-name="パス 818" d="M322.43,456.065c1.566-.125,2.833,3.457,3.252,7.044.411,3.571.411,6.414-2.525,8.515s-4.307,1.367-5.362.951-5.259-4.735-4.627-6.526,1.054-2.433,2.1-3.148c1.37-.948,1.469-2.416,2.528-3.695,1.055-1.252,4.634-3.141,4.634-3.141" transform="translate(-51.281 -74.695)" fill="#fff"/>
    <path id="パス_819" data-name="パス 819" d="M305.917,473.747c2,.211,1.808,2.408,3.01,3.923,1.2,1.484,3.1,4.39,4.1,5.6s.4,4.7-.6,5.409c-1,.691-.094,2.905-1.5,3.7a11.825,11.825,0,0,1-5.4,1c-1.813,0-7.716.307-8.819.8s-1.2,1.508-1.608,2.9-1.705.8-.995,1.805,1.8,1.911,1.7,4c-.067,1.308-3.608,3.917-4.708,5.313-1.1,1.412-7.26,2.04-8.616,1.5-2.8-1.107-4.208-3.114-3.908-4.2.3-1.107.406-4.51-.1-5.02-.507-.492-2.708-2.2-2.807-3.194-.1-1.015,0-4.111,4.009-4.111s7.111.6,8.511-.206c1.407-.786,3.605-5.7,4.408-6s1.71-2.925,2.706-3.711c2.4-1.9,3.209-5.917,3.81-6.211s2.9-1.012,3-1.5a8.879,8.879,0,0,1,1.2-1.911c.4-.6,2.606.1,2.606.1" transform="translate(-45.146 -77.536)" fill="#fff"/>
    <path id="パス_820" data-name="パス 820" d="M281.84,525.391c-1.247.686-1.259,4.515-1.259,5.99s.42,6.1,1.158,6.948a38.586,38.586,0,0,1,2.625,3.16c.746,1.049,1.584,2.526,2.631,2.526s1.688-.11,1.9-3.158.732-3.9,1.789-4.527,1.686-2.315,2.1-3.373a10.321,10.321,0,0,0,.32-4.1c-.108-1.475-.853-2.732-1.794-2.829a29.042,29.042,0,0,1-3.153-1.159c-.845-.208-4.21-.627-6.317.527" transform="translate(-45.954 -85.923)" fill="#fff"/>
    <path id="パス_821" data-name="パス 821" d="M271.051,589.183c2.757-.108,4.131,2.638,4.473,3.67s1.033,3.212,1.376,4.017-.222,1.838-.693,2.756c-.452.919-1.025,4.133-1.257,4.821a8.669,8.669,0,0,1-3.551,3.094,5.067,5.067,0,0,1-3.912-.566,13.724,13.724,0,0,0-3.215-1.734c-1.02-.449-.8-3.55-.226-4.006s1.952-2.306,1.725-3.565a6.54,6.54,0,0,0-1.261-2.863,2.144,2.144,0,0,1,.805-2.984c1.15-.462,2.752-.809,3.328-2.064s2.408-.576,2.408-.576" transform="translate(-43.167 -96.467)" fill="#fff"/>
    <path id="パス_822" data-name="パス 822" d="M239.08,680.886c1.1-.1,2.3-1.308,3.285-1.529s3.826-.334,4.267.438-.773,3.288-2.4,4.155-2.2.99-3.394,1.534-1.753,2.183-3.165,2.833-1.962.11-3.612,1.313-3.6,2.943-5.133,3.383-5.025,1.093-6.115-.654-.983-2.84.982-4.912,4.152-2.3,4.807-2.845,0-1.2,1.635-1.643c1.647-.429,2.954-1.311,3.825-1.193.879.1,1.746-1.749,2.52-1.647a18.541,18.541,0,0,1,2.5.767" transform="translate(-36.379 -111.24)" fill="#fff"/>
    <path id="パス_823" data-name="パス 823" d="M104.747,135.111c.554-1.631,1.672-3.153,3.138-3.3.973-.088,7.734,0,8.709-.088s5.508,1.253,6.477,1.738,5.415-.482,6.869-.577,5.223-.294,5.9-.68,2.61-2.324,3.58-2.611,2.709-1.159,3.773-1.064a35.581,35.581,0,0,1,5.991.775,28.676,28.676,0,0,1,5.611,3.188c1.165.865,4.261,3.477,5.134,3.871A13.034,13.034,0,0,1,164.565,141c1.16,2.229,1.16,5.711,0,6.581s-3.29,1.643-4.26,2.415-1.833,1.94-2.509,2.13-3.969-.293-5.123.288-1.646,1.356-3.583,1.257-.782,1.742-4.063,1.257-3.19-2.8-5.124-2.8-21.859-.388-22.831.1-3.289,2.322-3.671,2.13-.29-1.259-1.067-1.841-4.741.288-5.419-.2c-.843-.6-1.305-2.242-1.614-3.187s.054-1.885-.106-2.84a15.11,15.11,0,0,0-1.011-2.45c-.411-1.218.342-1.8.742-2.871.427-1.133-.15-1.708-.433-2.756a5.686,5.686,0,0,1,.254-3.1" transform="translate(-17.044 -21.05)" fill="#fff"/>
    <path id="パス_824" data-name="パス 824" d="M339.191,148.294a6.59,6.59,0,0,1,4.3,1.309,25.523,25.523,0,0,0,2.847,2.149c.985.61,1.764,2.458,1.381,3.223s-1.311,1.226-1.311,2.073.385,3.528-.529,4.07-.922,1.994-1.3,2.835c-.4.847-1.312.847-2.458,1.388s-1.613,1.764-3.222,1.3-2.231-2-3.463-1.841-1.065-2.379-.991-3.219a7.957,7.957,0,0,0-.626-3.761,3.366,3.366,0,0,1,.244-3.609c.764-.93.605-2,1.15-3s2.23-2.763,3.986-2.918" transform="translate(-54.607 -24.285)" fill="#fff"/>
    <path id="パス_825" data-name="パス 825" d="M337.356,188.626c1.319.368.46,2.392.185,3.194-.452,1.29-1.067,2.989-.2,4.275.464.693,2.147,1.384,2.228,2.458.066,1.075,1.3,2.54,1.907,3.224s1.312,2.156,2.392,2.453,1.688-.066,1.984.31c.313.381.706,1.3,1.228,1.608a2.168,2.168,0,0,1,1.157,2.773,5,5,0,0,1-1.6,2.761c-.621.762.3,1.693-.853,2.144s-2.686-.224-3.7-1.46c-.982-1.223-1.447-2.756-3.134-3.3s-2.451.772-2.988.155-.625-2-2.3-2.54a3.025,3.025,0,0,0-3.609,1.692c-.466,1.08-1.771,2.233-2.458,1.922s-2.918-.769-3.6-1.15-.695-1.308-1.463-1.849-1.917-.383-1.838-1.838.452-6.523,2.3-9.823a18.841,18.841,0,0,1,6.6-6.6,10.532,10.532,0,0,1,2.386-1.072c.605-.077,1.455-1.074,2.3-.692.934.434,1.407,1.157,2.507,1.26a2.47,2.47,0,0,1,.576.1" transform="translate(-52.523 -30.658)" fill="#fff"/>
    <path id="パス_826" data-name="パス 826" d="M195.3,210.75c-2.462,2.205-1.856,6.465-1.521,8.721a16.514,16.514,0,0,0,1.742,5.854,8.633,8.633,0,0,0,2.293,2.05s-.12,2.05-1.1,2.869-1.521,2.052-.983,2.052,1.757.309,1.964.823,2.172.206,2.734-.72c.531-.923,1.523-2.463,1.409-3.8s.442-3.386,1.521-3.693,1.743-.927,1.855-1.644,1.31-1.851,2.28-2.668c.993-.823,1.1-3.076,1.315-5.439s.434-4.821-1.855-5.85a11.461,11.461,0,0,0-6.428-.816,8.812,8.812,0,0,0-5.225,2.257" transform="translate(-31.686 -34.123)" fill="#fff"/>
  </g>
</svg>
