<svg xmlns="http://www.w3.org/2000/svg" xmlns:xlink="http://www.w3.org/1999/xlink" width="472" height="84.592" viewBox="0 0 472 84.592">
  <defs>
    <clipPath id="clip-path">
      <rect id="長方形_998" data-name="長方形 998" width="79" height="76.592" fill="none"/>
    </clipPath>
  </defs>
  <g id="グループ_559" data-name="グループ 559" transform="translate(-477 -2248)">
    <g id="グループ_520" data-name="グループ 520" transform="translate(-7)">
      <text id="RECOMMEND" transform="translate(720 2272)" fill="#1f1f1f" font-size="25" font-family="Montserrat-ExtraBold, Montserrat" font-weight="800" letter-spacing="0.1em"><tspan x="-99.912" y="0">RECOMMEND</tspan></text>
      <text id="おすすめ商品" transform="translate(720 2317)" fill="#df2b00" font-size="30" font-family="NotoSansJP-Black, Noto Sans JP" font-weight="800" letter-spacing="0.2em"><tspan x="-105" y="0">おすすめ</tspan><tspan y="0">商品</tspan></text>
    </g>
    <g id="グループ_516" data-name="グループ 516" transform="translate(870 2256)">
      <g id="グループ_513" data-name="グループ 513" transform="translate(0 0)" clip-path="url(#clip-path)">
        <path id="パス_1850" data-name="パス 1850" d="M39.259,19.535c4-3.769,3.7-7.562,6.964-8.648.76-.253,2.637.213,3.461.218.527,0,1.883-.134,2.5-.192.81-.075,1.371,1.555,2.038,1.808,1.347.51,1.322.254,2.364,1.461.436.5,1.6,1.136,2.2,1.764s1.767,1.539,2.012,2.325c.267.85-.32,2.538-.477,3.447-.2,1.159.009,1.922-.248,3.045-.134.583-1.479,1.456-1.551,2.05a5.271,5.271,0,0,1-.867,2.963,18.856,18.856,0,0,1-4.1,3.275c-1.575.756-4.306-.283-10.587-1.389-6.879-1.213-12.87-3.068-13.283-4.227C29.3,26.355,36.246,22.373,39.259,19.535Z" transform="translate(15.524 5.658)" fill="none" stroke="#fff" stroke-linecap="round" stroke-linejoin="round" stroke-width="3.435"/>
        <path id="パス_1851" data-name="パス 1851" d="M39.657,25.792c4.814,2.65,8.38,2.1,10.416,4.873.472.644.6,2.574.855,3.36.158.5.705,1.752.947,2.317.32.748-1.06,1.782-1.1,2.494-.072,1.439.163,1.339-.666,2.7-.344.568-.59,1.872-1,2.631s-.923,2.154-1.595,2.629c-.728.513-2.515.474-3.429.6-1.164.165-1.826.6-2.975.7-.6.05-1.84-.963-2.427-.845a5.292,5.292,0,0,1-3.086.082,18.891,18.891,0,0,1-4.373-2.893c-1.2-1.269.583-4.619-.289-10.933-.957-6.922-.387-10.55.591-11.3C32.436,21.515,36.031,23.8,39.657,25.792Z" transform="translate(15.931 11.555)" fill="none" stroke="#fff" stroke-linecap="round" stroke-linejoin="round" stroke-width="3.435"/>
        <path id="パス_1852" data-name="パス 1852" d="M36.859,31.611c-.949,5.412-2.579,11.664-3.243,12.154-.423.312-1.427,1.234-1.886,1.647-.6.545-2.027-.427-2.713-.228-1.385.4-1.213.586-2.769.245-.649-.143-1.962.047-2.813-.1s-2.337-.177-3-.658c-.722-.522-1.263-2.226-1.682-3.048-.533-1.048-1.156-1.534-1.622-2.59-.242-.547.314-2.052.015-2.57a5.279,5.279,0,0,1-1.078-2.893A18.913,18.913,0,0,1,17.384,28.5c.812-1.549,3.721-1.4,9.412-4.265,6.238-3.147,10.695-3.331,11.719-2.647C39.466,22.22,37.573,27.533,36.859,31.611Z" transform="translate(8.404 11.125)" fill="none" stroke="#fff" stroke-linecap="round" stroke-linejoin="round" stroke-width="3.435"/>
        <path id="パス_1853" data-name="パス 1853" d="M31.448,29.063C26,29.8,23.894,31.5,20.605,30.489c-.763-.235-2.021-1.706-2.689-2.187-.428-.309-1.61-.986-2.143-1.3-.7-.41-.212-2.061-.608-2.655-.8-1.2-.928-.976-1.075-2.562-.061-.663-.643-1.855-.762-2.711s-.544-2.279-.286-3.06c.277-.847,1.735-1.881,2.392-2.53.835-.826,1.109-1.569,1.973-2.332.448-.4,2.05-.326,2.451-.768a5.3,5.3,0,0,1,2.43-1.909,18.947,18.947,0,0,1,5.235-.285c1.723.3,1.293,3.779,5.759,8.328,4.894,4.984,7.523,12.756,7.184,13.938C40.15,31.56,35.55,28.5,31.448,29.063Z" transform="translate(6.782 4.245)" fill="none" stroke="#fff" stroke-linecap="round" stroke-linejoin="round" stroke-width="3.435"/>
        <path id="パス_1854" data-name="パス 1854" d="M29.714,22.717c-2.949-4.637-3.572-5.644-4.024-9.056-.105-.792-1.249-1.567-1.089-2.375.1-.516.222-1.874.282-2.488.079-.81,1.785-1.054,2.158-1.66.754-1.229.5-1.254,1.88-2.049.576-.334,1.417-1.357,2.145-1.825s1.843-1.444,2.661-1.54c.885-.1,2.433.794,3.3,1.117,1.1.416,1.889.355,2.943.82.548.242,1.152,1.727,1.721,1.907a5.308,5.308,0,0,1,2.748,1.409,18.9,18.9,0,0,1,2.446,4.638c.445,1.692-2.155,3.468-4.424,9.426-2.484,6.529-7.29,10.753-8.506,10.939C32.82,32.152,31.935,26.211,29.714,22.717Z" transform="translate(12.865 0.899)" fill="none" stroke="#fff" stroke-linecap="round" stroke-linejoin="round" stroke-width="3.435"/>
        <path id="パス_1855" data-name="パス 1855" d="M34.32,21.216c.119-.236,3.543-6.776,3.507-6.514,0,0-1.383,6.7-1.216,6.585l8.731-2.721c.213-.148-7.584,3.938-7.731,4.152l7.3.931c-.082.119-7.575.583-7.444.643l6.37,1.861c.235.107-7.371-.573-7.371-.573L39.545,32.6l-3.507-4.58c-.183-.158,1.219,4.8.859,4.8-.4-.006-2.615-4.98-2.721-4.867l-3.721,4.867c-.189.2,2.3-4.841,2.433-5.082,0,0-3.446,1.362-3.65,1.5-2.484,1.724,2.576-3.15,2.576-3.15l-7.657,2.935,6.728-4.224s-6.785-2.44-6.514-2.433l6.871,1.146c.222.006-5.225-3.079-5.225-3.079.428-.644,5.548,1.1,5.8,1.217L29.2,16.814c.166.078,3.686,3.973,3.686,3.973a43.888,43.888,0,0,1,1.289-5.511Z" transform="translate(12.641 7.69)" fill="none" stroke="#fff" stroke-linecap="round" stroke-linejoin="round" stroke-width="3.435"/>
        <path id="パス_1856" data-name="パス 1856" d="M20.4,10.7c.529,3.557,1.176,10.541,9.009,14.806a25.405,25.405,0,0,0,6.14,2.737c1.106.242,1.04-1.54.337-2.012-1.468-.986-3.593-1.283-5.715-2.334-6.082-3.008-8.37-8.3-9.324-13.289C20.708,9.887,20.253,9.726,20.4,10.7Z" transform="translate(10.659 5.242)" fill="none" stroke="#fff" stroke-linecap="round" stroke-linejoin="round" stroke-width="3.435"/>
        <path id="パス_1857" data-name="パス 1857" d="M21.059,12.271a1.144,1.144,0,1,1-1.177-1.109A1.148,1.148,0,0,1,21.059,12.271Z" transform="translate(9.822 5.841)" fill="none" stroke="#fff" stroke-linecap="round" stroke-linejoin="round" stroke-width="3.435"/>
        <path id="パス_1858" data-name="パス 1858" d="M21.648,8.787A1.144,1.144,0,1,1,20.472,7.67,1.144,1.144,0,0,1,21.648,8.787Z" transform="translate(10.13 4.014)" fill="none" stroke="#fff" stroke-linecap="round" stroke-linejoin="round" stroke-width="3.435"/>
        <path id="パス_1859" data-name="パス 1859" d="M23.543,11.931a1.144,1.144,0,1,1-1.173-1.112A1.148,1.148,0,0,1,23.543,11.931Z" transform="translate(11.122 5.661)" fill="none" stroke="#fff" stroke-linecap="round" stroke-linejoin="round" stroke-width="3.435"/>
        <path id="パス_1860" data-name="パス 1860" d="M23.55,9.484A1.144,1.144,0,1,1,22.374,8.37,1.144,1.144,0,0,1,23.55,9.484Z" transform="translate(11.126 4.38)" fill="none" stroke="#fff" stroke-linecap="round" stroke-linejoin="round" stroke-width="3.435"/>
        <path id="パス_1861" data-name="パス 1861" d="M19.785,10.332a1.145,1.145,0,1,1-1.177-1.114A1.144,1.144,0,0,1,19.785,10.332Z" transform="translate(9.155 4.824)" fill="none" stroke="#fff" stroke-linecap="round" stroke-linejoin="round" stroke-width="3.435"/>
        <path id="パス_1862" data-name="パス 1862" d="M21.81,15.038a1.144,1.144,0,1,1-1.171-1.115A1.142,1.142,0,0,1,21.81,15.038Z" transform="translate(10.215 7.286)" fill="none" stroke="#fff" stroke-linecap="round" stroke-linejoin="round" stroke-width="3.435"/>
        <path id="パス_1863" data-name="パス 1863" d="M25.491,14.259a1.144,1.144,0,1,1-1.174-1.114A1.142,1.142,0,0,1,25.491,14.259Z" transform="translate(12.141 6.878)" fill="none" stroke="#fff" stroke-linecap="round" stroke-linejoin="round" stroke-width="3.435"/>
        <path id="パス_1864" data-name="パス 1864" d="M17.62,36.7c2.419-2.279,2.239-4.573,4.212-5.229a9.728,9.728,0,0,1,2.093.131c.318,0,1.139-.081,1.51-.114.49-.046.829.94,1.232,1.092.815.309.8.155,1.43.883.262.3.967.687,1.327,1.066s1.068.931,1.217,1.406a5.992,5.992,0,0,1-.288,2.085c-.122.7,0,1.161-.151,1.84-.082.353-.9.88-.937,1.24a3.214,3.214,0,0,1-.526,1.793,11.418,11.418,0,0,1-2.475,1.979c-.955.459-2.606-.171-6.4-.839-4.16-.733-7.784-1.855-8.032-2.556C11.6,40.819,15.8,38.413,17.62,36.7Z" transform="translate(6.186 16.442)" fill="none" stroke="#fff" stroke-linecap="round" stroke-linejoin="round" stroke-width="3.435"/>
        <path id="パス_1865" data-name="パス 1865" d="M17.861,40.48c2.911,1.6,5.068,1.269,6.3,2.946a9.724,9.724,0,0,1,.516,2.034c.1.3.427,1.057.573,1.4.193.452-.641,1.077-.663,1.508-.043.871.1.809-.4,1.633-.209.343-.356,1.132-.606,1.59a5.224,5.224,0,0,1-.966,1.589,5.973,5.973,0,0,1-2.073.366c-.7.1-1.1.361-1.8.422-.361.03-1.114-.582-1.468-.512a3.2,3.2,0,0,1-1.866.05,11.463,11.463,0,0,1-2.644-1.749c-.728-.768.353-2.794-.175-6.613-.579-4.184-.233-6.379.358-6.83C13.5,37.893,15.669,39.272,17.861,40.48Z" transform="translate(6.431 20.008)" fill="none" stroke="#fff" stroke-linecap="round" stroke-linejoin="round" stroke-width="3.435"/>
        <path id="パス_1866" data-name="パス 1866" d="M16.169,44c-.576,3.272-1.56,7.053-1.962,7.35-.256.189-.862.746-1.139,1-.366.329-1.228-.259-1.641-.139-.838.241-.734.355-1.674.148-.393-.087-1.187.029-1.7-.059a5.242,5.242,0,0,1-1.817-.4c-.436-.315-.763-1.345-1.016-1.842-.323-.634-.7-.929-.981-1.566-.146-.331.19-1.241.009-1.554a3.2,3.2,0,0,1-.652-1.75,11.374,11.374,0,0,1,.8-3.068c.49-.937,2.25-.844,5.691-2.579,3.772-1.9,6.466-2.015,7.085-1.6C17.746,38.318,16.6,41.531,16.169,44Z" transform="translate(1.88 19.747)" fill="none" stroke="#fff" stroke-linecap="round" stroke-linejoin="round" stroke-width="3.435"/>
        <path id="パス_1867" data-name="パス 1867" d="M12.9,42.457c-3.292.449-4.568,1.475-6.556.862C5.88,43.178,5.12,42.288,4.714,42c-.257-.186-.973-.6-1.295-.783-.425-.247-.128-1.246-.367-1.606-.484-.724-.562-.59-.65-1.549-.038-.4-.39-1.121-.462-1.639a5.233,5.233,0,0,1-.174-1.851c.169-.513,1.05-1.138,1.447-1.531.5-.5.67-.947,1.193-1.411.271-.239,1.24-.2,1.482-.463a3.209,3.209,0,0,1,1.468-1.155,11.475,11.475,0,0,1,3.165-.172c1.042.183.783,2.285,3.484,5.036,2.96,3.015,4.55,7.714,4.344,8.428C18.159,43.967,15.377,42.119,12.9,42.457Z" transform="translate(0.899 15.587)" fill="none" stroke="#fff" stroke-linecap="round" stroke-linejoin="round" stroke-width="3.435"/>
        <path id="パス_1868" data-name="パス 1868" d="M11.848,38.62c-1.782-2.8-2.16-3.414-2.434-5.476-.064-.478-.754-.947-.658-1.436.061-.312.134-1.133.171-1.5.047-.49,1.078-.637,1.305-1.005.455-.742.3-.757,1.136-1.238.349-.2.856-.821,1.3-1.1a5.217,5.217,0,0,1,1.61-.931,6,6,0,0,1,1.994.675c.664.251,1.141.215,1.779.5.332.146.7,1.045,1.042,1.153a3.2,3.2,0,0,1,1.66.853,11.436,11.436,0,0,1,1.479,2.8c.27,1.022-1.3,2.1-2.673,5.7-1.5,3.948-4.408,6.5-5.144,6.616C13.727,44.325,13.192,40.733,11.848,38.62Z" transform="translate(4.577 13.564)" fill="none" stroke="#fff" stroke-linecap="round" stroke-linejoin="round" stroke-width="3.435"/>
        <path id="パス_1869" data-name="パス 1869" d="M14.634,37.713c.072-.143,2.142-4.1,2.12-3.939,0,0-.836,4.053-.736,3.982l3.528-1.016c.128-.09-2.833,1.752-2.922,1.883l4.414.562c-.049.073-4.58.353-4.5.39L20.391,40.7c.142.065-4.459-.346-4.459-.346l1.861,4.242-2.12-2.771c-.111-.1.737,2.9.519,2.9-.244,0-1.581-3.012-1.645-2.943L12.3,44.724c-.114.122,1.389-2.928,1.471-3.072,0,0-2.084.823-2.207.908-1.5,1.043,1.558-1.9,1.558-1.9L8.488,42.43l4.069-2.553s-4.1-1.478-3.938-1.471l4.154.692c.136,0-3.159-1.861-3.159-1.861.26-.388,3.356.666,3.507.736l-1.58-2.92c.1.047,2.229,2.4,2.229,2.4a26.382,26.382,0,0,1,.778-3.333Z" transform="translate(4.442 17.671)" fill="none" stroke="#fff" stroke-linecap="round" stroke-linejoin="round" stroke-width="3.435"/>
        <path id="パス_1870" data-name="パス 1870" d="M6.7,31.042c.3,2.154.643,6.381,5.35,9.012a15.355,15.355,0,0,0,3.7,1.7c.667.154.64-.923.216-1.214-.882-.606-2.165-.8-3.441-1.449-3.657-1.86-5.007-5.072-5.549-8.1C6.892,30.554,6.617,30.454,6.7,31.042Z" transform="translate(3.497 16.029)" fill="none" stroke="#fff" stroke-linecap="round" stroke-linejoin="round" stroke-width="3.435"/>
        <path id="パス_1871" data-name="パス 1871" d="M7.089,32a.692.692,0,1,1-.705-.679A.694.694,0,0,1,7.089,32Z" transform="translate(2.986 16.387)" fill="none" stroke="#fff" stroke-linecap="round" stroke-linejoin="round" stroke-width="3.435"/>
        <path id="パス_1872" data-name="パス 1872" d="M7.468,29.892a.692.692,0,1,1-.7-.682A.692.692,0,0,1,7.468,29.892Z" transform="translate(3.184 15.285)" fill="none" stroke="#fff" stroke-linecap="round" stroke-linejoin="round" stroke-width="3.435"/>
        <path id="パス_1873" data-name="パス 1873" d="M8.594,31.806a.692.692,0,1,1-.7-.679A.7.7,0,0,1,8.594,31.806Z" transform="translate(3.773 16.288)" fill="none" stroke="#fff" stroke-linecap="round" stroke-linejoin="round" stroke-width="3.435"/>
        <path id="パス_1874" data-name="パス 1874" d="M8.614,30.327a.692.692,0,1,1-.705-.681A.693.693,0,0,1,8.614,30.327Z" transform="translate(3.784 15.513)" fill="none" stroke="#fff" stroke-linecap="round" stroke-linejoin="round" stroke-width="3.435"/>
        <path id="パス_1875" data-name="パス 1875" d="M6.332,30.815a.692.692,0,1,1-.705-.681A.69.69,0,0,1,6.332,30.815Z" transform="translate(2.589 15.768)" fill="none" stroke="#fff" stroke-linecap="round" stroke-linejoin="round" stroke-width="3.435"/>
        <path id="パス_1876" data-name="パス 1876" d="M7.526,33.674a.692.692,0,1,1-.7-.681A.691.691,0,0,1,7.526,33.674Z" transform="translate(3.213 17.264)" fill="none" stroke="#fff" stroke-linecap="round" stroke-linejoin="round" stroke-width="3.435"/>
        <path id="パス_1877" data-name="パス 1877" d="M9.756,33.227a.692.692,0,1,1-.7-.681A.691.691,0,0,1,9.756,33.227Z" transform="translate(4.381 17.031)" fill="none" stroke="#fff" stroke-linecap="round" stroke-linejoin="round" stroke-width="3.435"/>
        <path id="パス_1878" data-name="パス 1878" d="M39.259,19.535c4-3.769,3.7-7.562,6.964-8.648.76-.253,2.637.213,3.461.218.527,0,1.883-.134,2.5-.192.81-.075,1.371,1.555,2.038,1.808,1.347.51,1.322.254,2.364,1.461.436.5,1.6,1.136,2.2,1.764s1.767,1.539,2.012,2.325c.267.85-.32,2.538-.477,3.447-.2,1.159.009,1.922-.248,3.045-.134.583-1.479,1.456-1.551,2.05a5.271,5.271,0,0,1-.867,2.963,18.856,18.856,0,0,1-4.1,3.275c-1.575.756-4.306-.283-10.587-1.389-6.879-1.213-12.87-3.068-13.283-4.227-.381-1.08,6.564-5.062,9.577-7.9" transform="translate(15.524 5.658)" fill="#eb1c24"/>
        <path id="パス_1879" data-name="パス 1879" d="M39.657,25.792c4.814,2.65,8.38,2.1,10.416,4.873.472.644.6,2.574.855,3.36.158.5.705,1.752.947,2.317.32.748-1.06,1.782-1.1,2.494-.072,1.439.163,1.339-.666,2.7-.344.568-.59,1.872-1,2.631s-.923,2.154-1.595,2.629c-.728.513-2.515.474-3.429.6-1.164.165-1.826.6-2.975.7-.6.05-1.84-.963-2.427-.845a5.292,5.292,0,0,1-3.086.082,18.891,18.891,0,0,1-4.373-2.893c-1.2-1.269.583-4.619-.289-10.933-.957-6.922-.387-10.55.591-11.3.909-.695,4.5,1.586,8.13,3.583" transform="translate(15.931 11.555)" fill="#eb1c24"/>
        <path id="パス_1880" data-name="パス 1880" d="M36.859,31.611c-.949,5.412-2.579,11.664-3.243,12.154-.423.312-1.427,1.234-1.886,1.647-.6.545-2.027-.427-2.713-.228-1.385.4-1.213.586-2.769.245-.649-.143-1.962.047-2.813-.1s-2.337-.177-3-.658c-.722-.522-1.263-2.226-1.682-3.048-.533-1.048-1.156-1.534-1.622-2.59-.242-.547.314-2.052.015-2.57a5.279,5.279,0,0,1-1.078-2.893A18.913,18.913,0,0,1,17.384,28.5c.812-1.549,3.721-1.4,9.412-4.265,6.238-3.147,10.695-3.331,11.719-2.647.952.635-.941,5.948-1.656,10.026" transform="translate(8.404 11.125)" fill="#eb1c24"/>
        <path id="パス_1881" data-name="パス 1881" d="M31.448,29.063C26,29.8,23.894,31.5,20.605,30.489c-.763-.235-2.021-1.706-2.689-2.187-.428-.309-1.61-.986-2.143-1.3-.7-.41-.212-2.061-.608-2.655-.8-1.2-.928-.976-1.075-2.562-.061-.663-.643-1.855-.762-2.711s-.544-2.279-.286-3.06c.277-.847,1.735-1.881,2.392-2.53.835-.826,1.109-1.569,1.973-2.332.448-.4,2.05-.326,2.451-.768a5.3,5.3,0,0,1,2.43-1.909,18.947,18.947,0,0,1,5.235-.285c1.723.3,1.293,3.779,5.759,8.328,4.894,4.984,7.523,12.756,7.184,13.938-.315,1.1-4.916-1.954-9.018-1.4" transform="translate(6.782 4.245)" fill="#eb1c24"/>
        <path id="パス_1882" data-name="パス 1882" d="M29.714,22.717c-2.949-4.637-3.572-5.644-4.024-9.056-.105-.792-1.249-1.567-1.089-2.375.1-.516.222-1.874.282-2.488.079-.81,1.785-1.054,2.158-1.66.754-1.229.5-1.254,1.88-2.049.576-.334,1.417-1.357,2.145-1.825s1.843-1.444,2.661-1.54c.885-.1,2.433.794,3.3,1.117,1.1.416,1.889.355,2.943.82.548.242,1.152,1.727,1.721,1.907a5.308,5.308,0,0,1,2.748,1.409,18.9,18.9,0,0,1,2.446,4.638c.445,1.692-2.155,3.468-4.424,9.426-2.484,6.529-7.29,10.753-8.506,10.939-1.133.172-2.018-5.769-4.239-9.263" transform="translate(12.865 0.899)" fill="#eb1c24"/>
        <path id="パス_1883" data-name="パス 1883" d="M34.32,21.216c.119-.236,3.543-6.776,3.507-6.514,0,0-1.383,6.7-1.216,6.585l8.731-2.721c.213-.148-7.584,3.938-7.731,4.152l7.3.931c-.082.119-7.575.583-7.444.643l6.37,1.861c.235.107-7.371-.573-7.371-.573L39.545,32.6l-3.507-4.58c-.183-.158,1.219,4.8.859,4.8-.4-.006-2.615-4.98-2.721-4.867l-3.721,4.867c-.189.2,2.3-4.841,2.433-5.082,0,0-3.446,1.362-3.65,1.5-2.484,1.724,2.576-3.15,2.576-3.15l-7.657,2.935,6.728-4.224s-6.785-2.44-6.514-2.433l6.871,1.146c.222.006-5.225-3.079-5.225-3.079.428-.644,5.548,1.1,5.8,1.217L29.2,16.814c.166.078,3.686,3.973,3.686,3.973a43.888,43.888,0,0,1,1.289-5.511Z" transform="translate(12.641 7.69)" fill="#992e04"/>
        <path id="パス_1884" data-name="パス 1884" d="M20.4,10.7c.529,3.557,1.176,10.541,9.009,14.806a25.405,25.405,0,0,0,6.14,2.737c1.106.242,1.04-1.54.337-2.012-1.468-.986-3.593-1.283-5.715-2.334-6.082-3.008-8.37-8.3-9.324-13.289-.136-.717-.591-.879-.446.091" transform="translate(10.659 5.242)" fill="#ffd200"/>
        <path id="パス_1885" data-name="パス 1885" d="M21.059,12.271a1.144,1.144,0,1,1-1.177-1.109,1.148,1.148,0,0,1,1.177,1.109" transform="translate(9.822 5.841)" fill="#ffd200"/>
        <path id="パス_1886" data-name="パス 1886" d="M21.648,8.787A1.144,1.144,0,1,1,20.472,7.67a1.144,1.144,0,0,1,1.176,1.117" transform="translate(10.13 4.014)" fill="#ffd200"/>
        <path id="パス_1887" data-name="パス 1887" d="M23.543,11.931a1.144,1.144,0,1,1-1.173-1.112,1.148,1.148,0,0,1,1.173,1.112" transform="translate(11.122 5.661)" fill="#ffd200"/>
        <path id="パス_1888" data-name="パス 1888" d="M23.55,9.484A1.144,1.144,0,1,1,22.374,8.37,1.144,1.144,0,0,1,23.55,9.484" transform="translate(11.126 4.38)" fill="#ffd200"/>
        <path id="パス_1889" data-name="パス 1889" d="M19.785,10.332a1.145,1.145,0,1,1-1.177-1.114,1.144,1.144,0,0,1,1.177,1.114" transform="translate(9.155 4.824)" fill="#ffd200"/>
        <path id="パス_1890" data-name="パス 1890" d="M21.81,15.038a1.144,1.144,0,1,1-1.171-1.115,1.142,1.142,0,0,1,1.171,1.115" transform="translate(10.215 7.286)" fill="#ffd200"/>
        <path id="パス_1891" data-name="パス 1891" d="M25.491,14.259a1.144,1.144,0,1,1-1.174-1.114,1.142,1.142,0,0,1,1.174,1.114" transform="translate(12.141 6.878)" fill="#ffd200"/>
        <path id="パス_1892" data-name="パス 1892" d="M17.62,36.7c2.419-2.279,2.239-4.573,4.212-5.229a9.728,9.728,0,0,1,2.093.131c.318,0,1.139-.081,1.51-.114.49-.046.829.94,1.232,1.092.815.309.8.155,1.43.883.262.3.967.687,1.327,1.066s1.068.931,1.217,1.406a5.992,5.992,0,0,1-.288,2.085c-.122.7,0,1.161-.151,1.84-.082.353-.9.88-.937,1.24a3.214,3.214,0,0,1-.526,1.793,11.418,11.418,0,0,1-2.475,1.979c-.955.459-2.606-.171-6.4-.839-4.16-.733-7.784-1.855-8.032-2.556-.232-.653,3.968-3.06,5.79-4.777" transform="translate(6.186 16.442)" fill="#ffcd06"/>
        <path id="パス_1893" data-name="パス 1893" d="M17.861,40.48c2.911,1.6,5.068,1.269,6.3,2.946a9.724,9.724,0,0,1,.516,2.034c.1.3.427,1.057.573,1.4.193.452-.641,1.077-.663,1.508-.043.871.1.809-.4,1.633-.209.343-.356,1.132-.606,1.59a5.224,5.224,0,0,1-.966,1.589,5.973,5.973,0,0,1-2.073.366c-.7.1-1.1.361-1.8.422-.361.03-1.114-.582-1.468-.512a3.2,3.2,0,0,1-1.866.05,11.463,11.463,0,0,1-2.644-1.749c-.728-.768.353-2.794-.175-6.613-.579-4.184-.233-6.379.358-6.83.55-.42,2.724.958,4.916,2.166" transform="translate(6.431 20.008)" fill="#ffcd06"/>
        <path id="パス_1894" data-name="パス 1894" d="M16.169,44c-.576,3.272-1.56,7.053-1.962,7.35-.256.189-.862.746-1.139,1-.366.329-1.228-.259-1.641-.139-.838.241-.734.355-1.674.148-.393-.087-1.187.029-1.7-.059a5.242,5.242,0,0,1-1.817-.4c-.436-.315-.763-1.345-1.016-1.842-.323-.634-.7-.929-.981-1.566-.146-.331.19-1.241.009-1.554a3.2,3.2,0,0,1-.652-1.75,11.374,11.374,0,0,1,.8-3.068c.49-.937,2.25-.844,5.691-2.579,3.772-1.9,6.466-2.015,7.085-1.6.577.384-.568,3.6-1,6.063" transform="translate(1.88 19.747)" fill="#ffcd06"/>
        <path id="パス_1895" data-name="パス 1895" d="M12.9,42.457c-3.292.449-4.568,1.475-6.556.862C5.88,43.178,5.12,42.288,4.714,42c-.257-.186-.973-.6-1.295-.783-.425-.247-.128-1.246-.367-1.606-.484-.724-.562-.59-.65-1.549-.038-.4-.39-1.121-.462-1.639a5.233,5.233,0,0,1-.174-1.851c.169-.513,1.05-1.138,1.447-1.531.5-.5.67-.947,1.193-1.411.271-.239,1.24-.2,1.482-.463a3.209,3.209,0,0,1,1.468-1.155,11.475,11.475,0,0,1,3.165-.172c1.042.183.783,2.285,3.484,5.036,2.96,3.015,4.55,7.714,4.344,8.428-.192.666-2.973-1.182-5.453-.844" transform="translate(0.899 15.587)" fill="#ffcd06"/>
        <path id="パス_1896" data-name="パス 1896" d="M11.848,38.62c-1.782-2.8-2.16-3.414-2.434-5.476-.064-.478-.754-.947-.658-1.436.061-.312.134-1.133.171-1.5.047-.49,1.078-.637,1.305-1.005.455-.742.3-.757,1.136-1.238.349-.2.856-.821,1.3-1.1a5.217,5.217,0,0,1,1.61-.931,6,6,0,0,1,1.994.675c.664.251,1.141.215,1.779.5.332.146.7,1.045,1.042,1.153a3.2,3.2,0,0,1,1.66.853,11.436,11.436,0,0,1,1.479,2.8c.27,1.022-1.3,2.1-2.673,5.7-1.5,3.948-4.408,6.5-5.144,6.616-.685.1-1.22-3.488-2.564-5.6" transform="translate(4.577 13.564)" fill="#ffcd06"/>
        <path id="パス_1897" data-name="パス 1897" d="M14.634,37.713c.072-.143,2.142-4.1,2.12-3.939,0,0-.836,4.053-.736,3.982l3.528-1.016c.128-.09-2.833,1.752-2.922,1.883l4.414.562c-.049.073-4.58.353-4.5.39L20.391,40.7c.142.065-4.459-.346-4.459-.346l1.861,4.242-2.12-2.771c-.111-.1.737,2.9.519,2.9-.244,0-1.581-3.012-1.645-2.943L12.3,44.724c-.114.122,1.389-2.928,1.471-3.072,0,0-2.084.823-2.207.908-1.5,1.043,1.558-1.9,1.558-1.9L8.488,42.43l4.069-2.553s-4.1-1.478-3.938-1.471l4.154.692c.136,0-3.159-1.861-3.159-1.861.26-.388,3.356.666,3.507.736l-1.58-2.92c.1.047,2.229,2.4,2.229,2.4a26.382,26.382,0,0,1,.778-3.333Z" transform="translate(4.442 17.671)" fill="#c48200"/>
        <path id="パス_1898" data-name="パス 1898" d="M6.7,31.042c.3,2.154.643,6.381,5.35,9.012a15.355,15.355,0,0,0,3.7,1.7c.667.154.64-.923.216-1.214-.882-.606-2.165-.8-3.441-1.449-3.657-1.86-5.007-5.072-5.549-8.1-.078-.434-.352-.535-.271.053" transform="translate(3.497 16.029)" fill="#e09a00"/>
        <path id="パス_1899" data-name="パス 1899" d="M7.089,32a.692.692,0,1,1-.705-.679A.694.694,0,0,1,7.089,32" transform="translate(2.986 16.387)" fill="#e09a00"/>
        <path id="パス_1900" data-name="パス 1900" d="M7.468,29.892a.692.692,0,1,1-.7-.682.692.692,0,0,1,.7.682" transform="translate(3.184 15.285)" fill="#e09a00"/>
        <path id="パス_1901" data-name="パス 1901" d="M8.594,31.806a.692.692,0,1,1-.7-.679.7.7,0,0,1,.7.679" transform="translate(3.773 16.288)" fill="#e09a00"/>
        <path id="パス_1902" data-name="パス 1902" d="M8.614,30.327a.692.692,0,1,1-.705-.681.693.693,0,0,1,.705.681" transform="translate(3.784 15.513)" fill="#e09a00"/>
        <path id="パス_1903" data-name="パス 1903" d="M6.332,30.815a.692.692,0,1,1-.705-.681.69.69,0,0,1,.705.681" transform="translate(2.589 15.768)" fill="#e09a00"/>
        <path id="パス_1904" data-name="パス 1904" d="M7.526,33.674a.692.692,0,1,1-.7-.681.691.691,0,0,1,.7.681" transform="translate(3.213 17.264)" fill="#e09a00"/>
        <path id="パス_1905" data-name="パス 1905" d="M9.756,33.227a.692.692,0,1,1-.7-.681.691.691,0,0,1,.7.681" transform="translate(4.381 17.031)" fill="#e09a00"/>
      </g>
    </g>
    <g id="グループ_517" data-name="グループ 517" transform="translate(477 2256)">
      <g id="グループ_513-2" data-name="グループ 513" transform="translate(0 0)" clip-path="url(#clip-path)">
        <path id="パス_1850-2" data-name="パス 1850" d="M51.267,19.535c-4-3.769-3.7-7.562-6.964-8.648-.76-.253-2.637.213-3.461.218-.527,0-1.883-.134-2.5-.192-.81-.075-1.371,1.555-2.038,1.808-1.347.51-1.322.254-2.364,1.461-.436.5-1.6,1.136-2.2,1.764s-1.767,1.539-2.012,2.325c-.267.85.32,2.538.477,3.447.2,1.159-.009,1.922.248,3.045.134.583,1.479,1.456,1.551,2.05a5.271,5.271,0,0,0,.867,2.963,18.856,18.856,0,0,0,4.1,3.275c1.575.756,4.306-.283,10.587-1.389,6.879-1.213,12.87-3.068,13.283-4.227C61.225,26.355,54.28,22.373,51.267,19.535Z" transform="translate(-27.05 5.658)" fill="none" stroke="#fff" stroke-linecap="round" stroke-linejoin="round" stroke-width="3.435"/>
        <path id="パス_1851-2" data-name="パス 1851" d="M42.71,25.793c-4.814,2.651-8.38,2.1-10.416,4.873-.472.644-.6,2.574-.855,3.36-.158.5-.705,1.752-.947,2.317-.32.748,1.06,1.782,1.1,2.494.072,1.439-.163,1.339.666,2.7.344.568.59,1.872,1,2.631s.923,2.154,1.595,2.629c.728.513,2.515.474,3.429.6,1.164.165,1.826.6,2.975.7.6.05,1.84-.963,2.427-.845a5.292,5.292,0,0,0,3.086.082,18.891,18.891,0,0,0,4.373-2.893c1.2-1.269-.583-4.619.289-10.933.957-6.922.387-10.55-.591-11.3C49.931,21.515,46.336,23.8,42.71,25.793Z" transform="translate(-19.298 11.555)" fill="none" stroke="#fff" stroke-linecap="round" stroke-linejoin="round" stroke-width="3.435"/>
        <path id="パス_1852-2" data-name="パス 1852" d="M17.978,31.611c.949,5.412,2.579,11.664,3.243,12.154.423.312,1.427,1.234,1.886,1.647.6.545,2.027-.427,2.713-.228,1.385.4,1.213.586,2.769.245.649-.143,1.962.047,2.813-.1s2.337-.177,3-.658c.722-.522,1.263-2.226,1.682-3.048.533-1.048,1.156-1.534,1.622-2.59.242-.547-.314-2.052-.015-2.57a5.279,5.279,0,0,0,1.078-2.893A18.914,18.914,0,0,0,37.453,28.5c-.812-1.549-3.721-1.4-9.412-4.265C21.8,21.085,17.346,20.9,16.323,21.585,15.371,22.22,17.264,27.533,17.978,31.611Z" transform="translate(15.759 11.125)" fill="none" stroke="#fff" stroke-linecap="round" stroke-linejoin="round" stroke-width="3.435"/>
        <path id="パス_1853-2" data-name="パス 1853" d="M22.008,29.063c5.444.742,7.554,2.439,10.843,1.426.763-.235,2.021-1.706,2.689-2.187.428-.309,1.61-.986,2.143-1.3.7-.41.212-2.061.608-2.655.8-1.2.928-.976,1.075-2.562.061-.663.643-1.855.762-2.711s.544-2.279.286-3.06c-.277-.847-1.735-1.881-2.392-2.53-.835-.826-1.109-1.569-1.973-2.332-.448-.4-2.05-.326-2.451-.768a5.3,5.3,0,0,0-2.43-1.909,18.947,18.947,0,0,0-5.235-.285c-1.723.3-1.293,3.779-5.759,8.328C15.279,21.5,12.65,29.276,12.99,30.458,13.305,31.56,17.905,28.5,22.008,29.063Z" transform="translate(18.763 4.245)" fill="none" stroke="#fff" stroke-linecap="round" stroke-linejoin="round" stroke-width="3.435"/>
        <path id="パス_1854-2" data-name="パス 1854" d="M41.8,22.717c2.949-4.637,3.572-5.644,4.024-9.056.105-.792,1.249-1.567,1.089-2.375-.1-.516-.222-1.874-.282-2.488-.079-.81-1.785-1.054-2.158-1.66-.754-1.229-.5-1.254-1.88-2.049-.576-.334-1.417-1.357-2.145-1.825s-1.843-1.444-2.661-1.54c-.885-.1-2.433.794-3.3,1.117-1.1.416-1.889.355-2.943.82C31,3.9,30.4,5.388,29.829,5.568a5.308,5.308,0,0,0-2.748,1.409,18.9,18.9,0,0,0-2.446,4.638c-.445,1.692,2.155,3.468,4.424,9.426,2.484,6.529,7.29,10.753,8.506,10.939C38.7,32.152,39.583,26.211,41.8,22.717Z" transform="translate(-5.382 0.899)" fill="none" stroke="#fff" stroke-linecap="round" stroke-linejoin="round" stroke-width="3.435"/>
        <path id="パス_1855-2" data-name="パス 1855" d="M35.184,21.216c-.119-.236-3.543-6.776-3.507-6.514,0,0,1.383,6.7,1.216,6.585l-8.731-2.721c-.213-.148,7.584,3.938,7.731,4.152l-7.3.931c.082.119,7.575.583,7.444.643l-6.37,1.861c-.235.107,7.371-.573,7.371-.573L29.959,32.6l3.507-4.58c.183-.158-1.219,4.8-.859,4.8.4-.006,2.615-4.98,2.721-4.867l3.721,4.867c.189.2-2.3-4.841-2.433-5.082,0,0,3.446,1.362,3.65,1.5,2.484,1.724-2.576-3.15-2.576-3.15l7.657,2.935-6.728-4.224s6.785-2.44,6.514-2.433l-6.871,1.146c-.222.006,5.225-3.079,5.225-3.079-.428-.644-5.548,1.1-5.8,1.217L40.3,16.814c-.166.078-3.686,3.973-3.686,3.973a43.888,43.888,0,0,0-1.289-5.511Z" transform="translate(-3.145 7.69)" fill="none" stroke="#fff" stroke-linecap="round" stroke-linejoin="round" stroke-width="3.435"/>
        <path id="パス_1856-2" data-name="パス 1856" d="M36.369,10.7c-.529,3.557-1.176,10.541-9.009,14.806a25.405,25.405,0,0,1-6.14,2.737c-1.106.242-1.04-1.54-.337-2.012,1.468-.986,3.593-1.283,5.715-2.334,6.082-3.008,8.37-8.3,9.324-13.289C36.059,9.887,36.514,9.726,36.369,10.7Z" transform="translate(11.574 5.242)" fill="none" stroke="#fff" stroke-linecap="round" stroke-linejoin="round" stroke-width="3.435"/>
        <path id="パス_1857-2" data-name="パス 1857" d="M18.771,12.271a1.144,1.144,0,1,0,1.177-1.109A1.148,1.148,0,0,0,18.771,12.271Z" transform="translate(29.348 5.841)" fill="none" stroke="#fff" stroke-linecap="round" stroke-linejoin="round" stroke-width="3.435"/>
        <path id="パス_1858-2" data-name="パス 1858" d="M19.36,8.787A1.144,1.144,0,1,0,20.536,7.67,1.144,1.144,0,0,0,19.36,8.787Z" transform="translate(27.861 4.014)" fill="none" stroke="#fff" stroke-linecap="round" stroke-linejoin="round" stroke-width="3.435"/>
        <path id="パス_1859-2" data-name="パス 1859" d="M21.255,11.931a1.144,1.144,0,1,0,1.173-1.112A1.148,1.148,0,0,0,21.255,11.931Z" transform="translate(23.08 5.661)" fill="none" stroke="#fff" stroke-linecap="round" stroke-linejoin="round" stroke-width="3.435"/>
        <path id="パス_1860-2" data-name="パス 1860" d="M21.262,9.484A1.144,1.144,0,1,0,22.438,8.37,1.144,1.144,0,0,0,21.262,9.484Z" transform="translate(23.062 4.38)" fill="none" stroke="#fff" stroke-linecap="round" stroke-linejoin="round" stroke-width="3.435"/>
        <path id="パス_1861-2" data-name="パス 1861" d="M17.5,10.332a1.145,1.145,0,1,0,1.177-1.114A1.144,1.144,0,0,0,17.5,10.332Z" transform="translate(32.566 4.824)" fill="none" stroke="#fff" stroke-linecap="round" stroke-linejoin="round" stroke-width="3.435"/>
        <path id="パス_1862-2" data-name="パス 1862" d="M19.522,15.038a1.144,1.144,0,1,0,1.171-1.115A1.142,1.142,0,0,0,19.522,15.038Z" transform="translate(27.453 7.286)" fill="none" stroke="#fff" stroke-linecap="round" stroke-linejoin="round" stroke-width="3.435"/>
        <path id="パス_1863-2" data-name="パス 1863" d="M23.2,14.259a1.144,1.144,0,1,0,1.174-1.114A1.142,1.142,0,0,0,23.2,14.259Z" transform="translate(18.164 6.878)" fill="none" stroke="#fff" stroke-linecap="round" stroke-linejoin="round" stroke-width="3.435"/>
        <path id="パス_1864-2" data-name="パス 1864" d="M24.883,36.7c-2.419-2.279-2.239-4.573-4.212-5.229a9.728,9.728,0,0,0-2.093.131c-.318,0-1.139-.081-1.51-.114-.49-.046-.829.94-1.232,1.092-.815.309-.8.155-1.43.883-.262.3-.967.687-1.327,1.066s-1.068.931-1.217,1.406a5.992,5.992,0,0,0,.288,2.085c.122.7,0,1.161.151,1.84.082.353.9.88.937,1.24a3.214,3.214,0,0,0,.526,1.793,11.418,11.418,0,0,0,2.475,1.979c.955.459,2.606-.171,6.4-.839,4.16-.733,7.784-1.855,8.032-2.556C30.9,40.819,26.705,38.413,24.883,36.7Z" transform="translate(30.311 16.442)" fill="none" stroke="#fff" stroke-linecap="round" stroke-linejoin="round" stroke-width="3.435"/>
        <path id="パス_1865-2" data-name="パス 1865" d="M19.707,40.48c-2.911,1.6-5.068,1.269-6.3,2.946a9.724,9.724,0,0,0-.516,2.034c-.1.3-.427,1.057-.573,1.4-.193.452.641,1.077.663,1.508.043.871-.1.809.4,1.633.209.343.356,1.132.606,1.59a5.224,5.224,0,0,0,.966,1.589,5.973,5.973,0,0,0,2.073.366c.7.1,1.1.361,1.8.422.361.03,1.114-.582,1.468-.512a3.2,3.2,0,0,0,1.866.05,11.463,11.463,0,0,0,2.644-1.749c.728-.768-.353-2.794.175-6.613.579-4.184.233-6.379-.358-6.83C24.072,37.893,21.9,39.272,19.707,40.48Z" transform="translate(35.002 20.008)" fill="none" stroke="#fff" stroke-linecap="round" stroke-linejoin="round" stroke-width="3.435"/>
        <path id="パス_1866-2" data-name="パス 1866" d="M4.752,44c.576,3.272,1.56,7.053,1.962,7.35.256.189.862.746,1.139,1,.366.329,1.228-.259,1.641-.139.838.241.734.355,1.674.148.393-.087,1.187.029,1.7-.059a5.242,5.242,0,0,0,1.817-.4c.436-.315.763-1.345,1.016-1.842.323-.634.7-.929.981-1.566.146-.331-.19-1.241-.009-1.554a3.2,3.2,0,0,0,.652-1.75,11.374,11.374,0,0,0-.8-3.068c-.49-.937-2.25-.844-5.691-2.579-3.772-1.9-6.466-2.015-7.085-1.6C3.175,38.318,4.32,41.531,4.752,44Z" transform="translate(56.199 19.747)" fill="none" stroke="#fff" stroke-linecap="round" stroke-linejoin="round" stroke-width="3.435"/>
        <path id="パス_1867-2" data-name="パス 1867" d="M7.189,42.457c3.292.449,4.568,1.475,6.556.862.462-.142,1.222-1.031,1.627-1.324.257-.186.973-.6,1.295-.783.425-.247.128-1.246.367-1.606.484-.724.562-.59.65-1.549.038-.4.39-1.121.462-1.639a5.233,5.233,0,0,0,.174-1.851c-.169-.513-1.05-1.138-1.447-1.531-.5-.5-.67-.947-1.193-1.411-.271-.239-1.24-.2-1.482-.463a3.209,3.209,0,0,0-1.468-1.155,11.475,11.475,0,0,0-3.165-.172c-1.042.183-.783,2.285-3.484,5.036C3.12,37.887,1.53,42.587,1.736,43.3,1.928,43.967,4.709,42.119,7.189,42.457Z" transform="translate(58.015 15.587)" fill="none" stroke="#fff" stroke-linecap="round" stroke-linejoin="round" stroke-width="3.435"/>
        <path id="パス_1868-2" data-name="パス 1868" d="M19.159,38.62c1.782-2.8,2.16-3.414,2.434-5.476.064-.478.754-.947.658-1.436-.061-.312-.134-1.133-.171-1.5-.047-.49-1.078-.637-1.305-1.005-.455-.742-.3-.757-1.136-1.238-.349-.2-.856-.821-1.3-1.1a5.217,5.217,0,0,0-1.61-.931,6,6,0,0,0-1.994.675c-.664.251-1.141.215-1.779.5-.332.146-.7,1.045-1.042,1.153a3.2,3.2,0,0,0-1.66.853,11.436,11.436,0,0,0-1.479,2.8c-.27,1.022,1.3,2.1,2.673,5.7,1.5,3.948,4.408,6.5,5.144,6.616C17.28,44.325,17.815,40.733,19.159,38.62Z" transform="translate(43.416 13.564)" fill="none" stroke="#fff" stroke-linecap="round" stroke-linejoin="round" stroke-width="3.435"/>
        <path id="パス_1869-2" data-name="パス 1869" d="M14.893,37.713c-.072-.143-2.142-4.1-2.12-3.939,0,0,.836,4.053.736,3.982L9.981,36.739c-.128-.09,2.833,1.752,2.922,1.883l-4.414.562c.049.073,4.58.353,4.5.39L9.137,40.7c-.142.065,4.459-.346,4.459-.346l-1.861,4.242,2.12-2.771c.111-.1-.737,2.9-.519,2.9.244,0,1.581-3.012,1.645-2.943l2.25,2.943c.114.122-1.389-2.928-1.471-3.072,0,0,2.084.823,2.207.908,1.5,1.043-1.558-1.9-1.558-1.9L21.04,42.43l-4.069-2.553s4.1-1.478,3.938-1.471l-4.154.692c-.136,0,3.159-1.861,3.159-1.861-.26-.388-3.356.666-3.507.736l1.58-2.92c-.1.047-2.229,2.4-2.229,2.4a26.382,26.382,0,0,0-.778-3.333Z" transform="translate(45.031 17.671)" fill="none" stroke="#fff" stroke-linecap="round" stroke-linejoin="round" stroke-width="3.435"/>
        <path id="パス_1870-2" data-name="パス 1870" d="M16.249,31.042c-.3,2.154-.643,6.381-5.35,9.012a15.355,15.355,0,0,1-3.7,1.7c-.667.154-.64-.923-.216-1.214.882-.606,2.165-.8,3.441-1.449,3.657-1.86,5.007-5.072,5.549-8.1C16.055,30.554,16.33,30.454,16.249,31.042Z" transform="translate(52.556 16.029)" fill="none" stroke="#fff" stroke-linecap="round" stroke-linejoin="round" stroke-width="3.435"/>
        <path id="パス_1871-2" data-name="パス 1871" d="M5.706,32a.692.692,0,1,0,.705-.679A.694.694,0,0,0,5.706,32Z" transform="translate(63.219 16.388)" fill="none" stroke="#fff" stroke-linecap="round" stroke-linejoin="round" stroke-width="3.435"/>
        <path id="パス_1872-2" data-name="パス 1872" d="M6.085,29.892a.692.692,0,1,0,.7-.682A.692.692,0,0,0,6.085,29.892Z" transform="translate(62.263 15.285)" fill="none" stroke="#fff" stroke-linecap="round" stroke-linejoin="round" stroke-width="3.435"/>
        <path id="パス_1873-2" data-name="パス 1873" d="M7.211,31.806a.692.692,0,1,0,.7-.679A.7.7,0,0,0,7.211,31.806Z" transform="translate(59.422 16.288)" fill="none" stroke="#fff" stroke-linecap="round" stroke-linejoin="round" stroke-width="3.435"/>
        <path id="パス_1874-2" data-name="パス 1874" d="M7.231,30.327a.692.692,0,1,0,.705-.681A.693.693,0,0,0,7.231,30.327Z" transform="translate(59.371 15.513)" fill="none" stroke="#fff" stroke-linecap="round" stroke-linejoin="round" stroke-width="3.435"/>
        <path id="パス_1875-2" data-name="パス 1875" d="M4.947,30.815a.692.692,0,1,0,.705-.681A.69.69,0,0,0,4.947,30.815Z" transform="translate(65.133 15.768)" fill="none" stroke="#fff" stroke-linecap="round" stroke-linejoin="round" stroke-width="3.435"/>
        <path id="パス_1876-2" data-name="パス 1876" d="M6.141,33.674a.692.692,0,1,0,.7-.681A.691.691,0,0,0,6.141,33.674Z" transform="translate(62.12 17.265)" fill="none" stroke="#fff" stroke-linecap="round" stroke-linejoin="round" stroke-width="3.435"/>
        <path id="パス_1877-2" data-name="パス 1877" d="M8.373,33.227a.692.692,0,1,0,.7-.681A.691.691,0,0,0,8.373,33.227Z" transform="translate(56.49 17.031)" fill="none" stroke="#fff" stroke-linecap="round" stroke-linejoin="round" stroke-width="3.435"/>
        <path id="パス_1878-2" data-name="パス 1878" d="M51.267,19.535c-4-3.769-3.7-7.562-6.964-8.648-.76-.253-2.637.213-3.461.218-.527,0-1.883-.134-2.5-.192-.81-.075-1.371,1.555-2.038,1.808-1.347.51-1.322.254-2.364,1.461-.436.5-1.6,1.136-2.2,1.764s-1.767,1.539-2.012,2.325c-.267.85.32,2.538.477,3.447.2,1.159-.009,1.922.248,3.045.134.583,1.479,1.456,1.551,2.05a5.271,5.271,0,0,0,.867,2.963,18.856,18.856,0,0,0,4.1,3.275c1.575.756,4.306-.283,10.587-1.389,6.879-1.213,12.87-3.068,13.283-4.227.381-1.08-6.564-5.062-9.577-7.9" transform="translate(-27.05 5.658)" fill="#eb1c24"/>
        <path id="パス_1879-2" data-name="パス 1879" d="M42.71,25.793c-4.814,2.651-8.38,2.1-10.416,4.873-.472.644-.6,2.574-.855,3.36-.158.5-.705,1.752-.947,2.317-.32.748,1.06,1.782,1.1,2.494.072,1.439-.163,1.339.666,2.7.344.568.59,1.872,1,2.631s.923,2.154,1.595,2.629c.728.513,2.515.474,3.429.6,1.164.165,1.826.6,2.975.7.6.05,1.84-.963,2.427-.845a5.292,5.292,0,0,0,3.086.082,18.891,18.891,0,0,0,4.373-2.893c1.2-1.269-.583-4.619.289-10.933.957-6.922.387-10.55-.591-11.3-.909-.695-4.5,1.586-8.13,3.583" transform="translate(-19.298 11.555)" fill="#eb1c24"/>
        <path id="パス_1880-2" data-name="パス 1880" d="M17.978,31.611c.949,5.412,2.579,11.664,3.243,12.154.423.312,1.427,1.234,1.886,1.647.6.545,2.027-.427,2.713-.228,1.385.4,1.213.586,2.769.245.649-.143,1.962.047,2.813-.1s2.337-.177,3-.658c.722-.522,1.263-2.226,1.682-3.048.533-1.048,1.156-1.534,1.622-2.59.242-.547-.314-2.052-.015-2.57a5.279,5.279,0,0,0,1.078-2.893A18.914,18.914,0,0,0,37.453,28.5c-.812-1.549-3.721-1.4-9.412-4.265C21.8,21.085,17.346,20.9,16.323,21.585c-.952.635.941,5.948,1.656,10.026" transform="translate(15.759 11.125)" fill="#eb1c24"/>
        <path id="パス_1881-2" data-name="パス 1881" d="M22.008,29.063c5.444.742,7.554,2.439,10.843,1.426.763-.235,2.021-1.706,2.689-2.187.428-.309,1.61-.986,2.143-1.3.7-.41.212-2.061.608-2.655.8-1.2.928-.976,1.075-2.562.061-.663.643-1.855.762-2.711s.544-2.279.286-3.06c-.277-.847-1.735-1.881-2.392-2.53-.835-.826-1.109-1.569-1.973-2.332-.448-.4-2.05-.326-2.451-.768a5.3,5.3,0,0,0-2.43-1.909,18.947,18.947,0,0,0-5.235-.285c-1.723.3-1.293,3.779-5.759,8.328C15.279,21.5,12.65,29.276,12.99,30.458c.315,1.1,4.916-1.954,9.018-1.4" transform="translate(18.763 4.245)" fill="#eb1c24"/>
        <path id="パス_1882-2" data-name="パス 1882" d="M41.8,22.717c2.949-4.637,3.572-5.644,4.024-9.056.105-.792,1.249-1.567,1.089-2.375-.1-.516-.222-1.874-.282-2.488-.079-.81-1.785-1.054-2.158-1.66-.754-1.229-.5-1.254-1.88-2.049-.576-.334-1.417-1.357-2.145-1.825s-1.843-1.444-2.661-1.54c-.885-.1-2.433.794-3.3,1.117-1.1.416-1.889.355-2.943.82C31,3.9,30.4,5.388,29.829,5.568a5.308,5.308,0,0,0-2.748,1.409,18.9,18.9,0,0,0-2.446,4.638c-.445,1.692,2.155,3.468,4.424,9.426,2.484,6.529,7.29,10.753,8.506,10.939,1.133.172,2.018-5.769,4.239-9.263" transform="translate(-5.382 0.899)" fill="#eb1c24"/>
        <path id="パス_1883-2" data-name="パス 1883" d="M35.184,21.216c-.119-.236-3.543-6.776-3.507-6.514,0,0,1.383,6.7,1.216,6.585l-8.731-2.721c-.213-.148,7.584,3.938,7.731,4.152l-7.3.931c.082.119,7.575.583,7.444.643l-6.37,1.861c-.235.107,7.371-.573,7.371-.573L29.959,32.6l3.507-4.58c.183-.158-1.219,4.8-.859,4.8.4-.006,2.615-4.98,2.721-4.867l3.721,4.867c.189.2-2.3-4.841-2.433-5.082,0,0,3.446,1.362,3.65,1.5,2.484,1.724-2.576-3.15-2.576-3.15l7.657,2.935-6.728-4.224s6.785-2.44,6.514-2.433l-6.871,1.146c-.222.006,5.225-3.079,5.225-3.079-.428-.644-5.548,1.1-5.8,1.217L40.3,16.814c-.166.078-3.686,3.973-3.686,3.973a43.888,43.888,0,0,0-1.289-5.511Z" transform="translate(-3.145 7.69)" fill="#992e04"/>
        <path id="パス_1884-2" data-name="パス 1884" d="M36.369,10.7c-.529,3.557-1.176,10.541-9.009,14.806a25.405,25.405,0,0,1-6.14,2.737c-1.106.242-1.04-1.54-.337-2.012,1.468-.986,3.593-1.283,5.715-2.334,6.082-3.008,8.37-8.3,9.324-13.289.136-.717.591-.879.446.091" transform="translate(11.574 5.242)" fill="#ffd200"/>
        <path id="パス_1885-2" data-name="パス 1885" d="M18.771,12.271a1.144,1.144,0,1,0,1.177-1.109,1.148,1.148,0,0,0-1.177,1.109" transform="translate(29.348 5.841)" fill="#ffd200"/>
        <path id="パス_1886-2" data-name="パス 1886" d="M19.36,8.787A1.144,1.144,0,1,0,20.536,7.67,1.144,1.144,0,0,0,19.36,8.787" transform="translate(27.861 4.014)" fill="#ffd200"/>
        <path id="パス_1887-2" data-name="パス 1887" d="M21.255,11.931a1.144,1.144,0,1,0,1.173-1.112,1.148,1.148,0,0,0-1.173,1.112" transform="translate(23.08 5.661)" fill="#ffd200"/>
        <path id="パス_1888-2" data-name="パス 1888" d="M21.262,9.484A1.144,1.144,0,1,0,22.438,8.37a1.144,1.144,0,0,0-1.176,1.114" transform="translate(23.062 4.38)" fill="#ffd200"/>
        <path id="パス_1889-2" data-name="パス 1889" d="M17.5,10.332a1.145,1.145,0,1,0,1.177-1.114A1.144,1.144,0,0,0,17.5,10.332" transform="translate(32.566 4.824)" fill="#ffd200"/>
        <path id="パス_1890-2" data-name="パス 1890" d="M19.522,15.038a1.144,1.144,0,1,0,1.171-1.115,1.142,1.142,0,0,0-1.171,1.115" transform="translate(27.453 7.286)" fill="#ffd200"/>
        <path id="パス_1891-2" data-name="パス 1891" d="M23.2,14.259a1.144,1.144,0,1,0,1.174-1.114A1.142,1.142,0,0,0,23.2,14.259" transform="translate(18.164 6.878)" fill="#ffd200"/>
        <path id="パス_1892-2" data-name="パス 1892" d="M24.883,36.7c-2.419-2.279-2.239-4.573-4.212-5.229a9.728,9.728,0,0,0-2.093.131c-.318,0-1.139-.081-1.51-.114-.49-.046-.829.94-1.232,1.092-.815.309-.8.155-1.43.883-.262.3-.967.687-1.327,1.066s-1.068.931-1.217,1.406a5.992,5.992,0,0,0,.288,2.085c.122.7,0,1.161.151,1.84.082.353.9.88.937,1.24a3.214,3.214,0,0,0,.526,1.793,11.418,11.418,0,0,0,2.475,1.979c.955.459,2.606-.171,6.4-.839,4.16-.733,7.784-1.855,8.032-2.556.232-.653-3.968-3.06-5.79-4.777" transform="translate(30.311 16.442)" fill="#ffcd06"/>
        <path id="パス_1893-2" data-name="パス 1893" d="M19.707,40.48c-2.911,1.6-5.068,1.269-6.3,2.946a9.724,9.724,0,0,0-.516,2.034c-.1.3-.427,1.057-.573,1.4-.193.452.641,1.077.663,1.508.043.871-.1.809.4,1.633.209.343.356,1.132.606,1.59a5.224,5.224,0,0,0,.966,1.589,5.973,5.973,0,0,0,2.073.366c.7.1,1.1.361,1.8.422.361.03,1.114-.582,1.468-.512a3.2,3.2,0,0,0,1.866.05,11.463,11.463,0,0,0,2.644-1.749c.728-.768-.353-2.794.175-6.613.579-4.184.233-6.379-.358-6.83-.55-.42-2.724.958-4.916,2.166" transform="translate(35.002 20.008)" fill="#ffcd06"/>
        <path id="パス_1894-2" data-name="パス 1894" d="M4.752,44c.576,3.272,1.56,7.053,1.962,7.35.256.189.862.746,1.139,1,.366.329,1.228-.259,1.641-.139.838.241.734.355,1.674.148.393-.087,1.187.029,1.7-.059a5.242,5.242,0,0,0,1.817-.4c.436-.315.763-1.345,1.016-1.842.323-.634.7-.929.981-1.566.146-.331-.19-1.241-.009-1.554a3.2,3.2,0,0,0,.652-1.75,11.374,11.374,0,0,0-.8-3.068c-.49-.937-2.25-.844-5.691-2.579-3.772-1.9-6.466-2.015-7.085-1.6-.577.384.568,3.6,1,6.063" transform="translate(56.199 19.747)" fill="#ffcd06"/>
        <path id="パス_1895-2" data-name="パス 1895" d="M7.189,42.457c3.292.449,4.568,1.475,6.556.862.462-.142,1.222-1.031,1.627-1.324.257-.186.973-.6,1.295-.783.425-.247.128-1.246.367-1.606.484-.724.562-.59.65-1.549.038-.4.39-1.121.462-1.639a5.233,5.233,0,0,0,.174-1.851c-.169-.513-1.05-1.138-1.447-1.531-.5-.5-.67-.947-1.193-1.411-.271-.239-1.24-.2-1.482-.463a3.209,3.209,0,0,0-1.468-1.155,11.475,11.475,0,0,0-3.165-.172c-1.042.183-.783,2.285-3.484,5.036C3.12,37.887,1.53,42.587,1.736,43.3c.192.666,2.973-1.182,5.453-.844" transform="translate(58.015 15.587)" fill="#ffcd06"/>
        <path id="パス_1896-2" data-name="パス 1896" d="M19.159,38.62c1.782-2.8,2.16-3.414,2.434-5.476.064-.478.754-.947.658-1.436-.061-.312-.134-1.133-.171-1.5-.047-.49-1.078-.637-1.305-1.005-.455-.742-.3-.757-1.136-1.238-.349-.2-.856-.821-1.3-1.1a5.217,5.217,0,0,0-1.61-.931,6,6,0,0,0-1.994.675c-.664.251-1.141.215-1.779.5-.332.146-.7,1.045-1.042,1.153a3.2,3.2,0,0,0-1.66.853,11.436,11.436,0,0,0-1.479,2.8c-.27,1.022,1.3,2.1,2.673,5.7,1.5,3.948,4.408,6.5,5.144,6.616.685.1,1.22-3.488,2.564-5.6" transform="translate(43.416 13.564)" fill="#ffcd06"/>
        <path id="パス_1897-2" data-name="パス 1897" d="M14.893,37.713c-.072-.143-2.142-4.1-2.12-3.939,0,0,.836,4.053.736,3.982L9.981,36.739c-.128-.09,2.833,1.752,2.922,1.883l-4.414.562c.049.073,4.58.353,4.5.39L9.137,40.7c-.142.065,4.459-.346,4.459-.346l-1.861,4.242,2.12-2.771c.111-.1-.737,2.9-.519,2.9.244,0,1.581-3.012,1.645-2.943l2.25,2.943c.114.122-1.389-2.928-1.471-3.072,0,0,2.084.823,2.207.908,1.5,1.043-1.558-1.9-1.558-1.9L21.04,42.43l-4.069-2.553s4.1-1.478,3.938-1.471l-4.154.692c-.136,0,3.159-1.861,3.159-1.861-.26-.388-3.356.666-3.507.736l1.58-2.92c-.1.047-2.229,2.4-2.229,2.4a26.382,26.382,0,0,0-.778-3.333Z" transform="translate(45.031 17.671)" fill="#c48200"/>
        <path id="パス_1898-2" data-name="パス 1898" d="M16.249,31.042c-.3,2.154-.643,6.381-5.35,9.012a15.355,15.355,0,0,1-3.7,1.7c-.667.154-.64-.923-.216-1.214.882-.606,2.165-.8,3.441-1.449,3.657-1.86,5.007-5.072,5.549-8.1.078-.434.352-.535.271.053" transform="translate(52.556 16.029)" fill="#e09a00"/>
        <path id="パス_1899-2" data-name="パス 1899" d="M5.706,32a.692.692,0,1,0,.705-.679A.694.694,0,0,0,5.706,32" transform="translate(63.219 16.388)" fill="#e09a00"/>
        <path id="パス_1900-2" data-name="パス 1900" d="M6.085,29.892a.692.692,0,1,0,.7-.682.692.692,0,0,0-.7.682" transform="translate(62.263 15.285)" fill="#e09a00"/>
        <path id="パス_1901-2" data-name="パス 1901" d="M7.211,31.806a.692.692,0,1,0,.7-.679.7.7,0,0,0-.7.679" transform="translate(59.422 16.288)" fill="#e09a00"/>
        <path id="パス_1902-2" data-name="パス 1902" d="M7.231,30.327a.692.692,0,1,0,.705-.681.693.693,0,0,0-.705.681" transform="translate(59.371 15.513)" fill="#e09a00"/>
        <path id="パス_1903-2" data-name="パス 1903" d="M4.947,30.815a.692.692,0,1,0,.705-.681.69.69,0,0,0-.705.681" transform="translate(65.133 15.768)" fill="#e09a00"/>
        <path id="パス_1904-2" data-name="パス 1904" d="M6.141,33.674a.692.692,0,1,0,.7-.681.691.691,0,0,0-.7.681" transform="translate(62.12 17.265)" fill="#e09a00"/>
        <path id="パス_1905-2" data-name="パス 1905" d="M8.373,33.227a.692.692,0,1,0,.7-.681.691.691,0,0,0-.7.681" transform="translate(56.49 17.031)" fill="#e09a00"/>
      </g>
    </g>
  </g>
</svg>
