<svg xmlns="http://www.w3.org/2000/svg" xmlns:xlink="http://www.w3.org/1999/xlink" width="543.217" height="188.441" viewBox="0 0 543.217 188.441">
  <defs>
    <clipPath id="clip-path">
      <rect id="長方形_999" data-name="長方形 999" width="248.352" height="188.017" fill="none"/>
    </clipPath>
    <clipPath id="clip-path-2">
      <rect id="長方形_1000" data-name="長方形 1000" width="245.868" height="188.441" fill="none"/>
    </clipPath>
  </defs>
  <g id="グループ_561" data-name="グループ 561" transform="translate(-456.783 -5168)">
    <g id="グループ_527" data-name="グループ 527" transform="translate(751.648 5168)">
      <g id="グループ_526" data-name="グループ 526" transform="translate(0 0)" clip-path="url(#clip-path)">
        <path id="パス_1907" data-name="パス 1907" d="M139.876,105.707c-7.757,15.114-33.49,14.3-39.7-3.813-7.641-22.286,12.747-38,21.488-34.822,0,0,9.219-21.682.277-33.349,0,0,39.226,30.487,17.931,71.985" transform="translate(102.14 34.968)" fill="#ea6600"/>
        <path id="パス_1908" data-name="パス 1908" d="M134.489,82.3c3.994-17.921-5.791-38.849-6.243-39.8a2.384,2.384,0,0,0-4.306,2.045c.112.236,11.1,23.794,4.742,40.6-3.3,8.72-10.065,12.193-15.047,11.118-4.889-1.055-7.533-6.084-7.062-13.454.369-5.832,3.141-10.077,7.41-11.356,2.558-.768,5.109-.179,6.347,1.463,1.636,2.167.968,5.9-1.819,10.25a2.383,2.383,0,1,0,4.011,2.575c1.858-2.9,5.738-10.224,1.619-15.693-2.473-3.28-6.995-4.52-11.529-3.163-7.37,2.21-10.411,9.521-10.8,15.624-.743,11.7,5.1,17.184,10.816,18.416,9.213,1.988,17.292-5.583,20.512-14.09a33.369,33.369,0,0,0,1.346-4.528" transform="translate(105.511 42.657)" fill="#e3ca80"/>
        <path id="パス_1909" data-name="パス 1909" d="M101.533,40.127c31.335,30.345,52.961,32.909,72.029,56.479s10.93,64.535,10.93,64.535H99.654c-8.293,0-11.169-14.833,5.526-14.833h15.226s-40.377-6.064-46.227-8.889c0,0-10.368,23.723-19.2,23.723H27.309c-7.015,0-9.028-12.324,1.8-12.324S49.06,134,49.06,134s-21.292-66.334-10.2-95.528,62.667,1.65,62.667,1.65" transform="translate(22.313 26.875)" fill="#e8a835"/>
        <path id="パス_1910" data-name="パス 1910" d="M85.822,13.108a16.557,16.557,0,0,1,11.6,4.732c-6.082-1.065-10.132.251-12.686,1.888a14.08,14.08,0,0,0-6.2,11.794,9.041,9.041,0,0,0,5.887,8.832,9.294,9.294,0,0,0,3.273.611,6.839,6.839,0,0,0,5.194-2.141c1.972-2.237,2.677-4.85,1.933-7.168-.8-2.485-3.194-4.308-6.753-5.131a1.242,1.242,0,1,0-.56,2.42c2.67.619,4.426,1.852,4.946,3.469a5.024,5.024,0,0,1-1.43,4.767c-1.173,1.332-3.528,1.68-5.726.849a6.548,6.548,0,0,1-4.28-6.508,11.578,11.578,0,0,1,5.06-9.7c2.532-1.621,6.854-2.842,13.851-.86a16.606,16.606,0,1,1-14.11-7.853" transform="translate(71.774 13.592)" fill="#e3ca80"/>
        <path id="パス_1911" data-name="パス 1911" d="M81.336,19.607a11.578,11.578,0,0,0-5.06,9.7,6.551,6.551,0,0,0,4.28,6.508c2.2.831,4.553.483,5.726-.849a5.024,5.024,0,0,0,1.43-4.767c-.519-1.617-2.275-2.85-4.946-3.469a1.242,1.242,0,1,1,.56-2.42c3.559.823,5.956,2.646,6.753,5.131.743,2.32.039,4.932-1.933,7.168a6.834,6.834,0,0,1-5.194,2.143,9.3,9.3,0,0,1-3.273-.613,9.044,9.044,0,0,1-5.887-8.832A14.08,14.08,0,0,1,80,17.515c2.554-1.638,6.6-2.954,12.686-1.888a16.625,16.625,0,0,1,2.505,3.121c-7-1.98-11.319-.762-13.851.86" transform="translate(76.519 15.805)" fill="#ea6600"/>
        <path id="パス_1912" data-name="パス 1912" d="M76.484,39.637a16.553,16.553,0,0,1,11.6,4.732c-6.082-1.065-10.132.251-12.686,1.888a14.08,14.08,0,0,0-6.2,11.794,9.041,9.041,0,0,0,5.887,8.832,9.294,9.294,0,0,0,3.273.611,6.839,6.839,0,0,0,5.194-2.141c1.972-2.237,2.677-4.85,1.933-7.168-.8-2.485-3.194-4.308-6.753-5.131a1.242,1.242,0,1,0-.56,2.42c2.67.619,4.426,1.852,4.946,3.469a5.024,5.024,0,0,1-1.43,4.767c-1.173,1.332-3.528,1.681-5.726.849a6.548,6.548,0,0,1-4.28-6.508,11.578,11.578,0,0,1,5.06-9.7c2.532-1.621,6.854-2.84,13.851-.86a16.606,16.606,0,1,1-14.11-7.853" transform="translate(62.091 41.102)" fill="#e3ca80"/>
        <path id="パス_1913" data-name="パス 1913" d="M72,46.136a11.578,11.578,0,0,0-5.06,9.7,6.551,6.551,0,0,0,4.28,6.508c2.2.831,4.553.483,5.726-.849a5.024,5.024,0,0,0,1.43-4.767c-.519-1.617-2.275-2.85-4.946-3.469a1.242,1.242,0,1,1,.56-2.42c3.559.823,5.956,2.646,6.753,5.131.743,2.318.039,4.932-1.933,7.168a6.834,6.834,0,0,1-5.194,2.143,9.3,9.3,0,0,1-3.273-.613,9.044,9.044,0,0,1-5.887-8.832,14.08,14.08,0,0,1,6.2-11.794c2.554-1.638,6.6-2.954,12.686-1.888a16.625,16.625,0,0,1,2.505,3.121c-7-1.98-11.319-.762-13.851.86" transform="translate(66.836 43.315)" fill="#ea6600"/>
        <path id="パス_1914" data-name="パス 1914" d="M77.444,56.642a14.834,14.834,0,0,1-6.846-8.9c4.227,3.571,7.956,4.379,10.672,4.267A12.621,12.621,0,0,0,91.4,45.679a8.1,8.1,0,0,0-.568-9.494,8.337,8.337,0,0,0-2.257-1.951,6.13,6.13,0,0,0-4.989-.686,6.645,6.645,0,0,0-4.732,4.675c-.505,2.283.528,4.777,2.909,7.019a1.113,1.113,0,1,0,1.528-1.619C81.5,41.937,80.7,40.189,81.025,38.7a4.506,4.506,0,0,1,3.259-3.045c1.509-.5,3.489.293,4.815,1.929a5.865,5.865,0,0,1,.373,6.968,10.366,10.366,0,0,1-8.295,5.225c-2.693.114-6.59-.9-11.11-5.587a14.88,14.88,0,1,1,7.376,12.448" transform="translate(72.652 29.974)" fill="#ea6600"/>
        <path id="パス_1915" data-name="パス 1915" d="M81.175,47.553a10.369,10.369,0,0,0,8.3-5.225,5.871,5.871,0,0,0-.375-6.971c-1.326-1.634-3.3-2.428-4.813-1.927a4.507,4.507,0,0,0-3.261,3.043c-.328,1.487.475,3.233,2.263,4.917a1.114,1.114,0,1,1-1.528,1.621c-2.381-2.243-3.414-4.736-2.909-7.019a6.657,6.657,0,0,1,4.734-4.677,6.118,6.118,0,0,1,4.987.688,8.337,8.337,0,0,1,2.257,1.951,8.1,8.1,0,0,1,.568,9.494,12.623,12.623,0,0,1-10.126,6.327c-2.717.114-6.447-.7-10.672-4.265a14.991,14.991,0,0,1-.532-3.546c4.522,4.691,8.417,5.7,11.11,5.587" transform="translate(72.655 32.202)" fill="#e3ca80"/>
        <path id="パス_1916" data-name="パス 1916" d="M57.224,73.744a14.841,14.841,0,0,1-6.846-8.9c4.227,3.571,7.956,4.379,10.672,4.267a12.625,12.625,0,0,0,10.128-6.329,8.1,8.1,0,0,0-.568-9.494,8.336,8.336,0,0,0-2.257-1.951,6.126,6.126,0,0,0-4.987-.686,6.644,6.644,0,0,0-4.734,4.675c-.505,2.283.528,4.777,2.909,7.019a1.113,1.113,0,1,0,1.528-1.619c-1.788-1.685-2.591-3.432-2.263-4.917a4.506,4.506,0,0,1,3.259-3.045c1.509-.5,3.489.293,4.815,1.929a5.865,5.865,0,0,1,.373,6.968,10.366,10.366,0,0,1-8.295,5.225c-2.693.112-6.59-.9-11.11-5.587a14.88,14.88,0,1,1,7.376,12.448" transform="translate(51.685 47.708)" fill="#ea6600"/>
        <path id="パス_1917" data-name="パス 1917" d="M60.955,64.655a10.369,10.369,0,0,0,8.3-5.225,5.871,5.871,0,0,0-.375-6.971c-1.326-1.634-3.306-2.428-4.813-1.927A4.507,4.507,0,0,0,60.8,53.576c-.328,1.487.475,3.233,2.263,4.917a1.114,1.114,0,1,1-1.528,1.621c-2.381-2.243-3.414-4.736-2.909-7.019a6.657,6.657,0,0,1,4.734-4.677,6.118,6.118,0,0,1,4.986.689,8.337,8.337,0,0,1,2.257,1.951,8.1,8.1,0,0,1,.568,9.494A12.623,12.623,0,0,1,61.048,66.88c-2.717.114-6.447-.7-10.672-4.265a14.991,14.991,0,0,1-.532-3.546c4.522,4.691,8.417,5.7,11.11,5.587" transform="translate(51.688 49.936)" fill="#e3ca80"/>
        <path id="パス_1918" data-name="パス 1918" d="M19.9,13.108A16.557,16.557,0,0,0,8.3,17.84c6.082-1.065,10.132.251,12.686,1.888a14.08,14.08,0,0,1,6.2,11.794A9.041,9.041,0,0,1,21.3,40.355a9.294,9.294,0,0,1-3.273.611,6.832,6.832,0,0,1-5.192-2.141c-1.974-2.237-2.679-4.85-1.935-7.168.8-2.485,3.2-4.308,6.753-5.131a1.242,1.242,0,1,1,.56,2.42c-2.67.619-4.426,1.852-4.946,3.469a5.024,5.024,0,0,0,1.43,4.767c1.173,1.332,3.528,1.68,5.726.849a6.548,6.548,0,0,0,4.28-6.508,11.578,11.578,0,0,0-5.06-9.7c-2.532-1.621-6.854-2.842-13.851-.86A16.606,16.606,0,1,0,19.9,13.108" transform="translate(3.416 13.592)" fill="#e3ca80"/>
        <path id="パス_1919" data-name="パス 1919" d="M18.371,19.607a11.578,11.578,0,0,1,5.06,9.7,6.551,6.551,0,0,1-4.28,6.508c-2.2.831-4.553.483-5.726-.849A5.024,5.024,0,0,1,12,30.2c.519-1.617,2.275-2.85,4.946-3.469a1.242,1.242,0,1,0-.56-2.42c-3.559.823-5.956,2.646-6.753,5.131-.743,2.32-.039,4.932,1.933,7.168a6.834,6.834,0,0,0,5.194,2.143,9.3,9.3,0,0,0,3.273-.613,9.044,9.044,0,0,0,5.887-8.832,14.08,14.08,0,0,0-6.2-11.794c-2.554-1.638-6.6-2.954-12.686-1.888A16.626,16.626,0,0,0,4.52,18.747c7-1.98,11.319-.762,13.851.86" transform="translate(4.687 15.805)" fill="#ea6600"/>
        <path id="パス_1920" data-name="パス 1920" d="M29.238,39.637a16.557,16.557,0,0,0-11.6,4.732c6.082-1.065,10.132.251,12.686,1.888a14.08,14.08,0,0,1,6.2,11.794,9.041,9.041,0,0,1-5.887,8.832,9.294,9.294,0,0,1-3.273.611,6.832,6.832,0,0,1-5.194-2.141c-1.972-2.237-2.677-4.85-1.933-7.168.8-2.485,3.194-4.308,6.753-5.131a1.242,1.242,0,1,1,.56,2.42c-2.67.619-4.426,1.852-4.946,3.469a5.024,5.024,0,0,0,1.43,4.767c1.173,1.332,3.528,1.681,5.726.849a6.548,6.548,0,0,0,4.28-6.508,11.578,11.578,0,0,0-5.06-9.7c-2.532-1.621-6.854-2.84-13.851-.86a16.606,16.606,0,1,0,14.11-7.853" transform="translate(13.098 41.102)" fill="#e3ca80"/>
        <path id="パス_1921" data-name="パス 1921" d="M27.708,46.136a11.578,11.578,0,0,1,5.06,9.7,6.551,6.551,0,0,1-4.28,6.508c-2.2.831-4.553.483-5.726-.849a5.024,5.024,0,0,1-1.43-4.767c.519-1.617,2.275-2.85,4.946-3.469a1.242,1.242,0,1,0-.56-2.42c-3.559.823-5.956,2.646-6.753,5.131-.743,2.318-.039,4.932,1.933,7.168a6.834,6.834,0,0,0,5.194,2.143,9.3,9.3,0,0,0,3.273-.613,9.044,9.044,0,0,0,5.887-8.832,14.08,14.08,0,0,0-6.2-11.794c-2.554-1.638-6.6-2.954-12.686-1.888a16.626,16.626,0,0,0-2.505,3.121c7-1.98,11.319-.762,13.851.86" transform="translate(14.369 43.315)" fill="#ea6600"/>
        <path id="パス_1922" data-name="パス 1922" d="M26.521,56.642a14.834,14.834,0,0,0,6.846-8.9c-4.227,3.571-7.956,4.379-10.672,4.267a12.621,12.621,0,0,1-10.128-6.329,8.1,8.1,0,0,1,.568-9.494,8.337,8.337,0,0,1,2.257-1.951,6.13,6.13,0,0,1,4.989-.686,6.645,6.645,0,0,1,4.732,4.675c.505,2.283-.528,4.777-2.909,7.019a1.113,1.113,0,1,1-1.528-1.619c1.788-1.685,2.591-3.432,2.263-4.917a4.506,4.506,0,0,0-3.259-3.045c-1.509-.5-3.489.293-4.815,1.929a5.865,5.865,0,0,0-.373,6.968,10.366,10.366,0,0,0,8.295,5.225c2.693.114,6.59-.9,11.11-5.587a14.88,14.88,0,1,0-7.376,12.448" transform="translate(4.294 29.974)" fill="#ea6600"/>
        <path id="パス_1923" data-name="パス 1923" d="M19.141,47.553a10.369,10.369,0,0,1-8.3-5.225,5.871,5.871,0,0,1,.375-6.971c1.326-1.634,3.306-2.428,4.813-1.927a4.507,4.507,0,0,1,3.261,3.043c.328,1.487-.475,3.233-2.263,4.917a1.114,1.114,0,0,0,1.528,1.621c2.381-2.243,3.414-4.736,2.909-7.019a6.657,6.657,0,0,0-4.734-4.677,6.118,6.118,0,0,0-4.987.688A8.337,8.337,0,0,0,9.49,33.957a8.1,8.1,0,0,0-.568,9.494,12.623,12.623,0,0,0,10.126,6.327c2.717.114,6.447-.7,10.672-4.265a14.991,14.991,0,0,0,.532-3.546c-4.522,4.691-8.417,5.7-11.11,5.587" transform="translate(7.94 32.202)" fill="#e3ca80"/>
        <path id="パス_1924" data-name="パス 1924" d="M46.741,73.744a14.834,14.834,0,0,0,6.846-8.9c-4.227,3.571-7.956,4.379-10.672,4.267a12.625,12.625,0,0,1-10.128-6.329,8.1,8.1,0,0,1,.568-9.494,8.337,8.337,0,0,1,2.257-1.951,6.126,6.126,0,0,1,4.986-.686,6.644,6.644,0,0,1,4.734,4.675c.505,2.283-.528,4.777-2.909,7.019A1.113,1.113,0,1,1,40.9,60.724c1.788-1.685,2.591-3.432,2.263-4.917A4.506,4.506,0,0,0,39.9,52.761c-1.509-.5-3.489.293-4.815,1.929a5.865,5.865,0,0,0-.373,6.968,10.366,10.366,0,0,0,8.295,5.225c2.693.114,6.59-.9,11.11-5.587a14.88,14.88,0,1,0-7.376,12.448" transform="translate(25.261 47.708)" fill="#ea6600"/>
        <path id="パス_1925" data-name="パス 1925" d="M39.362,64.655a10.369,10.369,0,0,1-8.3-5.225,5.871,5.871,0,0,1,.375-6.971c1.326-1.634,3.3-2.428,4.813-1.927a4.507,4.507,0,0,1,3.261,3.043c.328,1.487-.475,3.233-2.263,4.917a1.114,1.114,0,0,0,1.528,1.621c2.381-2.243,3.414-4.736,2.909-7.019a6.657,6.657,0,0,0-4.734-4.677,6.118,6.118,0,0,0-4.987.689,8.337,8.337,0,0,0-2.257,1.951,8.1,8.1,0,0,0-.568,9.494A12.623,12.623,0,0,0,39.268,66.88c2.717.114,6.447-.7,10.672-4.265a14.992,14.992,0,0,0,.532-3.546c-4.522,4.691-8.417,5.7-11.11,5.587" transform="translate(28.909 49.936)" fill="#e3ca80"/>
        <path id="パス_1926" data-name="パス 1926" d="M52.093,50.126h.014c.34.01.609.389.6.849A92.238,92.238,0,0,1,51.561,63.22q-.88,1.442-1.717,2.675a98.228,98.228,0,0,0,1.634-14.955c.006-.452.281-.813.615-.813" transform="translate(51.687 51.979)" fill="#ea6600"/>
        <path id="パス_1927" data-name="パス 1927" d="M50.568,50.126h.014c.34.01.609.389.6.849A114.346,114.346,0,0,1,48.488,71.6c-.591.629-1.143,1.167-1.652,1.628,1.116-4.911,2.986-14.267,3.117-22.287.006-.452.281-.813.615-.813" transform="translate(48.568 51.979)" fill="#ea6600"/>
        <path id="パス_1928" data-name="パス 1928" d="M35.406,49.129l19.341.88,19.339-.88a112.375,112.375,0,0,1-7.553,15.125,92.585,92.585,0,0,0,1.149-12.244c.006-.458-.263-.839-.6-.849h-.014c-.334,0-.607.361-.615.813A98.284,98.284,0,0,1,64.816,66.93a45.687,45.687,0,0,1-4.475,5.7,114.516,114.516,0,0,0,2.7-20.622c.006-.458-.263-.839-.6-.849H62.42c-.334,0-.607.361-.615.813-.13,8.02-2,17.375-3.117,22.289a11.328,11.328,0,0,1-3.942,2.626A11.322,11.322,0,0,1,50.8,74.261c-1.116-4.913-2.986-14.269-3.117-22.289-.006-.452-.281-.813-.615-.813h-.014c-.34.01-.609.391-.6.849a114.348,114.348,0,0,0,2.695,20.622,45.688,45.688,0,0,1-4.475-5.7,98.283,98.283,0,0,1-1.634-14.957c-.006-.452-.281-.813-.615-.813h-.014c-.34.01-.609.391-.6.849a92.244,92.244,0,0,0,1.147,12.244,112.378,112.378,0,0,1-7.553-15.125" transform="translate(36.715 50.945)" fill="#e3ca80"/>
        <path id="パス_1929" data-name="パス 1929" d="M39.166,50.126h-.014c-.34.01-.609.389-.6.849A92.241,92.241,0,0,0,39.7,63.22q.88,1.442,1.717,2.675a98.228,98.228,0,0,1-1.634-14.955c-.006-.452-.281-.813-.615-.813" transform="translate(39.976 51.979)" fill="#ea6600"/>
        <path id="パス_1930" data-name="パス 1930" d="M41.446,50.126h-.014c-.34.01-.609.389-.6.849A114.347,114.347,0,0,0,43.526,71.6c.591.629,1.143,1.167,1.652,1.628-1.116-4.911-2.986-14.267-3.117-22.287-.006-.452-.281-.813-.615-.813" transform="translate(42.34 51.979)" fill="#ea6600"/>
        <path id="パス_1931" data-name="パス 1931" d="M85.809,1.213c3.092,1.375,13.568,9.5,16.316,9.989,1.171.208,3.341.016,5.339.165-6.168,9.947-29.9,15-39.024,16.6C66.06,22.436,64,11.2,64,11.2,75.162.182,82.717-.162,85.809,1.213" transform="translate(66.363 0.667)" fill="#e8a835"/>
        <path id="パス_1932" data-name="パス 1932" d="M105.2,5.908c2.689.2,5.068,1.021,4.28,4.272-1.375,5.669-16.831,12.366-22.327,13.4s-16,3.532-19.064,1.807a6.312,6.312,0,0,1-1.911-2.874C75.3,20.9,99.034,15.855,105.2,5.908" transform="translate(68.625 6.126)" fill="#ea6600"/>
        <path id="パス_1933" data-name="パス 1933" d="M23.831,1.213c-3.092,1.375-13.568,9.5-16.316,9.989-1.171.208-3.341.016-5.339.165,6.168,9.947,29.9,15,39.024,16.6C43.579,22.436,45.643,11.2,45.643,11.2,34.478.182,26.923-.162,23.831,1.213" transform="translate(2.256 0.667)" fill="#e8a835"/>
        <path id="パス_1934" data-name="パス 1934" d="M4.433,5.908C1.744,6.11-.635,6.929.153,10.18c1.375,5.669,16.831,12.366,22.327,13.4s16,3.532,19.064,1.807a6.312,6.312,0,0,0,1.911-2.874C34.331,20.9,10.6,15.855,4.433,5.908" transform="translate(0 6.126)" fill="#ea6600"/>
        <path id="パス_1935" data-name="パス 1935" d="M38.466,8.205C55.412-.692,76.521.013,76.521.013s21.107-.7,38.053,8.193c10.943,5.746,35.676,38.258,19.92,66.729s-57.972,28.308-57.972,28.308-42.216.165-57.974-28.308,8.977-60.983,19.92-66.729" transform="translate(13.937 -0.001)" fill="#e8a835"/>
        <path id="パス_1936" data-name="パス 1936" d="M50.584,27.1A16.448,16.448,0,1,0,67.033,10.653,16.448,16.448,0,0,0,50.584,27.1" transform="translate(52.454 11.046)" fill="#fff"/>
        <path id="パス_1937" data-name="パス 1937" d="M58.441,27.09c-8.57-2.23-11.071-15.414-2.56-20.626C66.353.052,76.656,8.642,76.032,13.449c0,0,12.075,2.23,17-3.64,0,0-11.065,23.413-34.59,17.282" transform="translate(52.488 4.327)" fill="#ea6600"/>
        <path id="パス_1938" data-name="パス 1938" d="M64.355,22.568c9.57,0,19.109-7.349,19.543-7.69a1.242,1.242,0,0,0-1.528-1.96c-.108.086-10.847,8.348-20.117,7.017-4.811-.691-7.345-3.74-7.364-6.394-.016-2.607,2.243-4.522,6.044-5.119,3.009-.475,5.484.454,6.618,2.481a3.023,3.023,0,0,1-.024,3.4c-.917,1.078-2.892,1.163-5.42.236a1.242,1.242,0,1,0-.856,2.332c1.685.619,5.852,1.762,8.168-.955a5.432,5.432,0,0,0,.3-6.223c-1.96-3.5-6.023-4.217-9.172-3.724-6.036.949-8.164,4.544-8.144,7.592.033,4.913,4.8,8.164,9.494,8.838a17.409,17.409,0,0,0,2.457.171" transform="translate(54.341 6.043)" fill="#e3ca80"/>
        <path id="パス_1939" data-name="パス 1939" d="M54.5,23.7a8.235,8.235,0,1,0,8.235-8.235A8.237,8.237,0,0,0,54.5,23.7" transform="translate(56.519 16.041)" fill="#502211"/>
        <path id="パス_1940" data-name="パス 1940" d="M54.69,27.1A16.448,16.448,0,1,1,38.242,10.653,16.448,16.448,0,0,1,54.69,27.1" transform="translate(22.601 11.046)" fill="#fff"/>
        <path id="パス_1941" data-name="パス 1941" d="M42.41,23.7a8.235,8.235,0,1,1-8.235-8.235A8.237,8.237,0,0,1,42.41,23.7" transform="translate(26.898 16.041)" fill="#502211"/>
        <path id="パス_1942" data-name="パス 1942" d="M31.175,33.648c5.048-4.489,12.5-1.344,12.5-1.344a11.537,11.537,0,0,1,5.549-9.382,19.962,19.962,0,0,1,10.941-2.687A19.962,19.962,0,0,1,71.1,22.922,11.537,11.537,0,0,1,76.652,32.3s7.451-3.145,12.5,1.344,0,10.755,0,10.755H81.166V43.053a5.575,5.575,0,0,0-11.15,0V44.4H50.31V43.053a5.575,5.575,0,0,0-11.15,0V44.4H31.175s-5.048-6.266,0-10.755" transform="translate(30.001 20.948)" fill="#d9804c"/>
        <path id="パス_1943" data-name="パス 1943" d="M54.677,28.682a5.593,5.593,0,0,1,5.575,5.575V35.61H49.1V34.257a5.593,5.593,0,0,1,5.575-5.575" transform="translate(50.917 29.742)" fill="#502211"/>
        <path id="パス_1944" data-name="パス 1944" d="M39.528,28.682A5.593,5.593,0,0,1,45.1,34.257V35.61H33.953V34.257a5.593,5.593,0,0,1,5.575-5.575" transform="translate(35.208 29.742)" fill="#502211"/>
        <path id="パス_1945" data-name="パス 1945" d="M51.68,27.09c8.57-2.23,11.071-15.414,2.56-20.626C43.768.052,33.465,8.642,34.089,13.449c0,0-12.075,2.23-17-3.64,0,0,11.065,23.413,34.59,17.282" transform="translate(17.722 4.327)" fill="#ea6600"/>
        <path id="パス_1946" data-name="パス 1946" d="M40.45,22.568c-9.57,0-19.109-7.349-19.543-7.69a1.242,1.242,0,0,1,1.528-1.96c.108.086,10.847,8.348,20.117,7.017,4.811-.691,7.345-3.74,7.364-6.394.016-2.607-2.243-4.522-6.044-5.119-3.009-.475-5.484.454-6.618,2.481a3.023,3.023,0,0,0,.024,3.4c.917,1.078,2.893,1.163,5.42.236a1.242,1.242,0,1,1,.856,2.332c-1.685.619-5.852,1.762-8.168-.955a5.432,5.432,0,0,1-.3-6.223c1.96-3.5,6.023-4.217,9.172-3.724,6.036.949,8.164,4.544,8.144,7.592-.033,4.913-4.8,8.164-9.494,8.838a17.409,17.409,0,0,1-2.457.171" transform="translate(21.185 6.043)" fill="#e3ca80"/>
        <path id="パス_1947" data-name="パス 1947" d="M52.053,99.174C42.626,100.932,34.1,89.16,40.041,80.132c7.313-11.11,21.37-7.433,22.973-2.434,0,0,12.863-3.373,14.984-11.4,0,0-.061,28.045-25.945,32.873" transform="translate(39.48 68.752)" fill="#ea6600"/>
        <path id="パス_1948" data-name="パス 1948" d="M56.467,88.744c9.382-4.408,15.347-16,15.615-16.536a1.346,1.346,0,0,0-2.4-1.218c-.067.132-6.789,13.177-16.489,16.143-5.033,1.54-8.922-.283-10.162-2.876-1.218-2.55.116-5.465,3.567-7.8,2.732-1.85,5.585-2.078,7.633-.613a3.277,3.277,0,0,1,1.538,3.339c-.4,1.479-2.3,2.473-5.2,2.727a1.346,1.346,0,0,0,.236,2.681c1.935-.169,6.547-.97,7.565-4.7A5.876,5.876,0,0,0,55.8,73.65c-3.532-2.528-7.846-1.361-10.706.574-5.477,3.709-5.909,8.213-4.485,11.193,2.3,4.8,8.468,5.791,13.379,4.29a18.94,18.94,0,0,0,2.485-.963" transform="translate(41.385 72.85)" fill="#e3ca80"/>
        <path id="パス_1949" data-name="パス 1949" d="M95.137,108.7C85.71,110.46,77.183,98.688,83.125,89.66c7.313-11.11,21.37-7.433,22.973-2.434,0,0,12.863-3.375,14.984-11.4,0,0-.061,28.045-25.945,32.873" transform="translate(84.157 78.632)" fill="#ea6600"/>
        <path id="パス_1950" data-name="パス 1950" d="M99.551,98.272c9.382-4.408,15.347-16,15.615-16.536a1.346,1.346,0,0,0-2.4-1.218c-.067.132-6.789,13.177-16.489,16.143-5.033,1.54-8.922-.283-10.162-2.876-1.218-2.55.116-5.465,3.567-7.8,2.732-1.85,5.585-2.078,7.633-.613a3.278,3.278,0,0,1,1.538,3.341c-.4,1.477-2.3,2.471-5.2,2.725a1.347,1.347,0,0,0,.236,2.683c1.935-.171,6.547-.972,7.565-4.7a5.876,5.876,0,0,0-2.571-6.239c-3.532-2.528-7.846-1.361-10.706.574-5.477,3.709-5.909,8.213-4.485,11.193,2.3,4.8,8.468,5.791,13.379,4.29a18.936,18.936,0,0,0,2.485-.963" transform="translate(86.061 82.731)" fill="#e3ca80"/>
        <path id="パス_1951" data-name="パス 1951" d="M73.048,105.882a1.242,1.242,0,0,1-1.112-.684c-.145-.287-14.1-28.754,10.488-41.9A1.243,1.243,0,1,1,83.6,65.493C74.188,70.52,69.727,78.5,70.341,89.217a42.566,42.566,0,0,0,3.815,14.864,1.244,1.244,0,0,1-1.108,1.8" transform="translate(70.369 65.488)" fill="#502211"/>
        <path id="パス_1952" data-name="パス 1952" d="M125.777,32.822h0c-9.311-7.225-16.212-4.54-24.2-1.434C94.949,33.962,86.706,37.169,73,37.169S51.044,33.962,44.42,31.388c-7.991-3.108-14.89-5.791-24.2,1.434-3.638,2.823-4.624,7.657-2.705,13.261C21.445,57.563,39.984,75.775,73,75.777s51.552-18.215,55.483-29.695c1.919-5.6.933-10.437-2.705-13.261" transform="translate(17.166 29.259)" fill="#fff58d"/>
        <path id="パス_1953" data-name="パス 1953" d="M121.126,33.986C107.213,23.192,102.1,39.2,70.886,39.2s-36.327-16.011-50.24-5.217c-8.618,6.687,10.2,35.539,50.238,35.541h0c40.039,0,58.856-28.854,50.238-35.541" transform="translate(19.278 31.365)" fill="#7e000d"/>
        <path id="パス_1954" data-name="パス 1954" d="M113.946,32.611a2.522,2.522,0,0,0-2.434-1.029c-1.552.084-12.933,1.573-19.5,4.365s-23.091,3.83-23.091,3.83S52.4,38.74,45.83,35.947s-17.954-4.5-19.5-4.365a4.471,4.471,0,0,0-2.434,1.029c-5.5,10.018-4.862,10.442-.591,12.8s12.725-5.526,12.725-5.526S38.152,47.307,41.067,48s7.559-4.815,7.559-4.815,1.911,7.482,6.948,7.869,6.846-5.642,6.846-5.642,2.491,6.936,6.5,6.936,6.5-6.936,6.5-6.936,1.811,6.031,6.846,5.642,6.948-7.869,6.948-7.869,4.644,5.5,7.559,4.815,5.037-8.115,5.037-8.115,8.455,7.883,12.727,5.526,4.907-2.78-.591-12.8" transform="translate(20.671 32.741)" fill="#fff"/>
        <path id="パス_1955" data-name="パス 1955" d="M77.281,47.034c-2.34-2.143-6.412-3.481-21.506-3.514v0H55.2v0c-15.094.033-19.168,1.371-21.506,3.514s2.84,7.791,21.506,7.908v0l.287,0,.289,0v0c18.667-.116,23.851-5.759,21.506-7.908" transform="translate(34.391 45.127)" fill="#d2002f"/>
      </g>
    </g>
    <g id="グループ_529" data-name="グループ 529" transform="translate(456.783 5168)">
      <g id="グループ_528" data-name="グループ 528" transform="translate(0 0)" clip-path="url(#clip-path-2)">
        <path id="パス_1956" data-name="パス 1956" d="M6.6,106.081c7.9,14.944,33.486,13.825,39.445-4.265C53.381,79.553,32.912,64.168,24.254,67.43c0,0-9.428-21.459-.672-33.173,0,0-38.659,30.8-16.982,71.824" transform="translate(0 35.681)" fill="#ea6600"/>
        <path id="パス_1957" data-name="パス 1957" d="M4.668,82.713C.481,64.93,9.964,44,10.405,43.041a2.372,2.372,0,0,1,4.31,1.982c-.11.237-10.763,23.8-4.238,40.446,3.387,8.634,10.161,12.011,15.1,10.882,4.853-1.109,7.421-6.143,6.868-13.468-.437-5.8-3.244-9.987-7.507-11.21-2.556-.733-5.088-.118-6.3,1.531-1.6,2.174-.894,5.884,1.933,10.175a2.371,2.371,0,0,1-3.961,2.609c-1.884-2.858-5.831-10.1-1.8-15.593,2.419-3.291,6.9-4.579,11.429-3.283,7.362,2.111,10.471,9.348,10.931,15.414.876,11.627-4.871,17.155-10.543,18.45C17.493,103.061,9.366,95.625,6.061,87.2a33.056,33.056,0,0,1-1.392-4.487" transform="translate(3.753 43.393)" fill="#e3ca80"/>
        <path id="パス_1958" data-name="パス 1958" d="M102.761,40.323C71.948,70.881,50.467,73.69,31.776,97.364S21.67,161.7,21.67,161.7l84.4-1.009c8.25-.1,10.933-14.889-5.674-14.691l-15.146.182s40.094-6.515,45.88-9.393c0,0,10.6,23.476,19.385,23.37l27.524-.329c6.98-.082,8.836-12.366-1.937-12.237s-20.024-14.5-20.024-14.5,20.393-66.243,9.009-95.153-62.323,2.387-62.323,2.387" transform="matrix(1, 0.017, -0.017, 1, 22.171, 24.985)" fill="#e8a835"/>
        <path id="パス_1959" data-name="パス 1959" d="M52.034,13.411a16.464,16.464,0,0,0-11.488,4.845c6.037-1.131,10.083.131,12.643,1.727A14.012,14.012,0,0,1,59.5,31.642,9,9,0,0,1,53.751,40.5a9.286,9.286,0,0,1-3.25.647,6.807,6.807,0,0,1-5.192-2.068c-1.988-2.2-2.721-4.794-2.009-7.111.764-2.481,3.128-4.322,6.656-5.184a1.236,1.236,0,1,1,.586,2.4c-2.648.647-4.381,1.895-4.877,3.509a5,5,0,0,0,1.48,4.726c1.182,1.309,3.528,1.629,5.7.776a6.518,6.518,0,0,0,4.181-6.525,11.521,11.521,0,0,0-5.149-9.591c-2.54-1.584-6.854-2.746-13.791-.692a16.521,16.521,0,1,0,13.944-7.978" transform="translate(37.195 13.966)" fill="#e3ca80"/>
        <path id="パス_1960" data-name="パス 1960" d="M50.666,19.83a11.513,11.513,0,0,1,5.149,9.591,6.516,6.516,0,0,1-4.181,6.525c-2.176.853-4.522.535-5.7-.776a5,5,0,0,1-1.48-4.724c.5-1.617,2.229-2.862,4.879-3.509a1.237,1.237,0,0,0-.588-2.4c-3.528.862-5.892,2.7-6.656,5.186-.713,2.315.02,4.906,2.009,7.109A6.8,6.8,0,0,0,49.286,38.9a9.24,9.24,0,0,0,3.25-.647,9,9,0,0,0,5.751-8.858,14.008,14.008,0,0,0-6.313-11.657c-2.56-1.6-6.607-2.86-12.643-1.727a16.606,16.606,0,0,0-2.456,3.132c6.937-2.052,11.253-.892,13.791.692" transform="translate(38.408 16.218)" fill="#ea6600"/>
        <path id="パス_1961" data-name="パス 1961" d="M61.618,39.632a16.473,16.473,0,0,0-11.49,4.845c6.037-1.131,10.083.131,12.643,1.727a14.007,14.007,0,0,1,6.31,11.659,8.994,8.994,0,0,1-5.747,8.858,9.305,9.305,0,0,1-3.252.647A6.813,6.813,0,0,1,54.891,65.3c-1.986-2.2-2.721-4.794-2.007-7.111.761-2.48,3.126-4.322,6.656-5.184a1.235,1.235,0,1,1,.584,2.4c-2.648.647-4.381,1.895-4.877,3.509a4.994,4.994,0,0,0,1.482,4.726c1.18,1.309,3.526,1.627,5.7.776a6.52,6.52,0,0,0,4.181-6.525A11.531,11.531,0,0,0,61.465,48.3c-2.54-1.584-6.856-2.746-13.793-.692a16.523,16.523,0,1,0,13.946-7.978" transform="translate(47.175 41.277)" fill="#e3ca80"/>
        <path id="パス_1962" data-name="パス 1962" d="M60.249,46.051A11.513,11.513,0,0,1,65.4,55.642a6.516,6.516,0,0,1-4.181,6.525c-2.176.853-4.522.535-5.7-.776a5,5,0,0,1-1.48-4.726c.5-1.615,2.229-2.86,4.879-3.507a1.237,1.237,0,0,0-.588-2.4c-3.528.862-5.892,2.7-6.656,5.186-.713,2.315.02,4.908,2.009,7.109a6.8,6.8,0,0,0,5.192,2.068,9.24,9.24,0,0,0,3.25-.647,9,9,0,0,0,5.751-8.856,14.012,14.012,0,0,0-6.313-11.659c-2.56-1.6-6.607-2.86-12.643-1.727a16.606,16.606,0,0,0-2.456,3.132c6.937-2.052,11.253-.892,13.791.692" transform="translate(48.389 43.529)" fill="#ea6600"/>
        <path id="パス_1963" data-name="パス 1963" d="M59.145,56.594a14.755,14.755,0,0,0,6.7-8.936c-4.163,3.6-7.862,4.451-10.565,4.371a12.561,12.561,0,0,1-10.151-6.176,8.061,8.061,0,0,1,.453-9.45,8.27,8.27,0,0,1,2.223-1.968,6.08,6.08,0,0,1,4.951-.743,6.616,6.616,0,0,1,4.765,4.6c.531,2.264-.468,4.757-2.811,7.017a1.107,1.107,0,1,1-1.537-1.594c1.758-1.7,2.536-3.444,2.191-4.918A4.478,4.478,0,0,0,52.09,35.8c-1.507-.48-3.467.333-4.765,1.974a5.836,5.836,0,0,0-.29,6.937,10.318,10.318,0,0,0,8.315,5.1c2.679.08,6.543-.97,10.986-5.69a14.8,14.8,0,1,0-7.19,12.47" transform="translate(38.254 30.299)" fill="#ea6600"/>
        <path id="パス_1964" data-name="パス 1964" d="M51.73,47.59a10.318,10.318,0,0,1-8.315-5.1,5.836,5.836,0,0,1,.29-6.937c1.3-1.643,3.258-2.454,4.765-1.974a4.478,4.478,0,0,1,3.279,2.989c.347,1.474-.433,3.222-2.191,4.918a1.107,1.107,0,0,0,1.537,1.594c2.344-2.26,3.342-4.753,2.811-7.017a6.613,6.613,0,0,0-4.765-4.6,6.081,6.081,0,0,0-4.951.743,8.3,8.3,0,0,0-2.223,1.966,8.064,8.064,0,0,0-.453,9.452A12.561,12.561,0,0,0,51.664,49.8c2.7.08,6.4-.77,10.565-4.373a14.908,14.908,0,0,0,.486-3.532c-4.442,4.72-8.307,5.769-10.986,5.69" transform="translate(41.874 32.523)" fill="#e3ca80"/>
        <path id="パス_1965" data-name="パス 1965" d="M79.418,73.329a14.755,14.755,0,0,0,6.7-8.936c-4.163,3.6-7.862,4.451-10.565,4.371a12.561,12.561,0,0,1-10.151-6.176,8.061,8.061,0,0,1,.453-9.45,8.27,8.27,0,0,1,2.223-1.968,6.08,6.08,0,0,1,4.951-.743,6.616,6.616,0,0,1,4.765,4.6c.531,2.264-.468,4.757-2.811,7.017a1.107,1.107,0,0,1-1.537-1.594c1.758-1.7,2.538-3.444,2.191-4.918a4.478,4.478,0,0,0-3.279-2.989c-1.507-.48-3.467.333-4.765,1.974a5.836,5.836,0,0,0-.29,6.937,10.318,10.318,0,0,0,8.315,5.1c2.679.08,6.543-.97,10.986-5.69a14.8,14.8,0,1,0-7.19,12.47" transform="translate(59.37 47.729)" fill="#ea6600"/>
        <path id="パス_1966" data-name="パス 1966" d="M72,64.325a10.318,10.318,0,0,1-8.315-5.1,5.836,5.836,0,0,1,.29-6.937c1.3-1.643,3.258-2.454,4.765-1.974A4.478,4.478,0,0,1,72.021,53.3c.347,1.474-.433,3.222-2.191,4.918a1.107,1.107,0,1,0,1.537,1.594c2.344-2.26,3.342-4.753,2.811-7.017a6.613,6.613,0,0,0-4.765-4.6,6.08,6.08,0,0,0-4.951.743,8.3,8.3,0,0,0-2.223,1.966,8.064,8.064,0,0,0-.453,9.452A12.561,12.561,0,0,0,71.937,66.54c2.7.08,6.4-.77,10.565-4.373a14.907,14.907,0,0,0,.486-3.532C78.546,63.355,74.681,64.4,72,64.325" transform="translate(62.99 49.954)" fill="#e3ca80"/>
        <path id="パス_1967" data-name="パス 1967" d="M117.464,12.629a16.47,16.47,0,0,1,11.6,4.569c-6.063-.986-10.075.372-12.6,2.029a14.013,14.013,0,0,0-6.031,11.806,9,9,0,0,0,5.961,8.717,9.256,9.256,0,0,0,3.262.57,6.8,6.8,0,0,0,5.143-2.193c1.935-2.248,2.605-4.855,1.837-7.154-.823-2.464-3.23-4.248-6.778-5.024a1.236,1.236,0,1,0-.529,2.415c2.664.582,4.426,1.786,4.961,3.391a5,5,0,0,1-1.366,4.759c-1.151,1.337-3.489,1.713-5.686.913A6.512,6.512,0,0,1,112.907,31a11.515,11.515,0,0,1,4.918-9.712c2.5-1.643,6.784-2.907,13.768-1.021a16.52,16.52,0,1,1-14.13-7.644" transform="translate(105.345 13.152)" fill="#e3ca80"/>
        <path id="パス_1968" data-name="パス 1968" d="M113.084,19.131a11.515,11.515,0,0,0-4.918,9.712,6.515,6.515,0,0,0,4.334,6.423c2.2.8,4.534.427,5.686-.913a5,5,0,0,0,1.366-4.759c-.535-1.6-2.3-2.807-4.961-3.391a1.236,1.236,0,1,1,.529-2.415c3.55.778,5.955,2.562,6.778,5.024.768,2.3.1,4.906-1.837,7.156a6.8,6.8,0,0,1-5.141,2.191,9.213,9.213,0,0,1-3.264-.57,8.995,8.995,0,0,1-5.961-8.717,14.013,14.013,0,0,1,6.033-11.806c2.521-1.658,6.535-3.015,12.6-2.027a16.574,16.574,0,0,1,2.532,3.073c-6.984-1.886-11.272-.623-13.77,1.021" transform="translate(110.086 15.314)" fill="#ea6600"/>
        <path id="パス_1969" data-name="パス 1969" d="M108.511,39.072a16.47,16.47,0,0,1,11.6,4.569c-6.063-.986-10.077.372-12.6,2.029a14.008,14.008,0,0,0-6.031,11.806,9,9,0,0,0,5.961,8.717,9.256,9.256,0,0,0,3.262.57,6.8,6.8,0,0,0,5.143-2.193c1.935-2.248,2.605-4.855,1.837-7.154-.823-2.464-3.23-4.248-6.778-5.024a1.236,1.236,0,1,0-.529,2.415c2.664.582,4.426,1.786,4.961,3.391a5,5,0,0,1-1.366,4.759c-1.151,1.337-3.489,1.713-5.686.913a6.512,6.512,0,0,1-4.334-6.423,11.515,11.515,0,0,1,4.918-9.712c2.5-1.643,6.784-2.907,13.768-1.021a16.52,16.52,0,1,1-14.13-7.644" transform="translate(96.019 40.694)" fill="#e3ca80"/>
        <path id="パス_1970" data-name="パス 1970" d="M104.13,45.572a11.515,11.515,0,0,0-4.918,9.712,6.524,6.524,0,0,0,4.336,6.427c2.195.8,4.532.425,5.684-.915a5.006,5.006,0,0,0,1.368-4.761c-.537-1.6-2.3-2.807-4.963-3.391a1.235,1.235,0,1,1,.531-2.413c3.548.778,5.955,2.562,6.776,5.022.768,2.3.1,4.906-1.837,7.158a6.793,6.793,0,0,1-5.141,2.189,9.213,9.213,0,0,1-3.264-.57,8.991,8.991,0,0,1-5.961-8.717,14.007,14.007,0,0,1,6.033-11.8c2.521-1.658,6.535-3.015,12.6-2.027a16.561,16.561,0,0,1,2.532,3.071c-6.984-1.886-11.271-.621-13.77,1.021" transform="translate(100.76 42.856)" fill="#ea6600"/>
        <path id="パス_1971" data-name="パス 1971" d="M109.656,55.99a14.747,14.747,0,0,1-6.915-8.775c4.246,3.5,7.966,4.263,10.665,4.118a12.553,12.553,0,0,0,10-6.415,8.065,8.065,0,0,0-.678-9.438,8.286,8.286,0,0,0-2.27-1.915,6.087,6.087,0,0,0-4.967-.625,6.624,6.624,0,0,0-4.655,4.708c-.476,2.278.582,4.747,2.979,6.949a1.108,1.108,0,1,0,1.5-1.631c-1.8-1.654-2.617-3.381-2.307-4.865a4.478,4.478,0,0,1,3.205-3.066c1.5-.514,3.475.249,4.812,1.86a5.839,5.839,0,0,1,.455,6.929,10.32,10.32,0,0,1-8.191,5.3c-2.676.143-6.564-.815-11.118-5.426a14.8,14.8,0,1,1,7.486,12.294" transform="translate(106.405 29.484)" fill="#ea6600"/>
        <path id="パス_1972" data-name="パス 1972" d="M113.282,46.9a10.318,10.318,0,0,0,8.191-5.3,5.838,5.838,0,0,0-.455-6.929c-1.337-1.611-3.318-2.376-4.812-1.862A4.488,4.488,0,0,0,113,35.883c-.308,1.482.51,3.209,2.309,4.863a1.108,1.108,0,0,1-1.5,1.631c-2.4-2.2-3.454-4.671-2.979-6.947a6.615,6.615,0,0,1,4.653-4.708,6.09,6.09,0,0,1,4.969.623,8.316,8.316,0,0,1,2.27,1.915A8.065,8.065,0,0,1,123.4,42.7a12.553,12.553,0,0,1-10,6.415c-2.7.147-6.421-.615-10.667-4.116a14.977,14.977,0,0,1-.57-3.522c4.555,4.614,8.442,5.569,11.118,5.426" transform="translate(106.411 31.705)" fill="#e3ca80"/>
        <path id="パス_1973" data-name="パス 1973" d="M89.789,73.205a14.747,14.747,0,0,1-6.915-8.775c4.246,3.5,7.966,4.263,10.665,4.118a12.553,12.553,0,0,0,10-6.415,8.061,8.061,0,0,0-.678-9.438,8.285,8.285,0,0,0-2.27-1.915,6.087,6.087,0,0,0-4.967-.625,6.624,6.624,0,0,0-4.655,4.708c-.474,2.278.584,4.745,2.979,6.949a1.108,1.108,0,1,0,1.5-1.631c-1.8-1.654-2.619-3.381-2.309-4.865a4.478,4.478,0,0,1,3.205-3.066c1.5-.514,3.475.249,4.812,1.86a5.839,5.839,0,0,1,.455,6.929,10.32,10.32,0,0,1-8.191,5.3c-2.676.143-6.564-.815-11.118-5.426a14.8,14.8,0,1,1,7.486,12.294" transform="translate(85.712 47.414)" fill="#ea6600"/>
        <path id="パス_1974" data-name="パス 1974" d="M93.415,64.115a10.318,10.318,0,0,0,8.191-5.3,5.838,5.838,0,0,0-.455-6.929c-1.337-1.611-3.318-2.376-4.812-1.862A4.488,4.488,0,0,0,93.132,53.1c-.308,1.482.51,3.209,2.309,4.863a1.108,1.108,0,0,1-1.5,1.631c-2.4-2.2-3.454-4.671-2.979-6.947a6.615,6.615,0,0,1,4.653-4.708,6.09,6.09,0,0,1,4.969.623,8.315,8.315,0,0,1,2.27,1.915,8.065,8.065,0,0,1,.678,9.438,12.553,12.553,0,0,1-10,6.415c-2.7.147-6.419-.615-10.667-4.116a14.979,14.979,0,0,1-.57-3.522c4.555,4.614,8.442,5.569,11.118,5.426" transform="translate(85.718 49.634)" fill="#e3ca80"/>
        <path id="パス_1975" data-name="パス 1975" d="M70.675,49.84h-.014c-.337.014-.6.4-.588.851a91.918,91.918,0,0,0,1.286,12.168c.6.951,1.178,1.829,1.739,2.642A97.854,97.854,0,0,1,71.3,50.64c-.014-.449-.29-.8-.623-.8" transform="translate(72.986 51.911)" fill="#ea6600"/>
        <path id="パス_1976" data-name="パス 1976" d="M72.939,49.813h-.014c-.337.014-.6.4-.588.851a113.687,113.687,0,0,0,2.928,20.483c.594.619,1.149,1.149,1.662,1.6-1.168-4.873-3.14-14.16-3.365-22.135-.014-.449-.29-.8-.623-.8" transform="translate(75.343 51.883)" fill="#ea6600"/>
        <path id="パス_1977" data-name="パス 1977" d="M105.414,48.665l-19.23,1.107-19.25-.647A111.671,111.671,0,0,0,74.63,64.081a91.543,91.543,0,0,1-1.288-12.168c-.012-.455.251-.837.59-.851h.012c.333,0,.61.351.623.8a97.852,97.852,0,0,0,1.8,14.861,45.747,45.747,0,0,0,4.52,5.62,113.923,113.923,0,0,1-2.928-20.485c-.012-.455.251-.837.59-.851h.012c.333,0,.61.351.623.8.225,7.976,2.2,17.261,3.365,22.135a11.252,11.252,0,0,0,3.955,2.568,11.283,11.283,0,0,0,3.889-2.66c1.053-4.9,2.8-14.23,2.836-22.21,0-.449.272-.811.6-.815h.012c.339.006.612.38.61.837A114.089,114.089,0,0,1,92.02,72.208a45.6,45.6,0,0,0,4.385-5.727,98.039,98.039,0,0,0,1.445-14.9c0-.449.272-.811.6-.815h.014c.339.006.61.38.61.837a92.32,92.32,0,0,1-1,12.194,111.989,111.989,0,0,0,7.333-15.136" transform="translate(69.717 50.688)" fill="#e3ca80"/>
        <path id="パス_1978" data-name="パス 1978" d="M83.419,49.7h.014c.337.006.61.38.608.837a91.632,91.632,0,0,1-1,12.194c-.574.966-1.131,1.856-1.676,2.683a97.83,97.83,0,0,0,1.447-14.9c0-.449.269-.811.6-.815" transform="translate(84.751 51.761)" fill="#ea6600"/>
        <path id="パス_1979" data-name="パス 1979" d="M81.864,49.723h.014c.337.006.61.38.608.837a113.768,113.768,0,0,1-2.438,20.548c-.58.633-1.123,1.176-1.623,1.639,1.051-4.9,2.8-14.23,2.836-22.21,0-.449.269-.811.6-.815" transform="translate(81.686 51.789)" fill="#ea6600"/>
        <path id="パス_1980" data-name="パス 1980" d="M57.132,1.592C54.074,3,43.748,11.208,41.02,11.724c-1.164.22-3.324.055-5.308.227C41.963,21.773,65.633,26.515,74.728,28c2.3-5.531,4.22-16.731,4.22-16.731C67.714.44,60.19.187,57.132,1.592" transform="translate(37.196 1.029)" fill="#e8a835"/>
        <path id="パス_1981" data-name="パス 1981" d="M37.943,6.358c-2.672.233-5.028,1.076-4.206,4.3,1.433,5.62,16.89,12.1,22.369,13.062s15.957,3.324,18.987,1.57a6.274,6.274,0,0,0,1.866-2.881c-9.1-1.488-32.763-6.229-39.016-16.053" transform="translate(34.966 6.622)" fill="#ea6600"/>
        <path id="パス_1982" data-name="パス 1982" d="M118.651.821c3.091,1.331,13.611,9.293,16.349,9.744,1.168.192,3.324-.024,5.314.1-6.016,9.969-29.566,15.275-38.622,16.98-2.436-5.478-4.62-16.627-4.62-16.627C108.045-.078,115.56-.51,118.651.821" transform="translate(101.107 0.302)" fill="#e8a835"/>
        <path id="パス_1983" data-name="パス 1983" d="M137.957,5.372c2.679.167,5.053.955,4.308,4.2-1.3,5.653-16.6,12.5-22.051,13.591s-15.873,3.7-18.944,2.025a6.283,6.283,0,0,1-1.935-2.836c9.056-1.7,32.606-7.011,38.622-16.98" transform="translate(103.464 5.595)" fill="#ea6600"/>
        <path id="パス_1984" data-name="パス 1984" d="M145.9,7.728c-16.963-8.65-37.953-7.7-37.953-7.7S86.941-.42,70.19,8.632c-10.818,5.845-35.035,38.484-19.023,66.62s58.009,27.471,58.009,27.471,42-.339,57.335-28.849S156.855,13.313,145.9,7.728" transform="translate(47.753 -0.001)" fill="#e8a835"/>
        <path id="パス_1985" data-name="パス 1985" d="M87.052,26.92A16.363,16.363,0,1,1,70.495,10.753,16.363,16.363,0,0,1,87.052,26.92" transform="translate(56.585 11.198)" fill="#fff"/>
        <path id="パス_1986" data-name="パス 1986" d="M84.132,27.039c8.5-2.323,10.831-15.469,2.3-20.552C75.939.232,65.792,8.9,66.47,13.675c0,0-11.986,2.364-16.953-3.42,0,0,11.284,23.162,34.615,16.784" transform="translate(51.575 4.478)" fill="#ea6600"/>
        <path id="パス_1987" data-name="パス 1987" d="M72.886,22.624c-9.522.114-19.1-7.084-19.532-7.417a1.236,1.236,0,0,1,1.5-1.968c.108.084,10.89,8.176,20.1,6.743,4.777-.745,7.262-3.808,7.25-6.449-.014-2.595-2.285-4.473-6.074-5.022-3-.435-5.449.519-6.555,2.55a3.016,3.016,0,0,0,.065,3.377c.925,1.06,2.893,1.121,5.4.169a1.236,1.236,0,0,1,.878,2.311c-1.668.635-5.8,1.821-8.136-.853A5.4,5.4,0,0,1,67.4,9.876C69.3,6.371,73.337,5.61,76.477,6.065c6.014.872,8.174,4.422,8.191,7.456.024,4.885-4.679,8.179-9.34,8.9a17.2,17.2,0,0,1-2.442.2" transform="translate(55.064 6.192)" fill="#e3ca80"/>
        <path id="パス_1988" data-name="パス 1988" d="M74.835,23.626a8.193,8.193,0,1,1-8.291-8.095,8.194,8.194,0,0,1,8.291,8.095" transform="translate(60.878 16.176)" fill="#502211"/>
        <path id="パス_1989" data-name="パス 1989" d="M82.9,26.969A16.363,16.363,0,1,0,99.07,10.412,16.364,16.364,0,0,0,82.9,26.969" transform="translate(86.347 10.843)" fill="#fff"/>
        <path id="パス_1990" data-name="パス 1990" d="M86.8,23.483A8.193,8.193,0,1,0,94.9,15.192,8.194,8.194,0,0,0,86.8,23.483" transform="translate(90.41 15.823)" fill="#502211"/>
        <path id="パス_1991" data-name="パス 1991" d="M121.384,33.1c-5.073-4.408-12.449-1.19-12.449-1.19A11.477,11.477,0,0,0,103.3,22.64,19.846,19.846,0,0,0,92.388,20.1a19.855,19.855,0,0,0-10.851,2.8,11.477,11.477,0,0,0-5.41,9.4s-7.45-3.04-12.417,1.488.127,10.7.127,10.7l7.944-.1-.016-1.345a5.547,5.547,0,1,1,11.094-.131l.016,1.343,9.8-.116,9.8-.116-.016-1.345a5.546,5.546,0,1,1,11.092-.133l.016,1.345,7.944-.1s4.945-6.292-.129-10.7" transform="translate(64.092 20.886)" fill="#d9804c"/>
        <path id="パス_1992" data-name="パス 1992" d="M72.026,28.566a5.563,5.563,0,0,0-5.48,5.612l.016,1.345,11.092-.133-.016-1.345a5.563,5.563,0,0,0-5.612-5.48" transform="translate(69.312 29.753)" fill="#502211"/>
        <path id="パス_1993" data-name="パス 1993" d="M87.061,28.386A5.563,5.563,0,0,0,81.581,34l.016,1.345,11.092-.133-.016-1.345a5.563,5.563,0,0,0-5.612-5.48" transform="translate(84.972 29.565)" fill="#502211"/>
        <path id="パス_1994" data-name="パス 1994" d="M159.085,31.711a9.895,9.895,0,0,0-18.417,5.955c-.492.225-1.1.478-1.833.749-4.777,1.754-19.236,5.433-33.445,5.6s-28.749-3.162-33.565-4.8c-.745-.253-1.356-.492-1.852-.706A9.893,9.893,0,0,0,51.417,33,15.185,15.185,0,0,0,50.4,45.929c2.093,5.347,7.013,9.275,15.046,12.011,6.219,2.117,22.619,6.065,40.178,5.855s33.861-4.549,40.027-6.813c7.966-2.928,12.792-6.972,14.754-12.368a15.176,15.176,0,0,0-1.323-12.9" transform="translate(51.458 27.853)" fill="#fff58d"/>
        <path id="パス_1995" data-name="パス 1995" d="M56.024,36.211s-4.808,11.447.161,13.585S70.8,41.1,70.8,41.1Z" transform="translate(56.176 37.716)" fill="#fff"/>
        <path id="パス_1996" data-name="パス 1996" d="M58.823,50.6a4.47,4.47,0,0,1-2.591-.214c-5.284-2.272-.58-13.64-.378-14.122a.409.409,0,0,1,.51-.233l14.773,4.894a.413.413,0,0,1,.178.666c-.341.384-7.243,8.07-12.492,9.009m-2.35-13.664c-.741,1.909-3.989,10.941.086,12.692s11.815-6.1,13.713-8.121Z" transform="translate(55.966 37.505)" fill="#828282"/>
        <path id="パス_1997" data-name="パス 1997" d="M106.192,35.688s5.079,11.329.161,13.585-14.816-8.34-14.816-8.34Z" transform="translate(95.343 37.171)" fill="#fff"/>
        <path id="パス_1998" data-name="パス 1998" d="M105.833,50.138c-5.288.947-13.995-8.3-14.385-8.713a.407.407,0,0,1-.1-.378.414.414,0,0,1,.261-.292l14.652-5.245a.41.41,0,0,1,.514.218c.214.48,5.188,11.729-.041,14.13a3.8,3.8,0,0,1-.9.28M92.489,41.316c1.948,1.976,9.861,9.653,13.9,7.793s.57-10.8-.218-12.692Z" transform="translate(95.133 36.961)" fill="#828282"/>
        <path id="パス_1999" data-name="パス 1999" d="M147.738,31.607a1.648,1.648,0,1,0-2.858,1.641,3.71,3.71,0,0,1,.484,3.215c-.494,1.36-2.264,3.413-7.889,5.48-6.176,2.268-21.457,5.931-36.185,6.108s-30.1-3.122-36.322-5.241c-5.674-1.933-7.493-3.944-8.021-5.292a3.714,3.714,0,0,1,.41-3.226,1.648,1.648,0,0,0-2.9-1.572,6.892,6.892,0,0,0-.582,6c1.151,2.948,4.432,5.306,10.026,7.211,6.688,2.276,22.171,5.6,37.424,5.416s30.652-3.873,37.283-6.308c5.545-2.037,8.769-4.475,9.851-7.45a6.9,6.9,0,0,0-.725-5.982" transform="translate(55.659 32.059)" fill="#502211"/>
        <path id="パス_2000" data-name="パス 2000" d="M90.746,26.861c-8.55-2.119-11.2-15.206-2.793-20.491,10.341-6.5,20.693,1.919,20.13,6.709,0,0,12.039,2.076,16.867-3.824,0,0-10.728,23.425-34.2,17.606" transform="translate(86.274 4.163)" fill="#ea6600"/>
        <path id="パス_2001" data-name="パス 2001" d="M96.6,22.267c9.522-.112,18.921-7.54,19.35-7.88a1.236,1.236,0,0,0-1.543-1.931c-.106.084-10.692,8.432-19.93,7.219-4.794-.629-7.352-3.632-7.4-6.274-.047-2.595,2.176-4.524,5.951-5.165,2.989-.506,5.461.388,6.615,2.391A3.014,3.014,0,0,1,99.655,14c-.9,1.082-2.864,1.19-5.392.3a1.236,1.236,0,0,0-.823,2.331c1.684.594,5.843,1.682,8.115-1.047a5.4,5.4,0,0,0,.225-6.194c-1.991-3.458-6.041-4.124-9.169-3.6-5.992,1.017-8.066,4.618-8.011,7.65.092,4.885,4.875,8.064,9.55,8.679a17.208,17.208,0,0,0,2.446.141" transform="translate(88.116 5.87)" fill="#e3ca80"/>
        <path id="パス_2002" data-name="パス 2002" d="M90.086,98.368c9.4,1.637,17.741-10.175,11.723-19.085-7.407-10.965-21.347-7.141-22.882-2.15,0,0-12.837-3.2-15.042-11.159,0,0,.394,27.9,26.2,32.394" transform="translate(66.541 68.716)" fill="#ea6600"/>
        <path id="パス_2003" data-name="パス 2003" d="M81.706,88.09c-9.385-4.273-15.457-15.738-15.73-16.265a1.338,1.338,0,1,1,2.372-1.239c.069.129,6.911,13.027,16.594,15.863,5.026,1.47,8.873-.388,10.075-2.983,1.182-2.55-.178-5.437-3.64-7.719-2.74-1.809-5.58-2-7.6-.521a3.264,3.264,0,0,0-1.492,3.34c.421,1.466,2.319,2.432,5.212,2.652a1.339,1.339,0,0,1-.2,2.67c-1.927-.147-6.525-.888-7.582-4.585a5.852,5.852,0,0,1,2.483-6.237c3.485-2.556,7.791-1.445,10.659.445,5.494,3.626,5.976,8.1,4.594,11.08-2.225,4.8-8.352,5.863-13.256,4.428a18.72,18.72,0,0,1-2.485-.929" transform="translate(68.559 72.771)" fill="#e3ca80"/>
        <path id="パス_2004" data-name="パス 2004" d="M47.435,108.336c9.4,1.637,17.741-10.175,11.723-19.085C51.751,78.286,37.812,82.11,36.276,87.1c0,0-12.837-3.2-15.042-11.159,0,0,.394,27.9,26.2,32.394" transform="translate(22.117 79.098)" fill="#ea6600"/>
        <path id="パス_2005" data-name="パス 2005" d="M39.055,98.058C29.67,93.785,23.6,82.32,23.325,81.793A1.338,1.338,0,1,1,25.7,80.554c.069.129,6.911,13.027,16.594,15.863,5.026,1.47,8.873-.388,10.075-2.983,1.182-2.55-.178-5.437-3.64-7.719-2.74-1.809-5.58-2-7.6-.521a3.267,3.267,0,0,0-1.492,3.34c.421,1.466,2.319,2.432,5.212,2.652a1.339,1.339,0,0,1-.2,2.67c-1.927-.147-6.525-.888-7.582-4.585a5.852,5.852,0,0,1,2.483-6.237c3.485-2.556,7.791-1.445,10.659.445,5.494,3.626,5.976,8.1,4.594,11.08-2.225,4.8-8.352,5.863-13.256,4.428a18.72,18.72,0,0,1-2.485-.929" transform="translate(24.136 83.153)" fill="#e3ca80"/>
        <path id="パス_2006" data-name="パス 2006" d="M57.6,105.428a1.236,1.236,0,0,1-1.329-1.758,42.5,42.5,0,0,0,3.622-14.905c.457-10.63-4.075-18.493-13.472-23.374A1.235,1.235,0,0,1,47.56,63.2c24.621,12.782,11.073,41.268,10.933,41.556a1.236,1.236,0,0,1-.892.674" transform="translate(47.657 65.68)" fill="#502211"/>
      </g>
    </g>
  </g>
</svg>
