<svg xmlns="http://www.w3.org/2000/svg" width="22.507" height="22.507" viewBox="0 0 22.507 22.507">
  <path id="Icon_awesome-phone-alt" data-name="Icon awesome-phone-alt" d="M21.865,15.9l-4.924-2.11a1.055,1.055,0,0,0-1.231.3l-2.18,2.664A16.294,16.294,0,0,1,5.741,8.973l2.664-2.18a1.052,1.052,0,0,0,.3-1.231L6.6.638A1.062,1.062,0,0,0,5.39.027L.818,1.082A1.055,1.055,0,0,0,0,2.11a20.4,20.4,0,0,0,20.4,20.4,1.055,1.055,0,0,0,1.029-.818l1.055-4.572a1.068,1.068,0,0,0-.616-1.213Z" transform="translate(0 0)"/>
</svg>
