<svg xmlns="http://www.w3.org/2000/svg" width="27.159" height="27.159" viewBox="0 0 27.159 27.159">
  <path id="Icon_awesome-arrow-circle-right" data-name="Icon awesome-arrow-circle-right" d="M14.142.563A13.58,13.58,0,1,1,.563,14.142,13.577,13.577,0,0,1,14.142.563ZM12.56,8.426l4.134,3.964H6.7A1.311,1.311,0,0,0,5.381,13.7v.876A1.311,1.311,0,0,0,6.7,15.894h10L12.56,19.859a1.316,1.316,0,0,0-.022,1.878l.6.6a1.309,1.309,0,0,0,1.856,0l7.266-7.261a1.309,1.309,0,0,0,0-1.856L15,5.945a1.309,1.309,0,0,0-1.856,0l-.6.6a1.322,1.322,0,0,0,.022,1.884Z" transform="translate(27.722 -0.563) rotate(90)" fill="#ffcb00"/>
</svg>
